<svg width="163" height="97" viewBox="0 0 163 97" fill="none" xmlns="http://www.w3.org/2000/svg">
<g clip-path="url(#clip0_616_1087)">
<path d="M65.0006 50.5853C64.359 50.5818 63.7278 50.4249 63.1604 50.1279C62.5929 49.831 62.1061 49.4028 61.7411 48.8795C54.9788 39.3042 50.0546 28.5745 47.2153 17.2285C47.0894 16.7245 47.0648 16.2008 47.1429 15.6874C47.2211 15.1739 47.4004 14.6808 47.6708 14.2361C47.9411 13.7914 48.2971 13.4038 48.7184 13.0956C49.1398 12.7873 49.6182 12.5644 50.1265 12.4395C50.6347 12.3146 51.1628 12.2902 51.6805 12.3677C52.1982 12.4452 52.6955 12.6231 53.1439 12.8912C53.5923 13.1593 53.9831 13.5123 54.2939 13.9302C54.6048 14.348 54.8296 14.8225 54.9555 15.3265C57.5561 25.7469 62.0754 35.6012 68.2858 44.3933C68.7038 44.9833 68.9501 45.676 68.9978 46.3956C69.0455 47.1151 68.8928 47.8338 68.5563 48.473C68.2198 49.1123 67.7125 49.6474 67.0899 50.02C66.4674 50.3925 65.7535 50.5881 65.0264 50.5853H65.0006Z" fill="#1CA698"/>
<path d="M98.2232 50.5854C97.4961 50.5881 96.7822 50.3926 96.1596 50.02C95.537 49.6475 95.0298 49.1123 94.6933 48.4731C94.3568 47.8339 94.204 47.1152 94.2517 46.3956C94.2994 45.6761 94.5457 44.9834 94.9637 44.3933C101.171 35.6089 105.69 25.7636 108.294 15.3522C108.548 14.3343 109.2 13.4582 110.106 12.9168C110.554 12.6487 111.051 12.4709 111.569 12.3934C112.087 12.3158 112.615 12.3402 113.123 12.4651C113.631 12.59 114.11 12.8129 114.531 13.1212C114.952 13.4295 115.308 13.817 115.579 14.2617C115.849 14.7064 116.028 15.1996 116.107 15.713C116.185 16.2264 116.16 16.7501 116.034 17.2541C113.187 28.6019 108.254 39.3317 101.483 48.9052C101.115 49.4237 100.627 49.8469 100.059 50.1393C99.4922 50.4317 98.8625 50.5847 98.2232 50.5854Z" fill="#1CA698"/>
<path d="M95.4625 36.9987C94.5852 37.5758 93.5129 37.7841 92.4809 37.5778C91.4489 37.3715 90.5416 36.7675 89.9583 35.8984L81.5645 23.395L78.262 18.4652C77.8372 17.8376 77.6026 17.1024 77.5858 16.3467C77.569 15.591 77.7709 14.8463 78.1674 14.2007L78.262 14.0643L78.4082 13.851C78.513 13.7199 78.625 13.5946 78.7437 13.4758C78.7953 13.4246 78.8555 13.3734 78.9071 13.3137L79.1995 13.0834L79.3715 12.964L79.6209 12.8105L79.8015 12.7167L79.9133 12.6655C80.0947 12.5847 80.2815 12.5163 80.4723 12.4608L80.6873 12.4096H80.8593H81.0141C81.3453 12.367 81.6806 12.367 82.0117 12.4096H82.1665H82.3385L82.5879 12.4693L82.8632 12.5632L83.0954 12.657L83.2072 12.7082L83.3878 12.802L83.6372 12.9555L83.8436 13.1005L84.0414 13.2625L84.1876 13.3905L84.2994 13.5099L84.4284 13.6549C84.4874 13.7134 84.542 13.7761 84.5918 13.8425C84.6454 13.9102 84.6943 13.9814 84.738 14.0557L84.8326 14.1922L90.1131 22.0559V22.0985L96.4171 31.4804C96.7222 31.9041 96.9397 32.3835 97.0569 32.8909C97.1741 33.3984 97.1887 33.9238 97.0999 34.4369C97.0112 34.95 96.8208 35.4406 96.5397 35.8803C96.2587 36.32 95.8925 36.7001 95.4625 36.9987Z" fill="url(#paint0_linear_616_1087)"/>
<path d="M51.0681 8.35839C53.3955 8.35839 55.2822 6.4873 55.2822 4.1792C55.2822 1.87109 53.3955 0 51.0681 0C48.7407 0 46.854 1.87109 46.854 4.1792C46.854 6.4873 48.7407 8.35839 51.0681 8.35839Z" fill="#1CA698"/>
<path d="M81.5646 8.35839C83.892 8.35839 85.7787 6.4873 85.7787 4.1792C85.7787 1.87109 83.892 0 81.5646 0C79.2372 0 77.3505 1.87109 77.3505 4.1792C77.3505 6.4873 79.2372 8.35839 81.5646 8.35839Z" fill="#1CA698"/>
<path d="M112.156 8.35839C114.483 8.35839 116.37 6.4873 116.37 4.1792C116.37 1.87109 114.483 0 112.156 0C109.828 0 107.941 1.87109 107.941 4.1792C107.941 6.4873 109.828 8.35839 112.156 8.35839Z" fill="#1CA698"/>
<path d="M90.2422 22.0985C88.8575 20.1028 85.0046 18.5675 81.5645 23.3949C81.5645 23.3949 81.5645 23.4376 81.5129 23.4632L81.3581 23.702L73.1621 35.8984C72.8915 36.3649 72.5273 36.7714 72.0921 37.093C71.6569 37.4145 71.1599 37.6442 70.6317 37.768C70.1036 37.8917 69.5555 37.9068 69.0212 37.8124C68.4869 37.718 67.9778 37.516 67.5253 37.2189C67.0727 36.9219 66.6863 36.536 66.3899 36.0852C66.0935 35.6344 65.8934 35.1281 65.8019 34.5976C65.7104 34.0671 65.7294 33.5236 65.8578 33.0007C65.9863 32.4778 66.2213 31.9865 66.5486 31.5572L78.1589 14.2604L78.2535 14.124L78.3997 13.9107C78.5044 13.7796 78.6164 13.6543 78.7351 13.5355C78.7867 13.4843 78.8469 13.4331 78.8985 13.3734L79.1909 13.1431L79.3629 13.0237L79.6123 12.8702L79.7929 12.7764L79.9047 12.7252C80.0861 12.6444 80.2729 12.576 80.4637 12.5205L80.6787 12.4693H80.8507H81.0055C81.3367 12.4266 81.672 12.4266 82.0032 12.4693H82.158H82.33L82.5794 12.529L82.8546 12.6229L83.0868 12.7167L83.1986 12.7678L83.3792 12.8617L83.6286 13.0152L83.835 13.1602L84.0328 13.3222L84.179 13.4502L84.2908 13.5696L84.4198 13.7146C84.4788 13.7731 84.5334 13.8358 84.5832 13.9022C84.6368 13.9699 84.6857 14.0411 84.7294 14.1154L84.824 14.2519L90.2422 22.0985Z" fill="#1CA698"/>
<path d="M25.3879 97C25.1185 96.9996 24.8556 96.9177 24.6343 96.7654C24.413 96.613 24.2439 96.3973 24.1494 96.1471L17.3897 78.2362L10.5869 96.1471C10.4873 96.4042 10.3097 96.6243 10.0787 96.777C9.84761 96.9298 9.57444 97.0077 9.29685 97C9.02404 96.986 8.76239 96.8882 8.54818 96.7201C8.33397 96.5519 8.17783 96.3219 8.10142 96.0618L0.0516106 69.622C-0.0468962 69.2838 -0.00627081 68.9207 0.164591 68.6122C0.335453 68.3037 0.622628 68.0749 0.963234 67.9759C1.12578 67.9235 1.2973 67.9042 1.46755 67.919C1.63781 67.9338 1.80331 67.9824 1.9542 68.062C2.10509 68.1416 2.23827 68.2505 2.3458 68.3822C2.45333 68.514 2.53301 68.6658 2.58008 68.8288L9.51185 91.5329L16.1426 73.9718C16.2355 73.7188 16.4054 73.5008 16.6289 73.3479C16.8523 73.1951 17.1182 73.115 17.3897 73.1189C17.6582 73.1228 17.9195 73.206 18.1401 73.3579C18.3607 73.5098 18.5306 73.7236 18.6281 73.9718L25.2675 91.5329L32.1476 68.8288C32.1996 68.6641 32.2837 68.5113 32.3953 68.3789C32.5068 68.2465 32.6435 68.1371 32.7977 68.0572C32.9518 67.9772 33.1203 67.9281 33.2936 67.9127C33.4668 67.8973 33.6415 67.9158 33.8075 67.9674C33.9735 68.0189 34.1277 68.1023 34.2612 68.2129C34.3947 68.3235 34.5049 68.4591 34.5856 68.612C34.6662 68.7649 34.7157 68.932 34.7313 69.1038C34.7468 69.2756 34.7281 69.4488 34.6761 69.6135L26.6779 96.0533C26.5963 96.3201 26.4318 96.5545 26.2078 96.723C25.9839 96.8915 25.7119 96.9855 25.4309 96.9914L25.3879 97Z" fill="#136262"/>
<path d="M45.091 97C39.0708 97 34.5213 92.2323 34.5213 85.9123C34.4664 83.0511 35.4698 80.2689 37.3422 78.0913C38.289 77.0403 39.4524 76.2033 40.7536 75.6368C42.0549 75.0703 43.4636 74.7875 44.8846 74.8076C50.8187 74.8076 55.0844 79.4559 55.0844 85.8953C55.0822 86.2429 54.9419 86.5757 54.694 86.8216C54.4461 87.0674 54.1106 87.2065 53.76 87.2087H37.2132C37.798 91.3623 40.9887 94.3645 45.091 94.3645C46.4301 94.3918 47.7522 94.0628 48.9198 93.4119C50.0874 92.7609 51.0578 91.8117 51.7304 90.663C51.9242 90.3633 52.2302 90.1522 52.581 90.0762C52.9318 90.0002 53.2987 90.0656 53.6009 90.2578C53.9031 90.4501 54.1159 90.7536 54.1926 91.1015C54.2692 91.4494 54.2033 91.8132 54.0094 92.1129C53.0763 93.6232 51.764 94.8675 50.2008 95.7241C48.6375 96.5807 46.8769 97.0203 45.091 97ZM37.2132 84.5818H52.3496C51.8508 80.3173 48.9525 77.3834 44.8846 77.3834C40.8167 77.3834 37.755 80.3514 37.2132 84.5818Z" fill="#136262"/>
<path d="M68.1482 76.0699C68.1505 76.243 68.1178 76.4148 68.0521 76.5752C67.9863 76.7356 67.8889 76.8813 67.7654 77.0038C67.642 77.1262 67.4951 77.2229 67.3333 77.2881C67.1716 77.3532 66.9983 77.3857 66.8238 77.3834C63.1773 77.3834 60.3994 80.3514 60.3994 84.2577V95.6865C60.4017 95.8604 60.3688 96.0329 60.3025 96.1939C60.2362 96.3549 60.138 96.501 60.0136 96.6235C59.8893 96.746 59.7413 96.8425 59.5786 96.9072C59.4158 96.9719 59.2416 97.0034 59.0664 97C58.8951 96.9978 58.7259 96.962 58.5687 96.8947C58.4114 96.8273 58.2691 96.7298 58.15 96.6077C58.0309 96.4857 57.9373 96.3414 57.8747 96.1833C57.812 96.0252 57.7815 95.8564 57.7849 95.6865V76.0699C57.7849 75.7329 57.9199 75.4096 58.1602 75.1713C58.4006 74.933 58.7265 74.7991 59.0664 74.7991C59.2383 74.7945 59.4095 74.8239 59.5699 74.8856C59.7303 74.9472 59.8768 75.0398 60.0008 75.158C60.1249 75.2763 60.224 75.4178 60.2924 75.5743C60.3608 75.7308 60.3972 75.8993 60.3994 76.0699V77.426C61.2355 76.5801 62.2359 75.9112 63.3401 75.4596C64.4444 75.0081 65.6295 74.7834 66.8238 74.7991C66.995 74.7957 67.1653 74.8259 67.3247 74.8881C67.4841 74.9502 67.6296 75.043 67.7527 75.1611C67.8758 75.2793 67.9741 75.4204 68.042 75.5763C68.1099 75.7323 68.146 75.9 68.1482 76.0699Z" fill="#136262"/>
<path d="M102.197 84.2577V95.6865C102.197 96.0349 102.057 96.369 101.809 96.6153C101.56 96.8616 101.223 97 100.872 97C100.521 97 100.184 96.8616 99.9356 96.6153C99.6872 96.369 99.5476 96.0349 99.5476 95.6865V84.2577C99.5476 80.2235 97.2686 77.3833 93.9489 77.3833C90.3368 77.3833 87.7223 80.3088 87.7223 84.2577V95.6865C87.753 95.872 87.7426 96.0619 87.6919 96.243C87.6411 96.4242 87.5513 96.5922 87.4286 96.7355C87.3059 96.8787 87.1532 96.9938 86.9812 97.0727C86.8091 97.1517 86.6218 97.1925 86.4323 97.1925C86.2427 97.1925 86.0555 97.1517 85.8834 97.0727C85.7114 96.9938 85.5587 96.8787 85.436 96.7355C85.3133 96.5922 85.2235 96.4242 85.1727 96.243C85.122 96.0619 85.1116 95.872 85.1423 95.6865V84.2577C85.1423 80.2235 82.8202 77.3833 79.5435 77.3833C75.9314 77.3833 73.3256 80.3088 73.3256 84.2577V95.6865C73.3211 96.035 73.1789 96.3677 72.9296 96.6133C72.6804 96.859 72.3439 96.9978 71.9925 97C71.818 97.0023 71.6447 96.9699 71.483 96.9047C71.3212 96.8395 71.1743 96.7428 71.0509 96.6204C70.9274 96.498 70.8299 96.3523 70.7642 96.1919C70.6984 96.0315 70.6658 95.8596 70.6681 95.6865V76.0699C70.6703 75.9 70.7064 75.7323 70.7743 75.5763C70.8422 75.4204 70.9405 75.2792 71.0636 75.1611C71.1867 75.043 71.3322 74.9502 71.4916 74.8881C71.651 74.8259 71.8213 74.7957 71.9925 74.7991C72.3373 74.7988 72.6688 74.931 72.9173 75.168C73.1659 75.405 73.3122 75.7282 73.3256 76.0699V77.3492C74.1313 76.5248 75.0985 75.8725 76.1678 75.4324C77.2371 74.9924 78.3859 74.774 79.5435 74.7905C80.9812 74.7833 82.3929 75.1706 83.6224 75.9097C84.8519 76.6488 85.8512 77.7108 86.5097 78.9783C86.7884 78.4933 87.1138 78.0363 87.4815 77.6136C88.2881 76.7049 89.2843 75.981 90.401 75.492C91.5177 75.0031 92.7283 74.7608 93.9489 74.782C98.7134 74.7991 102.197 78.7821 102.197 84.2577Z" fill="#136262"/>
<path d="M115.888 97C113.677 97 111.515 96.3497 109.677 95.1314C107.838 93.913 106.405 92.1814 105.559 90.1554C104.713 88.1294 104.491 85.9 104.923 83.7492C105.354 81.5984 106.419 79.6228 107.982 78.0722C109.546 76.5215 111.538 75.4655 113.707 75.0377C115.876 74.6099 118.124 74.8295 120.167 75.6687C122.21 76.5078 123.956 77.929 125.184 79.7523C126.413 81.5757 127.068 83.7194 127.068 85.9123C127.068 88.853 125.89 91.6731 123.794 93.7525C121.697 95.8318 118.853 97 115.888 97ZM115.888 77.3833C114.185 77.3715 112.516 77.8617 111.094 78.7916C109.672 79.7216 108.56 81.0495 107.9 82.6068C107.24 84.1642 107.061 85.881 107.386 87.5393C107.711 89.1977 108.525 90.723 109.725 91.9218C110.926 93.1206 112.458 93.9388 114.128 94.2728C115.798 94.6067 117.53 94.4414 119.105 93.7976C120.68 93.1539 122.027 92.0608 122.974 90.6569C123.922 89.2531 124.428 87.6017 124.428 85.9123C124.428 83.6606 123.53 81.5002 121.93 79.9024C120.331 78.3046 118.159 77.3991 115.888 77.3833Z" fill="#136262"/>
<path d="M141.353 93.2984C141.487 93.4093 141.597 93.5451 141.677 93.6981C141.757 93.8512 141.806 94.0184 141.822 94.1902C141.837 94.3621 141.818 94.5353 141.765 94.6998C141.713 94.8644 141.629 95.0171 141.517 95.1492C140.806 95.974 139.858 96.564 138.799 96.8402C137.741 97.1163 136.623 97.0656 135.594 96.6947C134.566 96.3238 133.676 95.6505 133.044 94.7647C132.412 93.8789 132.067 92.8228 132.056 91.7376V77.3834H130.852C130.546 77.3337 130.268 77.1777 130.068 76.9433C129.867 76.709 129.757 76.4115 129.757 76.104C129.757 75.7965 129.867 75.499 130.068 75.2647C130.268 75.0304 130.546 74.8744 130.852 74.8247H132.056V70.6028C132.059 70.2544 132.199 69.9207 132.446 69.6735C132.694 69.4263 133.03 69.2853 133.381 69.2808C133.556 69.2785 133.73 69.3112 133.893 69.3769C134.055 69.4426 134.202 69.5401 134.326 69.6634C134.449 69.7867 134.547 69.9335 134.612 70.0949C134.677 70.2563 134.709 70.429 134.705 70.6028V74.7991H139.392C139.58 74.7687 139.771 74.779 139.954 74.8293C140.136 74.8796 140.306 74.9687 140.45 75.0904C140.595 75.2121 140.711 75.3635 140.79 75.5341C140.87 75.7047 140.911 75.8905 140.911 76.0784C140.911 76.2664 140.87 76.4521 140.79 76.6227C140.711 76.7934 140.595 76.9448 140.45 77.0665C140.306 77.1882 140.136 77.2773 139.954 77.3276C139.771 77.3779 139.58 77.3882 139.392 77.3578H134.705V91.6694C134.714 92.3843 135.008 93.0667 135.522 93.5682C136.035 94.0697 136.728 94.3498 137.449 94.3475C137.837 94.3514 138.221 94.2682 138.573 94.1043C138.924 93.9404 139.234 93.6999 139.478 93.4008C139.595 93.2716 139.735 93.1664 139.892 93.0913C140.05 93.0162 140.22 92.9727 140.394 92.9632C140.569 92.9537 140.743 92.9784 140.908 93.0359C141.072 93.0935 141.224 93.1827 141.353 93.2984Z" fill="#136262"/>
<path d="M153.007 97C146.986 97 142.437 92.2323 142.437 85.9123C142.383 83.0527 143.383 80.2717 145.249 78.0913C146.198 77.0406 147.363 76.2038 148.666 75.6373C149.968 75.0709 151.378 74.788 152.8 74.8076C158.726 74.8076 163 79.4559 163 85.8953C162.998 86.2429 162.858 86.5757 162.61 86.8216C162.362 87.0674 162.026 87.2065 161.676 87.2087H145.129C145.705 91.3624 148.904 94.3646 153.007 94.3646C154.346 94.3918 155.668 94.0628 156.835 93.4119C158.003 92.7609 158.973 91.8118 159.646 90.663C159.841 90.3812 160.138 90.1848 160.476 90.1145C160.813 90.0441 161.165 90.1052 161.458 90.2851C161.751 90.465 161.963 90.7499 162.05 91.0807C162.137 91.4115 162.092 91.7628 161.925 92.0617C160.998 93.5815 159.689 94.836 158.125 95.7018C156.561 96.5676 154.797 97.015 153.007 97ZM145.129 84.5818H160.265C159.766 80.3173 156.868 77.3834 152.8 77.3834C148.732 77.3834 145.671 80.3515 145.129 84.5818Z" fill="#136262"/>
</g>
<defs>
<linearGradient id="paint0_linear_616_1087" x1="93.7338" y1="34.9005" x2="82.431" y2="16.8877" gradientUnits="userSpaceOnUse">
<stop offset="0.37" stop-color="#1CA698"/>
<stop offset="1" stop-color="#136262"/>
</linearGradient>
<clipPath id="clip0_616_1087">
<rect width="163" height="97" fill="white"/>
</clipPath>
</defs>
</svg>
