<svg xmlns="http://www.w3.org/2000/svg" xmlns:xlink="http://www.w3.org/1999/xlink" width="0" height="0">
  <script xmlns=""/>
  <symbol id="logo" width="1em" height="0.22em" viewBox="0 0 89 19" fill="currentColor">
    <path d="M6.74499 18.9593C6.50652 18.958 6.27189 18.8992 6.06099 18.7879C5.85008 18.6766 5.66912 18.5161 5.53345 18.32C3.01994 14.7311 1.18962 10.7096 0.13426 6.45709C0.0874528 6.26818 0.0783114 6.0719 0.107359 5.87946C0.136407 5.68702 0.203074 5.50219 0.303554 5.33551C0.404034 5.16884 0.536359 5.02359 0.692975 4.90805C0.84959 4.79252 1.02743 4.70896 1.21633 4.66215C1.40524 4.61535 1.60152 4.6062 1.79396 4.63525C1.9864 4.6643 2.17123 4.73097 2.33791 4.83145C2.50458 4.93193 2.64983 5.06425 2.76537 5.22087C2.8809 5.37748 2.96446 5.55532 3.01127 5.74423C3.9779 9.6498 5.6577 13.3432 7.96612 16.6385C8.12148 16.8597 8.21303 17.1193 8.23076 17.389C8.24849 17.6586 8.19171 17.928 8.06664 18.1676C7.94157 18.4072 7.75301 18.6078 7.5216 18.7474C7.29019 18.887 7.02484 18.9603 6.75458 18.9593H6.74499Z"/>
    <path d="M19.0937 18.9595C18.8235 18.9605 18.5581 18.8872 18.3267 18.7476C18.0953 18.608 17.9068 18.4074 17.7817 18.1678C17.6566 17.9282 17.5998 17.6588 17.6176 17.3891C17.6353 17.1194 17.7268 16.8598 17.8822 16.6387C20.1896 13.3463 21.8693 9.65621 22.837 5.75399C22.9316 5.37248 23.1738 5.04414 23.5104 4.84121C23.6771 4.74073 23.8619 4.67407 24.0544 4.64502C24.2468 4.61597 24.4431 4.62511 24.632 4.67192C24.8209 4.71872 24.9987 4.80228 25.1553 4.91782C25.312 5.03335 25.4443 5.1786 25.5448 5.34528C25.6452 5.51195 25.7119 5.69679 25.741 5.88923C25.77 6.08167 25.7609 6.27794 25.7141 6.46685C24.6558 10.72 22.8222 14.7416 20.3053 18.3297C20.1685 18.5241 19.9871 18.6827 19.7763 18.7923C19.5654 18.9019 19.3314 18.9592 19.0937 18.9595Z"/>
    <path d="M18.0676 13.8672C17.7415 14.0835 17.343 14.1616 16.9594 14.0843C16.5758 14.0069 16.2386 13.7805 16.0217 13.4548L12.9018 8.76848L11.6743 6.9208C11.5164 6.68556 11.4291 6.41002 11.4229 6.12677C11.4167 5.84352 11.4917 5.56441 11.6391 5.32246L11.6743 5.27131L11.7286 5.1914C11.7675 5.14226 11.8092 5.0953 11.8533 5.05074C11.8725 5.03156 11.8948 5.01238 11.914 4.99001L12.0227 4.9037L12.0866 4.85894L12.1793 4.8014L12.2465 4.76624L12.288 4.74706C12.3555 4.71678 12.4249 4.69114 12.4958 4.67034L12.5757 4.65116H12.6397H12.6972C12.8203 4.63516 12.9449 4.63516 13.068 4.65116H13.1256H13.1895L13.2822 4.67354L13.3845 4.7087L13.4708 4.74386L13.5123 4.76304L13.5795 4.79821L13.6722 4.85575L13.7489 4.91009L13.8224 4.97083L13.8768 5.01878L13.9183 5.06353L13.9663 5.11787C13.9882 5.13981 14.0085 5.16332 14.027 5.1882C14.0469 5.21356 14.0651 5.24026 14.0814 5.26812L14.1165 5.31926L16.0793 8.2666V8.28258L18.4224 11.7989C18.5359 11.9577 18.6167 12.1374 18.6602 12.3276C18.7038 12.5178 18.7092 12.7147 18.6762 12.907C18.6433 13.0993 18.5725 13.2832 18.468 13.448C18.3635 13.6128 18.2275 13.7553 18.0676 13.8672Z"/>
    <path d="M1.56637 3.13274C2.43145 3.13274 3.13274 2.43145 3.13274 1.56637C3.13274 0.701288 2.43145 0 1.56637 0C0.701289 0 0 0.701288 0 1.56637C0 2.43145 0.701289 3.13274 1.56637 3.13274Z"/>
    <path d="M12.9018 3.13274C13.7668 3.13274 14.4681 2.43145 14.4681 1.56637C14.4681 0.701288 13.7668 0 12.9018 0C12.0367 0 11.3354 0.701288 11.3354 1.56637C11.3354 2.43145 12.0367 3.13274 12.9018 3.13274Z"/>
    <path d="M24.2724 3.13274C25.1374 3.13274 25.8387 2.43145 25.8387 1.56637C25.8387 0.701288 25.1374 0 24.2724 0C23.4073 0 22.706 0.701288 22.706 1.56637C22.706 2.43145 23.4073 3.13274 24.2724 3.13274Z"/>
    <path d="M16.1273 8.28267C15.6126 7.53465 14.1805 6.95924 12.9018 8.76856C12.9018 8.76856 12.9018 8.78455 12.8826 8.79414L12.8251 8.88364L9.77865 13.4549C9.67805 13.6297 9.54269 13.7821 9.38093 13.9026C9.21917 14.0231 9.03443 14.1092 8.83812 14.1556C8.6418 14.202 8.43807 14.2076 8.23948 14.1722C8.04089 14.1369 7.85166 14.0612 7.68345 13.9498C7.51524 13.8385 7.37162 13.6939 7.26145 13.5249C7.15128 13.3559 7.07689 13.1662 7.04288 12.9673C7.00886 12.7685 7.01594 12.5648 7.06367 12.3688C7.1114 12.1728 7.19878 11.9887 7.32041 11.8278L11.6359 5.34492L11.6711 5.29377L11.7254 5.21386C11.7644 5.16472 11.806 5.11776 11.8501 5.0732C11.8693 5.05402 11.8917 5.03484 11.9108 5.01247L12.0195 4.92616L12.0835 4.8814L12.1762 4.82386L12.2433 4.7887L12.2848 4.76952C12.3523 4.73924 12.4217 4.7136 12.4926 4.6928L12.5725 4.67362H12.6365H12.694C12.8171 4.65762 12.9417 4.65762 13.0648 4.67362H13.1224H13.1863L13.279 4.696L13.3813 4.73116L13.4676 4.76632L13.5092 4.7855L13.5763 4.82067L13.669 4.87821L13.7457 4.93255L13.8193 4.99329L13.8736 5.04124L13.9152 5.08599L13.9631 5.14033C13.985 5.16227 14.0053 5.18578 14.0238 5.21066C14.0438 5.23602 14.0619 5.26272 14.0782 5.29058L14.1133 5.34172L16.1273 8.28267Z"/>
    <path d="M31.9516 18.5404C29.0225 18.5404 26.8357 16.288 26.8357 13.2977C26.8357 11.8802 27.3172 10.5793 28.1999 9.60842C29.1228 8.59872 30.4269 8.05504 31.8513 8.05504C34.7202 8.05504 36.7867 10.2492 36.7867 13.2977C36.7867 13.6278 36.5058 13.919 36.1447 13.919H28.1398C28.4206 15.8802 29.9654 17.2977 31.9516 17.2977C33.2958 17.2977 34.4795 16.6763 35.1616 15.5501C35.3622 15.2588 35.7434 15.1812 36.0444 15.3559C36.3453 15.5307 36.4456 15.919 36.2651 16.2103C35.3221 17.686 33.7572 18.5404 31.9516 18.5404ZM28.1398 12.6763H35.4626C35.2218 10.6569 33.8174 9.27832 31.8513 9.27832C29.8852 9.27832 28.4006 10.6764 28.1398 12.6763Z"/>
    <path d="M42.4725 8.05504C41.2286 8.05504 40.1453 8.52105 39.3628 9.29774V8.65697C39.3628 8.32688 39.082 8.05504 38.7208 8.05504C38.3798 8.05504 38.0989 8.32688 38.0989 8.65697V17.919C38.0989 18.2685 38.3798 18.5404 38.7208 18.5404C39.082 18.5404 39.3628 18.2685 39.3628 17.919V12.6763C39.3628 12.6569 39.3628 12.6375 39.3628 12.6181V12.521C39.3628 10.6764 40.707 9.27832 42.4725 9.27832C42.8336 9.27832 43.1145 9.00648 43.1145 8.65697C43.1145 8.32688 42.8336 8.05504 42.4725 8.05504Z"/>
    <path d="M55.5847 8.05504C54.3609 8.05504 53.2374 8.52105 52.455 9.39483C52.2744 9.589 52.1139 9.80259 51.9735 10.0356C51.2914 8.81231 50.0676 8.05504 48.603 8.05504C47.4193 8.05504 46.3761 8.48222 45.5936 9.25891V8.65697C45.5936 8.32688 45.2927 8.05504 44.9516 8.05504C44.5905 8.05504 44.3096 8.32688 44.3096 8.65697V17.919C44.3096 18.2685 44.5905 18.5404 44.9516 18.5404C45.2927 18.5404 45.5936 18.2685 45.5936 17.919V12.6763C45.5936 12.6569 45.5936 12.6375 45.5936 12.6181V12.521C45.5936 10.6569 46.8576 9.27832 48.603 9.27832C50.1879 9.27832 51.3114 10.6181 51.3114 12.521V17.919C51.3114 18.2685 51.5923 18.5404 51.9334 18.5404C52.2945 18.5404 52.5754 18.2685 52.5754 17.919V12.6763C52.5754 12.6569 52.5754 12.6375 52.5754 12.6181V12.521C52.5754 10.6569 53.8393 9.27832 55.5847 9.27832C57.1897 9.27832 58.2932 10.6181 58.2932 12.521V17.919C58.2932 18.2685 58.5741 18.5404 58.9352 18.5404C59.2963 18.5404 59.5772 18.2685 59.5772 17.919V12.521C59.5772 9.93851 57.8919 8.05504 55.5847 8.05504Z"/>
    <path d="M66.2036 18.5404C63.2143 18.5404 60.7867 16.1909 60.7867 13.2977C60.7867 10.4045 63.2143 8.05504 66.2036 8.05504C69.1929 8.05504 71.6205 10.4045 71.6205 13.2977C71.6205 16.1909 69.1929 18.5404 66.2036 18.5404ZM66.2036 9.27832C63.9165 9.27832 62.0707 11.0841 62.0707 13.2977C62.0707 15.5113 63.9165 17.2977 66.2036 17.2977C68.4907 17.2977 70.3365 15.5113 70.3365 13.2977C70.3365 11.0841 68.4907 9.27832 66.2036 9.27832Z"/>
    <path d="M78.5141 16.7928C78.795 17.0064 78.815 17.3947 78.5944 17.6666C78.0928 18.2297 77.3705 18.5404 76.6282 18.5404C75.1837 18.5404 74.0201 17.4142 74.0201 16.0355V9.27832H73.4383C73.0972 9.27832 72.8164 9.00648 72.8164 8.65697C72.8164 8.32688 73.0972 8.05504 73.4383 8.05504H74.0201V6.07448C74.0201 5.72497 74.3211 5.45312 74.6621 5.45312C75.0232 5.45312 75.3041 5.72497 75.3041 6.07448V8.05504H77.5712C77.9323 8.05504 78.2132 8.32688 78.2132 8.65697C78.2132 9.00648 77.9323 9.27832 77.5712 9.27832H75.3041V16.0355C75.3041 16.7346 75.906 17.2977 76.6282 17.2977C77.0094 17.2977 77.3705 17.1423 77.6113 16.8511C77.852 16.5986 78.2533 16.5598 78.5141 16.7928Z"/>
    <path d="M84.165 18.5404C81.2359 18.5404 79.0491 16.288 79.0491 13.2977C79.0491 11.8802 79.5306 10.5793 80.4133 9.60842C81.3362 8.59872 82.6402 8.05504 84.0647 8.05504C86.9336 8.05504 89 10.2492 89 13.2977C89 13.6278 88.7192 13.919 88.358 13.919H80.3531C80.634 15.8802 82.1788 17.2977 84.165 17.2977C85.5092 17.2977 86.6929 16.6763 87.375 15.5501C87.5756 15.2588 87.9568 15.1812 88.2577 15.3559C88.5587 15.5307 88.659 15.919 88.4784 16.2103C87.5355 17.686 85.9706 18.5404 84.165 18.5404ZM80.3531 12.6763H87.6759C87.4352 10.6569 86.0308 9.27832 84.0647 9.27832C82.0985 9.27832 80.6139 10.6764 80.3531 12.6763Z"/>
    <defs>
      <linearGradient id="paint0_linear_2134_15" x1="12.2693" y1="4.90771" x2="17.995" y2="13.3599" gradientUnits="userSpaceOnUse">
        <stop stop-color="#0D0D0D"/>
        <stop offset="1" stop-color="#333333"/>
      </linearGradient>
    </defs>
  </symbol>

  <symbol id="menu" width="1em" height="1em" viewBox="0 0 27 16" fill="currentColor">
    <path d="M1.01424 0.000100007C0.881731 -0.00177404 0.750168 0.0227073 0.6272 0.072121C0.504231 0.121535 0.39231 0.194895 0.29794 0.28794C0.203571 0.380984 0.128635 0.491857 0.0774869 0.614114C0.0263392 0.736371 0 0.867575 0 1.0001C0 1.13263 0.0263392 1.26383 0.0774869 1.38609C0.128635 1.50834 0.203571 1.61922 0.29794 1.71226C0.39231 1.8053 0.504231 1.87867 0.6272 1.92808C0.750168 1.97749 0.881731 2.00197 1.01424 2.0001H25.0142C25.1468 2.00197 25.2783 1.97749 25.4013 1.92808C25.5243 1.87867 25.6362 1.8053 25.7305 1.71226C25.8249 1.61922 25.8999 1.50834 25.951 1.38609C26.0021 1.26383 26.0285 1.13263 26.0285 1.0001C26.0285 0.867575 26.0021 0.736371 25.951 0.614114C25.8999 0.491857 25.8249 0.380984 25.7305 0.28794C25.6362 0.194895 25.5243 0.121535 25.4013 0.072121C25.2783 0.0227073 25.1468 -0.00177404 25.0142 0.000100007H1.01424ZM1.01424 7.0001C0.881731 6.99823 0.750168 7.02271 0.6272 7.07212C0.504231 7.12153 0.39231 7.1949 0.29794 7.28794C0.203571 7.38098 0.128635 7.49186 0.0774869 7.61411C0.0263392 7.73637 0 7.86758 0 8.0001C0 8.13263 0.0263392 8.26383 0.0774869 8.38609C0.128635 8.50834 0.203571 8.61922 0.29794 8.71226C0.39231 8.8053 0.504231 8.87867 0.6272 8.92808C0.750168 8.97749 0.881731 9.00197 1.01424 9.0001H25.0142C25.1468 9.00197 25.2783 8.97749 25.4013 8.92808C25.5243 8.87867 25.6362 8.8053 25.7305 8.71226C25.8249 8.61922 25.8999 8.50834 25.951 8.38609C26.0021 8.26383 26.0285 8.13263 26.0285 8.0001C26.0285 7.86758 26.0021 7.73637 25.951 7.61411C25.8999 7.49186 25.8249 7.38098 25.7305 7.28794C25.6362 7.1949 25.5243 7.12153 25.4013 7.07212C25.2783 7.02271 25.1468 6.99823 25.0142 7.0001H1.01424ZM1.01424 14.0001C0.881731 13.9982 0.750168 14.0227 0.6272 14.0721C0.504231 14.1215 0.39231 14.1949 0.29794 14.2879C0.203571 14.381 0.128635 14.4919 0.0774869 14.6141C0.0263392 14.7364 0 14.8676 0 15.0001C0 15.1326 0.0263392 15.2638 0.0774869 15.3861C0.128635 15.5083 0.203571 15.6192 0.29794 15.7123C0.39231 15.8053 0.504231 15.8787 0.6272 15.9281C0.750168 15.9775 0.881731 16.002 1.01424 16.0001H25.0142C25.1468 16.002 25.2783 15.9775 25.4013 15.9281C25.5243 15.8787 25.6362 15.8053 25.7305 15.7123C25.8249 15.6192 25.8999 15.5083 25.951 15.3861C26.0021 15.2638 26.0285 15.1326 26.0285 15.0001C26.0285 14.8676 26.0021 14.7364 25.951 14.6141C25.8999 14.4919 25.8249 14.381 25.7305 14.2879C25.6362 14.1949 25.5243 14.1215 25.4013 14.0721C25.2783 14.0227 25.1468 13.9982 25.0142 14.0001H1.01424Z"/>
  </symbol>

  <symbol id="profile" width="1em" height="1em" viewBox="0 0 448 512" fill="none">
    <path fill="currentColor" d="M224 256A128 128 0 1 0 224 0a128 128 0 1 0 0 256zm-45.7 48C79.8 304 0 383.8 0 482.3C0 498.7 13.3 512 29.7 512H418.3c16.4 0 29.7-13.3 29.7-29.7C448 383.8 368.2 304 269.7 304H178.3z"/>
  </symbol>

  <svg id="apple" width="1em" height="1em" viewBox="0 0 24 28" fill="none" xmlns="http://www.w3.org/2000/svg">
    <path fill="currentColor" d="M22.565 9.785C22.442 9.862 19.514 11.487 19.514 15.09C19.652 19.199 23.209 20.64 23.27 20.64C23.209 20.717 22.733 22.603 21.323 24.58C20.204 26.283 18.962 28 17.076 28C15.282 28 14.638 26.865 12.568 26.865C10.345 26.865 9.71604 28 8.01404 28C6.12804 28 4.79404 26.191 3.61404 24.504C2.08104 22.296 0.778045 18.831 0.732045 15.504C0.701045 13.741 1.03904 12.008 1.89704 10.536C3.10804 8.481 5.27004 7.086 7.63104 7.04C9.44004 6.979 11.05 8.282 12.154 8.282C13.212 8.282 15.19 7.04 17.428 7.04C18.394 7.041 20.97 7.332 22.565 9.785ZM12.001 6.688C11.679 5.078 12.568 3.468 13.396 2.441C14.454 1.199 16.125 0.356003 17.566 0.356003C17.658 1.966 17.075 3.545 16.033 4.695C15.098 5.937 13.488 6.872 12.001 6.688Z"/>
  </svg>

  <svg id="facebook" width="1em" height="1em" viewBox="0 0 30 30" fill="none" xmlns="http://www.w3.org/2000/svg">
    <path fill="currentColor" d="M15 0C6.72905 0 0 6.72906 0 15C0 23.2709 6.72905 30 15 30C23.271 30 30 23.2709 30 15C30 6.72906 23.271 0 15 0ZM15 2.25C22.055 2.25 27.75 7.94504 27.75 15C27.75 21.2856 23.2254 26.4798 17.25 27.5405V18.75H19.9688C20.3468 18.75 20.6664 18.4673 20.7129 18.0923L20.9941 15.8423C21.0211 15.6293 20.9535 15.4154 20.811 15.2534C20.6693 15.0922 20.4653 15 20.25 15H17.25V12.375C17.25 11.5477 17.9228 10.875 18.75 10.875H20.25C20.664 10.875 21 10.5398 21 10.125V7.59375C21 7.20525 20.7036 6.88118 20.3174 6.84668C20.2731 6.84293 19.215 6.75 17.8755 6.75C14.5702 6.75 12.75 8.71214 12.75 12.2754V15H9.75C9.336 15 9 15.3352 9 15.75V18C9 18.4147 9.336 18.75 9.75 18.75H12.75V27.5405C6.77462 26.4798 2.25 21.2856 2.25 15C2.25 7.94504 7.94504 2.25 15 2.25Z"/>
  </svg>

  <svg id="google" width="1em" height="1em" viewBox="0 0 26 27" fill="none" xmlns="http://www.w3.org/2000/svg">
    <path fill="currentColor" d="M13.2039 11.2254V16.1608H20.237C19.3174 19.151 16.818 21.2913 13.2039 21.2913C8.90009 21.2913 5.41129 17.8025 5.41129 13.5C5.41129 9.19746 8.90009 5.70867 13.2039 5.70867C15.1388 5.70867 16.9058 6.41779 18.2685 7.58546L21.9033 3.95071C19.608 1.8595 16.5545 0.583336 13.2039 0.583336C6.06875 0.583336 0.284668 6.36613 0.284668 13.5C0.284668 20.6339 6.06875 26.4167 13.2039 26.4167C24.0488 26.4167 26.4422 16.2771 25.3792 11.2422L13.2039 11.2254Z"/>
  </svg>

  <svg id="mail" width="1em" height="1em" viewBox="0 0 32 22" fill="none" xmlns="http://www.w3.org/2000/svg">
    <path fill="currentColor" d="M3.90401 0.919998C2.24588 0.919998 0.880005 2.28587 0.880005 3.944V18.056C0.880005 19.7141 2.24588 21.08 3.90401 21.08H28.096C29.7541 21.08 31.12 19.7141 31.12 18.056V3.944C31.12 2.28587 29.7541 0.919998 28.096 0.919998H3.90401ZM4.32138 2.936H27.6767L18.6992 11.8997C17.1944 13.402 14.7872 13.4019 13.2831 11.8977L4.32138 2.936ZM29.104 4.3594V17.6406L22.4536 11L29.104 4.3594ZM2.896 4.36137L9.53463 11L2.896 17.6386V4.36137ZM21.0282 12.4234L27.6786 19.064H4.32138L10.96 12.4254L11.8578 13.3231C14.1317 15.597 17.8473 15.5987 20.1226 13.3271L21.0282 12.4234Z"/>
  </svg>

  <script xmlns=""/>
</svg>
