<svg width="32" height="22" viewBox="0 0 32 22" fill="none" xmlns="http://www.w3.org/2000/svg">
<path d="M3.90401 0.919998C2.24588 0.919998 0.880005 2.28587 0.880005 3.944V18.056C0.880005 19.7141 2.24588 21.08 3.90401 21.08H28.096C29.7541 21.08 31.12 19.7141 31.12 18.056V3.944C31.12 2.28587 29.7541 0.919998 28.096 0.919998H3.90401ZM4.32138 2.936H27.6767L18.6992 11.8997C17.1944 13.402 14.7872 13.4019 13.2831 11.8977L4.32138 2.936ZM29.104 4.3594V17.6406L22.4536 11L29.104 4.3594ZM2.896 4.36137L9.53463 11L2.896 17.6386V4.36137ZM21.0282 12.4234L27.6786 19.064H4.32138L10.96 12.4254L11.8578 13.3231C14.1317 15.597 17.8473 15.5987 20.1226 13.3271L21.0282 12.4234Z" fill="#808080"/>
</svg>
