<svg width="51" height="37" viewBox="0 0 51 37" fill="none" xmlns="http://www.w3.org/2000/svg">
<path d="M13.1075 36.8439C12.6441 36.8413 12.1882 36.727 11.7783 36.5107C11.3685 36.2945 11.0168 35.9825 10.7531 35.6014C5.86865 28.6272 2.3118 20.8123 0.260926 12.5484C0.169966 12.1813 0.152202 11.7999 0.20865 11.4259C0.265098 11.0519 0.394652 10.6928 0.589914 10.3689C0.785176 10.045 1.04232 9.76269 1.34667 9.53817C1.65102 9.31365 1.99661 9.15128 2.36371 9.06032C2.73082 8.96936 3.11224 8.95159 3.48621 9.00804C3.86017 9.06449 4.21936 9.19404 4.54326 9.38931C4.86716 9.58457 5.14942 9.84172 5.37394 10.1461C5.59846 10.4504 5.76084 10.796 5.8518 11.1631C7.73024 18.7528 10.9946 25.9301 15.4805 32.3339C15.7824 32.7637 15.9604 33.2682 15.9948 33.7923C16.0293 34.3163 15.9189 34.8398 15.6759 35.3054C15.4328 35.771 15.0664 36.1608 14.6167 36.4321C14.167 36.7034 13.6514 36.8459 13.1261 36.8439H13.1075Z" fill="white"/>
<path d="M37.1048 36.8439C36.5795 36.8459 36.0639 36.7035 35.6142 36.4321C35.1645 36.1608 34.7981 35.771 34.555 35.3054C34.312 34.8398 34.2016 34.3163 34.2361 33.7923C34.2705 33.2682 34.4485 32.7637 34.7504 32.3339C39.2342 25.9358 42.4985 18.7649 44.3791 11.1818C44.5628 10.4404 45.0335 9.8023 45.6876 9.40795C46.0115 9.21269 46.3707 9.08314 46.7447 9.02669C47.1187 8.97024 47.5001 8.988 47.8672 9.07896C48.2343 9.16992 48.5799 9.3323 48.8842 9.55682C49.1886 9.78134 49.4457 10.0636 49.641 10.3875C49.8363 10.7114 49.9658 11.0706 50.0223 11.4446C50.0787 11.8185 50.0609 12.1999 49.97 12.567C47.9134 20.8322 44.3502 28.6473 39.4591 35.6201C39.1934 35.9977 38.8409 36.306 38.4311 36.519C38.0214 36.732 37.5665 36.8434 37.1048 36.8439Z" fill="white"/>
<path d="M35.1106 26.948C34.477 27.3684 33.7024 27.5201 32.957 27.3698C32.2116 27.2196 31.5562 26.7797 31.1349 26.1466L25.0719 17.0397L22.6865 13.4491C22.3796 12.992 22.2101 12.4565 22.198 11.9061C22.1859 11.3557 22.3317 10.8133 22.6181 10.3431L22.6865 10.2437L22.7921 10.0884C22.8678 9.99291 22.9486 9.90166 23.0344 9.81507C23.0716 9.7778 23.1151 9.74053 23.1524 9.69704L23.3636 9.52931L23.4878 9.44235L23.668 9.33053L23.7984 9.26219L23.8792 9.22492C24.0102 9.16608 24.1451 9.11626 24.283 9.07583L24.4383 9.03856H24.5625H24.6743C24.9135 9.00747 25.1558 9.00747 25.3949 9.03856H25.5068H25.631L25.8112 9.08204L26.0099 9.15038L26.1777 9.21871L26.2584 9.25598L26.3889 9.32432L26.569 9.43613L26.7181 9.54174L26.861 9.65977L26.9666 9.75295L27.0474 9.83992L27.1405 9.94552C27.1831 9.98816 27.2226 10.0338 27.2586 10.0822C27.2973 10.1315 27.3326 10.1834 27.3642 10.2375L27.4325 10.3369L31.2467 16.0644V16.0955L35.8002 22.9288C36.0206 23.2373 36.1776 23.5865 36.2623 23.9561C36.3469 24.3257 36.3575 24.7084 36.2934 25.0822C36.2293 25.4559 36.0918 25.8132 35.8887 26.1334C35.6857 26.4537 35.4213 26.7305 35.1106 26.948Z" fill="url(#paint0_linear_616_273)"/>
<path d="M3.04392 6.08784C4.72503 6.08784 6.08784 4.72503 6.08784 3.04392C6.08784 1.36281 4.72503 0 3.04392 0C1.36281 0 0 1.36281 0 3.04392C0 4.72503 1.36281 6.08784 3.04392 6.08784Z" fill="white"/>
<path d="M25.0719 6.08784C26.753 6.08784 28.1159 4.72503 28.1159 3.04392C28.1159 1.36281 26.753 0 25.0719 0C23.3908 0 22.028 1.36281 22.028 3.04392C22.028 4.72503 23.3908 6.08784 25.0719 6.08784Z" fill="white"/>
<path d="M47.1683 6.08784C48.8494 6.08784 50.2122 4.72503 50.2122 3.04392C50.2122 1.36281 48.8494 0 47.1683 0C45.4872 0 44.1244 1.36281 44.1244 3.04392C44.1244 4.72503 45.4872 6.08784 47.1683 6.08784Z" fill="white"/>
<path d="M31.3399 16.0955C30.3397 14.6419 27.5567 13.5237 25.0719 17.0397C25.0719 17.0397 25.0719 17.0708 25.0346 17.0894L24.9228 17.2634L19.0027 26.1467C18.8071 26.4864 18.5441 26.7825 18.2298 27.0167C17.9154 27.2509 17.5564 27.4182 17.1749 27.5083C16.7934 27.5985 16.3975 27.6095 16.0116 27.5407C15.6257 27.4719 15.2579 27.3248 14.9311 27.1085C14.6042 26.8921 14.3251 26.6111 14.111 26.2827C13.8969 25.9543 13.7523 25.5856 13.6862 25.1992C13.6201 24.8128 13.6339 24.417 13.7266 24.0361C13.8194 23.6553 13.9892 23.2974 14.2256 22.9847L22.6119 10.3866L22.6802 10.2872L22.7858 10.1319C22.8615 10.0364 22.9424 9.94517 23.0281 9.85857C23.0654 9.8213 23.1088 9.78403 23.1461 9.74054L23.3573 9.57282L23.4816 9.48585L23.6617 9.37403L23.7922 9.3057L23.8729 9.26843C24.004 9.20958 24.1389 9.15977 24.2767 9.11934L24.432 9.08206H24.5563H24.6681C24.9073 9.05097 25.1495 9.05097 25.3887 9.08206H25.5005H25.6247L25.8049 9.12555L26.0037 9.19388L26.1714 9.26221L26.2522 9.29949L26.3826 9.36782L26.5628 9.47964L26.7119 9.58524L26.8547 9.70327L26.9603 9.79645L27.0411 9.88342L27.1343 9.98903C27.1769 10.0317 27.2163 10.0773 27.2523 10.1257C27.291 10.175 27.3263 10.2269 27.3579 10.281L27.4262 10.3804L31.3399 16.0955Z" fill="white"/>
<defs>
<linearGradient id="paint0_linear_616_273" x1="34.8746" y1="25.8422" x2="26.8424" y2="14.8406" gradientUnits="userSpaceOnUse">
<stop offset="0.01" stop-color="white"/>
<stop offset="1" stop-color="#BFBFBF"/>
</linearGradient>
</defs>
</svg>
