<svg width="125" height="115" viewBox="0 0 125 115" fill="none" xmlns="http://www.w3.org/2000/svg">
<path d="M62.6299 113.37C55.2176 113.37 47.8052 112.908 40.445 111.981L32.5455 110.988C26.103 110.177 20.5783 106.198 17.7729 100.342L3.55785 70.6886C0.571158 64.4569 1.69287 57.1692 6.41763 52.1249L48.6165 7.07535C52.2331 3.21395 57.3409 1 62.6299 1C67.9189 1 73.0266 3.21395 76.6433 7.07535L118.842 52.1249C123.567 57.1692 124.691 64.4546 121.702 70.6886L107.487 100.342C104.679 106.198 99.1567 110.179 92.7143 110.988L84.8148 111.981C77.4523 112.908 70.0422 113.37 62.6299 113.37Z" stroke="#D9F2A5" stroke-width="2" stroke-miterlimit="10"/>
<mask id="mask0_608_1042" style="mask-type:alpha" maskUnits="userSpaceOnUse" x="5" y="4" width="115" height="105">
<path d="M51.0349 9.72146L9.45872 54.1065C5.75011 58.0652 4.85254 63.8927 7.19693 68.7847L21.203 98.0025C23.4805 102.754 28.0152 106.023 33.2443 106.679L41.0277 107.657C55.275 109.448 69.6897 109.448 83.9369 107.657L91.7203 106.679C96.9472 106.023 101.484 102.754 103.762 98.0025L117.768 68.7847C120.112 63.8949 119.215 58.0652 115.506 54.1065L73.9252 9.72146C67.7293 3.10579 57.2331 3.10579 51.0349 9.72146Z" fill="url(#paint0_linear_608_1042)"/>
</mask>
<g mask="url(#mask0_608_1042)">
<path d="M51.0349 9.72146L9.45872 54.1065C5.75011 58.0652 4.85254 63.8927 7.19693 68.7847L21.203 98.0025C23.4805 102.754 28.0152 106.023 33.2443 106.679L41.0277 107.657C55.275 109.448 69.6897 109.448 83.9369 107.657L91.7203 106.679C96.9472 106.023 101.484 102.754 103.762 98.0025L117.768 68.7847C120.112 63.8949 119.215 58.0652 115.506 54.1065L73.9252 9.72146C67.7293 3.10579 57.2331 3.10579 51.0349 9.72146Z" fill="url(#paint1_linear_608_1042)"/>
<path d="M105.249 91.108H62.48H19.7137L5.34814 107.526L62.48 109.077H119.614L105.249 91.108Z" fill="url(#paint2_linear_608_1042)"/>
<path d="M98.0881 91.177V77.3652C98.0881 76.3783 97.2887 75.579 96.3018 75.579H81.7108C80.7239 75.579 79.9246 76.3783 79.9246 77.3652V91.177H98.0881Z" fill="#1CA698"/>
<path d="M82.6708 78.2763H79.9268V75.0656C79.9268 74.6726 80.246 74.3533 80.639 74.3533H81.9586C82.3515 74.3533 82.6708 74.6726 82.6708 75.0656V78.2763Z" fill="#1CA698"/>
<path d="M81.8604 74.6903H80.7373C80.4225 74.6903 80.168 74.4358 80.168 74.121V72.9979C80.168 72.6831 80.4225 72.4285 80.7373 72.4285H81.8604C82.1752 72.4285 82.4298 72.6831 82.4298 72.9979V74.121C82.4298 74.4335 82.1752 74.6903 81.8604 74.6903Z" fill="#1CA698"/>
<path d="M98.0881 78.2763H95.344V75.0656C95.344 74.6726 95.6633 74.3533 96.0562 74.3533H97.3758C97.7688 74.3533 98.0881 74.6726 98.0881 75.0656V78.2763Z" fill="#1CA698"/>
<path d="M97.2776 74.6903H96.1546C95.8397 74.6903 95.5852 74.4358 95.5852 74.121V72.9979C95.5852 72.6831 95.8397 72.4285 96.1546 72.4285H97.2776C97.5925 72.4285 97.847 72.6831 97.847 72.9979V74.121C97.8492 74.4335 97.5925 74.6903 97.2776 74.6903Z" fill="#1CA698"/>
<path d="M94.6943 91.1079H83.5618C83.0706 91.1079 82.6709 90.7082 82.6709 90.217V79.3948C82.6709 78.9036 83.0706 78.5039 83.5618 78.5039H94.6965C95.1878 78.5039 95.5874 78.9036 95.5874 79.3948V90.217C95.5852 90.7082 95.1878 91.1079 94.6943 91.1079Z" fill="#136262"/>
<path d="M84.0127 79.0152L94.7143 79.0643C94.9577 79.0688 95.1542 79.2675 95.1586 79.5109L95.3373 89.9446C95.3417 90.2437 95.1921 90.5251 94.9398 90.6858L94.721 90.8243C94.721 90.8243 94.6674 82.4112 94.6317 80.9666C94.6027 79.8257 94.0088 79.5845 93.1358 79.5466C92.2605 79.5109 84.0127 79.0152 84.0127 79.0152Z" fill="#1CA698"/>
<path d="M45.0353 91.1771V77.3652C45.0353 76.3783 44.236 75.579 43.2491 75.579H28.658C27.6712 75.579 26.8718 76.3783 26.8718 77.3652V91.1771H45.0353Z" fill="#1CA698"/>
<path d="M29.6159 78.2763H26.8718V75.0656C26.8718 74.6727 27.1911 74.3534 27.5841 74.3534H28.9036C29.2966 74.3534 29.6159 74.6727 29.6159 75.0656V78.2763Z" fill="#1CA698"/>
<path d="M28.8055 74.6902H27.6824C27.3676 74.6902 27.113 74.4357 27.113 74.1209V72.9978C27.113 72.683 27.3676 72.4285 27.6824 72.4285H28.8055C29.1203 72.4285 29.3748 72.683 29.3748 72.9978V74.1209C29.3748 74.4335 29.1203 74.6902 28.8055 74.6902Z" fill="#1CA698"/>
<path d="M45.0353 78.2763H42.2913V75.0656C42.2913 74.6727 42.6105 74.3534 43.0035 74.3534H44.3231C44.716 74.3534 45.0353 74.6727 45.0353 75.0656V78.2763Z" fill="#1CA698"/>
<path d="M44.2249 74.6902H43.1018C42.787 74.6902 42.5325 74.4357 42.5325 74.1209V72.9978C42.5325 72.683 42.787 72.4285 43.1018 72.4285H44.2249C44.5397 72.4285 44.7943 72.683 44.7943 72.9978V74.1209C44.7943 74.4335 44.5397 74.6902 44.2249 74.6902Z" fill="#1CA698"/>
<path d="M41.6416 91.1079H30.5068C30.0156 91.1079 29.616 90.7083 29.616 90.2171V79.3949C29.616 78.9037 30.0156 78.504 30.5068 78.504H41.6416C42.1328 78.504 42.5325 78.9037 42.5325 79.3949V90.2171C42.5325 90.7083 42.1328 91.1079 41.6416 91.1079Z" fill="#136262"/>
<path d="M30.9602 79.0152L41.6618 79.0643C41.9052 79.0688 42.1017 79.2675 42.1061 79.5109L42.2848 89.9446C42.2892 90.2438 42.1396 90.5251 41.8873 90.6859L41.6685 90.8243C41.6685 90.8243 41.6149 82.4113 41.5792 80.9667C41.5502 79.8257 40.9563 79.5846 40.0833 79.5466C39.2058 79.5109 30.9602 79.0152 30.9602 79.0152Z" fill="#1CA698"/>
<path d="M51.9391 115.103H73.0208C73.2553 115.103 73.4473 114.913 73.4473 114.677V90.6724C73.4473 89.6855 72.648 88.8862 71.6611 88.8862H53.3011C52.3142 88.8862 51.5149 89.6855 51.5149 90.6724V114.679C51.5149 114.913 51.7047 115.103 51.9391 115.103Z" fill="#1CA698"/>
<path d="M70.134 92.1417H73.4474V88.0915C73.4474 87.712 73.1393 87.4061 72.762 87.4061H70.8217C70.4422 87.4061 70.1363 87.7142 70.1363 88.0915V92.1417H70.134Z" fill="#1CA698"/>
<path d="M70.9912 87.8122H72.5899C72.9024 87.8122 73.157 87.5577 73.157 87.2451V85.6465C73.157 85.3339 72.9024 85.0793 72.5899 85.0793H70.9912C70.6786 85.0793 70.4241 85.3339 70.4241 85.6465V87.2451C70.4241 87.5577 70.6786 87.8122 70.9912 87.8122Z" fill="#1CA698"/>
<path d="M51.5149 92.1417H54.8283V88.0915C54.8283 87.712 54.5202 87.4061 54.1428 87.4061H52.2026C51.823 87.4061 51.5171 87.7142 51.5171 88.0915V92.1417H51.5149Z" fill="#1CA698"/>
<path d="M52.3701 87.8122H53.9688C54.2813 87.8122 54.5359 87.5577 54.5359 87.2451V85.6465C54.5359 85.3339 54.2813 85.0793 53.9688 85.0793H52.3701C52.0575 85.0793 51.803 85.3339 51.803 85.6465V87.2451C51.8052 87.5577 52.0575 87.8122 52.3701 87.8122Z" fill="#1CA698"/>
<path d="M69.8147 109.542H70.1339V92.1418L69.4954 93.0326L69.8147 109.542Z" fill="#136262"/>
<path d="M70.134 92.1418H54.5359V92.8786L69.4954 93.0326L70.134 92.1418Z" fill="#136262"/>
<path d="M37.1182 97.9377C37.1182 98.3329 38.9714 98.6544 41.2555 98.6544C43.5419 98.6544 45.3928 98.3329 45.3928 97.9377V96.7655H37.116V97.844V97.9377H37.1182Z" fill="#382B1E"/>
<path d="M41.2555 97.4823C43.5404 97.4823 45.3928 97.1614 45.3928 96.7656C45.3928 96.3697 43.5404 96.0489 41.2555 96.0489C38.9705 96.0489 37.1182 96.3697 37.1182 96.7656C37.1182 97.1614 38.9705 97.4823 41.2555 97.4823Z" fill="#4F3C2B"/>
<path d="M41.2555 96.8906C40.9473 96.8906 40.6973 96.6405 40.6973 96.3324V76.1348C40.6973 75.8267 40.9473 75.5766 41.2555 75.5766C41.5636 75.5766 41.8136 75.8267 41.8136 76.1348V96.3324C41.8136 96.6405 41.5636 96.8906 41.2555 96.8906Z" fill="#382B1E"/>
<path opacity="0.37" d="M37.1182 76.3983L30.8218 92.0589L50.4768 92.2889L45.3928 76.3983H37.1182Z" fill="url(#paint3_radial_608_1042)"/>
<path d="M41.2555 77.115C43.5404 77.115 45.3928 76.7942 45.3928 76.3983C45.3928 76.0025 43.5404 75.6816 41.2555 75.6816C38.9705 75.6816 37.1182 76.0025 37.1182 76.3983C37.1182 76.7942 38.9705 77.115 41.2555 77.115Z" fill="#D9F2A5"/>
<path d="M37.1182 76.3983C37.1182 76.3983 39.0138 72.1292 39.0138 68.2063C42.1106 68.2063 41.2555 68.2063 41.2555 68.2063V76.3983H37.1182Z" fill="#D9F2A5"/>
<path d="M45.3928 76.3983C45.3928 76.3983 43.4972 72.1292 43.4972 68.2063C40.4003 68.2063 41.2555 68.2063 41.2555 68.2063V76.3983H45.3928Z" fill="#D9F2A5"/>
<path d="M43.4993 68.2086C43.4993 68.2354 43.4859 68.2622 43.4546 68.2845C43.247 68.4609 42.3427 68.5926 41.2576 68.5926C40.1457 68.5926 39.2213 68.4519 39.0449 68.2711L39.0137 68.2086V68.2041C39.0271 67.9875 40.0273 67.8201 41.2576 67.8201C42.4521 67.8201 43.4323 67.9786 43.4926 68.1862C43.4993 68.1952 43.4993 68.1996 43.4993 68.2086Z" fill="#1CA698"/>
<path opacity="0.37" d="M46.0179 61.3651L43.4904 68.1862L43.4547 68.2867C43.247 68.4631 42.3428 68.5948 41.2576 68.5948C40.1457 68.5948 39.2214 68.4542 39.045 68.2733L39.0137 68.2108V68.2063L35.8164 61.4723L46.0179 61.3651Z" fill="url(#paint4_radial_608_1042)"/>
<path d="M82.3223 97.9377C82.3223 98.3329 84.1755 98.6544 86.4596 98.6544C88.7437 98.6544 90.5969 98.3329 90.5969 97.9377V96.7655H82.3201V97.844V97.9377H82.3223Z" fill="#382B1E"/>
<path d="M86.462 97.4823C88.747 97.4823 90.5993 97.1614 90.5993 96.7656C90.5993 96.3697 88.747 96.0489 86.462 96.0489C84.177 96.0489 82.3247 96.3697 82.3247 96.7656C82.3247 97.1614 84.177 97.4823 86.462 97.4823Z" fill="#4F3C2B"/>
<path d="M86.462 96.8906C86.1539 96.8906 85.9038 96.6405 85.9038 96.3324V76.1348C85.9038 75.8267 86.1539 75.5766 86.462 75.5766C86.7701 75.5766 87.0202 75.8267 87.0202 76.1348V96.3324C87.0202 96.6405 86.7701 96.8906 86.462 96.8906Z" fill="#382B1E"/>
<path opacity="0.37" d="M82.3225 76.3983L76.0261 92.0589L95.6833 92.2889L90.5994 76.3983H82.3225Z" fill="url(#paint5_radial_608_1042)"/>
<path d="M86.462 77.115C88.747 77.115 90.5993 76.7942 90.5993 76.3983C90.5993 76.0025 88.747 75.6816 86.462 75.6816C84.177 75.6816 82.3247 76.0025 82.3247 76.3983C82.3247 76.7942 84.177 77.115 86.462 77.115Z" fill="#D9F2A5"/>
<path d="M82.3223 76.3983C82.3223 76.3983 84.2179 72.1292 84.2179 68.2063C87.3147 68.2063 86.4596 68.2063 86.4596 68.2063V76.3983H82.3223Z" fill="#D9F2A5"/>
<path d="M90.5993 76.3983C90.5993 76.3983 88.7037 72.1292 88.7037 68.2063C85.6069 68.2063 86.462 68.2063 86.462 68.2063V76.3983H90.5993Z" fill="#D9F2A5"/>
<path d="M88.7058 68.2086C88.7058 68.2354 88.6924 68.2622 88.6612 68.2845C88.4535 68.4609 87.5493 68.5926 86.4641 68.5926C85.3522 68.5926 84.4279 68.4519 84.2515 68.2711L84.2202 68.2086V68.2041C84.2336 67.9875 85.2339 67.8201 86.4641 67.8201C87.6587 67.8201 88.6388 67.9786 88.6991 68.1862C88.7058 68.1952 88.7058 68.1996 88.7058 68.2086Z" fill="#1CA698"/>
<path opacity="0.37" d="M91.2244 61.3651L88.6969 68.1862L88.6612 68.2867C88.4536 68.4631 87.5493 68.5948 86.4642 68.5948C85.3523 68.5948 84.4279 68.4542 84.2515 68.2733L84.2203 68.2108V68.2063L81.0229 61.4723L91.2244 61.3651Z" fill="url(#paint6_radial_608_1042)"/>
<path opacity="0.08" d="M80.9384 28.575H44.5913L48.5656 24.2724H77.0043L80.9384 28.575Z" fill="#136262"/>
<path opacity="0.08" d="M93.8458 65.4199H31.6858L38.4823 58.0585H87.1163L93.8458 65.4199Z" fill="#136262"/>
<path d="M78.395 42.8534V35.8849C78.395 35.387 77.9908 34.9829 77.4929 34.9829H70.1315C69.6336 34.9829 69.2295 35.387 69.2295 35.8849V42.8534H78.395Z" fill="#1CA698"/>
<path d="M70.6162 36.3428H69.2319V34.8938C69.2319 34.6013 69.4686 34.3646 69.7611 34.3646H70.0871C70.3796 34.3646 70.6162 34.6013 70.6162 34.8938V36.3428Z" fill="#1CA698"/>
<path d="M70.0581 34.5342H69.7901C69.549 34.5342 69.3547 34.3377 69.3547 34.0966V33.8287C69.3547 33.5875 69.5512 33.3911 69.7901 33.3911H70.0581C70.2992 33.3911 70.4934 33.5875 70.4934 33.8287V34.0966C70.4934 34.3377 70.2992 34.5342 70.0581 34.5342Z" fill="#1CA698"/>
<path d="M78.3951 36.3428H77.0107V34.8938C77.0107 34.6013 77.2474 34.3646 77.5399 34.3646H77.8659C78.1584 34.3646 78.3951 34.6013 78.3951 34.8938V36.3428Z" fill="#1CA698"/>
<path d="M77.8371 34.5342H77.5692C77.3281 34.5342 77.1316 34.3377 77.1316 34.0966V33.8287C77.1316 33.5875 77.3281 33.3911 77.5692 33.3911H77.8371C78.0783 33.3911 78.2748 33.5875 78.2748 33.8287V34.0966C78.2748 34.3377 78.0783 34.5342 77.8371 34.5342Z" fill="#1CA698"/>
<path d="M76.2406 42.8177H71.5049C71.0137 42.8177 70.614 42.418 70.614 41.9268V37.3497C70.614 36.8585 71.0137 36.4588 71.5049 36.4588H76.2406C76.7318 36.4588 77.1314 36.8585 77.1314 37.3497V41.9268C77.1314 42.418 76.734 42.8177 76.2406 42.8177Z" fill="#136262"/>
<path d="M71.2927 36.7178L76.6915 36.7424C76.8143 36.7446 76.9148 36.8451 76.9148 36.9679L77.0041 42.2328C77.0064 42.3846 76.9304 42.5252 76.8032 42.6079L76.6938 42.6771C76.6938 42.6771 76.667 38.4326 76.6491 37.7025C76.6357 37.1264 76.3343 37.0059 75.8944 36.9858C75.4546 36.9657 71.2927 36.7178 71.2927 36.7178Z" fill="#1CA698"/>
<path d="M54.9443 42.8534V35.8849C54.9443 35.387 54.5402 34.9829 54.0423 34.9829H46.6808C46.1829 34.9829 45.7788 35.387 45.7788 35.8849V42.8534H54.9443Z" fill="#1CA698"/>
<path d="M47.1656 36.3428H45.7812V34.8937C45.7812 34.6012 46.0179 34.3645 46.3104 34.3645H46.6364C46.9289 34.3645 47.1656 34.6012 47.1656 34.8937V36.3428Z" fill="#1CA698"/>
<path d="M46.6072 34.5341H46.3392C46.0981 34.5341 45.9016 34.3377 45.9016 34.0965V33.8286C45.9016 33.5874 46.0981 33.391 46.3392 33.391H46.6072C46.8483 33.391 47.0448 33.5874 47.0448 33.8286V34.0965C47.0448 34.3377 46.8483 34.5341 46.6072 34.5341Z" fill="#1CA698"/>
<path d="M54.9444 36.3428H53.5601V34.8937C53.5601 34.6012 53.7967 34.3645 54.0892 34.3645H54.4152C54.7077 34.3645 54.9444 34.6012 54.9444 34.8937V36.3428Z" fill="#1CA698"/>
<path d="M54.3884 34.5341H54.1205C53.8793 34.5341 53.6829 34.3377 53.6829 34.0965V33.8286C53.6829 33.5874 53.8793 33.391 54.1205 33.391H54.3884C54.6296 33.391 54.826 33.5874 54.826 33.8286V34.0965C54.8238 34.3377 54.6296 34.5341 54.3884 34.5341Z" fill="#1CA698"/>
<path d="M52.7918 42.8176H48.0562C47.5649 42.8176 47.1653 42.4179 47.1653 41.9267V37.3496C47.1653 36.8584 47.5649 36.4587 48.0562 36.4587H52.7918C53.283 36.4587 53.6827 36.8584 53.6827 37.3496V41.9267C53.6827 42.4179 53.283 42.8176 52.7918 42.8176Z" fill="#136262"/>
<path d="M47.844 36.7177L53.2428 36.7423C53.3656 36.7445 53.4661 36.845 53.4661 36.9678L53.5554 42.2327C53.5576 42.3845 53.4817 42.5252 53.3544 42.6078L53.245 42.677C53.245 42.677 53.2182 38.4325 53.2004 37.7024C53.187 37.1263 52.8856 37.0058 52.4457 36.9857C52.0036 36.9656 47.844 36.7177 47.844 36.7177Z" fill="#1CA698"/>
<path d="M37.3636 50.9874H34.8093V63.1291H37.3636V50.9874Z" fill="#D9F2A5"/>
<path d="M44.055 41.7838H41.5007V53.9256H44.055V41.7838Z" fill="#D9F2A5"/>
<path d="M37.3635 63.1291L38.0713 62.4214V50.9874H37.3635V63.1291Z" fill="#CCE39A"/>
<path d="M44.0552 53.9279L44.5241 53.4568V50.3242H44.0552V53.9279Z" fill="#CCE39A"/>
<path d="M86.8139 63.1286L89.3682 63.1286L89.3682 50.9869L86.8139 50.9869L86.8139 63.1286Z" fill="#D9F2A5"/>
<path d="M80.1208 53.9268L82.675 53.9268L82.675 41.7851L80.1208 41.7851L80.1208 53.9268Z" fill="#D9F2A5"/>
<path d="M86.8125 63.1291L86.1069 62.4214V50.9874H86.8125V63.1291Z" fill="#CCE39A"/>
<path d="M80.1232 53.9279L79.6521 53.4568V50.3242H80.1232V53.9279Z" fill="#CCE39A"/>
<path d="M89.3668 49.4735L83.22 42.8511H41.5366L34.8093 49.4735H89.3668Z" fill="url(#paint7_linear_608_1042)"/>
<path d="M49.7043 46.3007C49.7043 46.4949 50.6198 46.6534 51.7473 46.6534C52.8749 46.6534 53.7903 46.4949 53.7903 46.3007V45.7224H49.7043V46.256V46.3007Z" fill="#382B1E"/>
<path d="M51.7473 46.075C52.8756 46.075 53.7903 45.9171 53.7903 45.7223C53.7903 45.5274 52.8756 45.3695 51.7473 45.3695C50.619 45.3695 49.7043 45.5274 49.7043 45.7223C49.7043 45.9171 50.619 46.075 51.7473 46.075Z" fill="#4F3C2B"/>
<path d="M51.7473 45.8429C51.5619 45.8429 51.4124 45.6933 51.4124 45.508V35.5365C51.4124 35.3512 51.5619 35.2016 51.7473 35.2016C51.9326 35.2016 52.0822 35.3512 52.0822 35.5365V45.508C52.0822 45.6933 51.9326 45.8429 51.7473 45.8429Z" fill="#382B1E"/>
<path opacity="0.37" d="M49.7042 35.6682L46.5962 43.398L56.2998 43.5119L53.7901 35.6682H49.7042Z" fill="url(#paint8_radial_608_1042)"/>
<path d="M51.7473 36.021C52.8756 36.021 53.7903 35.863 53.7903 35.6682C53.7903 35.4734 52.8756 35.3154 51.7473 35.3154C50.619 35.3154 49.7043 35.4734 49.7043 35.6682C49.7043 35.863 50.619 36.021 51.7473 36.021Z" fill="#D9F2A5"/>
<path d="M49.7043 35.6682C49.7043 35.6682 50.6399 33.5604 50.6399 31.6246C52.1693 31.6246 51.7473 31.6246 51.7473 31.6246V35.6682H49.7043Z" fill="#D9F2A5"/>
<path d="M53.7902 35.6682C53.7902 35.6682 52.8547 33.5604 52.8547 31.6246C51.3252 31.6246 51.7472 31.6246 51.7472 31.6246V35.6682H53.7902Z" fill="#D9F2A5"/>
<path d="M52.8567 31.6247C52.8567 31.6381 52.85 31.6515 52.8344 31.6627C52.7317 31.7498 52.2852 31.8145 51.7493 31.8145C51.2 31.8145 50.7446 31.7453 50.6575 31.656L50.6418 31.6247V31.6225C50.6485 31.5153 51.142 31.4327 51.7493 31.4327C52.3387 31.4327 52.8233 31.5109 52.8523 31.6136C52.8567 31.618 52.8567 31.6203 52.8567 31.6247Z" fill="#1CA698"/>
<path opacity="0.37" d="M54.1006 28.2466L52.8525 31.6136L52.8346 31.6627C52.7319 31.7498 52.2854 31.8145 51.7495 31.8145C51.2002 31.8145 50.7447 31.7453 50.6577 31.656L50.642 31.6247V31.6225L49.0635 28.2979L54.1006 28.2466Z" fill="url(#paint9_radial_608_1042)"/>
<path d="M70.6428 46.3007C70.6428 46.4949 71.5583 46.6534 72.6858 46.6534C73.8133 46.6534 74.7288 46.4949 74.7288 46.3007V45.7224H70.6428V46.256V46.3007Z" fill="#382B1E"/>
<path d="M72.6858 46.075C73.8141 46.075 74.7288 45.9171 74.7288 45.7223C74.7288 45.5274 73.8141 45.3695 72.6858 45.3695C71.5575 45.3695 70.6428 45.5274 70.6428 45.7223C70.6428 45.9171 71.5575 46.075 72.6858 46.075Z" fill="#4F3C2B"/>
<path d="M72.6857 45.8429C72.5004 45.8429 72.3508 45.6933 72.3508 45.508V35.5365C72.3508 35.3512 72.5004 35.2016 72.6857 35.2016C72.8711 35.2016 73.0207 35.3512 73.0207 35.5365V45.508C73.0207 45.6933 72.8711 45.8429 72.6857 45.8429Z" fill="#382B1E"/>
<path opacity="0.37" d="M70.6429 35.6682L67.5349 43.398L77.2385 43.5119L74.7289 35.6682H70.6429Z" fill="url(#paint10_radial_608_1042)"/>
<path d="M72.6858 36.021C73.8141 36.021 74.7288 35.863 74.7288 35.6682C74.7288 35.4734 73.8141 35.3154 72.6858 35.3154C71.5575 35.3154 70.6428 35.4734 70.6428 35.6682C70.6428 35.863 71.5575 36.021 72.6858 36.021Z" fill="#D9F2A5"/>
<path d="M70.6428 35.6682C70.6428 35.6682 71.5783 33.5604 71.5783 31.6246C73.1078 31.6246 72.6858 31.6246 72.6858 31.6246V35.6682H70.6428Z" fill="#D9F2A5"/>
<path d="M74.7289 35.6682C74.7289 35.6682 73.7934 33.5604 73.7934 31.6246C72.2639 31.6246 72.6859 31.6246 72.6859 31.6246V35.6682H74.7289Z" fill="#D9F2A5"/>
<path d="M73.7933 31.6247C73.7933 31.6381 73.7866 31.6515 73.7709 31.6627C73.6682 31.7498 73.2217 31.8145 72.6858 31.8145C72.1366 31.8145 71.6811 31.7453 71.594 31.656L71.5784 31.6247V31.6225C71.5851 31.5153 72.0785 31.4327 72.6858 31.4327C73.2753 31.4327 73.7598 31.5109 73.7888 31.6136C73.7933 31.618 73.7933 31.6203 73.7933 31.6247Z" fill="#1CA698"/>
<path opacity="0.37" d="M75.0369 28.2466L73.7887 31.6136L73.7709 31.6627C73.6682 31.7498 73.2216 31.8145 72.6858 31.8145C72.1365 31.8145 71.681 31.7453 71.5939 31.656L71.5783 31.6247V31.6225L69.9998 28.2979L75.0369 28.2466Z" fill="url(#paint11_radial_608_1042)"/>
<path d="M89.3668 49.4736H34.8093V50.9874H89.3668V49.4736Z" fill="#CCE39A"/>
<path d="M70.3684 51.4474H70.739C70.7569 51.4876 70.777 51.5301 70.8037 51.568C70.873 51.6707 70.9511 51.7667 71.0293 51.8627C71.1297 52.0213 71.2592 52.1508 71.4222 52.2468C71.5138 52.2847 71.6053 52.3249 71.6991 52.3629C71.7527 52.3763 71.8063 52.3874 71.8598 52.3941L71.641 62.1625C71.641 62.379 71.4646 62.5554 71.2481 62.5554H70.6006C70.384 62.5554 70.2076 62.379 70.2076 62.1625L69.9776 51.8404C69.9732 51.6238 70.1495 51.4474 70.3684 51.4474Z" fill="url(#paint12_linear_608_1042)"/>
<path d="M80.9427 62.2182L81.1727 51.8962C81.1727 51.6796 80.9963 51.5032 80.7797 51.5032H79.6701C79.4535 51.5032 79.2771 51.6796 79.2771 51.8962L79.5071 62.2182C79.5071 62.4348 79.6835 62.6112 79.9 62.6112H80.5475C80.7664 62.6134 80.9427 62.437 80.9427 62.2182Z" fill="url(#paint13_linear_608_1042)"/>
<path d="M70.1628 50.2171L74.4207 50.2752L74.0568 53.3296L73.6058 54.2763L70.6183 51.751L70.1628 50.2171Z" fill="#136262"/>
<path d="M84.2896 40.2166C84.2896 39.9531 84.14 39.7299 83.9234 39.6137C84.0552 39.511 84.1422 39.3503 84.1422 39.1694V38.9171C84.1422 38.6045 83.8877 38.35 83.5751 38.35H83.3228C83.0102 38.35 82.7557 38.6045 82.7557 38.9171V39.1694C82.7557 39.3503 82.8428 39.5088 82.9745 39.6137C82.7579 39.7299 82.6083 39.9554 82.6083 40.2166V40.2858C82.5726 40.2836 82.5369 40.2813 82.5012 40.2813H74.9634C74.9276 40.2813 74.8919 40.2836 74.8562 40.2858V40.2166C74.8562 39.9531 74.7066 39.7299 74.49 39.6137C74.6218 39.511 74.7088 39.3503 74.7088 39.1694V38.9171C74.7088 38.6045 74.4543 38.35 74.1417 38.35H73.8939C73.5813 38.35 73.3268 38.6045 73.3268 38.9171V39.1694C73.3268 39.3503 73.4138 39.5088 73.5456 39.6137C73.329 39.7299 73.1794 39.9554 73.1794 40.2166V41.9291H73.1861C73.1816 41.9738 73.1794 42.0207 73.1794 42.0676V53.1353C73.1794 53.2336 73.2151 53.3251 73.2709 53.3966C73.1705 53.4658 73.1057 53.5797 73.1057 53.7114V54.8456C73.1057 54.9662 73.1615 55.0711 73.2486 55.1404C73.1615 55.2118 73.1057 55.3212 73.1057 55.4418L73.3357 65.7638C73.3357 65.9804 73.5121 66.1568 73.7287 66.1568H74.3762C74.5927 66.1568 74.7691 65.9804 74.7691 65.7638L74.9991 55.4418C74.9991 55.3614 74.9745 55.2877 74.9343 55.2252H82.3828C82.3426 55.2877 82.3181 55.3614 82.3181 55.4418L82.5481 65.7638C82.5481 65.9804 82.7244 66.1568 82.941 66.1568H83.5885C83.8051 66.1568 83.9815 65.9804 83.9815 65.7638L84.2115 55.4418C84.2115 55.319 84.1556 55.2118 84.0686 55.1404C84.1556 55.0711 84.2115 54.964 84.2115 54.8456V53.7114C84.2115 53.6176 84.178 53.535 84.1222 53.468C84.2204 53.3899 84.2851 53.2715 84.2851 53.1353V42.0653C84.2851 42.0184 84.2807 41.9738 84.2784 41.9269H84.2851V40.2166H84.2896Z" fill="url(#paint14_linear_608_1042)"/>
<path d="M70.0647 51.923L73.2598 55.1627C73.387 55.2922 73.6058 55.2007 73.6058 55.0198V53.7472C73.6058 53.6646 73.5724 53.5842 73.5143 53.5261L70.3081 50.273C70.1853 50.148 69.9731 50.235 69.9731 50.4114V51.702C69.9731 51.7846 70.0066 51.865 70.0647 51.923Z" fill="url(#paint15_linear_608_1042)"/>
<path d="M82.4498 50.7418H82.6128V41.9291L82.2891 42.3801L82.4498 50.7418Z" fill="#136262"/>
<path d="M82.6129 41.9291H74.7134V42.302L82.2891 42.3801L82.6129 41.9291Z" fill="#136262"/>
<path d="M82.613 50.742H77.8394L82.45 50.4696L82.613 50.742Z" fill="#136262"/>
<path d="M53.2185 51.4473H52.8479C52.83 51.4875 52.8099 51.5299 52.7831 51.5679C52.7139 51.6706 52.6358 51.7666 52.5576 51.8626C52.4572 52.0211 52.3277 52.1506 52.1647 52.2467C52.0731 52.2846 51.9816 52.3248 51.8878 52.3628C51.8342 52.3762 51.7806 52.3873 51.7271 52.394L51.9459 62.1623C51.9459 62.3789 52.1223 62.5553 52.3388 62.5553H52.9863C53.2029 62.5553 53.3793 62.3789 53.3793 62.1623L53.6093 51.8403C53.6115 51.6237 53.4351 51.4473 53.2185 51.4473Z" fill="url(#paint16_linear_608_1042)"/>
<path d="M42.6421 62.2181L42.4121 51.896C42.4121 51.6795 42.5885 51.5031 42.8051 51.5031H43.9148C44.1313 51.5031 44.3077 51.6795 44.3077 51.896L44.0777 62.2181C44.0777 62.4347 43.9014 62.6111 43.6848 62.6111H43.0373C42.8185 62.6133 42.6421 62.4369 42.6421 62.2181Z" fill="url(#paint17_linear_608_1042)"/>
<path d="M53.4239 50.217L49.1638 50.2751L49.53 53.3295L49.9788 54.2762L52.9662 51.7509L53.4239 50.217Z" fill="#136262"/>
<path d="M39.2949 40.2163C39.2949 39.9529 39.4445 39.7296 39.6611 39.6135C39.5294 39.5108 39.4423 39.35 39.4423 39.1692V38.9169C39.4423 38.6043 39.6968 38.3498 40.0094 38.3498H40.2617C40.5743 38.3498 40.8288 38.6043 40.8288 38.9169V39.1692C40.8288 39.35 40.7418 39.5086 40.61 39.6135C40.8266 39.7296 40.9762 39.9551 40.9762 40.2163V40.2856C41.0119 40.2833 41.0476 40.2811 41.0834 40.2811H48.6212C48.6569 40.2811 48.6926 40.2833 48.7283 40.2856V40.2163C48.7283 39.9529 48.8779 39.7296 49.0945 39.6135C48.9628 39.5108 48.8757 39.35 48.8757 39.1692V38.9169C48.8757 38.6043 49.1302 38.3498 49.4428 38.3498H49.6951C50.0077 38.3498 50.2622 38.6043 50.2622 38.9169V39.1692C50.2622 39.35 50.1752 39.5086 50.0434 39.6135C50.26 39.7296 50.4096 39.9551 50.4096 40.2163V41.9289H50.4029C50.4074 41.9735 50.4096 42.0204 50.4096 42.0673V53.1351C50.4096 53.2333 50.3739 53.3249 50.3181 53.3963C50.4185 53.4655 50.4833 53.5794 50.4833 53.7112V54.8454C50.4833 54.966 50.4275 55.0709 50.3404 55.1401C50.4275 55.2116 50.4833 55.321 50.4833 55.4415L50.2533 65.7636C50.2533 65.9802 50.0769 66.1566 49.8603 66.1566H49.2128C48.9963 66.1566 48.8199 65.9802 48.8199 65.7636L48.5899 55.4415C48.5899 55.3612 48.6145 55.2875 48.6547 55.225H41.2062C41.2464 55.2875 41.2709 55.3612 41.2709 55.4415L41.0409 65.7636C41.0409 65.9802 40.8646 66.1566 40.648 66.1566H40.0005C39.7839 66.1566 39.6075 65.9802 39.6075 65.7636L39.3775 55.4415C39.3775 55.3187 39.4334 55.2116 39.5204 55.1401C39.4334 55.0709 39.3775 54.9637 39.3775 54.8454V53.7112C39.3775 53.6174 39.411 53.5348 39.4668 53.4678C39.3686 53.3896 39.3039 53.2713 39.3039 53.1351V42.0651C39.3039 42.0182 39.3083 41.9735 39.3106 41.9266H39.3039V40.2163H39.2949Z" fill="url(#paint18_linear_608_1042)"/>
<path d="M53.5199 51.9229L50.3248 55.1626C50.1976 55.2921 49.9788 55.2006 49.9788 55.0197V53.747C49.9788 53.6644 50.0123 53.5841 50.0703 53.526L53.2765 50.2729C53.3993 50.1478 53.6115 50.2349 53.6115 50.4113V51.7018C53.6115 51.7844 53.578 51.8648 53.5199 51.9229Z" fill="url(#paint19_linear_608_1042)"/>
<path d="M41.1349 50.7417H40.9719V41.929L41.2957 42.38L41.1349 50.7417Z" fill="#136262"/>
<path d="M40.9719 41.929H48.8737V42.3019L41.2957 42.38L40.9719 41.929Z" fill="#136262"/>
<path d="M40.9719 50.7418H45.7456L41.1349 50.4695L40.9719 50.7418Z" fill="#136262"/>
<path d="M73.1792 49.4736H67.8518V50.9874H73.1792V49.4736Z" fill="#CCE39A"/>
<path d="M54.3147 49.4736H50.4006V50.9874H54.3147V49.4736Z" fill="#CCE39A"/>
<path d="M72.2752 14.589V10.4026C72.2752 10.1034 72.0318 9.86227 71.7349 9.86227H67.314C67.0148 9.86227 66.7737 10.1056 66.7737 10.4026V14.589H72.2752Z" fill="#1CA698"/>
<path d="M67.6021 10.6773H66.7715V9.9048C66.7715 9.67482 66.9568 9.4895 67.1868 9.4895C67.4167 9.4895 67.6021 9.67482 67.6021 9.9048V10.6773Z" fill="#1CA698"/>
<path d="M67.1866 9.59223C66.9968 9.59223 66.8428 9.43817 66.8428 9.24839C66.8428 9.0586 66.9968 8.90454 67.1866 8.90454C67.3764 8.90454 67.5305 9.0586 67.5305 9.24839C67.5282 9.43817 67.3764 9.59223 67.1866 9.59223Z" fill="#1CA698"/>
<path d="M72.2749 10.6773H71.4443V9.9048C71.4443 9.67482 71.6297 9.4895 71.8596 9.4895C72.0896 9.4895 72.2749 9.67482 72.2749 9.9048V10.6773Z" fill="#1CA698"/>
<path d="M71.8597 9.59223C71.6699 9.59223 71.5159 9.43817 71.5159 9.24839C71.5159 9.0586 71.6699 8.90454 71.8597 8.90454C72.0495 8.90454 72.2036 9.0586 72.2036 9.24839C72.2013 9.43817 72.0473 9.59223 71.8597 9.59223Z" fill="#1CA698"/>
<path d="M70.625 14.5667H68.4927C68.0015 14.5667 67.6018 14.167 67.6018 13.6758V11.6373C67.6018 11.1461 68.0015 10.7464 68.4927 10.7464H70.625C71.1162 10.7464 71.5158 11.1461 71.5158 11.6373V13.6758C71.5158 14.1693 71.1162 14.5667 70.625 14.5667Z" fill="#136262"/>
<path d="M68.0083 10.9027L71.2525 10.9183C71.3262 10.9206 71.3865 10.9786 71.3865 11.0545L71.4401 14.2161C71.4423 14.3077 71.3954 14.3925 71.3195 14.4416L71.2525 14.4841C71.2525 14.4841 71.2369 11.9342 71.2257 11.4966C71.2168 11.1505 71.0382 11.0769 70.7725 11.0657C70.5068 11.0545 68.0083 10.9027 68.0083 10.9027Z" fill="#1CA698"/>
<path d="M58.1888 14.5889V10.4025C58.1888 10.1033 57.9454 9.86218 57.6484 9.86218H53.2276C52.9284 9.86218 52.6873 10.1056 52.6873 10.4025V14.5889H58.1888Z" fill="#1CA698"/>
<path d="M53.5156 10.6772H52.6851V9.9047C52.6851 9.67473 52.8704 9.48941 53.1004 9.48941C53.3303 9.48941 53.5156 9.67473 53.5156 9.9047V10.6772Z" fill="#1CA698"/>
<path d="M53.1004 9.59214C52.9107 9.59214 52.7566 9.43808 52.7566 9.24829C52.7566 9.05851 52.9107 8.90445 53.1004 8.90445C53.2902 8.90445 53.4443 9.05851 53.4443 9.24829C53.4443 9.43808 53.2902 9.59214 53.1004 9.59214Z" fill="#1CA698"/>
<path d="M58.1887 10.6772H57.3582V9.9047C57.3582 9.67473 57.5435 9.48941 57.7734 9.48941C58.0034 9.48941 58.1887 9.67473 58.1887 9.9047V10.6772Z" fill="#1CA698"/>
<path d="M57.7735 9.59214C57.5837 9.59214 57.4297 9.43808 57.4297 9.24829C57.4297 9.05851 57.5837 8.90445 57.7735 8.90445C57.9633 8.90445 58.1174 9.05851 58.1174 9.24829C58.1174 9.43808 57.9633 9.59214 57.7735 9.59214Z" fill="#1CA698"/>
<path d="M56.541 14.5667H54.4087C53.9175 14.5667 53.5178 14.167 53.5178 13.6758V11.6373C53.5178 11.1461 53.9175 10.7465 54.4087 10.7465H56.541C57.0322 10.7465 57.4319 11.1461 57.4319 11.6373V13.6758C57.4319 14.1693 57.0322 14.5667 56.541 14.5667Z" fill="#136262"/>
<path d="M53.9241 10.9026L57.1683 10.9183C57.242 10.9205 57.3022 10.9786 57.3022 11.0545L57.3558 14.2161C57.3581 14.3076 57.3112 14.3925 57.2353 14.4416L57.1683 14.484C57.1683 14.484 57.1526 11.9342 57.1415 11.4966C57.1325 11.1505 56.9539 11.0768 56.6882 11.0656C56.4225 11.0522 53.9241 10.9026 53.9241 10.9026Z" fill="#1CA698"/>
<path d="M47.6279 19.4742H46.094V26.7686H47.6279V19.4742Z" fill="#D9F2A5"/>
<path d="M51.6467 13.9458H50.1128V21.2403H51.6467V13.9458Z" fill="#D9F2A5"/>
<path d="M47.6279 26.7686L48.0522 26.3422V19.4742H47.6279V26.7686Z" fill="#CCE39A"/>
<path d="M51.6467 21.2404L51.9303 20.9568V19.0746H51.6467V21.2404Z" fill="#CCE39A"/>
<path d="M77.3308 26.7677L78.8647 26.7677L78.8647 19.4732L77.3308 19.4732L77.3308 26.7677Z" fill="#D9F2A5"/>
<path d="M73.3138 21.2405L74.8477 21.2405L74.8477 13.9461L73.3138 13.9461L73.3138 21.2405Z" fill="#D9F2A5"/>
<path d="M77.3325 26.7686L76.906 26.3422V19.4742H77.3325V26.7686Z" fill="#CCE39A"/>
<path d="M73.3114 21.2404L73.03 20.9568V19.0746H73.3114V21.2404Z" fill="#CCE39A"/>
<path d="M78.8664 18.5655L75.1735 14.5868H50.1353L46.094 18.5655H78.8664Z" fill="url(#paint20_linear_608_1042)"/>
<path d="M55.0425 16.6589C55.0425 16.7772 55.5917 16.871 56.2705 16.871C56.9493 16.871 57.4985 16.775 57.4985 16.6589V16.3106H55.0447V16.6299V16.6589H55.0425Z" fill="#382B1E"/>
<path d="M56.2685 16.5248C56.9468 16.5248 57.4966 16.4298 57.4966 16.3127C57.4966 16.1956 56.9468 16.1006 56.2685 16.1006C55.5903 16.1006 55.0405 16.1956 55.0405 16.3127C55.0405 16.4298 55.5903 16.5248 56.2685 16.5248Z" fill="#4F3C2B"/>
<path d="M56.2685 16.5181C56.0832 16.5181 55.9336 16.3685 55.9336 16.1832V10.1949C55.9336 10.0096 56.0832 9.85999 56.2685 9.85999C56.4538 9.85999 56.6034 10.0096 56.6034 10.1949V16.1832C56.6034 16.3685 56.4538 16.5181 56.2685 16.5181Z" fill="#382B1E"/>
<path opacity="0.37" d="M55.0427 10.2732L53.1738 14.9151L59.0036 14.9843L57.4965 10.2732H55.0427Z" fill="url(#paint21_radial_608_1042)"/>
<path d="M56.2685 10.4853C56.9468 10.4853 57.4966 10.3904 57.4966 10.2732C57.4966 10.1561 56.9468 10.0611 56.2685 10.0611C55.5903 10.0611 55.0405 10.1561 55.0405 10.2732C55.0405 10.3904 55.5903 10.4853 56.2685 10.4853Z" fill="#D9F2A5"/>
<path d="M55.0425 10.2732C55.0425 10.2732 55.6051 9.0072 55.6051 7.84393C56.5228 7.84393 56.2705 7.84393 56.2705 7.84393V10.2732H55.0425Z" fill="#D9F2A5"/>
<path d="M57.4963 10.2732C57.4963 10.2732 56.9337 9.0072 56.9337 7.84393C56.016 7.84393 56.2683 7.84393 56.2683 7.84393V10.2732H57.4963Z" fill="#D9F2A5"/>
<path d="M56.9338 7.8438C56.9338 7.85273 56.9293 7.85942 56.9204 7.86612C56.8578 7.91748 56.5899 7.95767 56.2684 7.95767C55.9379 7.95767 55.6655 7.91524 55.612 7.86166L55.603 7.8438V7.84156C55.6075 7.77681 55.9044 7.72769 56.2684 7.72769C56.6234 7.72769 56.9137 7.77458 56.9315 7.8371C56.9338 7.83933 56.9338 7.84156 56.9338 7.8438Z" fill="#1CA698"/>
<path opacity="0.37" d="M57.6817 5.81436L56.9315 7.83724L56.9203 7.86627C56.8578 7.91762 56.5899 7.95781 56.2683 7.95781C55.9379 7.95781 55.6655 7.91539 55.6119 7.8618L55.603 7.84394V7.84171L54.6541 5.84562L57.6817 5.81436Z" fill="url(#paint22_radial_608_1042)"/>
<path d="M67.6179 16.6589C67.6179 16.7772 68.1672 16.871 68.8459 16.871C69.5247 16.871 70.074 16.775 70.074 16.6589V16.3106H67.6201V16.6299V16.6589H67.6179Z" fill="#382B1E"/>
<path d="M68.8459 16.5248C69.5242 16.5248 70.074 16.4298 70.074 16.3127C70.074 16.1956 69.5242 16.1006 68.8459 16.1006C68.1677 16.1006 67.6179 16.1956 67.6179 16.3127C67.6179 16.4298 68.1677 16.5248 68.8459 16.5248Z" fill="#4F3C2B"/>
<path d="M68.8457 16.5181C68.6603 16.5181 68.5107 16.3685 68.5107 16.1832V10.1949C68.5107 10.0096 68.6603 9.85999 68.8457 9.85999C69.031 9.85999 69.1806 10.0096 69.1806 10.1949V16.1832C69.1806 16.3685 69.031 16.5181 68.8457 16.5181Z" fill="#382B1E"/>
<path opacity="0.37" d="M67.6178 10.2732L65.7512 14.9151L71.581 14.9843L70.0716 10.2732H67.6178Z" fill="url(#paint23_radial_608_1042)"/>
<path d="M68.8459 10.4853C69.5242 10.4853 70.074 10.3904 70.074 10.2732C70.074 10.1561 69.5242 10.0611 68.8459 10.0611C68.1677 10.0611 67.6179 10.1561 67.6179 10.2732C67.6179 10.3904 68.1677 10.4853 68.8459 10.4853Z" fill="#D9F2A5"/>
<path d="M67.6179 10.2732C67.6179 10.2732 68.1806 9.0072 68.1806 7.84393C69.0982 7.84393 68.8459 7.84393 68.8459 7.84393V10.2732H67.6179Z" fill="#D9F2A5"/>
<path d="M70.0715 10.2732C70.0715 10.2732 69.5089 9.0072 69.5089 7.84393C68.5912 7.84393 68.8435 7.84393 68.8435 7.84393V10.2732H70.0715Z" fill="#D9F2A5"/>
<path d="M69.5111 7.8438C69.5111 7.85273 69.5067 7.85942 69.4977 7.86612C69.4352 7.91748 69.1673 7.95767 68.8458 7.95767C68.5153 7.95767 68.2429 7.91524 68.1894 7.86166L68.1804 7.8438V7.84156C68.1849 7.77681 68.4818 7.72769 68.8458 7.72769C69.2008 7.72769 69.491 7.77458 69.5089 7.8371C69.5111 7.83933 69.5111 7.84156 69.5111 7.8438Z" fill="#1CA698"/>
<path opacity="0.37" d="M70.2569 5.81436L69.5067 7.83724L69.4955 7.86627C69.433 7.91762 69.1651 7.95781 68.8435 7.95781C68.5131 7.95781 68.2407 7.91539 68.1871 7.8618L68.1782 7.84394V7.84171L67.2292 5.84562L70.2569 5.81436Z" fill="url(#paint24_radial_608_1042)"/>
<path d="M78.8664 18.5655H46.094V19.4742H78.8664V18.5655Z" fill="#CCE39A"/>
<path d="M67.4525 19.7511H67.6736C67.6847 19.7757 67.6959 19.8002 67.7115 19.8248C67.754 19.8873 67.8008 19.9453 67.8477 20.0012C67.908 20.0972 67.9862 20.1731 68.0844 20.2311C68.1402 20.2535 68.1938 20.278 68.2496 20.3004C68.2809 20.3093 68.3144 20.316 68.3456 20.3182L68.2139 26.1859C68.2139 26.3154 68.109 26.4226 67.9772 26.4226H67.5887C67.4592 26.4226 67.3521 26.3176 67.3521 26.1859L67.2136 19.9855C67.2159 19.856 67.323 19.7511 67.4525 19.7511Z" fill="url(#paint25_linear_608_1042)"/>
<path d="M73.8047 26.2216L73.9432 20.0212C73.9432 19.8917 73.8382 19.7845 73.7065 19.7845H73.0411C72.9116 19.7845 72.8044 19.8895 72.8044 20.0212L72.9429 26.2216C72.9429 26.3511 73.0478 26.4583 73.1795 26.4583H73.5681C73.6998 26.4583 73.8047 26.3511 73.8047 26.2216Z" fill="url(#paint26_linear_608_1042)"/>
<path d="M67.3296 19.0119L69.8883 19.0454L69.6673 20.8807L69.3994 21.4501L67.6042 19.934L67.3296 19.0119Z" fill="#136262"/>
<path d="M75.8164 13.0037C75.8164 12.8452 75.7271 12.7112 75.5976 12.642C75.6758 12.5795 75.7293 12.4835 75.7293 12.3763V12.2245C75.7293 12.0369 75.5775 11.8851 75.39 11.8851H75.2381C75.0506 11.8851 74.8988 12.0369 74.8988 12.2245V12.3763C74.8988 12.4857 74.9501 12.5795 75.0305 12.642C74.901 12.7112 74.8117 12.8474 74.8117 13.0037V13.0461C74.7893 13.0439 74.7693 13.0439 74.7469 13.0439H70.2189C70.1966 13.0439 70.1765 13.0461 70.1541 13.0461V13.0037C70.1541 12.8452 70.0648 12.7112 69.9353 12.642C70.0135 12.5795 70.0671 12.4835 70.0671 12.3763V12.2245C70.0671 12.0369 69.9152 11.8851 69.7277 11.8851H69.5759C69.3883 11.8851 69.2365 12.0369 69.2365 12.2245V12.3763C69.2365 12.4857 69.2878 12.5795 69.3682 12.642C69.2387 12.7112 69.1494 12.8474 69.1494 13.0037V14.033H69.1539C69.1516 14.0598 69.1494 14.0866 69.1494 14.1156V20.7626C69.1494 20.8228 69.1695 20.8764 69.2052 20.9188C69.1449 20.959 69.1047 21.0283 69.1047 21.1064V21.7874C69.1047 21.8588 69.1382 21.9236 69.1918 21.966C69.1405 22.0084 69.1047 22.0732 69.1047 22.1469L69.2432 28.3472C69.2432 28.4767 69.3481 28.5839 69.4798 28.5839H69.8683C69.9978 28.5839 70.105 28.479 70.105 28.3472L70.2434 22.1469C70.2434 22.0977 70.2278 22.0531 70.2033 22.0174H74.6777C74.6531 22.0553 74.6375 22.1 74.6375 22.1469L74.776 28.3472C74.776 28.4767 74.8809 28.5839 75.0126 28.5839H75.4011C75.5306 28.5839 75.6378 28.479 75.6378 28.3472L75.7762 22.1469C75.7762 22.0732 75.7427 22.0084 75.6891 21.966C75.7405 21.9236 75.7762 21.8611 75.7762 21.7874V21.1064C75.7762 21.0506 75.7561 20.9992 75.7226 20.9613C75.7829 20.9144 75.8209 20.8429 75.8209 20.7603V14.1156C75.8209 14.0888 75.8186 14.0598 75.8164 14.033H75.8209V13.0037H75.8164Z" fill="url(#paint27_linear_608_1042)"/>
<path d="M67.2718 20.0368L69.1919 21.9838C69.2679 22.0619 69.3996 22.0061 69.3996 21.899V21.1331C69.3996 21.084 69.3795 21.0349 69.346 20.9992L67.4191 19.0455C67.3455 18.9696 67.2182 19.0232 67.2182 19.1281V19.9029C67.216 19.9542 67.236 20.0011 67.2718 20.0368Z" fill="url(#paint28_linear_608_1042)"/>
<path d="M74.711 19.3269H74.807V14.033L74.6128 14.3054L74.711 19.3269Z" fill="#136262"/>
<path d="M74.8071 14.033H70.0625V14.2563L74.6129 14.3054L74.8071 14.033Z" fill="#136262"/>
<path d="M74.8073 19.3267H71.9404L74.7113 19.1638L74.8073 19.3267Z" fill="#136262"/>
<path d="M57.1504 19.7511H56.9294C56.9182 19.7757 56.9071 19.8002 56.8914 19.8248C56.849 19.8873 56.8021 19.9453 56.7552 20.0012C56.6949 20.0972 56.6168 20.1731 56.5186 20.2311C56.4627 20.2535 56.4092 20.278 56.3533 20.3004C56.3221 20.3093 56.2886 20.316 56.2573 20.3182L56.3891 26.1859C56.3891 26.3154 56.494 26.4226 56.6257 26.4226H57.0142C57.1437 26.4226 57.2509 26.3176 57.2509 26.1859L57.3893 19.9855C57.3871 19.856 57.2822 19.7511 57.1504 19.7511Z" fill="url(#paint29_linear_608_1042)"/>
<path d="M50.7983 26.2216L50.6599 20.0212C50.6599 19.8917 50.7649 19.7845 50.8966 19.7845H51.5619C51.6914 19.7845 51.7986 19.8895 51.7986 20.0212L51.6602 26.2216C51.6602 26.3511 51.5552 26.4583 51.4235 26.4583H51.035C50.9055 26.4583 50.7983 26.3511 50.7983 26.2216Z" fill="url(#paint30_linear_608_1042)"/>
<path d="M57.2758 19.0119L54.717 19.0454L54.9359 20.8807L55.206 21.4501L57.0012 19.934L57.2758 19.0119Z" fill="#136262"/>
<path d="M48.7889 13.0037C48.7889 12.8452 48.8782 12.7112 49.0077 12.642C48.9296 12.5795 48.876 12.4835 48.876 12.3763V12.2245C48.876 12.0369 49.0278 11.8851 49.2153 11.8851H49.3672C49.5547 11.8851 49.7066 12.0369 49.7066 12.2245V12.3763C49.7066 12.4857 49.6552 12.5795 49.5748 12.642C49.7043 12.7112 49.7936 12.8474 49.7936 13.0037V13.0461C49.816 13.0439 49.8361 13.0439 49.8584 13.0439H54.3864C54.4087 13.0439 54.4288 13.0461 54.4512 13.0461V13.0037C54.4512 12.8452 54.5405 12.7112 54.67 12.642C54.5918 12.5795 54.5382 12.4835 54.5382 12.3763V12.2245C54.5382 12.0369 54.6901 11.8851 54.8776 11.8851H55.0295C55.217 11.8851 55.3688 12.0369 55.3688 12.2245V12.3763C55.3688 12.4857 55.3175 12.5795 55.2371 12.642C55.3666 12.7112 55.4559 12.8474 55.4559 13.0037V14.033H55.4514C55.4537 14.0598 55.4559 14.0866 55.4559 14.1156V20.7626C55.4559 20.8228 55.4358 20.8764 55.4001 20.9188C55.4604 20.959 55.5006 21.0283 55.5006 21.1064V21.7874C55.5006 21.8588 55.4671 21.9236 55.4135 21.966C55.4648 22.0084 55.5006 22.0732 55.5006 22.1469L55.3621 28.3472C55.3621 28.4767 55.2572 28.5839 55.1255 28.5839H54.737C54.6075 28.5839 54.5003 28.479 54.5003 28.3472L54.3619 22.1469C54.3619 22.0977 54.3775 22.0531 54.402 22.0174H49.9276C49.9522 22.0553 49.9678 22.1 49.9678 22.1469L49.8294 28.3472C49.8294 28.4767 49.7244 28.5839 49.5927 28.5839H49.2042C49.0747 28.5839 48.9675 28.479 48.9675 28.3472L48.8291 22.1469C48.8291 22.0732 48.8626 22.0084 48.9162 21.966C48.8648 21.9236 48.8291 21.8611 48.8291 21.7874V21.1064C48.8291 21.0506 48.8492 20.9992 48.8827 20.9613C48.8224 20.9144 48.7844 20.8429 48.7844 20.7603V14.1156C48.7844 14.0888 48.7867 14.0598 48.7889 14.033H48.7844V13.0037H48.7889Z" fill="url(#paint31_linear_608_1042)"/>
<path d="M57.3336 20.0368L55.4135 21.9838C55.3375 22.0619 55.2058 22.0061 55.2058 21.899V21.1331C55.2058 21.084 55.2259 21.0349 55.2594 20.9992L57.1863 19.0455C57.2599 18.9696 57.3872 19.0232 57.3872 19.1281V19.9029C57.3872 19.9542 57.3694 20.0011 57.3336 20.0368Z" fill="url(#paint32_linear_608_1042)"/>
<path d="M49.8941 19.3269H49.7959V14.033L49.9901 14.3054L49.8941 19.3269Z" fill="#136262"/>
<path d="M49.7959 14.033H54.5427V14.2563L49.9901 14.3054L49.7959 14.033Z" fill="#136262"/>
<path d="M49.7959 19.3267H52.6628L49.8941 19.1638L49.7959 19.3267Z" fill="#136262"/>
<path d="M69.1427 18.5655H65.9431V19.4742H69.1427V18.5655Z" fill="#CCE39A"/>
<path d="M57.8115 18.5655H55.4604V19.4742H57.8115V18.5655Z" fill="#CCE39A"/>
</g>
<path d="M117.567 13.6712L108.546 15.6829L81.5569 0.254535L89.1505 0L117.567 13.6712Z" fill="#4F3C2B"/>
<path d="M108.546 15.683L105.735 56.0691L114.753 54.0597L117.567 13.6713L108.546 15.683Z" fill="#382B1E"/>
<path d="M79.9246 35.4964L81.8626 0.814941L108.198 15.8704L105.445 55.4193L79.9246 35.4964Z" fill="#1CA698"/>
<path d="M82.1664 1.3731L107.85 16.0557L105.155 54.7673L80.2685 35.3401L82.1664 1.3731ZM81.5568 0.254486L79.5786 35.6504L105.733 56.069L108.546 15.6829L81.5568 0.254486Z" fill="#604835"/>
<path d="M81.5224 9.05443L81.1716 9.62506L107.289 25.6807L107.64 25.11L81.5224 9.05443Z" fill="#604835"/>
<path d="M80.6263 26.5052L80.2366 27.0499L105.91 45.4155L106.3 44.8707L80.6263 26.5052Z" fill="#604835"/>
<path d="M81.174 17.9666L80.7908 18.516L106.821 36.6724L107.204 36.123L81.174 17.9666Z" fill="#604835"/>
<path opacity="0.32" d="M108.546 19.8023L85.5288 6.66031L85.7186 3.36029L108.546 15.6829V19.8023Z" fill="url(#paint33_linear_608_1042)"/>
<path d="M104.963 22.9772L103.603 22.2069L103.882 16.404L105.242 17.1743L104.963 22.9772Z" fill="#136262"/>
<path d="M105.242 17.1744L109.399 16.4041L107.973 15.683L103.882 16.4041L105.242 17.1744Z" fill="#197C79"/>
<path d="M105.242 17.1743L104.963 22.9772L109.082 22.1868L109.399 16.404L105.242 17.1743Z" fill="#0E423F"/>
<path d="M104.324 16.4777L105.327 17.0135L109.225 16.3169L108.183 15.79L104.324 16.4777Z" fill="#0E423F"/>
<path d="M97.0321 18.1747L95.6724 17.4044L95.9492 11.6015L97.309 12.3718L97.0321 18.1747Z" fill="#136262"/>
<path d="M97.309 12.372L101.469 11.6017L100.04 10.8805L95.9492 11.6017L97.309 12.372Z" fill="#197C79"/>
<path d="M97.3088 12.3718L97.032 18.1747L101.151 17.3821L101.468 11.6015L97.3088 12.3718Z" fill="#0E423F"/>
<path d="M96.3914 11.6753L97.3939 12.2112L101.292 11.5123L100.25 10.9854L96.3914 11.6753Z" fill="#0E423F"/>
<path d="M98.9186 19.3311L97.5588 18.5608L97.8357 12.7579L99.1955 13.5282L98.9186 19.3311Z" fill="#136262"/>
<path d="M99.1954 13.5282L103.355 12.7579L101.926 12.0367L97.8357 12.7579L99.1954 13.5282Z" fill="#197C79"/>
<path d="M99.1953 13.5282L98.9185 19.3311L103.038 18.5385L103.355 12.7579L99.1953 13.5282Z" fill="#0E423F"/>
<path d="M98.2778 12.8316L99.2803 13.3652L103.179 12.6686L102.136 12.1416L98.2778 12.8316Z" fill="#0E423F"/>
<path d="M85.5133 10.985L84.1536 10.2147L84.4304 4.4118L85.7902 5.18211L85.5133 10.985Z" fill="#136262"/>
<path d="M85.7899 5.18219L89.9496 4.41189L88.5228 3.6907L84.4302 4.41189L85.7899 5.18219Z" fill="#197C79"/>
<path d="M85.79 5.18211L85.5132 10.985L89.6326 10.1947L89.9497 4.4118L85.79 5.18211Z" fill="#0E423F"/>
<path d="M84.8748 4.48566L85.8773 5.02153L89.7734 4.32267L88.733 3.79797L84.8748 4.48566Z" fill="#0E423F"/>
<path d="M87.1498 12.0368L85.79 11.2643L86.0691 5.46133L87.4289 6.23164L87.1498 12.0368Z" fill="#136262"/>
<path d="M87.4291 6.23169L91.5865 5.46139L90.1598 4.7402L86.0693 5.46139L87.4291 6.23169Z" fill="#197C79"/>
<path d="M87.429 6.23164L87.1499 12.0368L91.2693 11.2442L91.5864 5.46133L87.429 6.23164Z" fill="#0E423F"/>
<path d="M86.5115 5.53495L87.514 6.07081L91.4124 5.37419L90.3697 4.84726L86.5115 5.53495Z" fill="#0E423F"/>
<path d="M89.9989 13.4433L88.5253 12.9186L87.793 7.15588L89.2666 7.67835L89.9989 13.4433Z" fill="#136262"/>
<path d="M89.2666 7.67843L93.2297 6.20035L91.6981 5.73593L87.793 7.15597L89.2666 7.67843Z" fill="#197C79"/>
<path d="M89.2666 7.6784L89.9989 13.4434L93.9197 11.9474L93.2298 6.20032L89.2666 7.6784Z" fill="#0E423F"/>
<path d="M88.2439 7.15147L89.3223 7.50425L93.0421 6.14226L91.9235 5.80511L88.2439 7.15147Z" fill="#0E423F"/>
<path opacity="0.32" d="M106.885 31.1381L85.8997 17.3687L86.0872 12.7513L107.837 25.871L106.885 31.1381Z" fill="url(#paint34_linear_608_1042)"/>
<path d="M88.9741 22.8433L83.4324 19.0699L83.6244 17.4557L89.1639 21.229L88.9741 22.8433Z" fill="#136262"/>
<path d="M89.1639 21.229L93.5111 19.6817L93.3637 21.2625L88.9741 22.8433L89.1639 21.229Z" fill="#136262"/>
<path d="M83.6245 17.4555L87.5229 16.2588L93.5112 19.6816L89.164 21.2289L83.6245 17.4555Z" fill="#197C79"/>
<path d="M93.491 19.9027L89.3314 21.4076L89.2197 22.4771L93.3861 21.0347L93.491 19.9027Z" fill="#0E423F"/>
<path d="M90.4521 21.4658L84.9104 17.6924L85.1024 16.0804L90.6419 19.8537L90.4521 21.4658Z" fill="#136262"/>
<path d="M90.6419 19.8537L94.9891 18.3064L94.8418 19.8872L90.4521 21.4658L90.6419 19.8537Z" fill="#136262"/>
<path d="M85.1025 16.0802L89.0009 14.8835L94.9892 18.3063L90.642 19.8536L85.1025 16.0802Z" fill="#197C79"/>
<path d="M94.969 18.5275L90.8094 20.0302L90.6978 21.1019L94.8641 19.6573L94.969 18.5275Z" fill="#0E423F"/>
<path d="M89.6664 19.5521L84.127 15.7787L84.3167 14.1645L89.8585 17.9378L89.6664 19.5521Z" fill="#136262"/>
<path d="M89.8585 17.9378L94.2035 16.3905L94.0561 17.9713L89.6665 19.5521L89.8585 17.9378Z" fill="#136262"/>
<path d="M84.3167 14.1643L88.2173 12.9676L94.2033 16.3904L89.8584 17.9377L84.3167 14.1643Z" fill="#197C79"/>
<path d="M94.1833 16.6117L90.0237 18.1165L89.9143 19.186L94.0784 17.7414L94.1833 16.6117Z" fill="#0E423F"/>
<path d="M93.4508 25.9267L92.0911 25.1564L92.3679 19.3535L93.7277 20.1238L93.4508 25.9267Z" fill="#136262"/>
<path d="M93.7277 20.1238L97.8873 19.3535L96.4583 18.6323L92.3679 19.3535L93.7277 20.1238Z" fill="#197C79"/>
<path d="M93.7278 20.1238L93.4509 25.9267L97.5704 25.1363L97.8874 19.3535L93.7278 20.1238Z" fill="#0E423F"/>
<path d="M92.8101 19.4271L93.8126 19.9629L97.711 19.2663L96.6683 18.7394L92.8101 19.4271Z" fill="#0E423F"/>
<path d="M96.0209 27.7798L94.6611 27.0073L94.938 21.2043L96.2977 21.9769L96.0209 27.7798Z" fill="#136262"/>
<path d="M96.2977 21.9769L100.457 21.2044L99.0284 20.4832L94.938 21.2044L96.2977 21.9769Z" fill="#197C79"/>
<path d="M96.2979 21.9769L96.021 27.7798L100.14 26.9872L100.457 21.2043L96.2979 21.9769Z" fill="#0E423F"/>
<path d="M95.3801 21.2803L96.3826 21.8139L100.281 21.1173L99.2383 20.5904L95.3801 21.2803Z" fill="#0E423F"/>
<path d="M80.9004 26.6435L105.735 44.3403L106.318 36.3962L81.2978 18.9449L80.9004 26.6435Z" fill="#1CA698"/>
<path opacity="0.32" d="M106.318 39.1492L85.071 24.3617L85.2586 19.7421L107.01 32.8618L106.318 39.1492Z" fill="url(#paint35_linear_608_1042)"/>
<path d="M87.7751 30.7428L82.2334 26.9694L82.4254 25.3552L87.9649 29.1285L87.7751 30.7428Z" fill="#136262"/>
<path d="M87.9649 29.1286L92.3121 27.5813L92.1647 29.1621L87.7751 30.7429L87.9649 29.1286Z" fill="#136262"/>
<path d="M82.4253 25.3553L86.3237 24.1585L92.312 27.5814L87.9648 29.1287L82.4253 25.3553Z" fill="#197C79"/>
<path d="M92.2918 27.8023L88.1321 29.305L88.0205 30.3767L92.1868 28.9321L92.2918 27.8023Z" fill="#0E423F"/>
<path d="M96.7016 37.5529L95.3374 36.6018L95.7527 30.2317L97.1124 31.0043L96.7016 37.5529Z" fill="#136262"/>
<path d="M97.1124 31.0042L101.272 30.2316L99.8453 29.5105L95.7527 30.2316L97.1124 31.0042Z" fill="#197C79"/>
<path d="M97.1122 31.0043L96.7014 37.5529L100.821 36.7603L101.272 30.2317L97.1122 31.0043Z" fill="#0E423F"/>
<path d="M96.197 30.3076L97.1995 30.8412L101.098 30.1446L100.055 29.6176L96.197 30.3076Z" fill="#0E423F"/>
<path d="M98.843 38.8925L97.4788 37.9414L97.8963 31.5713L99.256 32.3416L98.843 38.8925Z" fill="#136262"/>
<path d="M99.2557 32.3414L103.413 31.5711L101.986 30.8499L97.896 31.5711L99.2557 32.3414Z" fill="#197C79"/>
<path d="M99.2558 32.3416L98.8428 38.8925L102.962 38.0999L103.413 31.5713L99.2558 32.3416Z" fill="#0E423F"/>
<path d="M98.3384 31.645L99.3409 32.1809L103.239 31.4842L102.197 30.9573L98.3384 31.645Z" fill="#0E423F"/>
<path d="M100.62 40.4173L99.2559 39.4684L99.6712 33.0984L101.031 33.8687L100.62 40.4173Z" fill="#136262"/>
<path d="M101.031 33.8687L105.191 33.0984L103.764 32.3772L99.6711 33.0984L101.031 33.8687Z" fill="#197C79"/>
<path d="M101.031 33.8687L100.62 40.4173L104.74 39.6247L105.191 33.0984L101.031 33.8687Z" fill="#0E423F"/>
<path d="M100.115 33.1719L101.118 33.7055L105.016 33.0089L103.974 32.482L100.115 33.1719Z" fill="#0E423F"/>
<path d="M103.795 42.159L102.295 41.4423L101.676 35.0901L103.143 35.6304L103.795 42.159Z" fill="#136262"/>
<path d="M103.143 35.6304L107.124 34.197L105.597 33.7169L101.676 35.0901L103.143 35.6304Z" fill="#197C79"/>
<path d="M103.143 35.6304L103.795 42.159L107.732 40.7122L107.124 34.197L103.143 35.6304Z" fill="#0E423F"/>
<path d="M102.125 35.09L103.201 35.4562L106.937 34.1389L105.822 33.7883L102.125 35.09Z" fill="#0E423F"/>
<path opacity="0.32" d="M106.318 48.5357L85.0713 33.7481L85.2588 29.1286L107.01 42.2505L106.318 48.5357Z" fill="url(#paint36_linear_608_1042)"/>
<path d="M82.5974 36.3963L81.2332 35.4474L81.6507 29.0774L83.0104 29.8477L82.5974 36.3963Z" fill="#136262"/>
<path d="M83.0106 29.8476L87.168 29.0773L85.7413 28.3561L81.6509 29.0773L83.0106 29.8476Z" fill="#197C79"/>
<path d="M83.0105 29.8477L82.5974 36.3963L86.7169 35.606L87.1679 29.0774L83.0105 29.8477Z" fill="#0E423F"/>
<path d="M82.0928 29.1509L83.0953 29.6867L86.9937 28.9879L85.951 28.4632L82.0928 29.1509Z" fill="#0E423F"/>
<path d="M84.5019 37.785L83.1377 36.8338L83.553 30.4638L84.9127 31.2341L84.5019 37.785Z" fill="#136262"/>
<path d="M84.9127 31.2342L89.0724 30.4639L87.6456 29.7428L83.553 30.4639L84.9127 31.2342Z" fill="#197C79"/>
<path d="M84.9128 31.2341L84.502 37.785L88.6214 36.9924L89.0724 30.4638L84.9128 31.2341Z" fill="#0E423F"/>
<path d="M83.9973 30.5376L84.9998 31.0735L88.896 30.3769L87.8555 29.8499L83.9973 30.5376Z" fill="#0E423F"/>
<path d="M86.4536 39.5601L85.0894 38.6089L85.5069 32.2389L86.8666 33.0114L86.4536 39.5601Z" fill="#136262"/>
<path d="M86.8663 33.0114L91.0237 32.2389L89.597 31.5177L85.5066 32.2389L86.8663 33.0114Z" fill="#197C79"/>
<path d="M86.8664 33.0114L86.4534 39.5601L90.5728 38.7675L91.0238 32.2389L86.8664 33.0114Z" fill="#0E423F"/>
<path d="M85.949 32.3147L86.9515 32.8483L90.8499 32.1517L89.8072 31.6248L85.949 32.3147Z" fill="#0E423F"/>
<path d="M89.6284 41.3016L88.128 40.5849L87.5117 34.2305L88.9764 34.7708L89.6284 41.3016Z" fill="#136262"/>
<path d="M88.9764 34.7707L92.9574 33.3395L91.4324 32.8572L87.5117 34.2304L88.9764 34.7707Z" fill="#197C79"/>
<path d="M88.9763 34.7708L89.6283 41.3016L93.5669 39.8548L92.9573 33.3396L88.9763 34.7708Z" fill="#0E423F"/>
<path d="M87.9602 34.2328L89.0342 34.5989L92.7696 33.2816L91.6554 32.9288L87.9602 34.2328Z" fill="#0E423F"/>
<path d="M99.7204 49.3752L94.1809 45.6019L94.3707 43.9898L99.9124 47.7632L99.7204 49.3752Z" fill="#136262"/>
<path d="M99.9125 47.7632L104.257 46.2159L104.11 47.7966L99.7205 49.3752L99.9125 47.7632Z" fill="#136262"/>
<path d="M94.3708 43.9897L98.2715 42.7929L104.258 46.2158L99.9126 47.7631L94.3708 43.9897Z" fill="#197C79"/>
<path d="M104.237 46.4368L100.078 47.9394L99.9683 49.0111L104.132 47.5665L104.237 46.4368Z" fill="#0E423F"/>
<path d="M101.199 48L95.6592 44.2267L95.849 42.6124L101.391 46.3857L101.199 48Z" fill="#136262"/>
<path d="M101.391 46.3858L105.735 44.8385L105.588 46.4193L101.198 48.0001L101.391 46.3858Z" fill="#136262"/>
<path d="M95.8491 42.6123L99.7498 41.4155L105.736 44.8383L101.391 46.3856L95.8491 42.6123Z" fill="#197C79"/>
<path d="M105.716 45.0595L101.556 46.5644L101.447 47.6339L105.611 46.1893L105.716 45.0595Z" fill="#0E423F"/>
<path d="M9.03671 65.2882C8.72858 65.2882 8.47852 65.0381 8.47852 64.73V42.5051C8.47852 37.2447 12.4216 33.1632 15.8109 33.1632C16.934 33.1632 17.8829 33.612 18.555 34.4627C19.2672 35.3647 19.6289 36.6597 19.6289 38.3142V60.5592C19.6289 60.8673 19.3789 61.1174 19.0707 61.1174C18.7626 61.1174 18.5125 60.8673 18.5125 60.5592V38.3142C18.5125 36.9366 18.2245 35.8448 17.6797 35.1571C17.2198 34.5766 16.5901 34.2819 15.8109 34.2819C13.337 34.2819 9.5949 37.5618 9.5949 42.5073V64.7322C9.5949 65.0381 9.34483 65.2882 9.03671 65.2882Z" fill="#382B1E"/>
<path d="M22.9246 48.875L9.03687 48.5691L19.1848 44.3805L33.0725 44.6841L22.9246 48.875Z" fill="#4F3C2B"/>
<path d="M22.909 50.0115L9.03687 49.7011V48.5691L22.909 48.8817V50.0115Z" fill="#382B1E"/>
<path d="M33.0725 45.8183L22.9089 50.0114V48.8817L33.0725 44.6885V45.8183Z" fill="#4F3C2B"/>
<path d="M22.9246 56.9219L9.03687 56.616L19.1848 52.4274L33.0725 52.731L22.9246 56.9219Z" fill="#4F3C2B"/>
<path d="M22.909 58.0584L9.03687 57.7481V56.6161L22.909 56.9286V58.0584Z" fill="#382B1E"/>
<path d="M33.0725 53.8653L22.9089 58.0584V56.9286L33.0725 52.7355V53.8653Z" fill="#4F3C2B"/>
<path d="M33.0724 61.2983C32.7642 61.2983 32.5142 61.0482 32.5142 60.7401V44.7312C32.5142 44.4231 32.7642 44.173 33.0724 44.173C33.3805 44.173 33.6305 44.4231 33.6305 44.7312V60.7401C33.6305 61.0482 33.3805 61.2983 33.0724 61.2983Z" fill="#382B1E"/>
<path d="M25.0906 54.506L26.4124 53.8384L26.4146 48.3302L25.0928 48.9978L25.0906 54.506Z" fill="#136262"/>
<path d="M25.0926 48.9979L21.1875 48.078L22.574 47.4595L26.4144 48.3303L25.0926 48.9979Z" fill="#197C79"/>
<path d="M25.0926 48.9979L25.0904 54.5061L21.2232 53.5684L21.1875 48.078L25.0926 48.9979Z" fill="#0E423F"/>
<path d="M25.9926 48.3793L25.0191 48.8393L21.3574 48.002L22.3689 47.551L25.9926 48.3793Z" fill="#0E423F"/>
<path d="M23.4917 55.4259L24.8135 54.7583L24.8157 49.2501L23.4939 49.9177L23.4917 55.4259Z" fill="#136262"/>
<path d="M23.494 49.9177L19.5889 48.9978L20.9754 48.3794L24.8158 49.2501L23.494 49.9177Z" fill="#197C79"/>
<path d="M23.494 49.9177L23.4917 55.4259L19.6246 54.4882L19.5889 48.9978L23.494 49.9177Z" fill="#0E423F"/>
<path d="M24.394 49.2993L23.4205 49.7593L19.7588 48.922L20.7702 48.4687L24.394 49.2993Z" fill="#0E423F"/>
<path d="M20.7275 56.6272L22.1476 56.1985L23.1032 50.7751L21.6854 51.2016L20.7275 56.6272Z" fill="#136262"/>
<path d="M21.6856 51.2017L17.9993 49.6209L19.4707 49.2525L23.1034 50.7752L21.6856 51.2017Z" fill="#197C79"/>
<path d="M21.6855 51.2016L20.7276 56.6272L17.0837 55.033L17.9992 49.6208L21.6855 51.2016Z" fill="#0E423F"/>
<path d="M22.6792 50.7505L21.641 51.0341L18.1802 49.5739L19.2541 49.3059L22.6792 50.7505Z" fill="#0E423F"/>
<path d="M22.909 65.3619C22.6009 65.3619 22.3508 65.1118 22.3508 64.8037V48.7948C22.3508 48.4867 22.6009 48.2366 22.909 48.2366C23.2171 48.2366 23.4672 48.4867 23.4672 48.7948V64.8037C23.4672 65.1118 23.2171 65.3619 22.909 65.3619Z" fill="#382B1E"/>
<path d="M18.6821 48.5491L23.5964 46.3298L23.429 45.037L18.5125 47.2564L18.6821 48.5491Z" fill="#136262"/>
<path d="M18.5124 47.2564L14.6587 45.4591L14.7882 46.7206L18.6821 48.5492L18.5124 47.2564Z" fill="#136262"/>
<path d="M23.429 45.037L19.9682 43.5745L14.6587 45.459L18.5124 47.2563L23.429 45.037Z" fill="#197C79"/>
<path d="M14.6765 45.6354L18.365 47.3747L18.4633 48.2299L14.7681 46.5374L14.6765 45.6354Z" fill="#0E423F"/>
<path d="M17.3713 47.2699L22.2857 45.0505L22.116 43.7578L17.2017 45.9771L17.3713 47.2699Z" fill="#136262"/>
<path d="M17.2019 45.9769L13.3459 44.1796L13.4777 45.4411L17.3716 47.2697L17.2019 45.9769Z" fill="#136262"/>
<path d="M22.1162 43.7577L18.6577 42.2953L13.3459 44.1797L17.2019 45.9771L22.1162 43.7577Z" fill="#197C79"/>
<path d="M13.3638 44.3561L17.0545 46.0954L17.1528 46.9506L13.4575 45.2581L13.3638 44.3561Z" fill="#0E423F"/>
<path d="M18.0681 45.8722L22.9824 43.6528L22.8127 42.36L17.8984 44.5794L18.0681 45.8722Z" fill="#136262"/>
<path d="M17.8985 44.5794L14.0425 42.782L14.1742 44.0435L18.0681 45.8721L17.8985 44.5794Z" fill="#136262"/>
<path d="M22.8128 42.3599L19.3542 40.8974L14.0425 42.7818L17.8985 44.5792L22.8128 42.3599Z" fill="#197C79"/>
<path d="M14.0603 42.9584L17.7511 44.6955L17.8493 45.5529L14.1541 43.8604L14.0603 42.9584Z" fill="#0E423F"/>
<defs>
<linearGradient id="paint0_linear_608_1042" x1="62.4807" y1="23.8736" x2="62.4807" y2="103.74" gradientUnits="userSpaceOnUse">
<stop stop-color="#EFBA7F"/>
<stop offset="0.2825" stop-color="#E7B176"/>
<stop offset="0.7512" stop-color="#D0995C"/>
<stop offset="1" stop-color="#C2894C"/>
</linearGradient>
<linearGradient id="paint1_linear_608_1042" x1="62.4807" y1="23.8736" x2="62.4807" y2="103.74" gradientUnits="userSpaceOnUse">
<stop stop-color="#EFBA7F"/>
<stop offset="0.2825" stop-color="#E7B176"/>
<stop offset="0.7512" stop-color="#D0995C"/>
<stop offset="1" stop-color="#C2894C"/>
</linearGradient>
<linearGradient id="paint2_linear_608_1042" x1="62.3824" y1="94.6967" x2="62.6105" y2="126.278" gradientUnits="userSpaceOnUse">
<stop stop-color="#D9F2A5"/>
<stop offset="1" stop-color="#9CC079"/>
</linearGradient>
<radialGradient id="paint3_radial_608_1042" cx="0" cy="0" r="1" gradientUnits="userSpaceOnUse" gradientTransform="translate(40.9589 77.4162) rotate(-2.77428) scale(10.9059 14.0615)">
<stop stop-color="#F5FFDC"/>
<stop offset="1" stop-color="#F5FFDC" stop-opacity="0"/>
</radialGradient>
<radialGradient id="paint4_radial_608_1042" cx="0" cy="0" r="1" gradientUnits="userSpaceOnUse" gradientTransform="translate(41.3621 68.2902) rotate(-2.77428) scale(5.17378 5.34057)">
<stop stop-color="#F5FFDC"/>
<stop offset="1" stop-color="#F5FFDC" stop-opacity="0"/>
</radialGradient>
<radialGradient id="paint5_radial_608_1042" cx="0" cy="0" r="1" gradientUnits="userSpaceOnUse" gradientTransform="translate(86.1637 77.4149) rotate(-2.77428) scale(10.9059 14.0615)">
<stop stop-color="#F5FFDC"/>
<stop offset="1" stop-color="#F5FFDC" stop-opacity="0"/>
</radialGradient>
<radialGradient id="paint6_radial_608_1042" cx="0" cy="0" r="1" gradientUnits="userSpaceOnUse" gradientTransform="translate(86.5669 68.2888) rotate(-2.77428) scale(5.17379 5.34057)">
<stop stop-color="#F5FFDC"/>
<stop offset="1" stop-color="#F5FFDC" stop-opacity="0"/>
</radialGradient>
<linearGradient id="paint7_linear_608_1042" x1="62.4625" y1="42.3615" x2="61.7784" y2="55.359" gradientUnits="userSpaceOnUse">
<stop stop-color="#D9F2A5"/>
<stop offset="1" stop-color="#9CC079"/>
</linearGradient>
<radialGradient id="paint8_radial_608_1042" cx="0" cy="0" r="1" gradientUnits="userSpaceOnUse" gradientTransform="translate(51.6008 36.1691) rotate(-2.77428) scale(5.38395 6.94178)">
<stop stop-color="#F5FFDC"/>
<stop offset="1" stop-color="#F5FFDC" stop-opacity="0"/>
</radialGradient>
<radialGradient id="paint9_radial_608_1042" cx="0" cy="0" r="1" gradientUnits="userSpaceOnUse" gradientTransform="translate(51.8001 31.664) rotate(-2.77428) scale(2.55416 2.6365)">
<stop stop-color="#F5FFDC"/>
<stop offset="1" stop-color="#F5FFDC" stop-opacity="0"/>
</radialGradient>
<radialGradient id="paint10_radial_608_1042" cx="0" cy="0" r="1" gradientUnits="userSpaceOnUse" gradientTransform="translate(72.5377 36.1684) rotate(-2.77428) scale(5.38395 6.94178)">
<stop stop-color="#F5FFDC"/>
<stop offset="1" stop-color="#F5FFDC" stop-opacity="0"/>
</radialGradient>
<radialGradient id="paint11_radial_608_1042" cx="0" cy="0" r="1" gradientUnits="userSpaceOnUse" gradientTransform="translate(72.7368 31.6633) rotate(-2.77428) scale(2.55416 2.6365)">
<stop stop-color="#F5FFDC"/>
<stop offset="1" stop-color="#F5FFDC" stop-opacity="0"/>
</radialGradient>
<linearGradient id="paint12_linear_608_1042" x1="70.8795" y1="57.2089" x2="70.9175" y2="51.8883" gradientUnits="userSpaceOnUse">
<stop stop-color="#1CA698"/>
<stop offset="0.9972" stop-color="#118276"/>
</linearGradient>
<linearGradient id="paint13_linear_608_1042" x1="79.9369" y1="60.4039" x2="80.241" y2="54.5512" gradientUnits="userSpaceOnUse">
<stop stop-color="#1CA698"/>
<stop offset="0.9972" stop-color="#118276"/>
</linearGradient>
<linearGradient id="paint14_linear_608_1042" x1="78.7034" y1="49.6623" x2="78.7414" y2="66.0422" gradientUnits="userSpaceOnUse">
<stop stop-color="#1CA698"/>
<stop offset="0.9972" stop-color="#118276"/>
</linearGradient>
<linearGradient id="paint15_linear_608_1042" x1="74.2838" y1="54.7242" x2="70.7304" y2="51.8739" gradientUnits="userSpaceOnUse">
<stop stop-color="#1CA698"/>
<stop offset="0.9972" stop-color="#118276"/>
</linearGradient>
<linearGradient id="paint16_linear_608_1042" x1="52.7056" y1="57.2088" x2="52.6676" y2="51.8882" gradientUnits="userSpaceOnUse">
<stop stop-color="#1CA698"/>
<stop offset="0.9972" stop-color="#118276"/>
</linearGradient>
<linearGradient id="paint17_linear_608_1042" x1="43.6484" y1="60.4038" x2="43.3443" y2="54.5511" gradientUnits="userSpaceOnUse">
<stop stop-color="#1CA698"/>
<stop offset="0.9972" stop-color="#118276"/>
</linearGradient>
<linearGradient id="paint18_linear_608_1042" x1="44.8816" y1="49.662" x2="44.8436" y2="66.0419" gradientUnits="userSpaceOnUse">
<stop stop-color="#1CA698"/>
<stop offset="0.9972" stop-color="#118276"/>
</linearGradient>
<linearGradient id="paint19_linear_608_1042" x1="49.3013" y1="54.7241" x2="52.8547" y2="51.8738" gradientUnits="userSpaceOnUse">
<stop stop-color="#1CA698"/>
<stop offset="0.9972" stop-color="#118276"/>
</linearGradient>
<linearGradient id="paint20_linear_608_1042" x1="62.7048" y1="14.2932" x2="62.2939" y2="22.1004" gradientUnits="userSpaceOnUse">
<stop stop-color="#D9F2A5"/>
<stop offset="1" stop-color="#9CC079"/>
</linearGradient>
<radialGradient id="paint21_radial_608_1042" cx="0" cy="0" r="1" gradientUnits="userSpaceOnUse" gradientTransform="translate(56.1791 10.5728) rotate(-2.77428) scale(3.23397 4.16971)">
<stop stop-color="#F5FFDC"/>
<stop offset="1" stop-color="#F5FFDC" stop-opacity="0"/>
</radialGradient>
<radialGradient id="paint22_radial_608_1042" cx="0" cy="0" r="1" gradientUnits="userSpaceOnUse" gradientTransform="translate(56.2994 7.86739) rotate(-2.77428) scale(1.5342 1.58365)">
<stop stop-color="#F5FFDC"/>
<stop offset="1" stop-color="#F5FFDC" stop-opacity="0"/>
</radialGradient>
<radialGradient id="paint23_radial_608_1042" cx="0" cy="0" r="1" gradientUnits="userSpaceOnUse" gradientTransform="translate(68.7556 10.5724) rotate(-2.77428) scale(3.23397 4.16971)">
<stop stop-color="#F5FFDC"/>
<stop offset="1" stop-color="#F5FFDC" stop-opacity="0"/>
</radialGradient>
<radialGradient id="paint24_radial_608_1042" cx="0" cy="0" r="1" gradientUnits="userSpaceOnUse" gradientTransform="translate(68.8759 7.867) rotate(-2.77428) scale(1.5342 1.58365)">
<stop stop-color="#F5FFDC"/>
<stop offset="1" stop-color="#F5FFDC" stop-opacity="0"/>
</radialGradient>
<linearGradient id="paint25_linear_608_1042" x1="67.7606" y1="23.2115" x2="67.7834" y2="20.0155" gradientUnits="userSpaceOnUse">
<stop stop-color="#1CA698"/>
<stop offset="0.9972" stop-color="#118276"/>
</linearGradient>
<linearGradient id="paint26_linear_608_1042" x1="73.201" y1="25.1306" x2="73.3837" y2="21.615" gradientUnits="userSpaceOnUse">
<stop stop-color="#1CA698"/>
<stop offset="0.9972" stop-color="#118276"/>
</linearGradient>
<linearGradient id="paint27_linear_608_1042" x1="72.4601" y1="18.6785" x2="72.4829" y2="28.5174" gradientUnits="userSpaceOnUse">
<stop stop-color="#1CA698"/>
<stop offset="0.9972" stop-color="#118276"/>
</linearGradient>
<linearGradient id="paint28_linear_608_1042" x1="69.8055" y1="21.7189" x2="67.6711" y2="20.0068" gradientUnits="userSpaceOnUse">
<stop stop-color="#1CA698"/>
<stop offset="0.9972" stop-color="#118276"/>
</linearGradient>
<linearGradient id="paint29_linear_608_1042" x1="56.8439" y1="23.2115" x2="56.8211" y2="20.0155" gradientUnits="userSpaceOnUse">
<stop stop-color="#1CA698"/>
<stop offset="0.9972" stop-color="#118276"/>
</linearGradient>
<linearGradient id="paint30_linear_608_1042" x1="51.4035" y1="25.1306" x2="51.2209" y2="21.615" gradientUnits="userSpaceOnUse">
<stop stop-color="#1CA698"/>
<stop offset="0.9972" stop-color="#118276"/>
</linearGradient>
<linearGradient id="paint31_linear_608_1042" x1="52.1444" y1="18.6785" x2="52.1216" y2="28.5174" gradientUnits="userSpaceOnUse">
<stop stop-color="#1CA698"/>
<stop offset="0.9972" stop-color="#118276"/>
</linearGradient>
<linearGradient id="paint32_linear_608_1042" x1="54.7991" y1="21.7189" x2="56.9336" y2="20.0068" gradientUnits="userSpaceOnUse">
<stop stop-color="#1CA698"/>
<stop offset="0.9972" stop-color="#118276"/>
</linearGradient>
<linearGradient id="paint33_linear_608_1042" x1="97.0351" y1="13.3537" x2="97.2061" y2="4.57469" gradientUnits="userSpaceOnUse">
<stop/>
<stop offset="1" stop-color="#136262"/>
</linearGradient>
<linearGradient id="paint34_linear_608_1042" x1="96.5151" y1="23.6091" x2="97.0852" y2="18.1364" gradientUnits="userSpaceOnUse">
<stop/>
<stop offset="1" stop-color="#136262"/>
</linearGradient>
<linearGradient id="paint35_linear_608_1042" x1="95.2895" y1="32.0426" x2="96.1446" y2="27.5961" gradientUnits="userSpaceOnUse">
<stop/>
<stop offset="1" stop-color="#136262"/>
</linearGradient>
<linearGradient id="paint36_linear_608_1042" x1="95.4899" y1="40.5641" x2="96.288" y2="35.9465" gradientUnits="userSpaceOnUse">
<stop/>
<stop offset="1" stop-color="#136262"/>
</linearGradient>
</defs>
</svg>
