<svg width="124" height="115" viewBox="0 0 124 115" fill="none" xmlns="http://www.w3.org/2000/svg">
<path d="M62.082 113.37C54.6697 113.37 47.2574 112.908 39.8972 111.981L31.9976 110.988C25.5552 110.177 20.0305 106.198 17.2251 100.342L3.00999 70.6886C0.0233069 64.4569 1.14501 57.1692 5.86978 52.1249L48.0686 7.07535C51.6853 3.21395 56.793 1 62.082 1C67.371 1 72.4788 3.21395 76.0954 7.07535L118.294 52.1249C123.019 57.1692 124.143 64.4546 121.154 70.6886L106.939 100.342C104.131 106.198 98.6089 110.179 92.1664 110.988L84.2669 111.981C76.9044 112.908 69.4944 113.37 62.082 113.37Z" stroke="#D9F2A5" stroke-width="2" stroke-miterlimit="10"/>
<mask id="mask0_612_280" style="mask-type:alpha" maskUnits="userSpaceOnUse" x="5" y="4" width="115" height="105">
<path d="M51.0659 9.39137L9.3501 53.9252C5.62924 57.897 4.7287 63.7437 7.08084 68.6519L21.1332 97.9663C23.4181 102.733 27.9679 106.013 33.2142 106.671L41.0233 107.653C55.3176 109.449 69.7799 109.449 84.0742 107.653L91.8833 106.671C97.1275 106.013 101.679 102.733 103.964 97.9663L118.017 68.6519C120.369 63.746 119.468 57.897 115.747 53.9252L74.0295 9.39137C67.8131 2.7561 57.2822 2.7561 51.0659 9.39137Z" fill="#EDEDED"/>
</mask>
<g mask="url(#mask0_612_280)">
<path d="M51.0659 9.39125L9.3501 53.9251C5.62924 57.8969 4.7287 63.7436 7.08084 68.6518L21.1332 97.9661C23.4181 102.733 27.9679 106.013 33.2142 106.671L41.0233 107.652C55.3176 109.449 69.7799 109.449 84.0742 107.652L91.8833 106.671C97.1275 106.013 101.679 102.733 103.964 97.9661L118.017 68.6518C120.369 63.7459 119.468 57.8969 115.747 53.9251L74.0295 9.39125C67.8131 2.75598 57.2822 2.75598 51.0659 9.39125Z" fill="url(#paint0_linear_612_280)"/>
<path d="M58.7787 50.9347C58.8324 50.4217 58.8481 49.9065 58.8257 49.3935C58.8212 49.2837 58.8167 49.1762 58.8078 49.0664L58.5166 45.0476C58.4695 44.4024 58.9803 43.8536 59.6277 43.8536H65.4811C66.1241 43.8536 66.6326 44.3935 66.5945 45.0342L66.3817 48.5332L66.3391 49.221C66.3077 49.7407 66.3145 50.2604 66.3593 50.7779L66.6639 54.3262H58.4292L58.7787 50.9347Z" fill="url(#paint1_linear_612_280)"/>
<path d="M59.1886 51.3872C59.3387 50.5136 59.2759 49.6242 59.2401 48.7416C59.1998 47.8568 59.1191 46.9809 59.0295 46.096C59.0138 45.8698 59.0004 45.6435 59.0183 45.4083C59.0385 45.1776 59.0855 44.9199 59.2558 44.7004C59.3409 44.5906 59.4574 44.5145 59.5761 44.4562C59.6971 44.407 59.8203 44.3734 59.939 44.3599C60.1832 44.3263 60.4005 44.3375 60.6222 44.3353C61.5093 44.333 62.3987 44.2994 63.2835 44.501C62.3964 44.7004 61.5138 44.6668 60.6267 44.6668C60.405 44.6691 60.1787 44.6556 59.9838 44.6847C59.883 44.6959 59.7912 44.7228 59.706 44.7564C59.6276 44.7967 59.5537 44.8415 59.4999 44.9065C59.3902 45.0364 59.3409 45.2336 59.3185 45.4397C59.2983 45.6458 59.3028 45.863 59.3163 46.0803C59.379 46.9607 59.4148 47.8545 59.4215 48.7416C59.426 49.1852 59.4103 49.631 59.3835 50.0745C59.3566 50.5136 59.3163 50.9616 59.1886 51.3872Z" fill="#8E684C"/>
<path opacity="0.12" d="M66.6639 54.3284H58.4292L58.7787 50.9346C58.8324 50.4216 58.8481 49.9064 58.8257 49.3934C60.1429 50.4082 64.7598 50.1214 66.3817 48.5354L66.3391 49.2232C66.3077 49.7429 66.3145 50.2626 66.3593 50.78L66.6639 54.3284Z" fill="url(#paint2_linear_612_280)"/>
<path d="M25.0782 81.4855L24.9706 80.744C24.8161 79.6845 24.7018 78.5733 24.6279 77.4174L24.5316 75.8852L26.6373 66.4766C26.6328 66.4677 26.6306 66.4565 26.6261 66.4475C26.0257 64.5031 23.6713 65.3207 22.5289 66.5416L15.2507 73.0828C14.3658 73.878 13.8036 75.8628 14.0388 77.3816L15.4859 86.6625C15.524 86.9089 15.5598 87.1575 15.5934 87.4107C15.7525 88.5935 15.8645 89.8345 15.9227 91.1181L16.0504 93.8824L16.317 99.5791C16.3282 100.731 16.2587 102.861 16.2587 102.861L26.2945 90.3699L26.0123 87.8923L25.0782 81.4855Z" fill="url(#paint3_linear_612_280)"/>
<path d="M28.8103 87.3344L26.2969 90.3631L19.1128 99.0212L18.8484 93.3223L18.7207 90.5625C18.6603 89.2789 18.5505 88.0401 18.3892 86.8573C18.3556 86.6041 18.322 86.3532 18.2817 86.1091L16.8345 76.8282C16.5971 75.3116 17.1638 73.3246 18.0465 72.5294L25.3269 65.9882C25.8533 65.5155 26.3551 65.7395 26.6262 66.4474C26.6307 66.4586 26.6329 66.4676 26.6374 66.4765C26.7359 66.7431 26.8031 67.0769 26.8278 67.4667L27.3273 75.3318L27.4237 76.8663C27.4976 78.0199 27.6141 79.1333 27.7686 80.1906L27.8963 81.0643L28.8103 87.3344Z" fill="url(#paint4_linear_612_280)"/>
<path d="M21.6464 70.4103C21.0282 71.2056 20.2867 71.8776 19.637 72.5944C18.9874 73.3023 18.3758 74.046 18.1205 74.9197L18.0443 75.249C18.0219 75.3588 18.0174 75.473 18.0017 75.5828C17.9816 75.8113 17.9771 76.0577 17.9816 76.2974C17.986 76.779 18.0174 77.2629 18.0712 77.7467C18.172 78.7145 18.3445 79.6822 18.5237 80.6567C18.611 81.1428 18.7007 81.6334 18.7723 82.1284L18.9874 83.598C19.1352 84.5769 19.2674 85.5603 19.3861 86.546C19.5071 87.5317 19.5989 88.5195 19.6617 89.5097C19.7244 90.4998 19.758 91.4944 19.6841 92.4846C19.6415 90.5043 19.3301 88.5487 19.012 86.5998C18.8507 85.6253 18.6738 84.6531 18.499 83.6786L18.2369 82.2158C18.1496 81.7342 18.0533 81.2503 17.9547 80.7664C17.7576 79.7965 17.5627 78.8175 17.4395 77.8184C17.3812 77.3189 17.3454 76.8126 17.3364 76.3063C17.3319 76.051 17.3342 75.8023 17.3543 75.538C17.37 75.4036 17.3767 75.2692 17.4014 75.137L17.491 74.7427C17.7934 73.6988 18.4699 72.8476 19.2136 72.1688C19.9708 71.4878 20.7907 70.9323 21.6464 70.4103Z" fill="#664B35"/>
<path opacity="0.12" d="M28.8103 87.3346L26.2969 90.3632L16.2611 102.854C16.2611 102.854 16.3305 100.726 16.3193 99.5724L16.0527 93.8757C17.2198 94.5993 18.3914 94.1244 18.8484 93.3202C18.9918 89.1871 19.7915 85.0205 23.4743 82.3771C24.0075 81.9941 24.5451 81.6984 25.076 81.4833C26.046 81.0891 27.0003 80.9614 27.8918 81.0599L28.8103 87.3346Z" fill="url(#paint5_linear_612_280)"/>
<path d="M44.4821 60.5113L44.4104 60.0229C44.3096 59.3285 44.2335 58.5982 44.1864 57.8388L44.1215 56.833L45.5036 50.6547C45.5014 50.648 45.4992 50.6412 45.4969 50.6345C45.1026 49.3576 43.557 49.8953 42.8065 50.6972L38.0261 54.9938C37.4459 55.5158 37.0762 56.8195 37.2308 57.8164L38.1806 63.9118C38.2053 64.0731 38.2299 64.2366 38.2523 64.4046C38.3576 65.182 38.4293 65.9974 38.4696 66.8397L38.5547 68.6542L38.7295 72.3952C38.7384 73.1523 38.6914 74.5502 38.6914 74.5502L45.2819 66.3468L45.0959 64.7205L44.4821 60.5113Z" fill="url(#paint6_linear_612_280)"/>
<path d="M46.9328 64.3531L45.2819 66.3423L40.5641 72.0278L40.3917 68.2845L40.3065 66.4722C40.2662 65.63 40.1945 64.8168 40.0892 64.0395C40.0668 63.8737 40.0444 63.7079 40.0176 63.5466L39.0677 57.4512C38.9132 56.4544 39.2828 55.1506 39.863 54.6287L44.6434 50.3321C44.9884 50.0207 45.3177 50.1686 45.4969 50.6345C45.4992 50.6412 45.5014 50.6479 45.5036 50.6547C45.5686 50.8294 45.6134 51.0489 45.6291 51.3043L45.9561 56.47L46.0211 57.4781C46.0704 58.2353 46.1466 58.9678 46.2474 59.6622L46.3302 60.2357L46.9328 64.3531Z" fill="url(#paint7_linear_612_280)"/>
<path d="M42.2263 53.2376C41.8589 53.8066 41.3907 54.2726 40.9807 54.7452C40.5708 55.2157 40.1788 55.6861 40.0197 56.2304L39.9727 56.4365C39.9592 56.506 39.957 56.5754 39.9458 56.6449C39.9324 56.7882 39.9301 56.9518 39.9324 57.1041C39.9346 57.4155 39.9548 57.7291 39.9884 58.0449C40.0511 58.6767 40.1609 59.3106 40.2751 59.9491C40.3311 60.2694 40.3893 60.592 40.4319 60.919L40.5641 61.8845C40.6559 62.5297 40.7366 63.1771 40.806 63.8245C40.9382 65.1193 41.0524 66.432 40.9382 67.7335C40.8777 66.432 40.6537 65.1551 40.4341 63.876L40.078 61.9629L39.8988 61.0042L39.7083 60.0566C39.5762 59.4204 39.444 58.7752 39.3589 58.1144C39.3208 57.7828 39.2939 57.4491 39.2894 57.1086C39.2872 56.9383 39.2872 56.7748 39.3006 56.5933C39.3118 56.5015 39.3163 56.4096 39.332 56.3178L39.3925 56.0467C39.5986 55.3321 40.0556 54.7564 40.5596 54.3129C40.815 54.0911 41.0838 53.8962 41.3638 53.7215C41.6371 53.5445 41.9238 53.3855 42.2263 53.2376Z" fill="#664B35"/>
<path opacity="0.12" d="M46.9328 64.3531L45.2818 66.3423L38.6913 74.5457C38.6913 74.5457 38.7361 73.1478 38.7294 72.3907L38.5547 68.6496C39.3208 69.1245 40.0914 68.8132 40.3916 68.2845C40.4857 65.5694 41.0121 62.8342 43.4315 61.0981C43.7809 60.8473 44.1349 60.6524 44.4843 60.5112C45.1205 60.2514 45.7478 60.1685 46.3347 60.2335L46.9328 64.3531Z" fill="url(#paint8_linear_612_280)"/>
<path d="M98.6665 87.8879L98.3842 90.3655L108.42 102.856C108.42 102.856 108.351 100.728 108.362 99.5747L108.628 93.878L108.756 91.1137C108.814 89.8301 108.926 88.5891 109.085 87.4063C109.119 87.1532 109.155 86.9045 109.193 86.6581L110.64 77.3772C110.877 75.8606 110.313 73.8736 109.428 73.0784L102.15 66.5372C101.007 65.3163 98.6531 64.4987 98.0527 66.4431C98.0482 66.4543 98.046 66.4633 98.0415 66.4722L100.147 75.8808L100.051 77.413C99.977 78.569 99.8627 79.6823 99.7082 80.7396L99.6006 81.4811L98.6665 87.8879Z" fill="url(#paint9_linear_612_280)"/>
<path d="M95.8687 87.3345L98.3821 90.3631L105.566 99.0213L105.831 93.3224L105.958 90.5625C106.019 89.2789 106.128 88.0401 106.29 86.8573C106.323 86.6042 106.357 86.3533 106.397 86.1091L107.844 76.8283C108.082 75.3117 107.515 73.3247 106.632 72.5294L99.3521 65.9883C98.8256 65.5156 98.3238 65.7396 98.0528 66.4475C98.0483 66.4587 98.0461 66.4676 98.0416 66.4766C97.943 66.7432 97.8758 67.077 97.8512 67.4667L97.3516 75.3319L97.2553 76.8663C97.1814 78.02 97.0649 79.1334 96.9103 80.1907L96.7826 81.0644L95.8687 87.3345Z" fill="url(#paint10_linear_612_280)"/>
<path d="M103.035 70.4104C103.89 70.9346 104.71 71.4879 105.467 72.1666C106.211 72.8454 106.888 73.6966 107.19 74.7405L107.28 75.1348C107.304 75.267 107.311 75.4036 107.327 75.5358C107.347 75.8001 107.349 76.0488 107.345 76.3042C107.338 76.8127 107.3 77.3167 107.242 77.8163C107.118 78.8154 106.921 79.7943 106.726 80.7643C106.628 81.2504 106.532 81.732 106.444 82.2136L106.182 83.6764C106.007 84.6509 105.83 85.6231 105.669 86.5976C105.351 88.5465 105.04 90.5021 104.997 92.4824C104.923 91.4945 104.957 90.4977 105.019 89.5075C105.082 88.5174 105.174 87.5272 105.295 86.5438C105.411 85.5582 105.546 84.5747 105.694 83.5958L105.909 82.1263C105.98 81.6312 106.07 81.1428 106.157 80.6545C106.334 79.68 106.509 78.7123 106.61 77.7446C106.664 77.2607 106.695 76.7768 106.7 76.2952C106.702 76.0577 106.697 75.8091 106.679 75.5806C106.664 75.4686 106.659 75.3566 106.637 75.2468L106.561 74.9175C106.305 74.0439 105.691 73.3001 105.044 72.5923C104.392 71.8777 103.651 71.2056 103.035 70.4104Z" fill="#664B35"/>
<path opacity="0.12" d="M95.8687 87.3346L98.3821 90.3633L108.418 102.854C108.418 102.854 108.348 100.726 108.36 99.5725L108.626 93.8758C107.459 94.5994 106.288 94.1245 105.831 93.3203C105.687 89.1872 104.887 85.0206 101.205 82.3772C100.672 81.9941 100.134 81.6984 99.603 81.4834C98.633 81.0891 97.6787 80.9614 96.7871 81.06L95.8687 87.3346Z" fill="url(#paint11_linear_612_280)"/>
<path d="M79.5849 64.716L79.399 66.3423L85.9895 74.5457C85.9895 74.5457 85.9447 73.1478 85.9514 72.3907L86.1261 68.6496L86.2113 66.8351C86.2493 65.9928 86.3233 65.1774 86.4286 64.4001C86.451 64.2343 86.4734 64.0708 86.5002 63.9073L87.4501 57.8119C87.6046 56.815 87.235 55.5113 86.6548 54.9893L81.8744 50.6927C81.1239 49.8908 79.5782 49.3531 79.184 50.63C79.1817 50.6367 79.1795 50.6435 79.1772 50.6502L80.5594 56.8285L80.4944 57.8343C80.4474 58.5937 80.3712 59.324 80.2704 60.0184L80.1987 60.5068L79.5849 64.716Z" fill="url(#paint12_linear_612_280)"/>
<path d="M77.748 64.353L79.399 66.3422L84.1167 72.0277L84.2892 68.2844L84.3744 66.4722C84.4147 65.6299 84.4864 64.8167 84.5917 64.0394C84.6141 63.8736 84.6365 63.7078 84.6633 63.5465L85.6132 57.4511C85.7677 56.4543 85.3981 55.1505 84.8179 54.6286L80.0375 50.332C79.6925 50.0206 79.3632 50.1685 79.184 50.6344C79.1817 50.6411 79.1795 50.6478 79.1773 50.6546C79.1123 50.8293 79.0675 51.0488 79.0518 51.3042L78.7247 56.47L78.6598 57.478C78.6105 58.2352 78.5343 58.9677 78.4335 59.6621L78.3506 60.2356L77.748 64.353Z" fill="url(#paint13_linear_612_280)"/>
<path d="M82.4524 53.2375C82.7548 53.3854 83.0438 53.5444 83.3193 53.7236C83.5993 53.8984 83.8682 54.0933 84.1235 54.315C84.6276 54.7563 85.0845 55.332 85.2906 56.0489L85.3511 56.3199C85.369 56.4096 85.3735 56.5036 85.3825 56.5955C85.3959 56.7769 85.3959 56.9382 85.3937 57.1107C85.3892 57.449 85.3623 57.785 85.3242 58.1165C85.2391 58.7774 85.1069 59.4225 84.9748 60.0587L84.7844 61.0063L84.6052 61.9651L84.249 63.8782C84.0294 65.155 83.8032 66.4342 83.7449 67.7357C83.6285 66.4342 83.7449 65.1214 83.8771 63.8266C83.9466 63.177 84.0272 62.5296 84.1191 61.8867L84.2512 60.9212C84.296 60.5941 84.352 60.2715 84.408 59.9512C84.5223 59.3105 84.632 58.6766 84.6948 58.0471C84.7284 57.7312 84.7485 57.4176 84.7508 57.1062C84.753 56.9517 84.7485 56.7904 84.7373 56.647C84.7284 56.5776 84.7239 56.5081 84.7104 56.4387L84.6634 56.2326C84.5044 55.6882 84.1123 55.2178 83.7024 54.7474C83.288 54.2702 82.8198 53.8043 82.4524 53.2375Z" fill="#664B35"/>
<path opacity="0.12" d="M77.748 64.353L79.399 66.3422L85.9895 74.5456C85.9895 74.5456 85.9447 73.1477 85.9514 72.3906L86.1261 68.6495C85.36 69.1245 84.5894 68.8131 84.2892 68.2844C84.1951 65.5694 83.6687 62.8342 81.2494 61.0981C80.8999 60.8472 80.546 60.6523 80.1965 60.5111C79.5603 60.2513 78.9331 60.1684 78.3462 60.2334L77.748 64.353Z" fill="url(#paint14_linear_612_280)"/>
<path d="M70.5349 54.1448H62.5287H54.5247L11.429 108.889H62.5287H113.628L70.5349 54.1448Z" fill="url(#paint15_linear_612_280)"/>
<path d="M49.7576 103.508C49.9032 102.088 49.948 100.657 49.8853 99.2297C49.8741 98.9273 49.8584 98.6249 49.836 98.3247L49.0251 87.171C48.8952 85.3812 50.3154 83.8557 52.112 83.8557H68.3575C70.1406 83.8557 71.5519 85.3543 71.4444 87.133L70.8574 96.8462L70.741 98.7548C70.6536 100.195 70.6738 101.64 70.797 103.078L71.6437 112.926H48.7854L49.7576 103.508Z" fill="url(#paint16_linear_612_280)"/>
<path d="M50.8912 104.765C51.0211 104.162 51.0906 103.553 51.1287 102.942C51.1735 102.33 51.1891 101.716 51.1959 101.102C51.2071 99.8748 51.1578 98.6472 51.1085 97.4219C50.9965 94.9667 50.8061 92.5272 50.5686 90.072C50.5238 89.4515 50.4947 88.8243 50.544 88.1836C50.5731 87.8632 50.6157 87.5384 50.7142 87.2158C50.7971 86.891 50.9629 86.5729 51.1802 86.2907C51.4042 86.0062 51.7111 85.8045 52.0247 85.6522C52.3451 85.5245 52.6721 85.4327 52.9969 85.3924C53.1582 85.37 53.3218 85.3476 53.4808 85.3431C53.6421 85.3341 53.8034 85.3229 53.9557 85.3274L54.8786 85.3252C56.1107 85.3274 57.3406 85.305 58.5726 85.3364C59.8047 85.3744 61.0345 85.4506 62.2644 85.65C61.0323 85.8471 59.8047 85.9255 58.5749 85.9636C57.3473 85.995 56.1174 85.9726 54.8899 85.9748C54.2761 85.9793 53.6488 85.9479 53.0888 86.0263C52.802 86.0577 52.5355 86.1361 52.2823 86.2324C52.0471 86.3511 51.8253 86.49 51.6641 86.6894C51.3348 87.0859 51.1959 87.6594 51.1399 88.2396C51.0839 88.8243 51.1018 89.4313 51.1376 90.0362C51.3236 92.4824 51.458 94.9533 51.4781 97.4152C51.4938 98.6472 51.4669 99.8816 51.402 101.114C51.3258 102.337 51.2295 103.578 50.8912 104.765Z" fill="#664B35"/>
<path opacity="0.12" d="M71.6415 112.928H48.7854L49.7576 103.511C49.9032 102.09 49.948 100.659 49.8853 99.232C53.5434 102.05 66.3592 101.253 70.8574 96.8485L70.741 98.7571C70.6536 100.197 70.6737 101.642 70.797 103.081L71.6415 112.928Z" fill="url(#paint17_linear_612_280)"/>
<path opacity="0.12" d="M78.382 34.3554C82.0787 34.3554 85.0755 33.7055 85.0755 32.9038C85.0755 32.1021 82.0787 31.4522 78.382 31.4522C74.6853 31.4522 71.6885 32.1021 71.6885 32.9038C71.6885 33.7055 74.6853 34.3554 78.382 34.3554Z" fill="url(#paint18_linear_612_280)"/>
<path d="M76.9708 16.9026C80.9963 17.3058 81.2517 24.0441 83.2745 25.9841C85.2974 27.924 85.5819 33.7238 77.6809 33.67C69.547 33.6162 69.6097 26.1566 71.3817 22.0728C73.1559 17.9913 74.5335 16.6584 76.9708 16.9026Z" fill="url(#paint19_linear_612_280)"/>
<path opacity="0.09" d="M74.0923 22.6284C72.9812 24.136 74.836 26.002 78.3239 26.1745C81.8118 26.347 82.5555 25.9684 82.1545 24.5728C81.7536 23.1772 80.4072 24.1248 78.0372 22.9711C75.9225 21.9429 74.8943 21.5419 74.0923 22.6284Z" fill="url(#paint20_linear_612_280)"/>
<path opacity="0.43" d="M48.2881 31.1655L33.2075 67.3795L62.8915 82.3795L92.8063 65.2111L76.7692 31.1655H48.2881Z" fill="url(#paint21_radial_612_280)"/>
<path d="M76.7691 31.1655C76.7691 32.1713 70.3937 33.791 62.5286 33.791C54.6635 33.791 48.2881 32.7919 48.2881 31.1655C48.2881 26.17 51.8365 18.7126 62.5286 18.7126C73.5053 18.7126 76.7691 26.17 76.7691 31.1655Z" fill="#382B1E"/>
<path d="M62.5287 18.1705C62.7291 18.1705 62.8916 18.0081 62.8916 17.8076C62.8916 17.6072 62.7291 17.4447 62.5287 17.4447C62.3282 17.4447 62.1658 17.6072 62.1658 17.8076C62.1658 18.0081 62.3282 18.1705 62.5287 18.1705Z" fill="#382B1E"/>
<path d="M62.5287 17.0192C62.7291 17.0192 62.8916 16.8567 62.8916 16.6563C62.8916 16.4559 62.7291 16.2934 62.5287 16.2934C62.3282 16.2934 62.1658 16.4559 62.1658 16.6563C62.1658 16.8567 62.3282 17.0192 62.5287 17.0192Z" fill="#382B1E"/>
<path d="M62.5287 15.8655C62.7291 15.8655 62.8916 15.703 62.8916 15.5026C62.8916 15.3022 62.7291 15.1397 62.5287 15.1397C62.3282 15.1397 62.1658 15.3022 62.1658 15.5026C62.1658 15.703 62.3282 15.8655 62.5287 15.8655Z" fill="#382B1E"/>
<path d="M62.5287 14.714C62.7291 14.714 62.8916 14.5515 62.8916 14.3511C62.8916 14.1507 62.7291 13.9882 62.5287 13.9882C62.3282 13.9882 62.1658 14.1507 62.1658 14.3511C62.1658 14.5515 62.3282 14.714 62.5287 14.714Z" fill="#382B1E"/>
<path d="M62.5287 13.5625C62.7291 13.5625 62.8916 13.4 62.8916 13.1996C62.8916 12.9992 62.7291 12.8367 62.5287 12.8367C62.3282 12.8367 62.1658 12.9992 62.1658 13.1996C62.1658 13.4 62.3282 13.5625 62.5287 13.5625Z" fill="#382B1E"/>
<path d="M62.5287 12.4089C62.7291 12.4089 62.8916 12.2464 62.8916 12.046C62.8916 11.8456 62.7291 11.6831 62.5287 11.6831C62.3282 11.6831 62.1658 11.8456 62.1658 12.046C62.1658 12.2464 62.3282 12.4089 62.5287 12.4089Z" fill="#382B1E"/>
<path d="M62.5287 11.2574C62.7291 11.2574 62.8916 11.0949 62.8916 10.8945C62.8916 10.6941 62.7291 10.5316 62.5287 10.5316C62.3282 10.5316 62.1658 10.6941 62.1658 10.8945C62.1658 11.0949 62.3282 11.2574 62.5287 11.2574Z" fill="#382B1E"/>
<path d="M62.5287 10.1061C62.7291 10.1061 62.8916 9.94358 62.8916 9.74315C62.8916 9.54273 62.7291 9.38025 62.5287 9.38025C62.3282 9.38025 62.1658 9.54273 62.1658 9.74315C62.1658 9.94358 62.3282 10.1061 62.5287 10.1061Z" fill="#382B1E"/>
<path d="M62.5287 8.95246C62.7291 8.95246 62.8916 8.78998 62.8916 8.58956C62.8916 8.38913 62.7291 8.22665 62.5287 8.22665C62.3282 8.22665 62.1658 8.38913 62.1658 8.58956C62.1658 8.78998 62.3282 8.95246 62.5287 8.95246Z" fill="#382B1E"/>
<path d="M62.5287 7.80097C62.7291 7.80097 62.8916 7.63849 62.8916 7.43807C62.8916 7.23764 62.7291 7.07516 62.5287 7.07516C62.3282 7.07516 62.1658 7.23764 62.1658 7.43807C62.1658 7.63849 62.3282 7.80097 62.5287 7.80097Z" fill="#382B1E"/>
<path d="M62.5287 6.64725C62.7291 6.64725 62.8916 6.48477 62.8916 6.28435C62.8916 6.08392 62.7291 5.92145 62.5287 5.92145C62.3282 5.92145 62.1658 6.08392 62.1658 6.28435C62.1658 6.48477 62.3282 6.64725 62.5287 6.64725Z" fill="#382B1E"/>
<path d="M62.5287 5.49591C62.7291 5.49591 62.8916 5.33344 62.8916 5.13301C62.8916 4.93259 62.7291 4.77011 62.5287 4.77011C62.3282 4.77011 62.1658 4.93259 62.1658 5.13301C62.1658 5.33344 62.3282 5.49591 62.5287 5.49591Z" fill="#382B1E"/>
<path d="M81.9797 39.8011C81.9797 40.2289 82.99 40.4216 84.7619 40.4216C86.5316 40.4216 88.158 40.1438 88.3909 39.8011L88.4111 38.9162L81.9573 39.091L81.9797 39.8011Z" fill="url(#paint22_linear_612_280)"/>
<path d="M88.3887 39.0439C88.1558 39.3867 86.5294 39.6644 84.7597 39.6644C82.99 39.6644 81.7445 39.3867 81.9775 39.0439C82.2105 38.7012 83.8368 38.4234 85.6065 38.4234C87.3784 38.4234 88.624 38.7012 88.3887 39.0439Z" fill="url(#paint23_linear_612_280)"/>
<path fill-rule="evenodd" clip-rule="evenodd" d="M85.1853 31.0647C85.4328 31.0647 85.6334 31.2653 85.6334 31.5127V38.7282C85.6334 38.9756 85.4328 39.1762 85.1853 39.1762C84.9379 39.1762 84.7373 38.9756 84.7373 38.7282V31.5127C84.7373 31.2653 84.9379 31.0647 85.1853 31.0647Z" fill="url(#paint24_linear_612_280)"/>
<path d="M79.1346 31.9943C79.1346 32.8007 81.0432 33.1659 84.3855 33.1659C87.7278 33.1659 90.7923 32.6417 91.2336 31.9943L91.2716 30.7465L79.092 31.0758L79.1346 31.9943Z" fill="url(#paint25_linear_612_280)"/>
<path d="M91.2337 30.9839C90.7924 31.6313 87.7257 32.1555 84.3856 32.1555C81.0456 32.1555 78.6935 31.6313 79.1348 30.9839C79.5761 30.3365 82.6428 29.8123 85.9828 29.8123C89.3229 29.8123 91.675 30.3365 91.2337 30.9839Z" fill="url(#paint26_linear_612_280)"/>
<path opacity="0.12" d="M47.8065 22.9509C50.2747 22.9509 52.2755 22.5166 52.2755 21.9809C52.2755 21.4452 50.2747 21.0109 47.8065 21.0109C45.3383 21.0109 43.3374 21.4452 43.3374 21.9809C43.3374 22.5166 45.3383 22.9509 47.8065 22.9509Z" fill="url(#paint27_linear_612_280)"/>
<path d="M48.7496 11.2954C46.0614 11.5642 45.8912 16.0647 44.5404 17.3595C43.1896 18.6543 42.9992 22.5275 48.2769 22.4916C53.7093 22.4558 53.6667 17.4737 52.4839 14.7475C51.3011 12.0212 50.3759 11.1341 48.7496 11.2954Z" fill="url(#paint28_linear_612_280)"/>
<path opacity="0.09" d="M50.6716 15.1216C51.4131 16.1297 50.1743 17.3752 47.8445 17.4895C45.5148 17.6037 45.0175 17.3528 45.2863 16.4209C45.5529 15.489 46.4534 16.1207 48.0372 15.3524C49.4485 14.6624 50.1362 14.3958 50.6716 15.1216Z" fill="url(#paint29_linear_612_280)"/>
<path d="M45.4049 26.589C45.4049 26.8735 44.7284 27.0034 43.5479 27.0034C42.3651 27.0034 41.2808 26.8175 41.124 26.589L41.1106 25.9976L45.4206 26.1141L45.4049 26.589Z" fill="url(#paint30_linear_612_280)"/>
<path d="M41.124 26.0827C41.2808 26.3112 42.365 26.4971 43.5478 26.4971C44.7306 26.4971 45.5617 26.3112 45.4049 26.0827C45.2481 25.8542 44.1638 25.6683 42.981 25.6683C41.7983 25.6683 40.9672 25.852 41.124 26.0827Z" fill="url(#paint31_linear_612_280)"/>
<path fill-rule="evenodd" clip-rule="evenodd" d="M43.2635 20.6056C43.5109 20.6056 43.7115 20.8061 43.7115 21.0536V25.8721C43.7115 26.1196 43.5109 26.3201 43.2635 26.3201C43.016 26.3201 42.8154 26.1196 42.8154 25.8721V21.0536C42.8154 20.8061 43.016 20.6056 43.2635 20.6056Z" fill="url(#paint32_linear_612_280)"/>
<path d="M47.3045 21.3739C47.3045 21.9116 46.0299 22.1558 43.7987 22.1558C41.5675 22.1558 39.52 21.8063 39.2243 21.3739L39.1997 20.5406L47.3336 20.7602L47.3045 21.3739Z" fill="url(#paint33_linear_612_280)"/>
<path d="M39.2245 20.6997C39.5202 21.132 41.5677 21.4815 43.7988 21.4815C46.03 21.4815 47.6003 21.132 47.3047 20.6997C47.009 20.2673 44.9615 19.9178 42.7303 19.9178C40.4991 19.9178 38.9288 20.2673 39.2245 20.6997Z" fill="url(#paint34_linear_612_280)"/>
<path d="M59.5179 75.4171C59.5179 76.069 61.0793 76.5954 63.0058 76.5954C64.9323 76.5954 66.4937 76.0667 66.4937 75.4171L67.3516 69.9265H58.6599L59.5179 75.4171Z" fill="url(#paint35_linear_612_280)"/>
<path d="M67.3538 69.9265C67.3538 70.2737 66.9954 70.5941 66.395 70.845C65.5998 71.181 64.3789 71.3938 63.008 71.3938C61.637 71.3938 60.4161 71.181 59.6209 70.845C59.0205 70.5941 58.6621 70.2737 58.6621 69.9265C58.6621 69.1134 60.6065 68.457 63.008 68.457C65.4094 68.457 67.3538 69.1134 67.3538 69.9265Z" fill="url(#paint36_linear_612_280)"/>
<path d="M66.3953 70.8448C65.6 71.1809 64.3791 71.3937 63.0082 71.3937C61.6372 71.3937 60.4163 71.1809 59.6211 70.8448C60.0557 70.0518 61.4087 69.4739 63.0082 69.4739C64.6076 69.4739 65.9607 70.0518 66.3953 70.8448Z" fill="#136262"/>
<path d="M64.8763 67.7244C65.1071 69.8593 64.1976 70.8001 62.9633 70.9345C61.729 71.069 60.638 70.3454 60.4073 68.2105C60.1765 66.0757 60.4118 61.7612 61.9485 61.5932C63.4852 61.4252 64.6434 65.5918 64.8763 67.7244Z" fill="url(#paint37_linear_612_280)"/>
<path d="M62.5645 71.0196C62.206 70.8225 61.9843 70.4484 61.814 70.0855C61.6527 69.7114 61.5474 69.3171 61.4646 68.9228C61.3055 68.1276 61.254 67.3234 61.2092 66.5192C61.1778 65.715 61.1666 64.9108 61.2204 64.1065C61.2831 63.3091 61.3369 62.4847 61.6639 61.741C61.5385 62.1218 61.4847 62.5205 61.4534 62.917C61.4175 63.3135 61.3974 63.7123 61.3929 64.1133C61.3794 64.9108 61.3974 65.7105 61.4332 66.5102C61.4735 67.3077 61.5183 68.1074 61.6348 68.8937C61.6953 69.2857 61.7804 69.6755 61.9171 70.0474C62.0492 70.4125 62.2374 70.7822 62.5645 71.0196Z" fill="#136262"/>
<path d="M62.6138 61.7992C63.0394 62.469 63.2701 63.2419 63.4897 63.999C63.7069 64.7607 63.8638 65.5358 64.0004 66.3153C64.1236 67.0949 64.2446 67.8789 64.2535 68.6787C64.2558 69.0774 64.2334 69.4762 64.155 69.8682C64.0654 70.2512 63.9265 70.6567 63.6173 70.9143C63.8862 70.6209 63.9937 70.2288 64.0475 69.848C64.1012 69.4627 64.1057 69.0707 64.0833 68.6832C64.034 67.9058 63.9108 67.1263 63.7831 66.3534C63.6532 65.5783 63.5031 64.8077 63.3261 64.0416C63.241 63.6585 63.1402 63.2777 63.0282 62.9036C62.9184 62.525 62.7907 62.1532 62.6138 61.7992Z" fill="#136262"/>
<path d="M62.1567 61.676C62.374 62.4332 62.5152 63.2083 62.6563 63.9834C62.7974 64.7562 62.9117 65.5358 63.0169 66.3153C63.1178 67.0949 63.2141 67.8767 63.2678 68.663C63.3126 69.4471 63.3843 70.2423 63.2387 71.0219C63.2746 70.6298 63.2454 70.2378 63.2141 69.848C63.185 69.4583 63.1446 69.0685 63.0954 68.6787C63.0013 67.9014 62.9005 67.1218 62.7929 66.3445L62.4838 64.0102L62.3247 62.8431C62.2777 62.4511 62.2195 62.0636 62.1567 61.676Z" fill="#136262"/>
<path d="M62.9072 71.0196C62.6115 70.2871 62.5062 69.4963 62.383 68.7213C62.2687 67.9417 62.1926 67.1599 62.1231 66.3781C62.0582 65.5963 61.9999 64.8122 61.9708 64.0259C61.9439 63.2419 61.9126 62.4534 61.9753 61.6693C61.9887 62.0613 62.0134 62.4534 62.047 62.8431C62.0761 63.2329 62.1052 63.6249 62.1411 64.0147L62.3449 66.3579L62.5532 68.6989C62.5891 69.0886 62.6339 69.4784 62.6876 69.866C62.7369 70.2557 62.7929 70.6433 62.9072 71.0196Z" fill="#136262"/>
<path d="M63.5501 68.7213C63.1827 69.6734 63.689 70.2962 64.491 70.6031C65.2907 70.9122 66.0837 70.789 66.4511 69.8369C66.8185 68.8849 67.094 66.8195 66.0949 66.4342C65.098 66.0511 63.9175 67.7693 63.5501 68.7213Z" fill="url(#paint38_linear_612_280)"/>
<path d="M64.7463 70.7216C64.939 70.6746 65.1003 70.5626 65.2235 70.417C65.3489 70.2759 65.4453 70.1101 65.5281 69.9398C65.6872 69.5949 65.797 69.2185 65.9067 68.8467C66.0143 68.4726 66.1083 68.0962 66.1845 67.7154C66.2226 67.525 66.2539 67.3346 66.2741 67.1419C66.2988 66.9493 66.3055 66.7544 66.2719 66.5595C66.422 66.9336 66.3973 67.3502 66.357 67.7423C66.3144 68.1388 66.2271 68.5263 66.1218 68.9094C66.0053 69.288 65.8866 69.6688 65.6827 70.0227C65.5797 70.1975 65.4565 70.3632 65.2997 70.4976C65.1406 70.6253 64.9457 70.7261 64.7463 70.7216Z" fill="#136262"/>
<path d="M65.6356 66.3982C65.4945 66.5304 65.3758 66.6805 65.2705 66.8395C65.1607 66.9963 65.0622 67.1576 64.9659 67.3234C64.7732 67.6527 64.5962 67.991 64.4305 68.3359C64.2669 68.6809 64.0989 69.0259 63.9936 69.3821C63.9443 69.5613 63.904 69.745 63.9085 69.9309C63.904 70.1168 63.9511 70.3028 64.0631 70.4641C63.9107 70.3364 63.8323 70.137 63.7987 69.9399C63.7674 69.7405 63.7875 69.5366 63.8234 69.3418C63.9018 68.9475 64.0653 68.5913 64.2288 68.2374C64.4013 67.8879 64.5917 67.5474 64.818 67.2293C65.0443 66.9157 65.2974 66.5998 65.6356 66.3982Z" fill="#136262"/>
<path d="M65.9493 66.4319C65.7992 66.7769 65.667 67.1264 65.5214 67.4714L65.0891 68.5041L64.65 69.5323C64.5805 69.7048 64.5089 69.8773 64.4461 70.052C64.3812 70.2267 64.3184 70.4015 64.296 70.5874C64.2647 70.2066 64.3789 69.8325 64.4865 69.474C64.5985 69.1134 64.7374 68.7639 64.883 68.4167C65.033 68.0717 65.1876 67.7312 65.3624 67.3974C65.5371 67.0637 65.723 66.7344 65.9493 66.4319Z" fill="#136262"/>
<path d="M64.52 70.6546C64.6231 70.4977 64.697 70.3275 64.7642 70.155C64.8336 69.9825 64.8964 69.8078 64.9591 69.6331L65.3242 68.5779L65.6983 67.5251C65.8215 67.1734 65.9604 66.8262 66.0702 66.4677C66.0478 66.8441 65.9604 67.2137 65.8663 67.5766C65.7723 67.9395 65.658 68.2979 65.537 68.6519C65.4116 69.0058 65.2794 69.3575 65.1226 69.7003C64.9591 70.034 64.7933 70.388 64.52 70.6546Z" fill="#136262"/>
<path d="M20.6807 55.7957C20.6807 55.8024 20.6807 55.8136 20.6784 55.8204C20.5799 56.3311 17.3563 56.741 13.3958 56.741C9.37247 56.741 6.11084 56.3177 6.11084 55.7957C6.11084 55.2738 9.37247 54.8504 13.3958 54.8504C17.419 54.8504 20.6807 55.2738 20.6807 55.7957Z" fill="#0E423F"/>
<path d="M20.6784 55.8204L17.8827 89.1827C17.8827 89.1827 7.11438 89.223 7.11438 88.6988C7.11438 88.1768 6.11304 55.7957 6.11304 55.7957C6.11304 56.3177 9.37467 56.741 13.398 56.741C17.3563 56.741 20.5798 56.3311 20.6784 55.8204Z" fill="url(#paint39_linear_612_280)"/>
</g>
<path opacity="0.12" d="M98.4326 47.0678C102.668 47.0678 106.101 46.2264 106.101 45.1884C106.101 44.1504 102.668 43.3089 98.4326 43.3089C94.1977 43.3089 90.7646 44.1504 90.7646 45.1884C90.7646 46.2264 94.1977 47.0678 98.4326 47.0678Z" fill="url(#paint40_linear_612_280)"/>
<path d="M100.084 25.5311C103.932 25.0719 107.658 31.1852 107.499 38.7344C107.382 44.1937 103.029 47.7823 96.2441 46.0552C89.8642 44.4311 88.7351 38.7277 90.4511 35.372C92.1648 32.0163 94.8709 31.6847 95.9461 28.8308C96.9564 26.1539 99.0241 25.6565 100.084 25.5311Z" fill="url(#paint41_linear_612_280)"/>
<path opacity="0.09" d="M105.119 35.2779C107.171 35.3294 107.839 44.048 101.343 45.5959C96.1096 46.8414 94.378 44.4915 93.1974 42.8495C92.0169 41.2075 94.7834 41.6757 99.705 39.0547C104.629 36.4338 103.843 35.2465 105.119 35.2779Z" fill="url(#paint42_linear_612_280)"/>
<path opacity="0.12" d="M35.084 34.342C38.2277 34.342 40.7762 33.7172 40.7762 32.9464C40.7762 32.1757 38.2277 31.5508 35.084 31.5508C31.9403 31.5508 29.3918 32.1757 29.3918 32.9464C29.3918 33.7172 31.9403 34.342 35.084 34.342Z" fill="url(#paint43_linear_612_280)"/>
<path d="M33.8585 18.3563C31.0001 18.0158 28.2358 22.5521 28.3545 28.1569C28.4396 32.2093 31.6722 34.8729 36.708 33.5915C41.4436 32.3863 42.2814 28.1525 41.009 25.6614C39.7366 23.1704 37.7295 22.924 36.9298 20.8048C36.1815 18.8178 34.6471 18.4504 33.8585 18.3563Z" fill="url(#paint44_linear_612_280)"/>
<path opacity="0.09" d="M30.1221 25.5921C28.5988 25.6302 28.1037 32.102 32.9245 33.2512C36.8089 34.1763 38.0947 32.4313 38.9706 31.2126C39.8465 29.994 37.7945 30.3412 34.1409 28.3946C30.4872 26.4479 31.0696 25.5675 30.1221 25.5921Z" fill="url(#paint45_linear_612_280)"/>
<mask id="mask1_612_280" style="mask-type:alpha" maskUnits="userSpaceOnUse" x="2" y="17" width="26" height="40">
<path d="M21.0406 55.7979C21.0406 55.8047 21.0406 55.8159 21.0384 55.8226C20.9398 56.3333 17.7162 56.7433 13.7557 56.7433C9.73241 56.7433 6.47077 56.3199 6.47077 55.7979C6.47077 55.5228 0.356609 51.5 3.35661 23C3.93556 17.5 11.8529 17.5 13.7556 17.5C15.6584 17.5 24.3566 17.5 27.3566 23C24.3566 59 21.0406 55.5228 21.0406 55.7979Z" fill="#0E423F"/>
</mask>
<g mask="url(#mask1_612_280)">
<path d="M8.77302 19.9064C9.12024 20.7509 9.41145 21.5999 9.68923 22.4512C9.96701 23.3002 10.2157 24.1515 10.4531 25.0027C10.9235 26.7074 11.329 28.4144 11.6919 30.1237C12.4065 33.5443 12.9285 36.9762 13.3048 40.4193C13.493 42.1397 13.6431 43.8624 13.7058 45.5895C13.7685 47.3167 13.7461 49.0505 13.6363 50.7889C13.5781 51.6581 13.5154 52.5272 13.4235 53.3986C13.3384 54.2701 13.2533 55.1392 13.1525 56.0106L12.8657 58.6249C12.8142 59.0617 12.7784 59.4963 12.7134 59.9331C12.6619 60.1526 12.5454 60.3767 12.3281 60.6052C12.2228 60.7194 12.0907 60.8359 11.9226 60.9524C11.7546 61.0711 11.5732 61.1898 11.3088 61.313L11.0848 61.3265C10.8071 61.2346 10.6122 61.1383 10.433 61.0397C10.2537 60.9412 10.1081 60.8426 9.98941 60.7418C9.74523 60.5402 9.60411 60.3319 9.52794 60.119C9.41369 59.6934 9.32633 59.2656 9.22552 58.8377L8.63637 56.275C8.437 55.4215 8.24882 54.5658 8.06289 53.7123C7.87024 52.8588 7.70671 52.0008 7.54766 51.1451C7.23628 49.4314 7.01227 47.7132 6.87338 45.9905C6.73225 44.2679 6.68073 42.5385 6.66729 40.8091C6.63817 37.3481 6.75914 33.8781 7.06827 30.3969C7.22732 28.6564 7.43342 26.9135 7.69999 25.1662C7.83664 24.2926 7.98449 23.4189 8.16146 22.543C8.33619 21.6627 8.5266 20.7868 8.77302 19.9064Z" fill="url(#paint46_linear_612_280)"/>
<path d="M12.5116 29.6937C12.8812 30.3791 13.1814 31.0669 13.4592 31.7568C13.7414 32.4468 13.9834 33.139 14.2163 33.8334C14.6688 35.2201 15.0519 36.6134 15.3588 38.009C15.9816 40.8025 16.3579 43.6094 16.5528 46.4297C16.741 49.25 16.7477 52.0838 16.5058 54.931C16.387 56.3557 16.2011 57.7827 15.9345 59.2164C15.7956 59.9332 15.6478 60.6501 15.4619 61.3714C15.2804 62.0905 15.0743 62.8118 14.7988 63.5376L14.5748 63.551C14.2096 62.8656 13.9139 62.1778 13.6406 61.4856C13.3628 60.7957 13.1254 60.1035 12.8969 59.409C12.4511 58.0224 12.0815 56.629 11.7813 55.2312C11.1765 52.4377 10.8203 49.6264 10.6456 46.806C10.4776 43.9835 10.4888 41.1497 10.7508 38.3003C10.8763 36.8755 11.0779 35.4463 11.349 34.0126C11.4923 33.2958 11.6447 32.5767 11.8351 31.8576C12.021 31.1408 12.2316 30.4195 12.5116 29.6937Z" fill="url(#paint47_linear_612_280)"/>
<path d="M25.1057 23.3115C25.2267 26.32 25.1304 29.2882 24.9713 32.2429C24.8011 35.1977 24.5457 38.1345 24.2164 41.0579C24.0506 42.5184 23.8848 43.9812 23.6743 45.4351C23.4727 46.8912 23.2038 48.3316 22.8566 49.7608C22.5094 51.1878 22.0838 52.6013 21.6223 54.0081C21.3916 54.7115 21.0645 55.397 20.6053 56.0556C20.1326 56.7142 19.5838 57.3571 18.7101 57.9395L18.4906 57.8992C17.888 57.039 17.6102 56.2415 17.4086 55.4574C17.2227 54.6756 17.1644 53.9185 17.2048 53.1792C17.2876 51.7007 17.4019 50.2312 17.5968 48.7751C17.7917 47.319 18.065 45.8764 18.4055 44.4494C18.7348 43.018 19.1134 41.5977 19.4897 40.1753C20.2446 37.3325 21.0735 34.501 21.9874 31.6874C22.9104 28.8693 23.8983 26.0691 25.1057 23.3115Z" fill="url(#paint48_linear_612_280)"/>
<path d="M18.8716 22.5565C19.3891 24.1269 19.7228 25.6905 20.0141 27.2519C20.2963 28.8132 20.5226 30.3724 20.6771 31.9293C21.002 35.0431 21.1072 38.1456 21.0624 41.2437C21.0244 44.3419 20.7981 47.4332 20.2627 50.5134C19.9984 52.0524 19.6579 53.5891 19.221 55.1214C18.7708 56.6536 18.269 58.1836 17.5141 59.7047L17.2901 59.6957C16.6583 58.1209 16.2775 56.5551 15.9505 54.9937C15.6368 53.4323 15.4195 51.8732 15.2762 50.3163C14.9872 47.2047 15.0051 44.1044 15.2112 41.013C15.4106 37.9216 15.76 34.8347 16.329 31.7568C16.6068 30.2178 16.954 28.6811 17.3595 27.1466C17.7762 25.6121 18.2331 24.0821 18.8716 22.5565Z" fill="url(#paint49_linear_612_280)"/>
<path d="M3.80199 37.0099C4.42922 37.7715 4.96014 38.5623 5.46641 39.3598C5.72402 39.7563 5.95476 40.1617 6.19669 40.565C6.42294 40.9727 6.6604 41.3759 6.87545 41.7858C7.7491 43.4234 8.51075 45.0945 9.18727 46.7925C9.52553 47.6415 9.84587 48.495 10.1393 49.3575C10.2872 49.7876 10.4328 50.2199 10.5717 50.6523C10.7083 51.0869 10.8562 51.517 10.957 51.9627C11.1653 52.8498 11.2482 53.7773 11.1631 54.754C11.1227 55.2423 11.0309 55.7441 10.8898 56.2616C10.7442 56.7813 10.5582 57.3122 10.2357 57.8857L10.0206 57.9506C9.43368 57.6527 8.98566 57.3122 8.57571 56.9605C8.17249 56.6066 7.81631 56.2392 7.51165 55.8561C6.90009 55.09 6.45431 54.2746 6.13621 53.4188C5.97492 52.9932 5.85843 52.5519 5.73074 52.1151C5.60529 51.6783 5.48657 51.2392 5.37232 50.7979C5.13935 49.9175 4.93325 49.0282 4.74284 48.1344C4.36426 46.3467 4.0708 44.5345 3.89159 42.6864C3.84231 42.2249 3.81543 41.7589 3.77959 41.2952C3.75718 40.827 3.72358 40.3611 3.7191 39.8884C3.69894 38.9431 3.70342 37.991 3.80199 37.0099Z" fill="url(#paint50_linear_612_280)"/>
</g>
<defs>
<linearGradient id="paint0_linear_612_280" x1="62.548" y1="6.15668" x2="62.548" y2="93.5805" gradientUnits="userSpaceOnUse">
<stop stop-color="#EDEDED"/>
<stop offset="0.5141" stop-color="#E9E9E9"/>
<stop offset="0.9955" stop-color="#DEDEDE"/>
</linearGradient>
<linearGradient id="paint1_linear_612_280" x1="62.9002" y1="43.1231" x2="62.3667" y2="54.2671" gradientUnits="userSpaceOnUse">
<stop stop-color="#73573F"/>
<stop offset="1" stop-color="#4E3B2B"/>
</linearGradient>
<linearGradient id="paint2_linear_612_280" x1="58.4297" y1="51.4317" x2="66.664" y2="51.4317" gradientUnits="userSpaceOnUse">
<stop stop-color="#4F3C2B"/>
<stop offset="1" stop-color="#3B2D20"/>
</linearGradient>
<linearGradient id="paint3_linear_612_280" x1="21.1223" y1="62.9524" x2="19.2471" y2="102.122" gradientUnits="userSpaceOnUse">
<stop stop-color="#73573F"/>
<stop offset="1" stop-color="#4E3B2B"/>
</linearGradient>
<linearGradient id="paint4_linear_612_280" x1="23.6531" y1="63.7407" x2="21.9947" y2="98.3838" gradientUnits="userSpaceOnUse">
<stop stop-color="#4F3C2B"/>
<stop offset="1" stop-color="#3B2D20"/>
</linearGradient>
<linearGradient id="paint5_linear_612_280" x1="16.0528" y1="91.9432" x2="28.8108" y2="91.9432" gradientUnits="userSpaceOnUse">
<stop stop-color="#4F3C2B"/>
<stop offset="1" stop-color="#3B2D20"/>
</linearGradient>
<linearGradient id="paint6_linear_612_280" x1="41.8828" y1="48.3393" x2="40.6513" y2="74.0648" gradientUnits="userSpaceOnUse">
<stop stop-color="#73573F"/>
<stop offset="1" stop-color="#4E3B2B"/>
</linearGradient>
<linearGradient id="paint7_linear_612_280" x1="43.545" y1="48.8571" x2="42.4557" y2="71.6097" gradientUnits="userSpaceOnUse">
<stop stop-color="#4F3C2B"/>
<stop offset="1" stop-color="#3B2D20"/>
</linearGradient>
<linearGradient id="paint8_linear_612_280" x1="38.5532" y1="67.3796" x2="46.9323" y2="67.3796" gradientUnits="userSpaceOnUse">
<stop stop-color="#4F3C2B"/>
<stop offset="1" stop-color="#3B2D20"/>
</linearGradient>
<linearGradient id="paint9_linear_612_280" x1="103.558" y1="62.9525" x2="105.433" y2="102.122" gradientUnits="userSpaceOnUse">
<stop stop-color="#73573F"/>
<stop offset="1" stop-color="#4E3B2B"/>
</linearGradient>
<linearGradient id="paint10_linear_612_280" x1="101.027" y1="63.7408" x2="102.685" y2="98.3839" gradientUnits="userSpaceOnUse">
<stop stop-color="#4F3C2B"/>
<stop offset="1" stop-color="#3B2D20"/>
</linearGradient>
<linearGradient id="paint11_linear_612_280" x1="108.627" y1="91.9433" x2="95.8692" y2="91.9433" gradientUnits="userSpaceOnUse">
<stop stop-color="#4F3C2B"/>
<stop offset="1" stop-color="#3B2D20"/>
</linearGradient>
<linearGradient id="paint12_linear_612_280" x1="82.7969" y1="48.3393" x2="84.0285" y2="74.0648" gradientUnits="userSpaceOnUse">
<stop stop-color="#73573F"/>
<stop offset="1" stop-color="#4E3B2B"/>
</linearGradient>
<linearGradient id="paint13_linear_612_280" x1="81.1348" y1="48.857" x2="82.224" y2="71.6096" gradientUnits="userSpaceOnUse">
<stop stop-color="#4F3C2B"/>
<stop offset="1" stop-color="#3B2D20"/>
</linearGradient>
<linearGradient id="paint14_linear_612_280" x1="86.1265" y1="67.3795" x2="77.7474" y2="67.3795" gradientUnits="userSpaceOnUse">
<stop stop-color="#4F3C2B"/>
<stop offset="1" stop-color="#3B2D20"/>
</linearGradient>
<linearGradient id="paint15_linear_612_280" x1="11.4297" y1="81.517" x2="113.629" y2="81.517" gradientUnits="userSpaceOnUse">
<stop stop-color="#D9F2A5"/>
<stop offset="1" stop-color="#9CC079"/>
</linearGradient>
<linearGradient id="paint16_linear_612_280" x1="61.1946" y1="81.8247" x2="59.7137" y2="112.759" gradientUnits="userSpaceOnUse">
<stop stop-color="#4F3C2B"/>
<stop offset="1" stop-color="#3B2D20"/>
</linearGradient>
<linearGradient id="paint17_linear_612_280" x1="48.7852" y1="104.888" x2="71.6424" y2="104.888" gradientUnits="userSpaceOnUse">
<stop stop-color="#4F3C2B"/>
<stop offset="1" stop-color="#3B2D20"/>
</linearGradient>
<linearGradient id="paint18_linear_612_280" x1="71.6901" y1="32.9029" x2="85.076" y2="32.9029" gradientUnits="userSpaceOnUse">
<stop stop-color="#4F3C2B"/>
<stop offset="1" stop-color="#3B2D20"/>
</linearGradient>
<linearGradient id="paint19_linear_612_280" x1="70.5339" y1="24.7856" x2="84.738" y2="25.8711" gradientUnits="userSpaceOnUse">
<stop stop-color="#1CA698"/>
<stop offset="0.9972" stop-color="#118276"/>
</linearGradient>
<linearGradient id="paint20_linear_612_280" x1="73.7708" y1="24.0986" x2="82.2543" y2="24.0986" gradientUnits="userSpaceOnUse">
<stop/>
<stop offset="1" stop-color="#136262"/>
</linearGradient>
<radialGradient id="paint21_radial_612_280" cx="0" cy="0" r="1" gradientUnits="userSpaceOnUse" gradientTransform="translate(63.1787 38.0697) scale(27.7816 35.0881)">
<stop stop-color="#F5FFDC"/>
<stop offset="1" stop-color="#F5FFDC" stop-opacity="0"/>
</radialGradient>
<linearGradient id="paint22_linear_612_280" x1="81.8343" y1="39.2534" x2="86.3036" y2="42.5927" gradientUnits="userSpaceOnUse">
<stop stop-color="#4F3C2B"/>
<stop offset="1" stop-color="#3B2D20"/>
</linearGradient>
<linearGradient id="paint23_linear_612_280" x1="82.1921" y1="38.7559" x2="86.3065" y2="41.8299" gradientUnits="userSpaceOnUse">
<stop stop-color="#73573F"/>
<stop offset="1" stop-color="#4E3B2B"/>
</linearGradient>
<linearGradient id="paint24_linear_612_280" x1="85.1853" y1="35.1205" x2="85.4093" y2="35.1205" gradientUnits="userSpaceOnUse">
<stop stop-color="#4F3C2B"/>
<stop offset="1" stop-color="#3B2D20"/>
</linearGradient>
<linearGradient id="paint25_linear_612_280" x1="79.0107" y1="31.1832" x2="87.2431" y2="37.334" gradientUnits="userSpaceOnUse">
<stop stop-color="#4F3C2B"/>
<stop offset="1" stop-color="#3B2D20"/>
</linearGradient>
<linearGradient id="paint26_linear_612_280" x1="79.5386" y1="30.4412" x2="87.3039" y2="36.243" gradientUnits="userSpaceOnUse">
<stop stop-color="#73573F"/>
<stop offset="1" stop-color="#4E3B2B"/>
</linearGradient>
<linearGradient id="paint27_linear_612_280" x1="52.2754" y1="21.9813" x2="43.3363" y2="21.9813" gradientUnits="userSpaceOnUse">
<stop stop-color="#4F3C2B"/>
<stop offset="1" stop-color="#3B2D20"/>
</linearGradient>
<linearGradient id="paint28_linear_612_280" x1="53.0479" y1="16.5596" x2="43.5624" y2="17.2845" gradientUnits="userSpaceOnUse">
<stop stop-color="#1CA698"/>
<stop offset="0.9972" stop-color="#118276"/>
</linearGradient>
<linearGradient id="paint29_linear_612_280" x1="50.886" y1="16.1018" x2="45.2208" y2="16.1018" gradientUnits="userSpaceOnUse">
<stop/>
<stop offset="1" stop-color="#136262"/>
</linearGradient>
<linearGradient id="paint30_linear_612_280" x1="45.5011" y1="26.2224" x2="42.5165" y2="28.4524" gradientUnits="userSpaceOnUse">
<stop stop-color="#4F3C2B"/>
<stop offset="1" stop-color="#3B2D20"/>
</linearGradient>
<linearGradient id="paint31_linear_612_280" x1="45.2622" y1="25.8901" x2="42.5146" y2="27.943" gradientUnits="userSpaceOnUse">
<stop stop-color="#73573F"/>
<stop offset="1" stop-color="#4E3B2B"/>
</linearGradient>
<linearGradient id="paint32_linear_612_280" x1="43.2635" y1="23.4629" x2="43.4875" y2="23.4629" gradientUnits="userSpaceOnUse">
<stop stop-color="#4F3C2B"/>
<stop offset="1" stop-color="#3B2D20"/>
</linearGradient>
<linearGradient id="paint33_linear_612_280" x1="47.3866" y1="20.833" x2="41.889" y2="24.9406" gradientUnits="userSpaceOnUse">
<stop stop-color="#4F3C2B"/>
<stop offset="1" stop-color="#3B2D20"/>
</linearGradient>
<linearGradient id="paint34_linear_612_280" x1="47.0343" y1="20.3376" x2="41.8486" y2="24.212" gradientUnits="userSpaceOnUse">
<stop stop-color="#73573F"/>
<stop offset="1" stop-color="#4E3B2B"/>
</linearGradient>
<linearGradient id="paint35_linear_612_280" x1="58.4437" y1="72.762" x2="67.0869" y2="73.4222" gradientUnits="userSpaceOnUse">
<stop stop-color="#73573F"/>
<stop offset="1" stop-color="#4E3B2B"/>
</linearGradient>
<linearGradient id="paint36_linear_612_280" x1="58.6848" y1="69.5963" x2="67.3291" y2="70.2565" gradientUnits="userSpaceOnUse">
<stop stop-color="#4F3C2B"/>
<stop offset="1" stop-color="#3B2D20"/>
</linearGradient>
<linearGradient id="paint37_linear_612_280" x1="60.3304" y1="66.2699" x2="64.9121" y2="66.2699" gradientUnits="userSpaceOnUse">
<stop stop-color="#1CA698"/>
<stop offset="0.9972" stop-color="#118276"/>
</linearGradient>
<linearGradient id="paint38_linear_612_280" x1="66.695" y1="68.9314" x2="63.6184" y2="68.2733" gradientUnits="userSpaceOnUse">
<stop stop-color="#1CA698"/>
<stop offset="0.9972" stop-color="#118276"/>
</linearGradient>
<linearGradient id="paint39_linear_612_280" x1="6.11245" y1="72.4889" x2="20.679" y2="72.4889" gradientUnits="userSpaceOnUse">
<stop stop-color="#1CA698"/>
<stop offset="0.9972" stop-color="#118276"/>
</linearGradient>
<linearGradient id="paint40_linear_612_280" x1="90.7661" y1="45.1876" x2="106.101" y2="45.1876" gradientUnits="userSpaceOnUse">
<stop stop-color="#4F3C2B"/>
<stop offset="1" stop-color="#3B2D20"/>
</linearGradient>
<linearGradient id="paint41_linear_612_280" x1="89.732" y1="35.9981" x2="107.504" y2="35.9981" gradientUnits="userSpaceOnUse">
<stop stop-color="#1CA698"/>
<stop offset="0.9972" stop-color="#118276"/>
</linearGradient>
<linearGradient id="paint42_linear_612_280" x1="100.47" y1="46.0906" x2="99.2625" y2="36.2466" gradientUnits="userSpaceOnUse">
<stop/>
<stop offset="1" stop-color="#136262"/>
</linearGradient>
<linearGradient id="paint43_linear_612_280" x1="40.7761" y1="32.9474" x2="29.393" y2="32.9474" gradientUnits="userSpaceOnUse">
<stop stop-color="#4F3C2B"/>
<stop offset="1" stop-color="#3B2D20"/>
</linearGradient>
<linearGradient id="paint44_linear_612_280" x1="41.5437" y1="26.1261" x2="28.3513" y2="26.1261" gradientUnits="userSpaceOnUse">
<stop stop-color="#1CA698"/>
<stop offset="0.9972" stop-color="#118276"/>
</linearGradient>
<linearGradient id="paint45_linear_612_280" x1="33.5744" y1="33.6167" x2="34.4711" y2="26.3095" gradientUnits="userSpaceOnUse">
<stop/>
<stop offset="1" stop-color="#136262"/>
</linearGradient>
<linearGradient id="paint46_linear_612_280" x1="5.40202" y1="40.6168" x2="14.5664" y2="40.6168" gradientUnits="userSpaceOnUse">
<stop stop-color="#D9F2A5"/>
<stop offset="1" stop-color="#9CC079"/>
</linearGradient>
<linearGradient id="paint47_linear_612_280" x1="9.57312" y1="47.1488" x2="17.6273" y2="46.0984" gradientUnits="userSpaceOnUse">
<stop stop-color="#D9F2A5"/>
<stop offset="1" stop-color="#9CC079"/>
</linearGradient>
<linearGradient id="paint48_linear_612_280" x1="16.2179" y1="40.624" x2="27.4863" y2="40.624" gradientUnits="userSpaceOnUse">
<stop stop-color="#D9F2A5"/>
<stop offset="1" stop-color="#9CC079"/>
</linearGradient>
<linearGradient id="paint49_linear_612_280" x1="14.4516" y1="41.13" x2="21.8233" y2="41.13" gradientUnits="userSpaceOnUse">
<stop stop-color="#D9F2A5"/>
<stop offset="1" stop-color="#9CC079"/>
</linearGradient>
<linearGradient id="paint50_linear_612_280" x1="1.37583" y1="47.4794" x2="12.5557" y2="47.4794" gradientUnits="userSpaceOnUse">
<stop stop-color="#D9F2A5"/>
<stop offset="1" stop-color="#9CC079"/>
</linearGradient>
</defs>
</svg>
