<svg width="132" height="115" viewBox="0 0 132 115" fill="none" xmlns="http://www.w3.org/2000/svg">
<path d="M66.7255 113.37C59.3131 113.37 51.9008 112.908 44.5406 111.981L36.6411 110.988C30.1986 110.177 24.6739 106.198 21.8685 100.342L7.65343 70.6886C4.66674 64.4569 5.78845 57.1692 10.5132 52.1249L52.7121 7.07535C56.3287 3.21395 61.4364 1 66.7255 1C72.0145 1 77.1222 3.21395 80.7389 7.07535L122.938 52.1249C127.662 57.1692 128.786 64.4546 125.798 70.6886L111.582 100.342C108.775 106.198 103.252 110.179 96.8099 110.988L88.9103 111.981C81.5479 112.908 74.1378 113.37 66.7255 113.37Z" stroke="#D9F2A5" stroke-width="2" stroke-miterlimit="10"/>
<mask id="mask0_622_543" style="mask-type:alpha" maskUnits="userSpaceOnUse" x="9" y="5" width="115" height="106">
<path d="M9.84348 66.2615C10.0466 67.4348 10.4076 68.5856 10.9491 69.6912L14.3337 76.7538L25.0968 99.2051C27.3983 104.011 31.9789 107.306 37.2589 107.982L45.1337 108.975C59.5296 110.78 74.106 110.78 88.5019 108.975L96.3768 107.982C101.657 107.328 106.237 104.011 108.539 99.2051L119.302 76.7538L122.686 69.6912C123.228 68.5856 123.589 67.4348 123.792 66.2615C124.446 62.6287 123.544 58.8153 121.242 55.8369C120.994 55.4984 120.701 55.16 120.408 54.8666L78.3706 10.0092C72.0978 3.33026 61.4927 3.33026 55.2424 10.0092L13.2281 54.8666C13.1153 54.9795 13.025 55.0923 12.9348 55.2051C12.8219 55.3179 12.7317 55.4307 12.6414 55.5661C12.5512 55.6564 12.4835 55.7692 12.4158 55.8594C12.3932 55.882 12.3707 55.9046 12.3481 55.9497C12.2804 56.04 12.2127 56.1302 12.145 56.2205C12.1225 56.243 12.0999 56.2656 12.0773 56.3107C11.9194 56.5364 11.7614 56.7846 11.6035 57.0102C11.5358 57.123 11.4681 57.2359 11.4004 57.3712C11.3778 57.3938 11.3778 57.4164 11.3553 57.4615C11.2876 57.5743 11.2425 57.6646 11.1748 57.7774C11.0394 58.0256 10.904 58.2964 10.7912 58.5671C10.7235 58.7025 10.6784 58.8379 10.6107 58.9733C10.5655 59.0861 10.5204 59.2215 10.4753 59.3343C10.4753 59.3569 10.4753 59.3569 10.4527 59.3794C10.4076 59.5148 10.3624 59.6502 10.3173 59.7856C10.2722 59.921 10.2271 60.0564 10.1819 60.1918C10.1368 60.3271 10.1143 60.44 10.0691 60.5753C10.0466 60.6882 10.0014 60.8235 9.97887 60.9364C9.57271 62.6512 9.52759 64.4789 9.84348 66.2615Z" fill="url(#paint0_linear_622_543)"/>
</mask>
<g mask="url(#mask0_622_543)">
<path d="M9.84348 66.2615C10.0466 67.4348 10.4076 68.5856 10.9491 69.6912L14.3337 76.7538L25.0968 99.2051C27.3983 104.011 31.9789 107.306 37.2589 107.982L45.1337 108.975C59.5296 110.78 74.106 110.78 88.5019 108.975L96.3768 107.982C101.657 107.328 106.237 104.011 108.539 99.2051L119.302 76.7538L122.686 69.6912C123.228 68.5856 123.589 67.4348 123.792 66.2615C124.446 62.6287 123.544 58.8153 121.242 55.8369C120.994 55.4984 120.701 55.16 120.408 54.8666L78.3706 10.0092C72.0978 3.33026 61.4927 3.33026 55.2424 10.0092L13.2281 54.8666C13.1153 54.9795 13.025 55.0923 12.9348 55.2051C12.8219 55.3179 12.7317 55.4307 12.6414 55.5661C12.5512 55.6564 12.4835 55.7692 12.4158 55.8594C12.3932 55.882 12.3707 55.9046 12.3481 55.9497C12.2804 56.04 12.2127 56.1302 12.145 56.2205C12.1225 56.243 12.0999 56.2656 12.0773 56.3107C11.9194 56.5364 11.7614 56.7846 11.6035 57.0102C11.5358 57.123 11.4681 57.2359 11.4004 57.3712C11.3778 57.3938 11.3778 57.4164 11.3553 57.4615C11.2876 57.5743 11.2425 57.6646 11.1748 57.7774C11.0394 58.0256 10.904 58.2964 10.7912 58.5671C10.7235 58.7025 10.6784 58.8379 10.6107 58.9733C10.5655 59.0861 10.5204 59.2215 10.4753 59.3343C10.4753 59.3569 10.4753 59.3569 10.4527 59.3794C10.4076 59.5148 10.3624 59.6502 10.3173 59.7856C10.2722 59.921 10.2271 60.0564 10.1819 60.1918C10.1368 60.3271 10.1143 60.44 10.0691 60.5753C10.0466 60.6882 10.0014 60.8235 9.97887 60.9364C9.57271 62.6512 9.52759 64.4789 9.84348 66.2615Z" fill="url(#paint1_linear_622_543)"/>
<path d="M9.8436 66.2615C10.0467 67.4348 10.4077 68.5856 10.9492 69.6912L14.3338 76.7538H119.279L122.664 69.6912C123.206 68.5856 123.567 67.4348 123.77 66.2615C124.424 62.6287 123.521 58.8153 121.22 55.8369C120.972 55.4984 120.678 55.16 120.385 54.8666L78.3707 10.0092C72.0979 3.33026 61.4928 3.33026 55.2425 10.0092L13.2282 54.8666C13.1154 54.9795 13.0251 55.0923 12.9349 55.2051C12.8221 55.3179 12.7318 55.4307 12.6415 55.5661C12.5513 55.6564 12.4836 55.7692 12.4159 55.8595C12.3933 55.882 12.3708 55.9046 12.3482 55.9497C12.2805 56.04 12.2128 56.1302 12.1451 56.2205C12.1226 56.243 12.1 56.2656 12.0774 56.3107C11.9195 56.5364 11.7615 56.7846 11.6036 57.0102C11.5359 57.123 11.4682 57.2359 11.4005 57.3713C11.378 57.3938 11.378 57.4164 11.3554 57.4615C11.2877 57.5743 11.2426 57.6646 11.1749 57.7774C11.0395 58.0256 10.9041 58.2964 10.7913 58.5671C10.7236 58.7025 10.6785 58.8379 10.6108 58.9733C10.5657 59.0861 10.5205 59.2215 10.4754 59.3343C10.4754 59.3569 10.4754 59.3569 10.4528 59.3795C10.4077 59.5148 10.3626 59.6502 10.3174 59.7856C10.2723 59.921 10.2272 60.0564 10.1821 60.1918C10.1369 60.3271 10.1144 60.44 10.0692 60.5753C10.0467 60.6882 10.0015 60.8236 9.97897 60.9364C9.57282 62.6512 9.5277 64.4789 9.8436 66.2615Z" fill="url(#paint2_linear_622_543)"/>
<path d="M3.864 76.7762C4.38297 71.3834 5.15015 68.4275 5.57887 68.1342C6.27835 67.6829 7.58707 68.2019 11.1071 69.2398C15.5973 70.5711 21.1707 69.8491 24.3296 69.5557C26.6989 69.3301 33.1296 69.1721 37.6199 69.488C42.1101 69.8039 53.0537 67.9086 54.7912 68.0214C56.5286 68.1342 63.6588 67.9086 67.9234 68.7209C72.1881 69.5332 75.2568 68.608 80.5593 68.2696C85.8619 67.9311 91.7737 68.7209 96.1511 68.7209C100.529 68.7209 104.951 68.7209 109.374 69.4204C113.841 70.1198 123.928 69.646 125.552 68.7209L124.018 76.7762H3.864Z" fill="url(#paint3_linear_622_543)"/>
<path d="M30.0609 109.494C29.6096 108.411 29.384 107.283 29.384 106.132C29.384 96.3168 46.1491 88.3517 66.8178 88.3517C87.4865 88.3517 104.252 96.3168 104.252 106.132C104.252 107.283 104.026 108.411 103.575 109.494H30.0609Z" fill="url(#paint4_linear_622_543)"/>
<mask id="mask1_622_543" style="mask-type:alpha" maskUnits="userSpaceOnUse" x="0" y="14" width="133" height="63">
<rect width="132" height="62.7282" transform="matrix(-1 0 0 1 132.028 14.0256)" fill="#C4C4C4"/>
</mask>
<g mask="url(#mask1_622_543)">
<path d="M26.4283 83.4326C26.4058 79.4162 26.135 75.4675 25.7514 71.5414C25.3678 67.6152 24.8263 63.7116 24.1945 59.808C23.5401 55.927 22.773 52.046 21.8253 48.2101C21.5771 47.2399 21.3514 46.2922 21.0581 45.3445L20.6519 43.9229C20.5166 43.4491 20.336 42.9752 20.2007 42.5014C20.0427 42.0275 19.8848 41.5537 19.7268 41.0799L19.1853 39.6809L18.9145 38.9814C18.8242 38.7558 18.7114 38.5075 18.5986 38.2819L17.9668 36.8829L15.8007 37.9434L16.3422 39.2296C16.4325 39.4552 16.5227 39.6583 16.613 39.884L16.8386 40.5609L17.2899 41.9147C17.4253 42.366 17.5607 42.8399 17.696 43.2911C17.8314 43.7424 17.9668 44.2163 18.0796 44.6675L18.4407 46.0665C18.6889 46.9916 18.8919 47.9393 19.095 48.887C19.9073 52.6552 20.5166 56.4911 21.0355 60.327C21.5319 64.1629 21.9381 68.0214 22.1863 71.8798C22.4345 75.7383 22.5699 79.5968 22.4571 83.3875L26.4283 83.4326Z" fill="#664B35"/>
<path d="M25.9772 76.6861C25.6613 76.6184 25.3905 76.6635 25.0972 76.7312C24.8264 76.7763 24.5331 76.8666 24.2623 76.8892C23.969 76.9343 23.6982 76.9568 23.4049 76.9568C23.1115 76.9568 22.8408 76.9343 22.5474 76.8215C22.7956 76.9568 23.089 77.0245 23.3823 77.0697C23.6756 77.1148 23.969 77.1148 24.2623 77.0922C24.5556 77.0697 24.849 77.0697 25.1423 77.0245C25.4356 76.9794 25.729 76.8892 25.9772 76.6861Z" fill="url(#paint5_linear_622_543)"/>
<path d="M25.5709 72.3989C25.2776 72.3312 25.0068 72.3538 24.736 72.3763C24.4653 72.4214 24.1945 72.4891 23.9237 72.4891C23.653 72.5117 23.3822 72.444 23.1114 72.3989C22.8407 72.3538 22.615 72.3086 22.2991 72.3763C22.4796 72.6922 22.7955 72.7373 23.0889 72.7599C23.3822 72.7825 23.653 72.7373 23.9463 72.7148C24.2171 72.6922 24.5104 72.7148 24.7812 72.6922C25.0519 72.6696 25.3227 72.602 25.5709 72.3989Z" fill="url(#paint6_linear_622_543)"/>
<path d="M25.1647 67.7281C24.8713 67.6605 24.6231 67.683 24.3524 67.7281C24.0816 67.7733 23.8334 67.841 23.5626 67.8635C23.2919 67.8861 23.0436 67.8861 22.7729 67.8635C22.5021 67.841 22.2539 67.7958 21.9831 67.7733C22.1862 67.9538 22.4796 68.0215 22.7503 68.0666C23.0211 68.1117 23.2919 68.1117 23.5626 68.0892C23.8334 68.0892 24.1042 68.0892 24.3749 68.044C24.6683 67.9989 24.939 67.9087 25.1647 67.7281Z" fill="url(#paint7_linear_622_543)"/>
<path d="M24.4425 62.6737C24.1717 62.6512 23.9461 62.6963 23.7205 62.764C23.4948 62.8317 23.2692 62.9219 23.0435 62.967C22.8179 63.0122 22.5697 63.0122 22.344 63.0122C22.1184 63.0122 21.8928 62.967 21.6446 62.9445C21.8251 63.125 22.0958 63.1701 22.344 63.2153C22.5922 63.2378 22.8405 63.2153 23.0887 63.1927C23.3369 63.1701 23.5851 63.1476 23.8333 63.0799C24.0363 62.9896 24.262 62.8994 24.4425 62.6737Z" fill="url(#paint8_linear_622_543)"/>
<path d="M23.5853 58.206C23.3597 58.1383 23.1566 58.1835 22.9535 58.2286C22.7505 58.2737 22.5699 58.3414 22.3894 58.4091C22.0058 58.5219 21.5997 58.5671 21.1935 58.5671C21.5997 58.6799 22.0058 58.6573 22.4346 58.6347C22.6376 58.6122 22.8407 58.6122 23.0438 58.5445C23.2469 58.4768 23.4274 58.3865 23.5853 58.206Z" fill="url(#paint9_linear_622_543)"/>
<path d="M22.8859 54.0543C22.6151 54.0318 22.412 54.0769 22.1864 54.1446C21.9833 54.2123 21.7577 54.3025 21.532 54.3251C21.3064 54.3477 21.0807 54.3251 20.8777 54.28C20.652 54.2574 20.4941 54.1897 20.2007 54.28C20.3361 54.5733 20.6069 54.6184 20.8551 54.6184C21.1033 54.6184 21.3515 54.5507 21.5771 54.5282C21.8028 54.4831 22.051 54.4831 22.2766 54.4154C22.5023 54.3928 22.7279 54.28 22.8859 54.0543Z" fill="url(#paint10_linear_622_543)"/>
<path d="M21.848 49.2481C21.6224 49.1578 21.4193 49.1804 21.2162 49.2255C21.0131 49.2706 20.8326 49.3383 20.6296 49.3835C20.4265 49.4286 20.2234 49.4286 20.0429 49.4512C19.8398 49.4737 19.6593 49.4512 19.4337 49.4737C19.6142 49.6317 19.8398 49.6317 20.0429 49.6542C20.246 49.6542 20.449 49.6317 20.6747 49.6091C20.8778 49.5865 21.0808 49.5865 21.2839 49.564C21.487 49.4963 21.6901 49.4286 21.848 49.2481Z" fill="url(#paint11_linear_622_543)"/>
<path d="M20.8549 44.4871C20.6067 44.4645 20.4036 44.5096 20.2231 44.5773C20.02 44.645 19.8395 44.7127 19.6364 44.7578C19.4333 44.7804 19.2302 44.803 19.0272 44.7804C18.8241 44.7804 18.621 44.7127 18.3954 44.7127C18.5533 44.8707 18.779 44.9384 19.0046 44.9835C19.2302 45.006 19.4559 45.006 19.659 44.9835C19.8846 44.9609 20.1102 44.9609 20.3133 44.8932C20.5164 44.803 20.7195 44.7127 20.8549 44.4871Z" fill="url(#paint12_linear_622_543)"/>
<path opacity="0.4" d="M15.8006 37.9435L16.3421 39.2297C16.4324 39.4553 16.5226 39.6584 16.6129 39.884L16.8385 40.5609L17.2898 41.9148C17.4252 42.3661 17.5606 42.8399 17.6959 43.2912C17.8313 43.7425 17.9667 44.2163 18.0795 44.6676L18.418 46.0666C18.6662 46.9917 18.8693 47.9394 19.0724 48.8871C19.8847 52.6553 20.4939 56.4912 21.0129 60.3271C21.5093 64.163 21.9154 68.0214 22.1636 71.8799C22.4118 75.7384 22.5472 79.5968 22.4344 83.4101L24.6683 83.4553C25.458 75.603 23.8559 54.0317 16.7483 37.5374L15.8006 37.9435Z" fill="url(#paint13_linear_622_543)"/>
<path d="M16.139 36.4769C16.0036 36.5445 15.8908 36.5897 15.7554 36.6574C15.6426 36.7251 15.5298 36.7702 15.4169 36.8379C15.2139 36.9733 15.0108 37.1086 14.8303 37.244C14.4692 37.5374 14.1759 37.8533 13.9051 38.1917C13.3862 38.8686 13.0477 39.6358 12.8446 40.4481C12.4159 42.0502 12.1226 43.6974 12.0097 45.3445C11.9872 45.7507 11.9646 46.1794 11.9421 46.5856C11.9421 47.0143 11.9646 47.4204 11.9646 47.8492C11.9646 48.2553 12.0097 48.684 12.0549 49.1127C12.0774 49.3158 12.1 49.5189 12.1226 49.7445L12.1677 50.0604L12.2128 50.3763C12.3031 50.7825 12.3708 51.2112 12.461 51.6174C12.5513 52.0235 12.6867 52.4297 12.8221 52.8133C12.9574 53.2194 13.0928 53.603 13.2733 53.9866C13.4539 54.3702 13.6344 54.7312 13.8374 55.0922C13.86 55.1599 13.9503 55.1599 13.9954 55.1374C14.018 55.1148 14.0405 55.0922 14.0631 55.0697C14.4241 53.445 14.7174 51.9558 15.1462 50.5117C15.5523 49.0676 15.981 47.6686 16.4774 46.2697C16.9513 44.8933 17.4477 43.5168 17.9892 42.163C18.26 41.4861 18.4405 40.7866 18.4856 40.042C18.5082 39.8615 18.5082 39.6584 18.4856 39.4553C18.4856 39.2522 18.4631 39.0492 18.4405 38.8461L18.3954 38.5302C18.3728 38.4174 18.3503 38.3045 18.3277 38.1917C18.3051 38.0789 18.26 37.9661 18.2374 37.8533C18.1923 37.7404 18.1697 37.6276 18.1021 37.4922L17.9441 37.1989C17.6282 36.4994 16.8159 36.2061 16.139 36.4769Z" fill="url(#paint14_linear_622_543)"/>
<path d="M16.455 38.5301C16.6807 39.2747 17.0191 39.7711 17.3125 40.3352C17.6509 40.8542 17.9894 41.3506 18.373 41.8245C18.5535 42.0501 18.7566 42.2983 18.9596 42.524C19.0725 42.6368 19.1627 42.7496 19.2755 42.8624L19.5689 43.2234C19.7719 43.4716 19.9976 43.6747 20.1781 43.9229C20.3812 44.1711 20.5843 44.4193 20.7873 44.645C21.5996 45.6378 22.3894 46.6532 23.2242 47.6911C24.0591 48.7291 24.8714 49.7896 25.7966 50.8727C25.8417 50.9178 25.9094 50.9178 25.9545 50.8952C25.9771 50.8727 25.9996 50.8501 25.9996 50.805C25.9996 50.0829 25.9545 49.3834 25.8417 48.684C25.7289 47.9845 25.5935 47.285 25.413 46.6081C25.0519 45.2542 24.5555 43.9229 23.9463 42.6368C23.6304 42.005 23.2919 41.3732 22.9084 40.764L22.615 40.3127C22.5248 40.1547 22.4119 40.0193 22.2991 39.8614C22.096 39.5681 21.8704 39.2747 21.6222 39.004C21.1258 38.4624 20.5843 37.966 19.9073 37.5824C19.5914 37.3793 19.253 37.1988 18.8919 37.0635C18.5309 36.9281 18.1473 36.8152 17.7412 36.7701C17.0417 36.6799 16.4099 37.1763 16.3196 37.8758C16.2971 38.0563 16.3196 38.2368 16.3648 38.3947L16.455 38.5301Z" fill="url(#paint15_linear_622_543)"/>
<path d="M33.0621 36.6574C32.4528 36.2513 31.7985 35.9128 31.1441 35.6195C30.4898 35.3261 29.8128 35.0779 29.1133 34.8523C27.7369 34.4236 26.3154 34.1302 24.8487 33.9949C24.1267 33.9272 23.3821 33.9046 22.6149 33.9272C21.8703 33.9497 21.1031 34.0174 20.3359 34.1979C19.5913 34.3784 18.8467 34.6943 18.1472 35.1456C17.4703 35.5969 16.8385 36.1836 16.4549 36.9959C16.2518 37.4472 16.4323 37.9661 16.8836 38.1918C16.9964 38.2369 17.0867 38.2595 17.1995 38.282H17.3123C18.0795 38.3272 18.7113 38.3046 19.3205 38.282C19.9298 38.2595 20.5164 38.1918 21.1257 38.1241C21.7123 38.0564 22.3216 37.921 22.9534 37.8308C23.5852 37.7405 24.2169 37.6728 24.8487 37.5825C26.1349 37.4472 27.4662 37.3569 28.82 37.2441C30.1739 37.1313 31.5728 37.041 33.0169 36.8605C33.0846 36.8605 33.1298 36.7928 33.1298 36.7251C33.1072 36.7025 33.0846 36.68 33.0621 36.6574Z" fill="url(#paint16_linear_622_543)"/>
<path d="M26.3832 29.8204C25.7966 29.7979 25.255 29.843 24.7135 29.9333C24.172 30.0235 23.6304 30.1363 23.1114 30.2943C22.0509 30.6102 21.0355 31.0389 20.0879 31.603C19.614 31.8738 19.1402 32.2122 18.6889 32.5507C18.2376 32.9117 17.7863 33.2953 17.4253 33.7692C17.0643 34.243 16.7484 34.7845 16.5904 35.4163C16.4325 36.0481 16.3648 36.7251 16.5904 37.4245C16.7709 37.921 17.3125 38.1917 17.8089 38.0338C17.8314 38.0338 17.854 38.0112 17.8766 38.0112L18.0345 37.9435C18.6212 37.6953 19.0273 37.4471 19.4109 37.2215C19.772 36.9733 20.1104 36.7251 20.4263 36.4317C20.7422 36.1384 21.013 35.7999 21.3289 35.484C21.6448 35.1456 21.9607 34.8297 22.2991 34.4912L24.375 32.3928C25.0971 31.6707 25.8191 30.9261 26.5412 30.0461C26.5863 30.001 26.5863 29.9107 26.5186 29.8656C26.4284 29.8204 26.4058 29.8204 26.3832 29.8204Z" fill="url(#paint17_linear_622_543)"/>
<path d="M4.9022 30.0687C6.05297 30.6554 7.15862 31.2195 8.19657 31.8287C9.23451 32.4379 10.1822 33.0697 11.0622 33.7467C11.9196 34.4461 12.6868 35.1682 13.3186 35.9579C13.6571 36.3415 13.973 36.7025 14.3791 37.0184C14.7853 37.3569 15.1914 37.6954 15.8458 38.0338L16.0037 38.1241C16.6355 38.4625 17.4253 38.1918 17.7412 37.56C17.7863 37.4472 17.8314 37.3343 17.854 37.2215C17.8991 37.0184 17.9217 36.8154 17.9217 36.6349C17.9442 36.4318 17.9217 36.2513 17.8991 36.0482C17.8766 35.8677 17.854 35.6646 17.7863 35.4841C17.7412 35.3036 17.6735 35.1231 17.6058 34.9425C17.335 34.2431 16.9063 33.6113 16.3873 33.0923C15.3268 32.0543 14.0858 31.2646 12.8222 30.7231C11.5361 30.159 10.2273 29.8205 8.89605 29.6851C8.24169 29.6174 7.56477 29.5723 6.91041 29.5949C6.25605 29.6174 5.60169 29.6851 4.94733 29.8431C4.87964 29.8656 4.83452 29.9333 4.85708 29.9784C4.83452 30.0236 4.85707 30.0461 4.9022 30.0687Z" fill="url(#paint18_linear_622_543)"/>
<path d="M2.93911 42.7045C4.18013 42.3661 5.3309 42.0276 6.4591 41.7343C7.58731 41.4409 8.67038 41.1927 9.75345 40.9896C10.0242 40.9445 10.2724 40.8768 10.5432 40.8543C10.814 40.8091 11.0622 40.7866 11.3329 40.7414C11.6037 40.6963 11.8519 40.6963 12.1227 40.6512L12.5063 40.6061C12.6417 40.5835 12.7545 40.5835 12.8899 40.5609C13.1381 40.5384 13.3863 40.4707 13.6345 40.403C13.8827 40.3578 14.1309 40.2676 14.4017 40.1773C14.537 40.1322 14.6499 40.0645 14.7852 39.9968C14.9206 39.9517 15.056 39.884 15.1914 39.8163C15.4622 39.6809 15.7329 39.5004 16.0488 39.2522L16.1842 39.1394C16.7709 38.643 16.8386 37.7855 16.3647 37.1989C16.3196 37.1537 16.297 37.1086 16.2519 37.0861C15.9586 36.8153 15.6427 36.6122 15.3042 36.4317C15.1463 36.3414 14.9658 36.2737 14.8078 36.2061C14.6499 36.1609 14.4693 36.0932 14.3114 36.0707C13.9729 36.003 13.6345 35.9353 13.2735 35.9127C12.935 35.9127 12.5965 35.9353 12.2581 35.9804C10.9268 36.2061 9.64063 36.6573 8.44474 37.2666C7.27141 37.8758 6.18833 38.6204 5.21808 39.4778C4.96987 39.7035 4.74424 39.9291 4.51859 40.1548C4.29295 40.403 4.08987 40.6286 3.88679 40.8768C3.48064 41.3732 3.11962 41.9148 2.82629 42.5014C2.80372 42.5691 2.82628 42.6368 2.87141 42.6594C2.87141 42.7045 2.91654 42.7045 2.93911 42.7045Z" fill="url(#paint19_linear_622_543)"/>
<path d="M107.23 82.4174C107.117 78.6267 107.253 74.7456 107.501 70.9097C107.749 67.0513 108.133 63.1928 108.651 59.3569C109.17 55.521 109.78 51.7077 110.592 47.9169C110.795 46.9692 110.998 46.0216 111.246 45.0964L111.607 43.6975C111.72 43.2236 111.878 42.7723 111.991 42.321C112.126 41.8698 112.262 41.3959 112.397 40.9446L112.848 39.5908L113.074 38.9139C113.164 38.6882 113.255 38.4851 113.345 38.2595L113.886 36.9734L111.72 35.9128L111.088 37.3118C110.976 37.5375 110.863 37.7857 110.773 38.0113L110.502 38.7108L109.96 40.1098C109.802 40.5836 109.644 41.0575 109.486 41.5313C109.328 42.0051 109.17 42.479 109.035 42.9528L108.629 44.3744C108.336 45.3221 108.11 46.2923 107.862 47.24C106.891 51.0759 106.147 54.9569 105.493 58.838C104.838 62.719 104.319 66.6226 103.936 70.5713C103.552 74.4974 103.281 78.4461 103.259 82.4625L107.23 82.4174Z" fill="#664B35"/>
<path d="M103.687 75.7384C103.936 75.9415 104.229 76.0317 104.5 76.0994C104.793 76.1671 105.086 76.1671 105.38 76.1671C105.673 76.1671 105.966 76.1671 106.26 76.1446C106.553 76.0994 106.846 76.0317 107.095 75.8964C106.824 75.9866 106.531 76.0092 106.237 76.0317C105.944 76.0317 105.673 76.0092 105.38 75.964C105.086 75.9189 104.816 75.8512 104.545 75.8061C104.274 75.7158 104.003 75.6707 103.687 75.7384Z" fill="url(#paint20_linear_622_543)"/>
<path d="M104.094 71.4512C104.342 71.6543 104.613 71.722 104.884 71.7446C105.154 71.7897 105.448 71.7671 105.718 71.7671C105.989 71.7671 106.283 71.8348 106.576 71.8123C106.847 71.7897 107.185 71.7446 107.366 71.4287C107.027 71.361 106.801 71.4061 106.553 71.4512C106.283 71.4964 106.012 71.5415 105.741 71.5415C105.47 71.5415 105.199 71.4512 104.929 71.4287C104.658 71.4061 104.387 71.3836 104.094 71.4512Z" fill="url(#paint21_linear_622_543)"/>
<path d="M104.5 66.7578C104.725 66.9609 104.996 67.0286 105.267 67.0737C105.538 67.1188 105.808 67.0963 106.079 67.1188C106.35 67.1188 106.621 67.1188 106.891 67.0963C107.162 67.0511 107.455 66.9834 107.659 66.8029C107.388 66.8255 107.14 66.8932 106.869 66.8932C106.598 66.9157 106.35 66.9157 106.079 66.8932C105.808 66.8706 105.56 66.8029 105.289 66.7578C105.041 66.7352 104.793 66.6901 104.5 66.7578Z" fill="url(#paint22_linear_622_543)"/>
<path d="M105.222 61.7261C105.402 61.9517 105.628 62.042 105.854 62.1097C106.102 62.1773 106.35 62.1999 106.598 62.2225C106.846 62.245 107.095 62.2676 107.343 62.245C107.591 62.1999 107.839 62.1548 108.042 61.9743C107.794 61.9968 107.569 62.042 107.343 62.042C107.117 62.0645 106.869 62.042 106.643 61.9968C106.418 61.9517 106.192 61.8614 105.966 61.7938C105.718 61.7486 105.493 61.6809 105.222 61.7261Z" fill="url(#paint23_linear_622_543)"/>
<path d="M106.079 57.2584C106.237 57.4615 106.418 57.5292 106.621 57.5969C106.824 57.642 107.027 57.6646 107.23 57.6871C107.636 57.7097 108.065 57.7322 108.471 57.6194C108.065 57.6194 107.659 57.5743 107.275 57.4615C107.072 57.4163 106.892 57.3261 106.711 57.281C106.508 57.2133 106.305 57.1907 106.079 57.2584Z" fill="url(#paint24_linear_622_543)"/>
<path d="M106.779 53.1066C106.937 53.3322 107.162 53.4225 107.388 53.4902C107.613 53.5579 107.862 53.5579 108.087 53.603C108.313 53.6256 108.561 53.6932 108.809 53.6932C109.058 53.6707 109.328 53.6256 109.464 53.3548C109.17 53.2645 108.99 53.3097 108.787 53.3548C108.584 53.3774 108.358 53.4225 108.132 53.3999C107.907 53.3773 107.704 53.2871 107.478 53.2194C107.252 53.1291 107.049 53.084 106.779 53.1066Z" fill="url(#paint25_linear_622_543)"/>
<path d="M107.817 48.3005C107.975 48.4811 108.178 48.5487 108.381 48.5939C108.584 48.639 108.787 48.639 108.99 48.639C109.193 48.6616 109.396 48.6841 109.622 48.6841C109.825 48.6841 110.051 48.6616 110.231 48.5036C110.005 48.4811 109.825 48.5036 109.622 48.4811C109.419 48.4811 109.216 48.4585 109.035 48.4134C108.832 48.3682 108.652 48.3005 108.449 48.2554C108.245 48.2328 108.042 48.2103 107.817 48.3005Z" fill="url(#paint26_linear_622_543)"/>
<path d="M108.809 43.5393C108.945 43.765 109.148 43.8552 109.351 43.9229C109.554 43.9906 109.78 43.9906 110.005 44.0132C110.231 44.0357 110.457 44.0357 110.66 44.0132C110.885 43.968 111.111 43.9004 111.269 43.7424C111.043 43.7424 110.84 43.8101 110.637 43.8101C110.434 43.8327 110.231 43.8327 110.028 43.7875C109.825 43.7424 109.622 43.6747 109.441 43.607C109.261 43.5619 109.08 43.5168 108.809 43.5393Z" fill="url(#paint27_linear_622_543)"/>
<path opacity="0.4" d="M113.864 36.9958L113.322 38.2819C113.232 38.5075 113.142 38.7106 113.051 38.9363L112.826 39.6132L112.374 40.967C112.239 41.4183 112.104 41.8922 111.968 42.3434C111.833 42.7947 111.697 43.2686 111.585 43.7199L111.246 45.1188C110.998 46.044 110.795 46.9916 110.592 47.9393C109.78 51.7075 109.17 55.5434 108.651 59.3793C108.155 63.2152 107.749 67.0737 107.501 70.9321C107.252 74.7906 107.117 78.6491 107.23 82.4624L104.996 82.5075C104.206 74.6552 105.808 53.0839 112.916 36.5896L113.864 36.9958Z" fill="url(#paint28_linear_622_543)"/>
<path d="M111.54 36.5221C111.472 36.6349 111.45 36.7477 111.404 36.8831C111.359 36.9959 111.337 37.1087 111.314 37.2216C111.292 37.3344 111.269 37.4472 111.246 37.56L111.201 37.8759C111.179 38.079 111.156 38.2821 111.156 38.4852C111.156 38.6882 111.156 38.8913 111.156 39.0718C111.201 39.839 111.382 40.5385 111.653 41.1928C112.194 42.5467 112.691 43.9005 113.164 45.2995C113.661 46.6759 114.067 48.0749 114.473 49.5416C114.902 50.9857 115.195 52.4749 115.556 54.0995C115.579 54.1672 115.624 54.2123 115.692 54.1898C115.714 54.1898 115.759 54.1672 115.759 54.1221C115.962 53.761 116.143 53.4 116.323 53.0164C116.504 52.6328 116.662 52.2492 116.775 51.8431C116.91 51.4369 117.045 51.0534 117.136 50.6472C117.226 50.241 117.316 49.8349 117.384 49.4062L117.429 49.0903L117.474 48.7744C117.497 48.5713 117.519 48.3682 117.542 48.1426C117.587 47.7364 117.632 47.3077 117.632 46.879C117.632 46.4728 117.655 46.0441 117.655 45.6154C117.632 45.2093 117.61 44.7805 117.587 44.3744C117.474 42.7046 117.181 41.0575 116.752 39.478C116.549 38.6657 116.211 37.9211 115.692 37.2216C115.443 36.8831 115.127 36.5672 114.766 36.2739C114.586 36.1385 114.383 35.9805 114.18 35.8677C114.067 35.8 113.954 35.7323 113.841 35.6872C113.706 35.6421 113.593 35.5744 113.458 35.5067C112.758 35.2359 111.946 35.5518 111.607 36.2062L111.54 36.5221Z" fill="url(#paint29_linear_622_543)"/>
<path d="M111.856 35.7999C111.45 35.845 111.066 35.9578 110.705 36.0932C110.321 36.2286 110.005 36.4091 109.69 36.6122C109.035 36.9958 108.494 37.4922 107.975 38.0337C107.726 38.3045 107.523 38.5978 107.298 38.8911C107.185 39.0491 107.095 39.1845 106.982 39.3424L106.689 39.7937C106.305 40.4029 105.966 41.0347 105.651 41.6665C105.041 42.9527 104.545 44.284 104.184 45.6378C104.003 46.3147 103.868 47.0142 103.755 47.7137C103.642 48.4132 103.597 49.1127 103.597 49.8347C103.597 49.9024 103.642 49.9475 103.71 49.9475C103.755 49.9475 103.778 49.925 103.8 49.9024C104.725 48.8193 105.56 47.7588 106.373 46.7209C107.207 45.6829 107.997 44.6675 108.81 43.6747C109.013 43.4265 109.216 43.2009 109.419 42.9527C109.622 42.7045 109.847 42.4788 110.028 42.2532L110.321 41.8922C110.412 41.7793 110.524 41.6665 110.637 41.5537C110.84 41.3281 111.043 41.1024 111.224 40.8542C111.63 40.4029 111.946 39.884 112.284 39.365C112.578 38.8009 112.916 38.3045 113.142 37.5599L113.187 37.4019C113.39 36.725 113.006 36.0255 112.33 35.8224C112.217 35.7773 112.036 35.7773 111.856 35.7999Z" fill="url(#paint30_linear_622_543)"/>
<path d="M96.6699 35.9353C98.114 36.1159 99.4904 36.2061 100.867 36.3189C102.221 36.4318 103.552 36.522 104.838 36.6574C105.492 36.7251 106.124 36.8153 106.734 36.9056C107.365 36.9959 107.952 37.1312 108.561 37.1989C109.17 37.2666 109.757 37.3343 110.366 37.3569C110.976 37.3794 111.607 37.402 112.375 37.3569H112.465C112.961 37.3343 113.322 36.9056 113.3 36.4092C113.3 36.2964 113.255 36.1835 113.209 36.0933C112.826 35.281 112.194 34.7169 111.517 34.243C110.84 33.7918 110.096 33.4759 109.328 33.2953C108.584 33.0923 107.817 33.0471 107.049 33.0246C106.305 33.002 105.56 33.0246 104.816 33.0923C103.349 33.2277 101.927 33.521 100.551 33.9497C99.8515 34.1528 99.1745 34.4235 98.5202 34.7169C97.8658 35.0102 97.2115 35.3487 96.6022 35.7548C96.5571 35.8 96.5345 35.8677 96.5571 35.9128C96.6022 35.8902 96.6248 35.9128 96.6699 35.9353Z" fill="url(#paint31_linear_622_543)"/>
<path d="M103.191 29.0758C103.913 29.9558 104.635 30.7004 105.357 31.4224L107.433 33.5209C107.772 33.8594 108.088 34.1978 108.404 34.5137C108.719 34.8296 108.99 35.1906 109.306 35.4614C109.622 35.7547 109.938 36.0029 110.321 36.2511C110.705 36.4994 111.111 36.725 111.698 36.9732L111.833 37.0409C112.33 37.2665 112.894 37.0409 113.097 36.5445C113.097 36.5219 113.119 36.4994 113.119 36.4768C113.368 35.7773 113.277 35.0778 113.119 34.4686C112.939 33.8368 112.646 33.2953 112.285 32.8214C111.924 32.3476 111.472 31.964 111.021 31.6029C110.57 31.2419 110.096 30.926 109.622 30.6553C108.652 30.0912 107.636 29.6624 106.598 29.3465C106.079 29.1886 105.538 29.0758 104.996 28.9855C104.455 28.8953 103.891 28.8501 103.327 28.8727C103.259 28.8727 103.214 28.9404 103.214 29.0081C103.169 29.0306 103.169 29.0532 103.191 29.0758Z" fill="url(#paint32_linear_622_543)"/>
<path d="M124.74 28.8954C124.085 28.7374 123.431 28.6697 122.777 28.6472C122.122 28.6246 121.445 28.6472 120.791 28.7374C119.46 28.8954 118.151 29.2338 116.865 29.7754C115.579 30.3395 114.36 31.1292 113.3 32.1446C112.781 32.6636 112.352 33.2954 112.081 33.9949C112.014 34.1754 111.968 34.3559 111.901 34.5364C111.856 34.7169 111.833 34.92 111.788 35.1005C111.765 35.281 111.743 35.4841 111.765 35.6872C111.765 35.8902 111.788 36.0933 111.833 36.2738C111.968 36.9733 112.668 37.4246 113.367 37.2892C113.48 37.2667 113.593 37.2215 113.683 37.1764L113.841 37.0861C114.496 36.7477 114.902 36.4092 115.308 36.0708C115.714 35.7323 116.03 35.3713 116.368 35.0102C116.978 34.2205 117.745 33.4985 118.625 32.799C119.482 32.122 120.452 31.4677 121.49 30.881C122.528 30.2718 123.611 29.7077 124.785 29.121C124.852 29.0985 124.875 29.0308 124.83 28.9631C124.807 28.9179 124.762 28.8954 124.74 28.8954Z" fill="url(#paint33_linear_622_543)"/>
<path d="M126.861 41.5764C126.567 40.9897 126.206 40.4482 125.8 39.9518C125.597 39.7036 125.372 39.4554 125.168 39.2297C124.943 39.0041 124.717 38.7784 124.469 38.5528C123.521 37.6728 122.416 36.9282 121.242 36.3415C120.069 35.7323 118.783 35.281 117.429 35.0554C117.091 35.0102 116.752 34.9877 116.414 34.9877C116.075 35.0102 115.714 35.0554 115.376 35.1456C115.195 35.1908 115.037 35.2359 114.879 35.281C114.721 35.3487 114.541 35.4164 114.383 35.5066C114.067 35.6872 113.728 35.8677 113.435 36.161C112.894 36.68 112.871 37.56 113.39 38.1015C113.435 38.1466 113.458 38.1692 113.503 38.2143L113.638 38.3272C113.932 38.5754 114.225 38.7559 114.496 38.8913C114.631 38.959 114.766 39.0266 114.902 39.0718C115.037 39.1395 115.173 39.2072 115.285 39.2523C115.534 39.3651 115.782 39.4328 116.053 39.4779C116.301 39.5456 116.549 39.6133 116.797 39.6359C116.933 39.6584 117.045 39.6584 117.181 39.681L117.564 39.7261C117.813 39.7713 118.083 39.7713 118.354 39.8164C118.625 39.8615 118.873 39.9066 119.144 39.9292C119.415 39.9518 119.663 40.0195 119.934 40.0646C120.994 40.2677 122.1 40.5159 123.228 40.8092C124.356 41.1025 125.507 41.441 126.748 41.7795C126.816 41.802 126.883 41.7569 126.906 41.6892C126.883 41.6441 126.883 41.6215 126.861 41.5764Z" fill="url(#paint34_linear_622_543)"/>
<path d="M34.8669 83.2521C34.6638 78.5363 34.7766 73.7752 35.0248 69.0142C35.273 64.2532 35.7018 59.4696 36.2659 54.7311C36.83 49.9927 37.5295 45.2542 38.4771 40.5835C38.951 38.2594 39.47 35.9353 40.1018 33.6563C40.7336 31.3773 41.4556 29.1209 42.3807 27.0224L40.192 25.9845C39.1315 28.2635 38.2966 30.565 37.5746 32.9117C36.8525 35.2583 36.2433 37.605 35.7018 39.9742C34.6187 44.7127 33.7613 49.4963 33.0618 54.3024C32.3623 59.1086 31.7982 63.9147 31.4146 68.766C31.031 73.6173 30.7828 78.4686 30.8505 83.3875L34.8669 83.2521Z" fill="#664B35"/>
<path opacity="0.4" d="M32.4074 83.3198L34.8443 83.2521C34.6412 78.5362 34.7541 73.7752 35.0023 68.9916C35.2505 64.2306 35.6792 59.4696 36.2433 54.7085C36.8074 49.9701 37.5069 45.2316 38.4546 40.5608C38.9284 38.2367 39.4474 35.9126 40.0792 33.6111C40.711 31.3321 41.433 29.0757 42.3807 26.9773L41.3879 26.5034C40.7787 27.925 40.2597 29.3916 39.7633 30.8808C38.951 33.3403 38.2515 35.8449 37.6423 38.3721C36.4013 43.4265 35.4536 48.526 34.6638 53.6706C33.8966 58.8152 33.2874 63.9598 32.8813 69.127C32.5202 73.8654 32.3172 78.6265 32.4074 83.3198Z" fill="url(#paint35_linear_622_543)"/>
<path d="M30.9858 75.0839C31.2792 75.3095 31.5951 75.3772 31.9335 75.4449C32.272 75.5126 32.6104 75.5126 32.9489 75.5126C33.2874 75.5126 33.6258 75.5126 33.9643 75.4675C34.3028 75.4224 34.6412 75.3547 34.912 75.1742C34.5961 75.287 34.2802 75.3321 33.9417 75.3321C33.6258 75.3321 33.2874 75.3095 32.9715 75.2644C32.6556 75.2193 32.3171 75.1516 32.0012 75.0839C31.6628 75.0839 31.3243 75.0388 30.9858 75.0839Z" fill="url(#paint36_linear_622_543)"/>
<path d="M31.4146 69.804C31.6854 70.007 31.9787 70.0747 32.2946 70.0973C32.6105 70.1424 32.9039 70.1198 33.2198 70.1198C33.5357 70.1198 33.829 70.165 34.1449 70.1424C34.4382 70.1198 34.7992 70.0522 35.0023 69.7363C34.6413 69.6686 34.3931 69.7588 34.0998 69.804C33.8064 69.8491 33.5131 69.9168 33.2198 69.8942C32.9264 69.8942 32.6331 69.8265 32.3398 69.7814C32.0239 69.7588 31.7305 69.7363 31.4146 69.804Z" fill="url(#paint37_linear_622_543)"/>
<path d="M31.9561 64.0276C32.2044 64.2307 32.4751 64.2984 32.7685 64.3435C33.0392 64.3886 33.3326 64.366 33.6259 64.366C33.9192 64.366 34.19 64.366 34.4833 64.3209C34.7541 64.2758 35.0474 64.2081 35.2731 64.005C34.9797 64.0501 34.7315 64.0953 34.4608 64.1178C34.19 64.1404 33.9192 64.1404 33.6485 64.1404C33.3777 64.1178 33.1069 64.0502 32.8361 64.0276C32.5202 63.9825 32.2495 63.9599 31.9561 64.0276Z" fill="url(#paint38_linear_622_543)"/>
<path d="M32.6557 57.7772C32.8588 58.0028 33.1295 58.1157 33.4003 58.2059C33.6711 58.2736 33.9644 58.2962 34.2577 58.3187C34.5511 58.3413 34.8218 58.3639 35.1152 58.3187C35.4085 58.2736 35.7018 58.2059 35.9049 58.0028C35.6116 58.048 35.3634 58.0931 35.0926 58.1156C34.8218 58.1382 34.5511 58.1156 34.2803 58.0705C34.0095 58.0254 33.7613 57.9351 33.4905 57.8674C33.2423 57.8223 32.9716 57.7546 32.6557 57.7772Z" fill="url(#paint39_linear_622_543)"/>
<path d="M33.4229 52.2265C33.626 52.4295 33.8516 52.5198 34.0998 52.5875C34.348 52.6552 34.5962 52.6552 34.867 52.6777C35.3634 52.7229 35.8824 52.7229 36.3788 52.5875C36.1306 52.6101 35.8824 52.5875 35.6342 52.5649C35.386 52.5424 35.1378 52.4972 34.9121 52.4295C34.6639 52.3844 34.4383 52.2942 34.1901 52.249C33.9419 52.2265 33.6937 52.1813 33.4229 52.2265Z" fill="url(#paint40_linear_622_543)"/>
<path d="M34.1901 47.1497C34.3706 47.3753 34.6188 47.4881 34.867 47.5558C35.1152 47.6235 35.386 47.6235 35.6568 47.6686C35.9276 47.6912 36.1758 47.7589 36.4465 47.7363C36.7173 47.7138 37.0106 47.6461 37.1686 47.3527C36.8527 47.2625 36.6496 47.3527 36.4014 47.3753C36.1758 47.4204 35.905 47.4656 35.6568 47.4204C35.4086 47.3979 35.1604 47.3076 34.9347 47.2399C34.7317 47.1722 34.4835 47.1271 34.1901 47.1497Z" fill="url(#paint41_linear_622_543)"/>
<path d="M35.4986 41.1701C35.7017 41.3506 35.9273 41.4183 36.153 41.4635C36.3786 41.5086 36.6268 41.5086 36.8525 41.5312C37.0781 41.5537 37.3263 41.5763 37.552 41.5763C37.7776 41.5537 38.0484 41.5537 38.2289 41.3732C37.9807 41.3732 37.7776 41.3732 37.552 41.3732C37.3263 41.3732 37.1007 41.3506 36.875 41.3055C36.6494 41.2604 36.4238 41.1927 36.1981 41.1476C35.9725 41.125 35.7468 41.1024 35.4986 41.1701Z" fill="url(#paint42_linear_622_543)"/>
<path d="M36.9879 35.326C37.1233 35.5516 37.3489 35.6419 37.5746 35.7096C37.8002 35.7773 38.0259 35.7773 38.2741 35.7998C38.4997 35.8224 38.7479 35.8224 38.9736 35.7773C39.1992 35.7321 39.4248 35.6644 39.6053 35.4839C39.3571 35.5065 39.1766 35.5516 38.951 35.5742C38.7479 35.5967 38.5223 35.5967 38.2966 35.5516C38.071 35.529 37.8679 35.4388 37.6648 35.3711C37.4618 35.3485 37.2361 35.2808 36.9879 35.326Z" fill="url(#paint43_linear_622_543)"/>
<path d="M40.2599 26.8194C40.2373 26.842 40.2373 26.8645 40.2373 26.9097C40.2373 26.9322 40.2373 26.9773 40.2373 26.9999V27.1804C40.2373 27.2932 40.2599 27.4061 40.2599 27.5189C40.2825 27.7445 40.305 27.9476 40.3502 28.1507C40.4178 28.5568 40.5081 28.9179 40.6209 29.2563C40.8466 29.9558 41.1625 30.5425 41.546 31.1291C42.2907 32.3025 42.8999 33.5886 43.4414 34.9425C43.6896 35.6194 43.9604 36.3189 44.1635 37.0409C44.3666 37.763 44.5922 38.5076 44.7502 39.2748C44.7953 39.4553 44.8404 39.6584 44.8855 39.8614C44.9307 40.0645 44.9532 40.245 44.9984 40.4481C45.0435 40.6512 45.0886 40.8543 45.1112 41.0348C45.1337 41.2378 45.1789 41.4409 45.224 41.644C45.2917 42.0502 45.3594 42.4563 45.4496 42.8625C45.5173 43.2686 45.585 43.6973 45.6753 44.1261C45.6978 44.1937 45.743 44.2389 45.8107 44.2163C45.8558 44.2163 45.8784 44.1937 45.8784 44.1486C46.104 43.765 46.3071 43.3814 46.4876 42.9978C46.5778 42.7948 46.6681 42.5917 46.7358 42.3886C46.826 42.1855 46.9163 41.9825 46.984 41.7794C47.2773 40.9671 47.5255 40.1096 47.6835 39.2296C48.0219 37.4922 48.0896 35.6645 47.864 33.8368C47.6384 32.0091 47.1194 30.204 46.2845 28.4891C45.8784 27.6317 45.3142 26.842 44.5471 26.2327C44.1635 25.9168 43.7573 25.6461 43.2609 25.443C43.1481 25.3979 43.0127 25.3527 42.8999 25.3076C42.7645 25.2625 42.6517 25.2173 42.5163 25.1948C42.3809 25.1497 42.2455 25.1271 42.1101 25.1045L41.6363 25.0594C41.1625 24.6758 40.4404 24.7435 40.0568 25.2173C39.6958 25.7138 39.786 26.4358 40.2599 26.8194Z" fill="url(#paint44_linear_622_543)"/>
<path d="M40.9818 26.2103C40.147 25.9169 39.267 25.9395 38.4321 26.0523C37.5972 26.2103 36.8075 26.5036 36.108 26.9097C35.386 27.3159 34.7767 27.8349 34.1901 28.3539C33.8967 28.6246 33.626 28.8954 33.3552 29.1887C33.0844 29.4595 32.8362 29.7754 32.588 30.0687C31.6177 31.2646 30.828 32.5733 30.1962 33.9272C29.8803 34.6041 29.6095 35.3036 29.3839 36.0256C29.1583 36.7477 28.9778 37.4697 28.9101 38.2144C28.9101 38.282 28.9552 38.3497 29.0229 38.3497C29.068 38.3497 29.0906 38.3497 29.1131 38.3272C30.1736 37.3118 31.189 36.319 32.2044 35.3713C33.2198 34.4236 34.2352 33.5436 35.2506 32.7538C35.7695 32.3703 36.266 31.9867 36.7849 31.6482C37.3039 31.3097 37.8454 31.0164 38.3418 30.7005C38.8383 30.3846 39.3347 30.0687 39.8085 29.7077C40.3049 29.3467 40.8013 28.9856 41.3429 28.4667L41.4557 28.3539C41.9521 27.88 41.9747 27.0677 41.4783 26.5713C41.3429 26.3682 41.1624 26.2554 40.9818 26.2103Z" fill="url(#paint45_linear_622_543)"/>
<path d="M21.3962 26.0973C23.1562 26.1876 24.8485 26.1876 26.5408 26.2327C28.2105 26.2778 29.8803 26.3229 31.4823 26.4358L32.6782 26.526C33.0844 26.5711 33.468 26.6163 33.8741 26.6614C34.6639 26.7517 35.431 26.887 36.1757 26.9773C36.9428 27.0676 37.6874 27.1578 38.4546 27.2255C39.2218 27.2932 39.989 27.3609 40.8915 27.3834H40.9592C41.4331 27.406 41.8167 27.0224 41.8392 26.5486C41.8392 26.3906 41.7941 26.2327 41.7264 26.0973C41.1849 25.2173 40.3951 24.5855 39.5828 24.0665C39.1541 23.8183 38.7254 23.6152 38.2741 23.4347C37.8228 23.2768 37.3715 23.1188 36.9203 23.0286C36.469 22.9158 35.9951 22.8481 35.5439 22.8029C35.0926 22.7578 34.6187 22.7352 34.1674 22.7352C33.7162 22.7127 33.2649 22.7352 32.8136 22.7352L32.1367 22.7578C31.911 22.7804 31.6854 22.8029 31.4598 22.8029C29.6772 22.9609 27.9398 23.2994 26.2475 23.7958C25.4126 24.044 24.5777 24.3373 23.7654 24.6758C22.9531 25.0142 22.1408 25.3752 21.3736 25.8491C21.3285 25.8717 21.3059 25.9619 21.3285 26.007C21.3059 26.0747 21.351 26.0973 21.3962 26.0973Z" fill="url(#paint46_linear_622_543)"/>
<path d="M35.6793 15.6501C36.0404 16.7557 36.4239 17.7485 36.8075 18.7188C37.1911 19.689 37.5521 20.6142 37.868 21.5393C38.026 21.9906 38.1839 22.4418 38.3193 22.8706C38.4547 23.2993 38.545 23.728 38.7029 24.1342C38.8383 24.5403 39.0188 24.9239 39.2219 25.33C39.4475 25.7362 39.6732 26.1424 40.0568 26.6839L40.147 26.7967C40.4629 27.2254 41.0496 27.3157 41.4783 27.0224C41.5009 26.9998 41.546 26.9772 41.5686 26.9547C42.1327 26.4357 42.4034 25.7813 42.5614 25.127C42.7193 24.4726 42.6968 23.7957 42.5839 23.1865C42.4711 22.5547 42.2229 21.9906 41.9747 21.4265C41.7039 20.8849 41.4106 20.3659 41.0947 19.8695C40.4403 18.8993 39.6506 18.0418 38.7932 17.2972C38.3644 16.9136 37.8906 16.5752 37.4168 16.2818C36.9429 15.9659 36.4239 15.6952 35.8598 15.4921C35.7921 15.4695 35.7245 15.4921 35.7019 15.5598C35.6568 15.6049 35.6568 15.6275 35.6793 15.6501Z" fill="url(#paint47_linear_622_543)"/>
<path d="M57.4989 19.9598C56.7317 19.7116 55.9646 19.5311 55.1748 19.4183C54.3851 19.2829 53.5953 19.2152 52.783 19.1927C51.181 19.1475 49.5338 19.2829 47.9092 19.6665C46.2846 20.0501 44.6599 20.7045 43.1482 21.6747C42.4035 22.1937 41.7492 22.848 41.2528 23.6152C40.7789 24.405 40.4179 25.285 40.4179 26.2552C40.4179 26.9321 40.9594 27.4962 41.6364 27.4962C41.8394 27.4962 42.0199 27.4511 42.2005 27.3609L42.3584 27.2932C43.103 26.9321 43.622 26.5486 44.1635 26.1875C44.7051 25.8265 45.1789 25.4655 45.6753 25.0819C46.6456 24.2696 47.8189 23.5927 49.0825 22.9834C50.3461 22.3742 51.7225 21.8778 53.144 21.4265C54.5656 20.9752 56.0322 20.5691 57.5666 20.1855C57.6343 20.1629 57.6569 20.0952 57.6569 20.0501C57.5666 20.005 57.544 19.9824 57.4989 19.9598Z" fill="url(#paint48_linear_622_543)"/>
<path d="M56.9796 31.8286C56.7314 31.1291 56.3704 30.4973 55.9642 29.9107C55.5355 29.324 55.0391 28.7599 54.4976 28.2635C53.4145 27.2707 52.1283 26.4358 50.7294 25.8717C50.0299 25.5784 49.3078 25.3302 48.5632 25.1722C47.8186 24.9917 47.074 24.8563 46.3068 24.8337C46.1263 24.8337 45.9232 24.8337 45.7427 24.8337C45.5622 24.8337 45.3591 24.8563 45.1786 24.8789C44.795 24.924 44.434 25.0143 44.073 25.1271C43.3509 25.3753 42.6514 25.7363 42.0422 26.3455C41.5232 26.8645 41.5232 27.7219 42.0647 28.2409C42.1324 28.3086 42.2227 28.3763 42.313 28.4214L42.4258 28.4891C42.7868 28.7148 43.1253 28.8276 43.4412 28.9404C43.7571 29.0532 44.073 29.1435 44.3889 29.2112C44.6822 29.2789 44.9981 29.324 45.2914 29.3691C45.4268 29.3917 45.5848 29.3917 45.7201 29.4142C45.8555 29.4368 46.0135 29.4368 46.1489 29.4368C47.2996 29.4368 48.4504 29.4819 49.6237 29.6399C50.7971 29.7978 51.9704 30.0686 53.1663 30.4522C54.3622 30.8358 55.5806 31.3322 56.8217 31.964C56.8894 31.9866 56.9571 31.964 56.9796 31.9189C56.9796 31.8963 56.9796 31.8737 56.9796 31.8286Z" fill="url(#paint49_linear_622_543)"/>
</g>
<path d="M54.2948 86.8174C57.0476 86.0728 62.4404 84.8318 67.4045 84.8318C72.3686 84.8318 77.7389 86.0728 80.5143 86.8174C81.5522 87.0882 82.1614 88.2615 81.8681 89.4123C80.6722 94.0379 77.9194 105.049 77.7389 110.352H67.4271H57.1153C56.9348 105.072 54.182 94.0605 52.9861 89.4123C52.6476 88.2615 53.2568 87.1108 54.2948 86.8174ZM74.5573 107.734C74.8507 107.779 75.144 107.554 75.1891 107.26C75.663 104.192 76.1819 101.146 76.7235 98.0769C76.9943 96.5426 77.2876 95.0308 77.6035 93.519C77.9194 92.0072 78.2353 90.4954 78.6414 89.0513C78.7768 88.5774 78.506 88.081 78.0322 87.9456C77.5584 87.8103 77.0619 88.081 76.9266 88.5549V88.5774C76.543 90.1343 76.2722 91.6687 76.024 93.2031C75.7758 94.7374 75.5276 96.2943 75.3019 97.8287C74.8507 100.92 74.4445 103.989 74.0835 107.08C74.0384 107.418 74.2414 107.689 74.5573 107.734ZM72.1655 107.734C72.4589 107.757 72.7296 107.531 72.7748 107.238C73.1584 104.102 73.542 100.965 73.9481 97.8287C74.1512 96.2718 74.3543 94.6923 74.5799 93.1354C74.8055 91.5785 75.0312 90.0215 75.2794 88.4872C75.3696 87.9682 75.0312 87.4718 74.5122 87.3815C73.9932 87.2913 73.4968 87.6297 73.4066 88.1487C73.4066 88.1713 73.4066 88.1713 73.4066 88.1938C73.2035 89.7959 73.0455 91.3528 72.8876 92.9323C72.7296 94.5118 72.5943 96.0913 72.4589 97.6708C72.1881 100.83 71.9173 103.966 71.6691 107.125C71.624 107.441 71.8496 107.712 72.1655 107.734ZM69.6158 107.734C69.9091 107.757 70.1799 107.509 70.2025 107.215C70.4732 104.011 70.744 100.83 71.0373 97.6256L71.4886 92.842C71.6466 91.24 71.8045 89.6605 71.985 88.081C72.0527 87.5395 71.6691 87.0656 71.1276 86.9979C70.5861 86.9302 70.1122 87.3138 70.0445 87.8554C70.0445 87.8779 70.0445 87.8779 70.0445 87.9005C69.9091 89.5251 69.8189 91.1272 69.7286 92.7292L69.4804 97.5354C69.3225 100.739 69.1871 103.944 69.0517 107.17C69.0743 107.464 69.2999 107.734 69.6158 107.734ZM66.4343 87.9908L66.8404 107.193C66.8404 107.509 67.1112 107.757 67.4271 107.734C67.7204 107.734 67.9686 107.486 67.9686 107.193L68.3748 87.9908C68.3973 87.4492 67.9686 86.9979 67.4271 86.9979C66.8855 86.9754 66.4343 87.4041 66.4343 87.9456C66.4343 87.9682 66.4343 87.9682 66.4343 87.9908ZM63.7717 97.6482C64.065 100.852 64.3358 104.034 64.6066 107.238C64.6291 107.554 64.8999 107.779 65.2158 107.757C65.5091 107.734 65.7348 107.464 65.7348 107.17C65.5994 103.966 65.464 100.762 65.3061 97.5354L65.0579 92.7292C64.9676 91.1272 64.8773 89.5251 64.742 87.9005C64.6968 87.359 64.223 86.9528 63.704 86.9979C63.1625 87.0431 62.7563 87.5169 62.8014 88.0359C62.8014 88.0585 62.8014 88.0585 62.8014 88.081C62.982 89.6605 63.1625 91.2626 63.2979 92.842L63.7717 97.6482ZM62.0343 107.238C62.0794 107.554 62.3502 107.779 62.6661 107.734C62.9594 107.689 63.185 107.441 63.1625 107.125C62.9143 103.966 62.6661 100.83 62.3727 97.6708C62.2373 96.0913 62.0794 94.5118 61.944 92.9323C61.7861 91.3528 61.6281 89.7733 61.425 88.1938C61.3573 87.6749 60.8835 87.3138 60.3645 87.3815C59.8455 87.4492 59.4845 87.9231 59.5522 88.442C59.5522 88.4646 59.5522 88.4646 59.5522 88.4872C59.823 90.0215 60.0486 91.5785 60.2517 93.1354C60.4773 94.6923 60.6804 96.2718 60.8835 97.8287C61.2671 100.965 61.6732 104.102 62.0343 107.238ZM56.145 89.0061V89.0287V89.0513C56.5512 90.4954 56.8671 92.0072 57.183 93.519C57.4989 95.0308 57.7697 96.5426 58.063 98.0769C58.6045 101.123 59.1235 104.192 59.5973 107.26C59.6425 107.576 59.9358 107.779 60.2517 107.734C60.545 107.689 60.7707 107.418 60.7255 107.103C60.342 104.011 59.9584 100.92 59.5071 97.8513C59.2814 96.3169 59.0558 94.76 58.785 93.2256C58.5143 91.6913 58.2435 90.1569 57.8825 88.6C57.7697 88.1261 57.2732 87.8328 56.7994 87.9456C56.3256 88.0585 56.0322 88.5323 56.145 89.0061Z" fill="url(#paint50_linear_622_543)"/>
<path d="M46.4651 99.4306C46.4651 99.8367 45.2015 100.175 43.622 100.175C42.0426 100.175 40.779 99.8367 40.779 99.4306L39.9892 90.0214H47.2323L46.4651 99.4306Z" fill="url(#paint51_linear_622_543)"/>
<path d="M43.6222 90.5629C41.6158 90.5629 39.9894 90.3205 39.9894 90.0214C39.9894 89.7223 41.6158 89.4799 43.6222 89.4799C45.6285 89.4799 47.255 89.7223 47.255 90.0214C47.255 90.3205 45.6285 90.5629 43.6222 90.5629Z" fill="#107264"/>
<path d="M43.509 91.5559L44.1859 91.5334L44.028 86.7046C44.028 86.6144 43.9828 86.5241 43.9151 86.4564C43.8926 86.4339 43.87 86.4339 43.8475 86.4113C43.8926 86.2759 43.87 86.1405 43.7798 86.0503C43.7121 85.9826 43.6218 85.96 43.5315 85.9375L43.5541 85.8698C43.5992 85.7118 43.509 85.5539 43.3736 85.4862C43.2608 85.441 43.148 85.441 43.0577 85.4862C43.0126 85.4185 42.9674 85.3734 42.8998 85.3508C42.8321 85.3282 42.7644 85.3057 42.6967 85.3282C42.629 85.2605 42.5162 85.238 42.4259 85.2605L38.7931 85.8472L38.9059 86.5241L42.0423 86.0051C42.0423 86.118 42.11 86.2082 42.2003 86.2759C42.268 86.321 42.3582 86.3436 42.4259 86.321V86.3436C42.4259 86.479 42.5162 86.6144 42.6516 86.6595C42.6741 86.6595 42.6967 86.6595 42.6967 86.6821C42.7192 86.7498 42.7644 86.7949 42.8095 86.8175C42.8546 86.84 42.8772 86.8626 42.9223 86.8851C42.9223 86.9077 42.9449 86.9303 42.9449 86.9528C43.0126 87.0657 43.1254 87.1108 43.2608 87.1108H43.3059L43.509 91.5559Z" fill="url(#paint52_linear_622_543)"/>
<path opacity="0.25" d="M6.68478 61.7939H43.6222V75.6257H6.68478V61.7939Z" fill="url(#paint53_linear_622_543)"/>
<path opacity="0.25" d="M47.2548 61.7939H84.1923V75.6257H47.2548V61.7939Z" fill="url(#paint54_linear_622_543)"/>
<path opacity="0.25" d="M87.8476 61.7939H124.785V75.6257H87.8476V61.7939Z" fill="url(#paint55_linear_622_543)"/>
<path d="M85.3883 58.5671H86.5165V78.8297H85.3883V58.5671Z" fill="url(#paint56_linear_622_543)"/>
<path d="M44.7955 58.5671H45.9237V78.8297H44.7955V58.5671Z" fill="url(#paint57_linear_622_543)"/>
<path d="M9.6405 57.6646H124.943V59.3569H9.6405V57.6646Z" fill="url(#paint58_linear_622_543)"/>
<path d="M9.6405 60.2144H124.943V61.0718H9.6405V60.2144Z" fill="url(#paint59_linear_622_543)"/>
<path d="M92.9244 41.1024C92.6085 41.0122 92.2701 40.967 91.9316 40.9445C91.5932 40.9219 91.2547 40.9445 90.9162 41.0122C90.5778 41.0799 90.2393 41.1927 89.946 41.4183C89.6526 41.6214 89.4044 41.9147 89.2465 42.2532L89.6526 42.2306C89.4496 41.9373 89.2465 41.644 88.9532 41.4183C88.6824 41.1701 88.3665 40.9896 88.0055 40.8994C87.667 40.8091 87.306 40.8091 86.9675 40.8542C86.6291 40.8994 86.2906 40.967 85.9521 41.0122C86.2906 41.0122 86.6291 40.967 86.9675 40.967C87.306 40.967 87.6444 41.0122 87.9378 41.125C88.2311 41.2378 88.5019 41.4409 88.705 41.6665C88.9306 41.8922 89.0885 42.1855 89.2239 42.4563L89.4721 42.9301L89.6526 42.4337C89.7429 42.1404 89.9009 41.8922 90.1491 41.6891C90.3747 41.486 90.668 41.3281 90.9614 41.2378C91.2773 41.1476 91.5932 41.0799 91.9316 41.0799C92.2701 41.0347 92.6085 41.0573 92.9244 41.1024Z" fill="url(#paint60_linear_622_543)"/>
<path d="M73.7675 38.4175C73.4516 38.3272 73.1131 38.2821 72.7746 38.2595C72.4362 38.237 72.0977 38.2595 71.7593 38.3272C71.4208 38.3949 71.0823 38.5078 70.789 38.7334C70.4957 38.9365 70.2475 39.2298 70.0895 39.5683L70.4957 39.5457C70.2926 39.2524 70.0895 38.959 69.7962 38.7334C69.5254 38.4852 69.2095 38.3047 68.8485 38.2144C68.51 38.1242 68.149 38.1242 67.8105 38.1693C67.4721 38.2144 67.1336 38.2821 66.7952 38.3272C67.1336 38.3272 67.4721 38.2821 67.8105 38.2821C68.149 38.2821 68.4875 38.3272 68.7808 38.4401C69.0741 38.5529 69.3449 38.756 69.548 38.9816C69.7736 39.2072 69.9316 39.5006 70.0669 39.7713L70.3152 40.2452L70.4957 39.7488C70.5859 39.4554 70.7439 39.2072 70.9921 39.0042C71.2177 38.8011 71.511 38.6431 71.8044 38.5529C72.1203 38.4626 72.4362 38.3949 72.7746 38.3949C73.1131 38.3498 73.4516 38.3724 73.7675 38.4175Z" fill="url(#paint61_linear_622_543)"/>
<path d="M87.6896 36.9732C87.3737 36.883 87.0352 36.8153 86.6968 36.7927C86.3583 36.7701 86.0198 36.7701 85.6588 36.8378C85.3203 36.9055 84.9593 37.0183 84.6434 37.2214C84.3275 37.4245 84.0793 37.7404 83.8988 38.0789L84.4629 38.0337C84.2598 37.7404 84.0342 37.4471 83.7409 37.2214C83.4701 36.9732 83.1316 36.7927 82.7706 36.725C82.4096 36.6348 82.0486 36.6573 81.7101 36.7025C81.3716 36.7476 81.0332 36.8378 80.6947 36.883C81.0332 36.883 81.3716 36.8604 81.7101 36.8604C82.0486 36.8604 82.3644 36.9055 82.6578 37.0409C83.2444 37.2891 83.628 37.8081 83.8988 38.3722L84.2373 39.0717L84.4629 38.3271C84.5532 38.0563 84.6886 37.8081 84.9142 37.605C85.1398 37.4019 85.4106 37.244 85.7039 37.1537C85.9973 37.0409 86.3357 36.9958 86.6516 36.9732C87.0127 36.9281 87.3511 36.9281 87.6896 36.9732Z" fill="url(#paint62_linear_622_543)"/>
</g>
<mask id="mask2_622_543" style="mask-type:alpha" maskUnits="userSpaceOnUse" x="0" y="14" width="132" height="44">
<rect width="132" height="43.5487" transform="matrix(-1 0 0 1 132 14.0256)" fill="#C4C4C4"/>
</mask>
<g mask="url(#mask2_622_543)">
<path d="M26.4003 83.4329C26.3777 79.4165 26.1069 75.4678 25.7233 71.5416C25.3398 67.6155 24.7982 63.7119 24.1664 59.8083C23.5121 55.9273 22.7449 52.0462 21.7972 48.2104C21.549 47.2401 21.3234 46.2924 21.03 45.3447L20.6239 43.9232C20.4885 43.4493 20.308 42.9755 20.1726 42.5016C20.0146 42.0278 19.8567 41.5539 19.6987 41.0801L19.1572 39.6811L18.8864 38.9816C18.7962 38.756 18.6833 38.5078 18.5705 38.2822L17.9387 36.8832L15.7726 37.9437L16.3141 39.2298C16.4044 39.4555 16.4946 39.6586 16.5849 39.8842L16.8105 40.5611L17.2618 41.915C17.3972 42.3663 17.5326 42.8401 17.668 43.2914C17.8033 43.7427 17.9387 44.2165 18.0516 44.6678L18.4126 46.0668C18.6608 46.9919 18.8639 47.9396 19.0669 48.8873C19.8792 52.6555 20.4885 56.4914 21.0075 60.3273C21.5039 64.1632 21.91 68.0216 22.1582 71.8801C22.4064 75.7385 22.5418 79.597 22.429 83.3878L26.4003 83.4329Z" fill="#664B35"/>
<path d="M22.8575 54.0546C22.5868 54.032 22.3837 54.0771 22.1581 54.1448C21.955 54.2125 21.7293 54.3028 21.5037 54.3253C21.2781 54.3479 21.0524 54.3253 20.8493 54.2802C20.6237 54.2577 20.4658 54.19 20.1724 54.2802C20.3078 54.5735 20.5786 54.6187 20.8268 54.6187C21.075 54.6187 21.3232 54.551 21.5488 54.5284C21.7745 54.4833 22.0227 54.4833 22.2483 54.4156C22.474 54.393 22.6996 54.2802 22.8575 54.0546Z" fill="url(#paint63_linear_622_543)"/>
<path d="M21.8197 49.2483C21.5941 49.1581 21.391 49.1806 21.1879 49.2258C20.9848 49.2709 20.8043 49.3386 20.6012 49.3837C20.3982 49.4288 20.1951 49.4288 20.0146 49.4514C19.8115 49.474 19.631 49.4514 19.4053 49.474C19.5859 49.6319 19.8115 49.6319 20.0146 49.6545C20.2177 49.6545 20.4207 49.6319 20.6464 49.6094C20.8494 49.5868 21.0525 49.5868 21.2556 49.5642C21.4587 49.4965 21.6618 49.4288 21.8197 49.2483Z" fill="url(#paint64_linear_622_543)"/>
<path d="M20.8268 44.4873C20.5786 44.4648 20.3755 44.5099 20.195 44.5776C19.9919 44.6453 19.8114 44.713 19.6083 44.7581C19.4052 44.7806 19.2022 44.8032 18.9991 44.7806C18.796 44.7806 18.5929 44.713 18.3673 44.713C18.5252 44.8709 18.7509 44.9386 18.9765 44.9837C19.2022 45.0063 19.4278 45.0063 19.6309 44.9837C19.8565 44.9612 20.0822 44.9612 20.2852 44.8935C20.4883 44.8032 20.6914 44.713 20.8268 44.4873Z" fill="url(#paint65_linear_622_543)"/>
<path opacity="0.4" d="M15.7722 37.9438L16.3138 39.2299C16.404 39.4555 16.4943 39.6586 16.5846 39.8843L16.8102 40.5612L17.2615 41.915C17.3969 42.3663 17.5322 42.8402 17.6676 43.2914C17.803 43.7427 17.9384 44.2166 18.0512 44.6679L18.3897 46.0668C18.6379 46.992 18.841 47.9396 19.044 48.8873C19.8563 52.6555 20.4656 56.4914 20.9845 60.3273C21.481 64.1632 21.8871 68.0217 22.1353 71.8801C22.3835 75.7386 22.5189 79.5971 22.4061 83.4104L24.6399 83.4555C25.4297 75.6032 23.8276 54.0319 16.7199 37.5376L15.7722 37.9438Z" fill="url(#paint66_linear_622_543)"/>
<path d="M16.1107 36.4771C15.9753 36.5448 15.8625 36.5899 15.7271 36.6576C15.6143 36.7253 15.5014 36.7704 15.3886 36.8381C15.1855 36.9735 14.9825 37.1089 14.8019 37.2443C14.4409 37.5376 14.1476 37.8535 13.8768 38.192C13.3578 38.8689 13.0194 39.6361 12.8163 40.4484C12.3876 42.0504 12.0942 43.6976 11.9814 45.3448C11.9589 45.7509 11.9363 46.1797 11.9137 46.5858C11.9137 47.0145 11.9363 47.4207 11.9363 47.8494C11.9363 48.2555 11.9814 48.6843 12.0266 49.113C12.0491 49.3161 12.0717 49.5191 12.0942 49.7448L12.1394 50.0607L12.1845 50.3766C12.2748 50.7827 12.3424 51.2114 12.4327 51.6176C12.523 52.0238 12.6584 52.4299 12.7937 52.8135C12.9291 53.2196 13.0645 53.6032 13.245 53.9868C13.4255 54.3704 13.606 54.7314 13.8091 55.0925C13.8317 55.1602 13.9219 55.1602 13.9671 55.1376C13.9896 55.115 14.0122 55.0925 14.0348 55.0699C14.3958 53.4453 14.6891 51.9561 15.1178 50.512C15.524 49.0679 15.9527 47.6689 16.4491 46.2699C16.923 44.8935 17.4194 43.5171 17.9609 42.1632C18.2317 41.4863 18.4122 40.7868 18.4573 40.0422C18.4799 39.8617 18.4799 39.6586 18.4573 39.4556C18.4573 39.2525 18.4348 39.0494 18.4122 38.8463L18.3671 38.5304C18.3445 38.4176 18.3219 38.3048 18.2994 38.192C18.2768 38.0791 18.2317 37.9663 18.2091 37.8535C18.164 37.7407 18.1414 37.6279 18.0737 37.4925L17.9158 37.1991C17.5999 36.4997 16.7876 36.2063 16.1107 36.4771Z" fill="url(#paint67_linear_622_543)"/>
<path d="M16.4267 38.5304C16.6523 39.275 16.9908 39.7714 17.2841 40.3355C17.6226 40.8545 17.9611 41.3509 18.3446 41.8247C18.5252 42.0504 18.7282 42.2986 18.9313 42.5242C19.0441 42.637 19.1344 42.7498 19.2472 42.8627L19.5405 43.2237C19.7436 43.4719 19.9693 43.675 20.1498 43.9232C20.3529 44.1714 20.5559 44.4196 20.759 44.6452C21.5713 45.638 22.3611 46.6534 23.1959 47.6914C24.0308 48.7293 24.8431 49.7898 25.7682 50.8729C25.8134 50.918 25.8811 50.918 25.9262 50.8955C25.9487 50.8729 25.9713 50.8504 25.9713 50.8052C25.9713 50.0832 25.9262 49.3837 25.8134 48.6842C25.7005 47.9847 25.5652 47.2852 25.3846 46.6083C25.0236 45.2545 24.5272 43.9232 23.918 42.637C23.6021 42.0052 23.2636 41.3734 22.88 40.7642L22.5867 40.3129C22.4964 40.155 22.3836 40.0196 22.2708 39.8616C22.0677 39.5683 21.8421 39.275 21.5939 39.0042C21.0975 38.4627 20.5559 37.9663 19.879 37.5827C19.5631 37.3796 19.2247 37.1991 18.8636 37.0637C18.5026 36.9283 18.119 36.8155 17.7129 36.7704C17.0134 36.6801 16.3816 37.1765 16.2913 37.876C16.2688 38.0565 16.2913 38.237 16.3364 38.395L16.4267 38.5304Z" fill="url(#paint68_linear_622_543)"/>
<path d="M33.034 36.6577C32.4248 36.2515 31.7704 35.913 31.116 35.6197C30.4617 35.3264 29.7848 35.0782 29.0853 34.8525C27.7089 34.4238 26.2873 34.1305 24.8207 33.9951C24.0986 33.9274 23.354 33.9048 22.5868 33.9274C21.8422 33.95 21.075 34.0177 20.3078 34.1982C19.5632 34.3787 18.8186 34.6946 18.1191 35.1459C17.4422 35.5972 16.8104 36.1838 16.4268 36.9961C16.2237 37.4474 16.4043 37.9664 16.8555 38.192C16.9684 38.2371 17.0586 38.2597 17.1714 38.2823H17.2843C18.0514 38.3274 18.6832 38.3048 19.2925 38.2823C19.9017 38.2597 20.4884 38.192 21.0976 38.1243C21.6843 38.0566 22.2935 37.9213 22.9253 37.831C23.5571 37.7407 24.1889 37.673 24.8207 37.5828C26.1068 37.4474 27.4381 37.3571 28.7919 37.2443C30.1458 37.1315 31.5448 37.0413 32.9889 36.8607C33.0566 36.8607 33.1017 36.793 33.1017 36.7254C33.0791 36.7028 33.0566 36.6802 33.034 36.6577Z" fill="url(#paint69_linear_622_543)"/>
<path d="M26.3549 29.8207C25.7682 29.7981 25.2267 29.8433 24.6852 29.9335C24.1436 30.0238 23.6021 30.1366 23.0831 30.2945C22.0226 30.6104 21.0072 31.0392 20.0595 31.6033C19.5857 31.874 19.1118 32.2125 18.6606 32.5509C18.2093 32.912 17.758 33.2956 17.397 33.7694C17.0359 34.2433 16.72 34.7848 16.5621 35.4166C16.4041 36.0484 16.3365 36.7253 16.5621 37.4248C16.7426 37.9212 17.2841 38.192 17.7806 38.034C17.8031 38.034 17.8257 38.0115 17.8483 38.0115L18.0062 37.9438C18.5929 37.6956 18.999 37.4474 19.3826 37.2217C19.7436 36.9735 20.0821 36.7253 20.398 36.432C20.7139 36.1386 20.9847 35.8002 21.3006 35.4843C21.6165 35.1458 21.9324 34.8299 22.2708 34.4915L24.3467 32.393C25.0688 31.6709 25.7908 30.9263 26.5129 30.0463C26.558 30.0012 26.558 29.9109 26.4903 29.8658C26.4 29.8207 26.3775 29.8207 26.3549 29.8207Z" fill="url(#paint70_linear_622_543)"/>
<path d="M4.87388 30.0689C6.02465 30.6556 7.1303 31.2197 8.16825 31.8289C9.20619 32.4382 10.1539 33.07 11.0339 33.7469C11.8913 34.4464 12.6585 35.1684 13.2903 35.9582C13.6288 36.3418 13.9447 36.7028 14.3508 37.0187C14.757 37.3571 15.1631 37.6956 15.8175 38.0341L15.9754 38.1243C16.6072 38.4628 17.397 38.192 17.7129 37.5602C17.758 37.4474 17.8031 37.3346 17.8257 37.2218C17.8708 37.0187 17.8934 36.8156 17.8934 36.6351C17.9159 36.432 17.8934 36.2515 17.8708 36.0484C17.8482 35.8679 17.8257 35.6648 17.758 35.4843C17.7129 35.3038 17.6452 35.1233 17.5775 34.9428C17.3067 34.2433 16.878 33.6115 16.359 33.0925C15.2985 32.0546 14.0575 31.2648 12.7939 30.7233C11.5077 30.1592 10.199 29.8207 8.86773 29.6854C8.21337 29.6177 7.53645 29.5725 6.88209 29.5951C6.22773 29.6177 5.57337 29.6854 4.91901 29.8433C4.85132 29.8659 4.8062 29.9336 4.82876 29.9787C4.8062 30.0238 4.82875 30.0464 4.87388 30.0689Z" fill="url(#paint71_linear_622_543)"/>
<path d="M2.91079 42.7048C4.15181 42.3663 5.30258 42.0278 6.43078 41.7345C7.55898 41.4412 8.64206 41.193 9.72513 40.9899C9.9959 40.9448 10.2441 40.8771 10.5149 40.8545C10.7856 40.8094 11.0338 40.7868 11.3046 40.7417C11.5754 40.6965 11.8236 40.6966 12.0944 40.6514L12.478 40.6063C12.6133 40.5837 12.7262 40.5837 12.8615 40.5612C13.1098 40.5386 13.358 40.4709 13.6062 40.4032C13.8544 40.3581 14.1026 40.2678 14.3733 40.1776C14.5087 40.1324 14.6215 40.0648 14.7569 39.9971C14.8923 39.9519 15.0277 39.8842 15.1631 39.8166C15.4339 39.6812 15.7046 39.5007 16.0205 39.2524L16.1559 39.1396C16.7426 38.6432 16.8103 37.7858 16.3364 37.1991C16.2913 37.154 16.2687 37.1089 16.2236 37.0863C15.9303 36.8155 15.6144 36.6125 15.2759 36.4319C15.118 36.3417 14.9374 36.274 14.7795 36.2063C14.6215 36.1612 14.441 36.0935 14.2831 36.0709C13.9446 36.0032 13.6062 35.9355 13.2451 35.913C12.9067 35.913 12.5682 35.9355 12.2298 35.9807C10.8985 36.2063 9.61231 36.6576 8.41642 37.2668C7.24308 37.876 6.16001 38.6207 5.18976 39.4781C4.94155 39.7037 4.71592 39.9294 4.49027 40.155C4.26463 40.4032 4.06155 40.6289 3.85847 40.8771C3.45232 41.3735 3.0913 41.915 2.79797 42.5017C2.7754 42.5694 2.79796 42.6371 2.84309 42.6596C2.84309 42.7048 2.88822 42.7048 2.91079 42.7048Z" fill="url(#paint72_linear_622_543)"/>
<path d="M107.202 82.4174C107.089 78.6267 107.225 74.7456 107.473 70.9097C107.721 67.0513 108.105 63.1928 108.624 59.3569C109.143 55.521 109.752 51.7077 110.564 47.9169C110.767 46.9692 110.97 46.0216 111.219 45.0964L111.58 43.6975C111.692 43.2236 111.85 42.7723 111.963 42.321C112.099 41.8698 112.234 41.3959 112.369 40.9446L112.821 39.5908L113.046 38.9139C113.136 38.6882 113.227 38.4851 113.317 38.2595L113.859 36.9734L111.692 35.9128L111.061 37.3118C110.948 37.5375 110.835 37.7857 110.745 38.0113L110.474 38.7108L109.932 40.1098C109.774 40.5836 109.616 41.0575 109.459 41.5313C109.301 42.0051 109.143 42.479 109.007 42.9528L108.601 44.3744C108.308 45.3221 108.082 46.2923 107.834 47.24C106.864 51.0759 106.119 54.9569 105.465 58.838C104.81 62.719 104.291 66.6226 103.908 70.5713C103.524 74.4974 103.253 78.4461 103.231 82.4625L107.202 82.4174Z" fill="#664B35"/>
<path d="M106.051 57.2584C106.209 57.4615 106.39 57.5292 106.593 57.5969C106.796 57.642 106.999 57.6646 107.202 57.6871C107.608 57.7097 108.037 57.7322 108.443 57.6194C108.037 57.6194 107.631 57.5743 107.247 57.4615C107.044 57.4163 106.864 57.3261 106.683 57.281C106.48 57.2133 106.277 57.1907 106.051 57.2584Z" fill="url(#paint73_linear_622_543)"/>
<path d="M106.751 53.1066C106.909 53.3322 107.134 53.4225 107.36 53.4902C107.586 53.5579 107.834 53.5579 108.06 53.603C108.285 53.6256 108.533 53.6932 108.782 53.6932C109.03 53.6707 109.301 53.6256 109.436 53.3548C109.143 53.2645 108.962 53.3097 108.759 53.3548C108.556 53.3774 108.33 53.4225 108.105 53.3999C107.879 53.3773 107.676 53.2871 107.45 53.2194C107.225 53.1291 107.022 53.084 106.751 53.1066Z" fill="url(#paint74_linear_622_543)"/>
<path d="M107.789 48.3005C107.947 48.4811 108.15 48.5487 108.353 48.5939C108.556 48.639 108.759 48.639 108.962 48.639C109.165 48.6616 109.368 48.6841 109.594 48.6841C109.797 48.6841 110.022 48.6616 110.203 48.5036C109.977 48.4811 109.797 48.5036 109.594 48.4811C109.391 48.4811 109.188 48.4585 109.007 48.4134C108.804 48.3682 108.624 48.3005 108.42 48.2554C108.217 48.2328 108.014 48.2103 107.789 48.3005Z" fill="url(#paint75_linear_622_543)"/>
<path d="M108.782 43.5393C108.917 43.765 109.12 43.8552 109.323 43.9229C109.526 43.9906 109.752 43.9906 109.978 44.0132C110.203 44.0357 110.429 44.0357 110.632 44.0132C110.858 43.968 111.083 43.9004 111.241 43.7424C111.015 43.7424 110.812 43.8101 110.609 43.8101C110.406 43.8327 110.203 43.8327 110 43.7875C109.797 43.7424 109.594 43.6747 109.413 43.607C109.233 43.5619 109.052 43.5168 108.782 43.5393Z" fill="url(#paint76_linear_622_543)"/>
<path opacity="0.4" d="M113.836 36.9958L113.294 38.2819C113.204 38.5075 113.114 38.7106 113.023 38.9363L112.798 39.6132L112.346 40.967C112.211 41.4183 112.076 41.8922 111.94 42.3434C111.805 42.7947 111.669 43.2686 111.557 43.7199L111.218 45.1188C110.97 46.044 110.767 46.9916 110.564 47.9393C109.751 51.7075 109.142 55.5434 108.623 59.3793C108.127 63.2152 107.721 67.0737 107.472 70.9321C107.224 74.7906 107.089 78.6491 107.202 82.4624L104.968 82.5075C104.178 74.6552 105.78 53.0839 112.888 36.5896L113.836 36.9958Z" fill="url(#paint77_linear_622_543)"/>
<path d="M111.512 36.5221C111.444 36.6349 111.422 36.7477 111.377 36.8831C111.331 36.9959 111.309 37.1087 111.286 37.2216C111.264 37.3344 111.241 37.4472 111.219 37.56L111.174 37.8759C111.151 38.079 111.128 38.2821 111.128 38.4852C111.128 38.6882 111.128 38.8913 111.128 39.0718C111.174 39.839 111.354 40.5385 111.625 41.1928C112.166 42.5467 112.663 43.9005 113.137 45.2995C113.633 46.6759 114.039 48.0749 114.445 49.5416C114.874 50.9857 115.167 52.4749 115.528 54.0995C115.551 54.1672 115.596 54.2123 115.664 54.1898C115.686 54.1898 115.731 54.1672 115.731 54.1221C115.935 53.761 116.115 53.4 116.296 53.0164C116.476 52.6328 116.634 52.2492 116.747 51.8431C116.882 51.4369 117.018 51.0534 117.108 50.6472C117.198 50.241 117.288 49.8349 117.356 49.4062L117.401 49.0903L117.446 48.7744C117.469 48.5713 117.491 48.3682 117.514 48.1426C117.559 47.7364 117.604 47.3077 117.604 46.879C117.604 46.4728 117.627 46.0441 117.627 45.6154C117.604 45.2093 117.582 44.7805 117.559 44.3744C117.446 42.7046 117.153 41.0575 116.724 39.478C116.521 38.6657 116.183 37.9211 115.664 37.2216C115.416 36.8831 115.1 36.5672 114.739 36.2739C114.558 36.1385 114.355 35.9805 114.152 35.8677C114.039 35.8 113.926 35.7323 113.814 35.6872C113.678 35.6421 113.565 35.5744 113.43 35.5067C112.73 35.2359 111.918 35.5518 111.58 36.2062L111.512 36.5221Z" fill="url(#paint78_linear_622_543)"/>
<path d="M111.828 35.7999C111.421 35.845 111.038 35.9578 110.677 36.0932C110.293 36.2286 109.977 36.4091 109.661 36.6122C109.007 36.9958 108.466 37.4922 107.947 38.0337C107.698 38.3045 107.495 38.5978 107.27 38.8911C107.157 39.0491 107.067 39.1845 106.954 39.3424L106.66 39.7937C106.277 40.4029 105.938 41.0347 105.623 41.6665C105.013 42.9527 104.517 44.284 104.156 45.6378C103.975 46.3147 103.84 47.0142 103.727 47.7137C103.614 48.4132 103.569 49.1127 103.569 49.8347C103.569 49.9024 103.614 49.9475 103.682 49.9475C103.727 49.9475 103.75 49.925 103.772 49.9024C104.697 48.8193 105.532 47.7588 106.345 46.7209C107.179 45.6829 107.969 44.6675 108.781 43.6747C108.985 43.4265 109.188 43.2009 109.391 42.9527C109.594 42.7045 109.819 42.4788 110 42.2532L110.293 41.8922C110.384 41.7793 110.496 41.6665 110.609 41.5537C110.812 41.3281 111.015 41.1024 111.196 40.8542C111.602 40.4029 111.918 39.884 112.256 39.365C112.55 38.8009 112.888 38.3045 113.114 37.5599L113.159 37.4019C113.362 36.725 112.978 36.0255 112.301 35.8224C112.189 35.7773 112.008 35.7773 111.828 35.7999Z" fill="url(#paint79_linear_622_543)"/>
<path d="M96.6421 35.9353C98.0862 36.1159 99.4626 36.2061 100.839 36.3189C102.193 36.4318 103.524 36.522 104.81 36.6574C105.465 36.7251 106.096 36.8153 106.706 36.9056C107.337 36.9959 107.924 37.1312 108.533 37.1989C109.143 37.2666 109.729 37.3343 110.338 37.3569C110.948 37.3794 111.58 37.402 112.347 37.3569H112.437C112.933 37.3343 113.294 36.9056 113.272 36.4092C113.272 36.2964 113.227 36.1835 113.182 36.0933C112.798 35.281 112.166 34.7169 111.489 34.243C110.812 33.7918 110.068 33.4759 109.301 33.2953C108.556 33.0923 107.789 33.0471 107.022 33.0246C106.277 33.002 105.532 33.0246 104.788 33.0923C103.321 33.2277 101.9 33.521 100.523 33.9497C99.8236 34.1528 99.1467 34.4235 98.4923 34.7169C97.838 35.0102 97.1836 35.3487 96.5744 35.7548C96.5293 35.8 96.5067 35.8677 96.5293 35.9128C96.5744 35.8902 96.597 35.9128 96.6421 35.9353Z" fill="url(#paint80_linear_622_543)"/>
<path d="M103.163 29.0758C103.885 29.9558 104.607 30.7004 105.329 31.4224L107.405 33.5209C107.744 33.8594 108.06 34.1978 108.375 34.5137C108.691 34.8296 108.962 35.1906 109.278 35.4614C109.594 35.7547 109.91 36.0029 110.293 36.2511C110.677 36.4994 111.083 36.725 111.67 36.9732L111.805 37.0409C112.302 37.2665 112.866 37.0409 113.069 36.5445C113.069 36.5219 113.091 36.4994 113.091 36.4768C113.34 35.7773 113.249 35.0778 113.091 34.4686C112.911 33.8368 112.617 33.2953 112.256 32.8214C111.895 32.3476 111.444 31.964 110.993 31.6029C110.542 31.2419 110.068 30.926 109.594 30.6553C108.624 30.0912 107.608 29.6624 106.57 29.3465C106.051 29.1886 105.51 29.0758 104.968 28.9855C104.427 28.8953 103.863 28.8501 103.299 28.8727C103.231 28.8727 103.186 28.9404 103.186 29.0081C103.141 29.0306 103.141 29.0532 103.163 29.0758Z" fill="url(#paint81_linear_622_543)"/>
<path d="M124.712 28.8954C124.057 28.7374 123.403 28.6697 122.749 28.6472C122.094 28.6246 121.417 28.6472 120.763 28.7374C119.432 28.8954 118.123 29.2338 116.837 29.7754C115.551 30.3395 114.332 31.1292 113.272 32.1446C112.753 32.6636 112.324 33.2954 112.053 33.9949C111.985 34.1754 111.94 34.3559 111.873 34.5364C111.827 34.7169 111.805 34.92 111.76 35.1005C111.737 35.281 111.715 35.4841 111.737 35.6872C111.737 35.8902 111.76 36.0933 111.805 36.2738C111.94 36.9733 112.64 37.4246 113.339 37.2892C113.452 37.2667 113.565 37.2215 113.655 37.1764L113.813 37.0861C114.467 36.7477 114.874 36.4092 115.28 36.0708C115.686 35.7323 116.002 35.3713 116.34 35.0102C116.95 34.2205 117.717 33.4985 118.597 32.799C119.454 32.122 120.424 31.4677 121.462 30.881C122.5 30.2718 123.583 29.7077 124.757 29.121C124.824 29.0985 124.847 29.0308 124.802 28.9631C124.779 28.9179 124.734 28.8954 124.712 28.8954Z" fill="url(#paint82_linear_622_543)"/>
<path d="M126.833 41.5764C126.539 40.9897 126.178 40.4482 125.772 39.9518C125.569 39.7036 125.343 39.4554 125.14 39.2297C124.915 39.0041 124.689 38.7784 124.441 38.5528C123.493 37.6728 122.388 36.9282 121.214 36.3415C120.041 35.7323 118.755 35.281 117.401 35.0554C117.062 35.0102 116.724 34.9877 116.386 34.9877C116.047 35.0102 115.686 35.0554 115.348 35.1456C115.167 35.1908 115.009 35.2359 114.851 35.281C114.693 35.3487 114.513 35.4164 114.355 35.5066C114.039 35.6872 113.7 35.8677 113.407 36.161C112.866 36.68 112.843 37.56 113.362 38.1015C113.407 38.1466 113.43 38.1692 113.475 38.2143L113.61 38.3272C113.903 38.5754 114.197 38.7559 114.468 38.8913C114.603 38.959 114.738 39.0266 114.874 39.0718C115.009 39.1395 115.144 39.2072 115.257 39.2523C115.506 39.3651 115.754 39.4328 116.024 39.4779C116.273 39.5456 116.521 39.6133 116.769 39.6359C116.904 39.6584 117.017 39.6584 117.153 39.681L117.536 39.7261C117.784 39.7713 118.055 39.7713 118.326 39.8164C118.597 39.8615 118.845 39.9066 119.116 39.9292C119.387 39.9518 119.635 40.0195 119.906 40.0646C120.966 40.2677 122.072 40.5159 123.2 40.8092C124.328 41.1025 125.479 41.441 126.72 41.7795C126.788 41.802 126.855 41.7569 126.878 41.6892C126.855 41.6441 126.855 41.6215 126.833 41.5764Z" fill="url(#paint83_linear_622_543)"/>
<path d="M34.8388 83.2524C34.6357 78.5365 34.7486 73.7755 34.9968 69.0145C35.245 64.2534 35.6737 59.4698 36.2378 54.7314C36.8019 49.9929 37.5014 45.2545 38.4491 40.5837C38.9229 38.2596 39.4419 35.9355 40.0737 33.6565C40.7055 31.3776 41.4275 29.1211 42.3527 27.0227L40.1639 25.9847C39.1034 28.2637 38.2686 30.5653 37.5465 32.9119C36.8245 35.2586 36.2152 37.6052 35.6737 39.9745C34.5906 44.7129 33.7332 49.4965 33.0337 54.3027C32.3342 59.1088 31.7701 63.915 31.3865 68.7663C31.0029 73.6175 30.7547 78.4688 30.8224 83.3878L34.8388 83.2524Z" fill="#664B35"/>
<path opacity="0.4" d="M32.3793 83.32L34.8163 83.2523C34.6132 78.5364 34.726 73.7754 34.9742 68.9918C35.2224 64.2308 35.6511 59.4698 36.2152 54.7088C36.7793 49.9703 37.4788 45.2319 38.4265 40.5611C38.9004 38.237 39.4193 35.9129 40.0511 33.6114C40.6829 31.3324 41.405 29.076 42.3527 26.9775L41.3598 26.5037C40.7506 27.9252 40.2316 29.3919 39.7352 30.8811C38.9229 33.3406 38.2234 35.8452 37.6142 38.3724C36.3732 43.4267 35.4255 48.5262 34.6357 53.6708C33.8686 58.8154 33.2593 63.9601 32.8532 69.1272C32.4922 73.8657 32.2891 78.6267 32.3793 83.32Z" fill="url(#paint84_linear_622_543)"/>
<path d="M33.3946 52.2267C33.5976 52.4298 33.8233 52.52 34.0715 52.5877C34.3197 52.6554 34.5679 52.6554 34.8387 52.678C35.3351 52.7231 35.8541 52.7231 36.3505 52.5877C36.1023 52.6103 35.854 52.5877 35.6058 52.5652C35.3576 52.5426 35.1094 52.4975 34.8838 52.4298C34.6356 52.3847 34.4099 52.2944 34.1617 52.2493C33.9135 52.2267 33.6653 52.1816 33.3946 52.2267Z" fill="url(#paint85_linear_622_543)"/>
<path d="M34.162 47.1499C34.3426 47.3756 34.5908 47.4884 34.839 47.5561C35.0872 47.6238 35.3579 47.6238 35.6287 47.6689C35.8995 47.6915 36.1477 47.7591 36.4184 47.7366C36.6892 47.714 36.9826 47.6463 37.1405 47.353C36.8246 47.2627 36.6215 47.353 36.3733 47.3756C36.1477 47.4207 35.8769 47.4658 35.6287 47.4207C35.3805 47.3981 35.1323 47.3079 34.9067 47.2402C34.7036 47.1725 34.4554 47.1273 34.162 47.1499Z" fill="url(#paint86_linear_622_543)"/>
<path d="M35.4703 41.1704C35.6734 41.3509 35.899 41.4186 36.1247 41.4637C36.3503 41.5088 36.5985 41.5088 36.8242 41.5314C37.0498 41.554 37.298 41.5765 37.5236 41.5765C37.7493 41.554 38.02 41.554 38.2006 41.3734C37.9524 41.3734 37.7493 41.3734 37.5236 41.3734C37.298 41.3734 37.0724 41.3509 36.8467 41.3058C36.6211 41.2606 36.3954 41.1929 36.1698 41.1478C35.9442 41.1252 35.7185 41.1027 35.4703 41.1704Z" fill="url(#paint87_linear_622_543)"/>
<path d="M36.9596 35.3262C37.095 35.5519 37.3206 35.6421 37.5463 35.7098C37.7719 35.7775 37.9975 35.7775 38.2457 35.8001C38.4714 35.8226 38.7196 35.8226 38.9452 35.7775C39.1709 35.7324 39.3965 35.6647 39.577 35.4842C39.3288 35.5067 39.1483 35.5519 38.9227 35.5744C38.7196 35.597 38.494 35.597 38.2683 35.5519C38.0427 35.5293 37.8396 35.439 37.6365 35.3713C37.4334 35.3488 37.2078 35.2811 36.9596 35.3262Z" fill="url(#paint88_linear_622_543)"/>
<path d="M40.2316 26.8196C40.209 26.8422 40.209 26.8648 40.209 26.9099C40.209 26.9325 40.209 26.9776 40.209 27.0002V27.1807C40.209 27.2935 40.2316 27.4063 40.2316 27.5191C40.2541 27.7448 40.2767 27.9478 40.3218 28.1509C40.3895 28.5571 40.4798 28.9181 40.5926 29.2566C40.8182 29.956 41.1341 30.5427 41.5177 31.1294C42.2623 32.3027 42.8716 33.5889 43.4131 34.9427C43.6613 35.6196 43.9321 36.3191 44.1352 37.0412C44.3382 37.7632 44.5639 38.5078 44.7218 39.275C44.767 39.4555 44.8121 39.6586 44.8572 39.8617C44.9023 40.0648 44.9249 40.2453 44.97 40.4484C45.0152 40.6514 45.0603 40.8545 45.0829 41.035C45.1054 41.2381 45.1505 41.4412 45.1957 41.6442C45.2634 42.0504 45.3311 42.4566 45.4213 42.8627C45.489 43.2689 45.5567 43.6976 45.647 44.1263C45.6695 44.194 45.7146 44.2391 45.7823 44.2166C45.8275 44.2166 45.85 44.194 45.85 44.1489C46.0757 43.7653 46.2787 43.3817 46.4593 42.9981C46.5495 42.795 46.6398 42.5919 46.7075 42.3889C46.7977 42.1858 46.888 41.9827 46.9557 41.7796C47.249 40.9673 47.4972 40.1099 47.6552 39.2299C47.9936 37.4925 48.0613 35.6648 47.8357 33.8371C47.61 32.0094 47.0911 30.2043 46.2562 28.4894C45.85 27.6319 45.2859 26.8422 44.5187 26.233C44.1352 25.9171 43.729 25.6463 43.2326 25.4432C43.1198 25.3981 42.9844 25.353 42.8716 25.3078C42.7362 25.2627 42.6234 25.2176 42.488 25.195C42.3526 25.1499 42.2172 25.1273 42.0818 25.1048L41.608 25.0596C41.1341 24.6761 40.4121 24.7437 40.0285 25.2176C39.6675 25.714 39.7577 26.4361 40.2316 26.8196Z" fill="url(#paint89_linear_622_543)"/>
<path d="M40.9535 26.2105C40.1187 25.9172 39.2387 25.9397 38.4038 26.0526C37.5689 26.2105 36.7792 26.5038 36.0797 26.91C35.3576 27.3161 34.7484 27.8351 34.1617 28.3541C33.8684 28.6249 33.5976 28.8956 33.3269 29.189C33.0561 29.4597 32.8079 29.7756 32.5597 30.069C31.5894 31.2649 30.7997 32.5736 30.1679 33.9274C29.852 34.6043 29.5812 35.3038 29.3556 36.0259C29.1299 36.7479 28.9494 37.47 28.8817 38.2146C28.8817 38.2823 28.9269 38.35 28.9946 38.35C29.0397 38.35 29.0623 38.35 29.0848 38.3274C30.1453 37.312 31.1607 36.3192 32.1761 35.3715C33.1915 34.4238 34.2069 33.5438 35.2223 32.7541C35.7412 32.3705 36.2376 31.9869 36.7566 31.6485C37.2756 31.31 37.8171 31.0167 38.3135 30.7008C38.8099 30.3849 39.3063 30.069 39.7802 29.7079C40.2766 29.3469 40.773 28.9859 41.3146 28.4669L41.4274 28.3541C41.9238 27.8802 41.9464 27.0679 41.4499 26.5715C41.3146 26.3685 41.134 26.2556 40.9535 26.2105Z" fill="url(#paint90_linear_622_543)"/>
<path d="M21.3679 26.0975C23.1279 26.1878 24.8202 26.1878 26.5125 26.2329C28.1822 26.2781 29.8519 26.3232 31.454 26.436L32.6499 26.5263C33.0561 26.5714 33.4396 26.6165 33.8458 26.6616C34.6355 26.7519 35.4027 26.8873 36.1473 26.9775C36.9145 27.0678 37.6591 27.1581 38.4263 27.2257C39.1935 27.2934 39.9607 27.3611 40.8632 27.3837H40.9309C41.4048 27.4063 41.7883 27.0227 41.8109 26.5488C41.8109 26.3909 41.7658 26.2329 41.6981 26.0975C41.1566 25.2175 40.3668 24.5857 39.5545 24.0668C39.1258 23.8186 38.6971 23.6155 38.2458 23.435C37.7945 23.277 37.3432 23.1191 36.8919 23.0288C36.4407 22.916 35.9668 22.8483 35.5155 22.8032C35.0643 22.7581 34.5904 22.7355 34.1391 22.7355C33.6878 22.7129 33.2366 22.7355 32.7853 22.7355L32.1084 22.7581C31.8827 22.7806 31.6571 22.8032 31.4314 22.8032C29.6489 22.9611 27.9114 23.2996 26.2191 23.796C25.3843 24.0442 24.5494 24.3375 23.7371 24.676C22.9248 25.0145 22.1125 25.3755 21.3453 25.8493C21.3002 25.8719 21.2776 25.9622 21.3002 26.0073C21.2776 26.075 21.3227 26.0975 21.3679 26.0975Z" fill="url(#paint91_linear_622_543)"/>
<path d="M35.651 15.6503C36.012 16.7559 36.3956 17.7488 36.7792 18.719C37.1628 19.6893 37.5238 20.6144 37.8397 21.5395C37.9977 21.9908 38.1556 22.4421 38.291 22.8708C38.4264 23.2995 38.5166 23.7282 38.6746 24.1344C38.81 24.5405 38.9905 24.9241 39.1936 25.3303C39.4192 25.7364 39.6448 26.1426 40.0284 26.6841L40.1187 26.797C40.4346 27.2257 41.0213 27.3159 41.45 27.0226C41.4725 27 41.5177 26.9775 41.5402 26.9549C42.1043 26.4359 42.3751 25.7816 42.5331 25.1272C42.691 24.4729 42.6684 23.7959 42.5556 23.1867C42.4428 22.5549 42.1946 21.9908 41.9464 21.4267C41.6756 20.8852 41.3823 20.3662 41.0664 19.8698C40.412 18.8995 39.6223 18.0421 38.7648 17.2975C38.3361 16.9139 37.8623 16.5754 37.3884 16.2821C36.9146 15.9662 36.3956 15.6954 35.8315 15.4923C35.7638 15.4698 35.6961 15.4923 35.6736 15.56C35.6284 15.6052 35.6284 15.6277 35.651 15.6503Z" fill="url(#paint92_linear_622_543)"/>
<path d="M57.4706 19.9601C56.7034 19.7119 55.9362 19.5314 55.1465 19.4185C54.3567 19.2832 53.567 19.2155 52.7547 19.1929C51.1526 19.1478 49.5055 19.2832 47.8809 19.6667C46.2562 20.0503 44.6316 20.7047 43.1198 21.675C42.3752 22.1939 41.7209 22.8483 41.2245 23.6155C40.7506 24.4052 40.3896 25.2852 40.3896 26.2555C40.3896 26.9324 40.9311 27.4965 41.608 27.4965C41.8111 27.4965 41.9916 27.4514 42.1721 27.3611L42.3301 27.2934C43.0747 26.9324 43.5937 26.5488 44.1352 26.1878C44.6768 25.8267 45.1506 25.4657 45.647 25.0821C46.6173 24.2698 47.7906 23.5929 49.0542 22.9837C50.3178 22.3744 51.6942 21.878 53.1157 21.4267C54.5373 20.9755 56.0039 20.5693 57.5383 20.1857C57.606 20.1632 57.6285 20.0955 57.6285 20.0503C57.5383 20.0052 57.5157 19.9826 57.4706 19.9601Z" fill="url(#paint93_linear_622_543)"/>
<path d="M56.9513 31.8289C56.7031 31.1294 56.3421 30.4976 55.9359 29.9109C55.5072 29.3242 55.0108 28.7601 54.4692 28.2637C53.3862 27.2709 52.1 26.436 50.701 25.8719C50.0016 25.5786 49.2795 25.3304 48.5349 25.1724C47.7903 24.9919 47.0457 24.8565 46.2785 24.834C46.098 24.834 45.8949 24.834 45.7144 24.834C45.5339 24.834 45.3308 24.8565 45.1503 24.8791C44.7667 24.9242 44.4057 25.0145 44.0446 25.1273C43.3226 25.3755 42.6231 25.7365 42.0139 26.3458C41.4949 26.8648 41.4949 27.7222 42.0364 28.2412C42.1041 28.3089 42.1944 28.3765 42.2846 28.4217L42.3975 28.4894C42.7585 28.715 43.0969 28.8278 43.4128 28.9406C43.7287 29.0535 44.0446 29.1437 44.3605 29.2114C44.6539 29.2791 44.9698 29.3242 45.2631 29.3694C45.3985 29.3919 45.5564 29.3919 45.6918 29.4145C45.8272 29.4371 45.9851 29.4371 46.1205 29.4371C47.2713 29.4371 48.4221 29.4822 49.5954 29.6401C50.7687 29.7981 51.9421 30.0689 53.138 30.4524C54.3339 30.836 55.5523 31.3324 56.7933 31.9642C56.861 31.9868 56.9287 31.9642 56.9513 31.9191C56.9513 31.8965 56.9513 31.874 56.9513 31.8289Z" fill="url(#paint94_linear_622_543)"/>
</g>
<defs>
<linearGradient id="paint0_linear_622_543" x1="66.8075" y1="6.75481" x2="66.8075" y2="94.8135" gradientUnits="userSpaceOnUse">
<stop stop-color="#EDEDED"/>
<stop offset="0.5141" stop-color="#E9E9E9"/>
<stop offset="0.9955" stop-color="#DEDEDE"/>
</linearGradient>
<linearGradient id="paint1_linear_622_543" x1="66.8075" y1="6.75481" x2="66.8075" y2="94.8135" gradientUnits="userSpaceOnUse">
<stop stop-color="#EDEDED"/>
<stop offset="0.5141" stop-color="#E9E9E9"/>
<stop offset="0.9955" stop-color="#DEDEDE"/>
</linearGradient>
<linearGradient id="paint2_linear_622_543" x1="66.8076" y1="76.3765" x2="54.5277" y2="-54" gradientUnits="userSpaceOnUse">
<stop stop-color="#34C2AF"/>
<stop offset="1" stop-color="#1CA698"/>
</linearGradient>
<linearGradient id="paint3_linear_622_543" x1="64.6341" y1="73.7882" x2="63.4977" y2="94.8118" gradientUnits="userSpaceOnUse">
<stop stop-color="#EFBA7F"/>
<stop offset="1" stop-color="#DEA464"/>
</linearGradient>
<linearGradient id="paint4_linear_622_543" x1="104.238" y1="98.9189" x2="29.3757" y2="98.9189" gradientUnits="userSpaceOnUse">
<stop stop-color="#EFBA7F"/>
<stop offset="1" stop-color="#DEA464"/>
</linearGradient>
<linearGradient id="paint5_linear_622_543" x1="26.0187" y1="76.8874" x2="22.483" y2="76.8874" gradientUnits="userSpaceOnUse">
<stop stop-color="#4F3C2B"/>
<stop offset="1" stop-color="#3B2D20"/>
</linearGradient>
<linearGradient id="paint6_linear_622_543" x1="25.6092" y1="72.5727" x2="22.2143" y2="72.5727" gradientUnits="userSpaceOnUse">
<stop stop-color="#4F3C2B"/>
<stop offset="1" stop-color="#3B2D20"/>
</linearGradient>
<linearGradient id="paint7_linear_622_543" x1="25.2085" y1="67.8732" x2="21.9355" y2="67.8732" gradientUnits="userSpaceOnUse">
<stop stop-color="#4F3C2B"/>
<stop offset="1" stop-color="#3B2D20"/>
</linearGradient>
<linearGradient id="paint8_linear_622_543" x1="24.5023" y1="62.9276" x2="21.5609" y2="62.9276" gradientUnits="userSpaceOnUse">
<stop stop-color="#4F3C2B"/>
<stop offset="1" stop-color="#3B2D20"/>
</linearGradient>
<linearGradient id="paint9_linear_622_543" x1="23.6379" y1="58.3948" x2="21.1723" y2="58.3948" gradientUnits="userSpaceOnUse">
<stop stop-color="#4F3C2B"/>
<stop offset="1" stop-color="#3B2D20"/>
</linearGradient>
<linearGradient id="paint10_linear_622_543" x1="22.9601" y1="54.3471" x2="20.1172" y2="54.3471" gradientUnits="userSpaceOnUse">
<stop stop-color="#4F3C2B"/>
<stop offset="1" stop-color="#3B2D20"/>
</linearGradient>
<linearGradient id="paint11_linear_622_543" x1="21.8878" y1="49.4039" x2="19.3826" y2="49.4039" gradientUnits="userSpaceOnUse">
<stop stop-color="#4F3C2B"/>
<stop offset="1" stop-color="#3B2D20"/>
</linearGradient>
<linearGradient id="paint12_linear_622_543" x1="20.916" y1="44.7371" x2="18.3059" y2="44.7371" gradientUnits="userSpaceOnUse">
<stop stop-color="#4F3C2B"/>
<stop offset="1" stop-color="#3B2D20"/>
</linearGradient>
<linearGradient id="paint13_linear_622_543" x1="24.8499" y1="60.4361" x2="15.8" y2="60.4361" gradientUnits="userSpaceOnUse">
<stop stop-color="#4F3C2B"/>
<stop offset="1" stop-color="#3B2D20"/>
</linearGradient>
<linearGradient id="paint14_linear_622_543" x1="19.8588" y1="45.7518" x2="10.9496" y2="45.7518" gradientUnits="userSpaceOnUse">
<stop stop-color="#D9F2A5"/>
<stop offset="1" stop-color="#9CC079"/>
</linearGradient>
<linearGradient id="paint15_linear_622_543" x1="28.1061" y1="43.8183" x2="14.972" y2="43.8183" gradientUnits="userSpaceOnUse">
<stop stop-color="#D9F2A5"/>
<stop offset="1" stop-color="#9CC079"/>
</linearGradient>
<linearGradient id="paint16_linear_622_543" x1="35.0263" y1="36.9756" x2="14.9769" y2="35.7632" gradientUnits="userSpaceOnUse">
<stop stop-color="#D9F2A5"/>
<stop offset="1" stop-color="#9CC079"/>
</linearGradient>
<linearGradient id="paint17_linear_622_543" x1="28.0848" y1="28.7928" x2="14.8429" y2="37.6495" gradientUnits="userSpaceOnUse">
<stop stop-color="#D9F2A5"/>
<stop offset="1" stop-color="#9CC079"/>
</linearGradient>
<linearGradient id="paint18_linear_622_543" x1="18.172" y1="32.8598" x2="3.64016" y2="35.2032" gradientUnits="userSpaceOnUse">
<stop stop-color="#D9F2A5"/>
<stop offset="1" stop-color="#9CC079"/>
</linearGradient>
<linearGradient id="paint19_linear_622_543" x1="18.4212" y1="39.3137" x2="0.574279" y2="39.3137" gradientUnits="userSpaceOnUse">
<stop stop-color="#D9F2A5"/>
<stop offset="1" stop-color="#9CC079"/>
</linearGradient>
<linearGradient id="paint20_linear_622_543" x1="103.644" y1="75.9383" x2="107.18" y2="75.9383" gradientUnits="userSpaceOnUse">
<stop stop-color="#4F3C2B"/>
<stop offset="1" stop-color="#3B2D20"/>
</linearGradient>
<linearGradient id="paint21_linear_622_543" x1="104.053" y1="71.6237" x2="107.448" y2="71.6237" gradientUnits="userSpaceOnUse">
<stop stop-color="#4F3C2B"/>
<stop offset="1" stop-color="#3B2D20"/>
</linearGradient>
<linearGradient id="paint22_linear_622_543" x1="104.454" y1="66.924" x2="107.727" y2="66.924" gradientUnits="userSpaceOnUse">
<stop stop-color="#4F3C2B"/>
<stop offset="1" stop-color="#3B2D20"/>
</linearGradient>
<linearGradient id="paint23_linear_622_543" x1="105.16" y1="61.9785" x2="108.101" y2="61.9785" gradientUnits="userSpaceOnUse">
<stop stop-color="#4F3C2B"/>
<stop offset="1" stop-color="#3B2D20"/>
</linearGradient>
<linearGradient id="paint24_linear_622_543" x1="106.025" y1="57.4458" x2="108.49" y2="57.4458" gradientUnits="userSpaceOnUse">
<stop stop-color="#4F3C2B"/>
<stop offset="1" stop-color="#3B2D20"/>
</linearGradient>
<linearGradient id="paint25_linear_622_543" x1="106.702" y1="53.3979" x2="109.545" y2="53.3979" gradientUnits="userSpaceOnUse">
<stop stop-color="#4F3C2B"/>
<stop offset="1" stop-color="#3B2D20"/>
</linearGradient>
<linearGradient id="paint26_linear_622_543" x1="107.775" y1="48.4549" x2="110.28" y2="48.4549" gradientUnits="userSpaceOnUse">
<stop stop-color="#4F3C2B"/>
<stop offset="1" stop-color="#3B2D20"/>
</linearGradient>
<linearGradient id="paint27_linear_622_543" x1="108.746" y1="43.7879" x2="111.356" y2="43.7879" gradientUnits="userSpaceOnUse">
<stop stop-color="#4F3C2B"/>
<stop offset="1" stop-color="#3B2D20"/>
</linearGradient>
<linearGradient id="paint28_linear_622_543" x1="104.812" y1="59.4869" x2="113.862" y2="59.4869" gradientUnits="userSpaceOnUse">
<stop stop-color="#4F3C2B"/>
<stop offset="1" stop-color="#3B2D20"/>
</linearGradient>
<linearGradient id="paint29_linear_622_543" x1="109.803" y1="44.8016" x2="118.713" y2="44.8016" gradientUnits="userSpaceOnUse">
<stop stop-color="#D9F2A5"/>
<stop offset="1" stop-color="#9CC079"/>
</linearGradient>
<linearGradient id="paint30_linear_622_543" x1="101.556" y1="42.8696" x2="114.69" y2="42.8696" gradientUnits="userSpaceOnUse">
<stop stop-color="#D9F2A5"/>
<stop offset="1" stop-color="#9CC079"/>
</linearGradient>
<linearGradient id="paint31_linear_622_543" x1="94.6359" y1="36.0264" x2="114.685" y2="34.814" gradientUnits="userSpaceOnUse">
<stop stop-color="#D9F2A5"/>
<stop offset="1" stop-color="#9CC079"/>
</linearGradient>
<linearGradient id="paint32_linear_622_543" x1="101.578" y1="27.8437" x2="114.82" y2="36.7003" gradientUnits="userSpaceOnUse">
<stop stop-color="#D9F2A5"/>
<stop offset="1" stop-color="#9CC079"/>
</linearGradient>
<linearGradient id="paint33_linear_622_543" x1="111.49" y1="31.9109" x2="126.022" y2="34.2542" gradientUnits="userSpaceOnUse">
<stop stop-color="#D9F2A5"/>
<stop offset="1" stop-color="#9CC079"/>
</linearGradient>
<linearGradient id="paint34_linear_622_543" x1="111.241" y1="38.3646" x2="129.088" y2="38.3646" gradientUnits="userSpaceOnUse">
<stop stop-color="#D9F2A5"/>
<stop offset="1" stop-color="#9CC079"/>
</linearGradient>
<linearGradient id="paint35_linear_622_543" x1="42.3809" y1="54.9199" x2="32.3823" y2="54.9199" gradientUnits="userSpaceOnUse">
<stop stop-color="#4F3C2B"/>
<stop offset="1" stop-color="#3B2D20"/>
</linearGradient>
<linearGradient id="paint36_linear_622_543" x1="30.9381" y1="75.3194" x2="34.9568" y2="75.2571" gradientUnits="userSpaceOnUse">
<stop stop-color="#4F3C2B"/>
<stop offset="1" stop-color="#3B2D20"/>
</linearGradient>
<linearGradient id="paint37_linear_622_543" x1="31.3732" y1="69.9861" x2="35.069" y2="69.9288" gradientUnits="userSpaceOnUse">
<stop stop-color="#4F3C2B"/>
<stop offset="1" stop-color="#3B2D20"/>
</linearGradient>
<linearGradient id="paint38_linear_622_543" x1="31.9113" y1="64.1865" x2="35.3114" y2="64.1337" gradientUnits="userSpaceOnUse">
<stop stop-color="#4F3C2B"/>
<stop offset="1" stop-color="#3B2D20"/>
</linearGradient>
<linearGradient id="paint39_linear_622_543" x1="32.6071" y1="58.0759" x2="35.9837" y2="58.0235" gradientUnits="userSpaceOnUse">
<stop stop-color="#4F3C2B"/>
<stop offset="1" stop-color="#3B2D20"/>
</linearGradient>
<linearGradient id="paint40_linear_622_543" x1="33.3647" y1="52.4859" x2="36.3867" y2="52.439" gradientUnits="userSpaceOnUse">
<stop stop-color="#4F3C2B"/>
<stop offset="1" stop-color="#3B2D20"/>
</linearGradient>
<linearGradient id="paint41_linear_622_543" x1="34.1277" y1="47.4637" x2="37.2645" y2="47.415" gradientUnits="userSpaceOnUse">
<stop stop-color="#4F3C2B"/>
<stop offset="1" stop-color="#3B2D20"/>
</linearGradient>
<linearGradient id="paint42_linear_622_543" x1="35.4679" y1="41.3634" x2="38.2917" y2="41.3196" gradientUnits="userSpaceOnUse">
<stop stop-color="#4F3C2B"/>
<stop offset="1" stop-color="#3B2D20"/>
</linearGradient>
<linearGradient id="paint43_linear_622_543" x1="36.9195" y1="35.5767" x2="39.6486" y2="35.5344" gradientUnits="userSpaceOnUse">
<stop stop-color="#4F3C2B"/>
<stop offset="1" stop-color="#3B2D20"/>
</linearGradient>
<linearGradient id="paint44_linear_622_543" x1="38.37" y1="34.6028" x2="48.9114" y2="34.4394" gradientUnits="userSpaceOnUse">
<stop stop-color="#D9F2A5"/>
<stop offset="1" stop-color="#9CC079"/>
</linearGradient>
<linearGradient id="paint45_linear_622_543" x1="27.9542" y1="31.1132" x2="42.3756" y2="33.4143" gradientUnits="userSpaceOnUse">
<stop stop-color="#D9F2A5"/>
<stop offset="1" stop-color="#9CC079"/>
</linearGradient>
<linearGradient id="paint46_linear_622_543" x1="19.3808" y1="26.4083" x2="43.1418" y2="24.6014" gradientUnits="userSpaceOnUse">
<stop stop-color="#D9F2A5"/>
<stop offset="1" stop-color="#9CC079"/>
</linearGradient>
<linearGradient id="paint47_linear_622_543" x1="34.6681" y1="13.8933" x2="43.2669" y2="27.65" gradientUnits="userSpaceOnUse">
<stop stop-color="#D9F2A5"/>
<stop offset="1" stop-color="#9CC079"/>
</linearGradient>
<linearGradient id="paint48_linear_622_543" x1="39.9024" y1="22.2234" x2="58.9009" y2="24.9856" gradientUnits="userSpaceOnUse">
<stop stop-color="#D9F2A5"/>
<stop offset="1" stop-color="#9CC079"/>
</linearGradient>
<linearGradient id="paint49_linear_622_543" x1="39.9498" y1="28.5791" x2="59.1307" y2="28.2816" gradientUnits="userSpaceOnUse">
<stop stop-color="#D9F2A5"/>
<stop offset="1" stop-color="#9CC079"/>
</linearGradient>
<linearGradient id="paint50_linear_622_543" x1="81.9232" y1="97.5902" x2="52.8766" y2="97.5902" gradientUnits="userSpaceOnUse">
<stop stop-color="#4F3C2B"/>
<stop offset="1" stop-color="#3B2D20"/>
</linearGradient>
<linearGradient id="paint51_linear_622_543" x1="43.5706" y1="88.9729" x2="44.2588" y2="101.674" gradientUnits="userSpaceOnUse">
<stop stop-color="#1CA698"/>
<stop offset="0.9972" stop-color="#118276"/>
</linearGradient>
<linearGradient id="paint52_linear_622_543" x1="44.86" y1="88.8819" x2="38.4728" y2="87.2846" gradientUnits="userSpaceOnUse">
<stop stop-color="#4F3C2B"/>
<stop offset="1" stop-color="#3B2D20"/>
</linearGradient>
<linearGradient id="paint53_linear_622_543" x1="8.57648" y1="55.7684" x2="30.162" y2="72.6245" gradientUnits="userSpaceOnUse">
<stop stop-color="#EDEDED"/>
<stop offset="0.5141" stop-color="#E9E9E9"/>
<stop offset="0.9955" stop-color="#DEDEDE"/>
</linearGradient>
<linearGradient id="paint54_linear_622_543" x1="49.1599" y1="55.7684" x2="70.7455" y2="72.6245" gradientUnits="userSpaceOnUse">
<stop stop-color="#EDEDED"/>
<stop offset="0.5141" stop-color="#E9E9E9"/>
<stop offset="0.9955" stop-color="#DEDEDE"/>
</linearGradient>
<linearGradient id="paint55_linear_622_543" x1="89.7435" y1="55.7684" x2="111.329" y2="72.6245" gradientUnits="userSpaceOnUse">
<stop stop-color="#EDEDED"/>
<stop offset="0.5141" stop-color="#E9E9E9"/>
<stop offset="0.9955" stop-color="#DEDEDE"/>
</linearGradient>
<linearGradient id="paint56_linear_622_543" x1="85.9609" y1="58.5708" x2="85.9609" y2="78.8335" gradientUnits="userSpaceOnUse">
<stop stop-color="#EDEDED"/>
<stop offset="0.5141" stop-color="#E9E9E9"/>
<stop offset="0.9955" stop-color="#DEDEDE"/>
</linearGradient>
<linearGradient id="paint57_linear_622_543" x1="45.3647" y1="58.5708" x2="45.3647" y2="78.8335" gradientUnits="userSpaceOnUse">
<stop stop-color="#EDEDED"/>
<stop offset="0.5141" stop-color="#E9E9E9"/>
<stop offset="0.9955" stop-color="#DEDEDE"/>
</linearGradient>
<linearGradient id="paint58_linear_622_543" x1="67.2881" y1="59.3601" x2="67.2881" y2="57.7777" gradientUnits="userSpaceOnUse">
<stop stop-color="#EDEDED"/>
<stop offset="0.5141" stop-color="#E9E9E9"/>
<stop offset="0.9955" stop-color="#DEDEDE"/>
</linearGradient>
<linearGradient id="paint59_linear_622_543" x1="67.2881" y1="61.0516" x2="67.2881" y2="60.2604" gradientUnits="userSpaceOnUse">
<stop stop-color="#EDEDED"/>
<stop offset="0.5141" stop-color="#E9E9E9"/>
<stop offset="0.9955" stop-color="#DEDEDE"/>
</linearGradient>
<linearGradient id="paint60_linear_622_543" x1="92.9791" y1="41.8648" x2="85.9515" y2="41.8648" gradientUnits="userSpaceOnUse">
<stop stop-color="#4F3C2B"/>
<stop offset="1" stop-color="#3B2D20"/>
</linearGradient>
<linearGradient id="paint61_linear_622_543" x1="73.8259" y1="39.1737" x2="66.7983" y2="39.1737" gradientUnits="userSpaceOnUse">
<stop stop-color="#4F3C2B"/>
<stop offset="1" stop-color="#3B2D20"/>
</linearGradient>
<linearGradient id="paint62_linear_622_543" x1="87.7489" y1="37.8509" x2="80.6998" y2="37.8509" gradientUnits="userSpaceOnUse">
<stop stop-color="#4F3C2B"/>
<stop offset="1" stop-color="#3B2D20"/>
</linearGradient>
<linearGradient id="paint63_linear_622_543" x1="22.9318" y1="54.3473" x2="20.0889" y2="54.3473" gradientUnits="userSpaceOnUse">
<stop stop-color="#4F3C2B"/>
<stop offset="1" stop-color="#3B2D20"/>
</linearGradient>
<linearGradient id="paint64_linear_622_543" x1="21.8595" y1="49.4041" x2="19.3543" y2="49.4041" gradientUnits="userSpaceOnUse">
<stop stop-color="#4F3C2B"/>
<stop offset="1" stop-color="#3B2D20"/>
</linearGradient>
<linearGradient id="paint65_linear_622_543" x1="20.888" y1="44.7373" x2="18.2779" y2="44.7373" gradientUnits="userSpaceOnUse">
<stop stop-color="#4F3C2B"/>
<stop offset="1" stop-color="#3B2D20"/>
</linearGradient>
<linearGradient id="paint66_linear_622_543" x1="24.8216" y1="60.4363" x2="15.7717" y2="60.4363" gradientUnits="userSpaceOnUse">
<stop stop-color="#4F3C2B"/>
<stop offset="1" stop-color="#3B2D20"/>
</linearGradient>
<linearGradient id="paint67_linear_622_543" x1="19.8305" y1="45.752" x2="10.9213" y2="45.752" gradientUnits="userSpaceOnUse">
<stop stop-color="#D9F2A5"/>
<stop offset="1" stop-color="#9CC079"/>
</linearGradient>
<linearGradient id="paint68_linear_622_543" x1="28.0777" y1="43.8186" x2="14.9437" y2="43.8186" gradientUnits="userSpaceOnUse">
<stop stop-color="#D9F2A5"/>
<stop offset="1" stop-color="#9CC079"/>
</linearGradient>
<linearGradient id="paint69_linear_622_543" x1="34.9982" y1="36.9758" x2="14.9488" y2="35.7634" gradientUnits="userSpaceOnUse">
<stop stop-color="#D9F2A5"/>
<stop offset="1" stop-color="#9CC079"/>
</linearGradient>
<linearGradient id="paint70_linear_622_543" x1="28.0565" y1="28.7931" x2="14.8146" y2="37.6497" gradientUnits="userSpaceOnUse">
<stop stop-color="#D9F2A5"/>
<stop offset="1" stop-color="#9CC079"/>
</linearGradient>
<linearGradient id="paint71_linear_622_543" x1="18.1437" y1="32.8601" x2="3.61184" y2="35.2034" gradientUnits="userSpaceOnUse">
<stop stop-color="#D9F2A5"/>
<stop offset="1" stop-color="#9CC079"/>
</linearGradient>
<linearGradient id="paint72_linear_622_543" x1="18.3928" y1="39.3139" x2="0.545958" y2="39.3139" gradientUnits="userSpaceOnUse">
<stop stop-color="#D9F2A5"/>
<stop offset="1" stop-color="#9CC079"/>
</linearGradient>
<linearGradient id="paint73_linear_622_543" x1="105.997" y1="57.4458" x2="108.462" y2="57.4458" gradientUnits="userSpaceOnUse">
<stop stop-color="#4F3C2B"/>
<stop offset="1" stop-color="#3B2D20"/>
</linearGradient>
<linearGradient id="paint74_linear_622_543" x1="106.674" y1="53.3979" x2="109.517" y2="53.3979" gradientUnits="userSpaceOnUse">
<stop stop-color="#4F3C2B"/>
<stop offset="1" stop-color="#3B2D20"/>
</linearGradient>
<linearGradient id="paint75_linear_622_543" x1="107.747" y1="48.4549" x2="110.252" y2="48.4549" gradientUnits="userSpaceOnUse">
<stop stop-color="#4F3C2B"/>
<stop offset="1" stop-color="#3B2D20"/>
</linearGradient>
<linearGradient id="paint76_linear_622_543" x1="108.718" y1="43.7879" x2="111.328" y2="43.7879" gradientUnits="userSpaceOnUse">
<stop stop-color="#4F3C2B"/>
<stop offset="1" stop-color="#3B2D20"/>
</linearGradient>
<linearGradient id="paint77_linear_622_543" x1="104.784" y1="59.4869" x2="113.834" y2="59.4869" gradientUnits="userSpaceOnUse">
<stop stop-color="#4F3C2B"/>
<stop offset="1" stop-color="#3B2D20"/>
</linearGradient>
<linearGradient id="paint78_linear_622_543" x1="109.776" y1="44.8016" x2="118.685" y2="44.8016" gradientUnits="userSpaceOnUse">
<stop stop-color="#D9F2A5"/>
<stop offset="1" stop-color="#9CC079"/>
</linearGradient>
<linearGradient id="paint79_linear_622_543" x1="101.528" y1="42.8696" x2="114.662" y2="42.8696" gradientUnits="userSpaceOnUse">
<stop stop-color="#D9F2A5"/>
<stop offset="1" stop-color="#9CC079"/>
</linearGradient>
<linearGradient id="paint80_linear_622_543" x1="94.6081" y1="36.0264" x2="114.658" y2="34.814" gradientUnits="userSpaceOnUse">
<stop stop-color="#D9F2A5"/>
<stop offset="1" stop-color="#9CC079"/>
</linearGradient>
<linearGradient id="paint81_linear_622_543" x1="101.55" y1="27.8437" x2="114.792" y2="36.7003" gradientUnits="userSpaceOnUse">
<stop stop-color="#D9F2A5"/>
<stop offset="1" stop-color="#9CC079"/>
</linearGradient>
<linearGradient id="paint82_linear_622_543" x1="111.462" y1="31.9109" x2="125.994" y2="34.2542" gradientUnits="userSpaceOnUse">
<stop stop-color="#D9F2A5"/>
<stop offset="1" stop-color="#9CC079"/>
</linearGradient>
<linearGradient id="paint83_linear_622_543" x1="111.213" y1="38.3646" x2="129.06" y2="38.3646" gradientUnits="userSpaceOnUse">
<stop stop-color="#D9F2A5"/>
<stop offset="1" stop-color="#9CC079"/>
</linearGradient>
<linearGradient id="paint84_linear_622_543" x1="42.3528" y1="54.9201" x2="32.3542" y2="54.9201" gradientUnits="userSpaceOnUse">
<stop stop-color="#4F3C2B"/>
<stop offset="1" stop-color="#3B2D20"/>
</linearGradient>
<linearGradient id="paint85_linear_622_543" x1="33.3364" y1="52.4861" x2="36.3584" y2="52.4393" gradientUnits="userSpaceOnUse">
<stop stop-color="#4F3C2B"/>
<stop offset="1" stop-color="#3B2D20"/>
</linearGradient>
<linearGradient id="paint86_linear_622_543" x1="34.0996" y1="47.4639" x2="37.2364" y2="47.4153" gradientUnits="userSpaceOnUse">
<stop stop-color="#4F3C2B"/>
<stop offset="1" stop-color="#3B2D20"/>
</linearGradient>
<linearGradient id="paint87_linear_622_543" x1="35.4396" y1="41.3636" x2="38.2634" y2="41.3199" gradientUnits="userSpaceOnUse">
<stop stop-color="#4F3C2B"/>
<stop offset="1" stop-color="#3B2D20"/>
</linearGradient>
<linearGradient id="paint88_linear_622_543" x1="36.8911" y1="35.577" x2="39.6202" y2="35.5346" gradientUnits="userSpaceOnUse">
<stop stop-color="#4F3C2B"/>
<stop offset="1" stop-color="#3B2D20"/>
</linearGradient>
<linearGradient id="paint89_linear_622_543" x1="38.3417" y1="34.603" x2="48.8831" y2="34.4396" gradientUnits="userSpaceOnUse">
<stop stop-color="#D9F2A5"/>
<stop offset="1" stop-color="#9CC079"/>
</linearGradient>
<linearGradient id="paint90_linear_622_543" x1="27.9258" y1="31.1135" x2="42.3473" y2="33.4145" gradientUnits="userSpaceOnUse">
<stop stop-color="#D9F2A5"/>
<stop offset="1" stop-color="#9CC079"/>
</linearGradient>
<linearGradient id="paint91_linear_622_543" x1="19.3525" y1="26.4086" x2="43.1135" y2="24.6016" gradientUnits="userSpaceOnUse">
<stop stop-color="#D9F2A5"/>
<stop offset="1" stop-color="#9CC079"/>
</linearGradient>
<linearGradient id="paint92_linear_622_543" x1="34.6398" y1="13.8935" x2="43.2385" y2="27.6503" gradientUnits="userSpaceOnUse">
<stop stop-color="#D9F2A5"/>
<stop offset="1" stop-color="#9CC079"/>
</linearGradient>
<linearGradient id="paint93_linear_622_543" x1="39.874" y1="22.2237" x2="58.8726" y2="24.9858" gradientUnits="userSpaceOnUse">
<stop stop-color="#D9F2A5"/>
<stop offset="1" stop-color="#9CC079"/>
</linearGradient>
<linearGradient id="paint94_linear_622_543" x1="39.9215" y1="28.5793" x2="59.1024" y2="28.2819" gradientUnits="userSpaceOnUse">
<stop stop-color="#D9F2A5"/>
<stop offset="1" stop-color="#9CC079"/>
</linearGradient>
</defs>
</svg>
