<svg width="124" height="115" viewBox="0 0 124 115" fill="none" xmlns="http://www.w3.org/2000/svg">
<path d="M61.7256 113.37C54.3133 113.37 46.9009 112.908 39.5407 111.981L31.6412 110.988C25.1987 110.177 19.674 106.198 16.8686 100.342L2.65355 70.6886C-0.333138 64.4569 0.788569 57.1692 5.51334 52.1249L47.7122 7.07535C51.3288 3.21395 56.4366 1 61.7256 1C67.0146 1 72.1223 3.21395 75.739 7.07535L117.938 52.1249C122.663 57.1692 123.787 64.4546 120.798 70.6886L106.583 100.342C103.775 106.198 98.2524 110.179 91.81 110.988L83.9105 111.981C76.548 112.908 69.1379 113.37 61.7256 113.37Z" stroke="#D9F2A5" stroke-width="2" stroke-miterlimit="10"/>
<mask id="mask0_622_392" style="mask-type:alpha" maskUnits="userSpaceOnUse" x="5" y="4" width="115" height="106">
<path d="M50.4604 9.64806L8.57575 54.367C4.84167 58.3485 3.94189 64.2196 6.30381 69.1458L20.4078 98.5911C22.7023 103.382 27.2686 106.667 32.5323 107.341L40.3829 108.331C54.7343 110.131 69.2657 110.131 83.6172 108.331L91.4678 107.341C96.7315 106.689 101.298 103.382 103.592 98.5911L117.696 69.1458C120.058 64.2196 119.158 58.3485 115.424 54.367L73.5397 9.64806C67.2862 2.98971 56.7138 2.98971 50.4604 9.64806Z" fill="url(#paint0_linear_622_392)"/>
</mask>
<g mask="url(#mask0_622_392)">
<path d="M50.4604 9.64806L8.57575 54.367C4.84167 58.3485 3.94189 64.2196 6.30381 69.1458L20.4078 98.5911C22.7023 103.382 27.2686 106.667 32.5323 107.341L40.3829 108.331C54.7343 110.131 69.2657 110.131 83.6172 108.331L91.4678 107.341C96.7315 106.689 101.298 103.382 103.592 98.5911L117.696 69.1458C120.058 64.2196 119.158 58.3485 115.424 54.367L73.5397 9.64806C67.2862 2.98971 56.7138 2.98971 50.4604 9.64806Z" fill="url(#paint1_linear_622_392)"/>
<path opacity="0.08" d="M48.4359 63.7472L20.7902 80.9555L0.162842 74.5446L32.4199 60.3956L48.4359 63.7472Z" fill="#136262"/>
<path opacity="0.08" d="M35.7939 77.6038C42.6516 77.6038 48.2108 75.7306 48.2108 73.4199C48.2108 71.1091 42.6516 69.2359 35.7939 69.2359C28.9362 69.2359 23.377 71.1091 23.377 73.4199C23.377 75.7306 28.9362 77.6038 35.7939 77.6038Z" fill="#136262"/>
<path d="M94.3696 90.7406C93.6498 89.6833 92.3001 88.986 90.973 88.986H63.8672H60.1106H33.0273C31.7001 88.986 30.3505 89.6833 29.6306 90.7406L17.6861 108.354C16.1115 110.693 17.1462 113.258 19.7781 113.258H59.7732H64.2271H104.245C106.854 113.258 107.911 110.693 106.337 108.354L94.3696 90.7406Z" fill="url(#paint2_linear_622_392)"/>
<path d="M52.7098 107.027C52.8448 105.767 52.8673 104.485 52.8223 103.225C52.8223 102.955 52.7998 102.685 52.7773 102.415L52.0575 92.4952C51.945 90.8981 53.2047 89.5484 54.8018 89.5484H69.2432C70.8178 89.5484 72.0775 90.8756 71.9875 92.4727L71.4702 101.111L71.3577 102.798C71.2902 104.08 71.2902 105.362 71.4027 106.644L72.145 115.395H51.8325L52.7098 107.027Z" fill="url(#paint3_linear_622_392)"/>
<path d="M53.7218 108.151C53.8343 107.612 53.9018 107.072 53.9243 106.532C53.9693 105.992 53.9693 105.452 53.9693 104.89C53.9693 103.81 53.9243 102.708 53.8793 101.628C53.7668 99.4461 53.6094 97.2866 53.3844 95.1046C53.3394 94.5423 53.3169 94.0024 53.3619 93.4176C53.3844 93.1251 53.4294 92.8327 53.5194 92.5403C53.5869 92.2478 53.7443 91.9554 53.9468 91.708C54.1492 91.4605 54.4192 91.2581 54.7116 91.1231C55.004 91.0107 55.2964 90.9207 55.5889 90.8982C55.7238 90.8757 55.8813 90.8532 56.0163 90.8532C56.1512 90.8532 56.3087 90.8307 56.4437 90.8307H57.2535C58.3557 90.8307 59.4354 90.8082 60.5376 90.8532C61.6399 90.8982 62.7196 90.9657 63.8218 91.1681C62.7196 91.3706 61.6399 91.438 60.5376 91.483C59.4354 91.5055 58.3557 91.483 57.2535 91.5055C56.7136 91.5055 56.1512 91.483 55.6564 91.5505C55.4089 91.573 55.1615 91.6405 54.959 91.7305C54.7566 91.8429 54.5541 91.9554 54.4192 92.1354C54.1267 92.4728 54.0143 92.9902 53.9693 93.485C53.9243 94.0024 53.9243 94.5423 53.9693 95.0821C54.1267 97.2641 54.2392 99.4461 54.2617 101.651C54.2842 102.753 54.2392 103.832 54.1942 104.935C54.1042 105.992 54.0143 107.094 53.7218 108.151Z" fill="#664B35"/>
<path opacity="0.12" d="M72.1672 115.395H51.8547L52.7095 107.027C52.8445 105.767 52.867 104.485 52.822 103.225C56.0837 105.722 67.4659 105.025 71.4699 101.111L71.3574 102.798C71.2899 104.08 71.2899 105.362 71.4024 106.644L72.1672 115.395Z" fill="url(#paint4_linear_622_392)"/>
<path d="M66.1618 88.491L64.4297 88.6485C62.8101 88.7835 61.168 88.7835 59.5484 88.6485L57.8164 88.491C57.0965 88.4235 56.5342 87.7712 56.5342 86.9839V83.9696C56.5342 83.1823 57.0965 82.53 57.8164 82.4625L59.5484 82.3051C61.168 82.1701 62.8101 82.1701 64.4297 82.3051L66.1618 82.4625C66.8816 82.53 67.444 83.1823 67.444 83.9696V86.9839C67.444 87.7712 66.8816 88.4235 66.1618 88.491Z" fill="url(#paint5_linear_622_392)"/>
<path d="M57.2089 84.6895C57.1415 84.3746 57.119 84.0372 57.2539 83.6997C57.3214 83.5198 57.4339 83.3623 57.6138 83.2499C57.7713 83.1374 57.9513 83.0699 58.1312 83.0474C58.3112 83.0249 58.4911 83.0249 58.6261 83.0024L59.0985 82.9574C59.4134 82.9349 59.7283 82.9124 60.0432 82.8899C60.6731 82.845 61.3029 82.845 61.9553 82.8899C62.5851 82.9124 63.2149 82.9799 63.8448 83.0924L61.9553 83.1599C61.3254 83.1824 60.6956 83.2499 60.0882 83.2948L59.1435 83.3848L58.6486 83.4298C58.4911 83.4523 58.3337 83.4523 58.1987 83.4748C57.9288 83.5198 57.7263 83.6323 57.5688 83.8347C57.4339 84.0821 57.3439 84.3746 57.2089 84.6895Z" fill="#664B35"/>
<path d="M62.8098 90.2457C62.2699 90.4032 61.7076 90.4032 61.1677 90.2457C60.9878 90.2007 60.8528 90.0208 60.8528 89.8408V87.9288H63.1022V89.8408C63.1247 90.0208 62.9898 90.2007 62.8098 90.2457Z" fill="#3B2D20"/>
<path d="M48.1434 48.0012V63.9722L46.6138 63.1849V47.5513L48.1434 48.0012Z" fill="#BABABA"/>
<path d="M24.2544 61.9477L28.9332 63.6573L32.9372 65.1419L35.5016 59.2034L36.2214 57.5613L34.1519 55.6268L24.2544 61.9477Z" fill="url(#paint6_linear_622_392)"/>
<path d="M33.1173 63.1624L25.2667 60.3956L23.5571 61.5203L24.2545 61.9477L32.9373 65.1419L33.1173 63.1624Z" fill="url(#paint7_linear_622_392)"/>
<path opacity="0.12" d="M28.9333 63.6573L32.9374 65.1194L35.5017 59.1809L34.7144 57.3813C33.1173 58.2361 30.3055 60.3956 29.2483 61.7677C28.9333 62.3526 28.9333 63.1624 28.9333 63.6573Z" fill="url(#paint8_linear_622_392)"/>
<path d="M0.162842 57.4712V58.9108L20.7902 64.9843L49.3132 47.7086V46.269L4.25683 56.5264L0.162842 57.4712Z" fill="#CECECE"/>
<path d="M0.162842 57.4712V58.9108L20.7902 64.9843V63.5447L21.69 61.0253L4.25683 56.5264L0.162842 57.4712Z" fill="#BABABA"/>
<path d="M0.162842 57.4713L20.7902 63.5448L49.3132 46.2691L33.6571 45.6167L0.162842 57.4713Z" fill="url(#paint9_linear_622_392)"/>
<path d="M20.7904 64.9844V80.9554L19.2607 80.1681V64.5345L20.7904 64.9844Z" fill="#BABABA"/>
<path d="M21.96 64.2871V80.0782L20.7903 80.9555V64.9394L21.96 64.2871Z" fill="#CECECE"/>
<path d="M49.3133 47.3039V63.095L48.1436 63.9722V47.9562L49.3133 47.3039Z" fill="#CECECE"/>
<path d="M43.4196 71.193C43.9165 71.193 44.3193 70.5888 44.3193 69.8434C44.3193 69.098 43.9165 68.4937 43.4196 68.4937C42.9226 68.4937 42.5198 69.098 42.5198 69.8434C42.5198 70.5888 42.9226 71.193 43.4196 71.193Z" fill="url(#paint10_linear_622_392)"/>
<path d="M43.2174 75.7594C43.7143 75.7594 44.1172 75.1551 44.1172 74.4097C44.1172 73.6643 43.7143 73.06 43.2174 73.06C42.7205 73.06 42.3176 73.6643 42.3176 74.4097C42.3176 75.1551 42.7205 75.7594 43.2174 75.7594Z" fill="url(#paint11_linear_622_392)"/>
<path d="M37.0538 70.1583C37.5508 70.1583 37.9536 69.554 37.9536 68.8086C37.9536 68.0632 37.5508 67.4589 37.0538 67.4589C36.5569 67.4589 36.1541 68.0632 36.1541 68.8086C36.1541 69.554 36.5569 70.1583 37.0538 70.1583Z" fill="url(#paint12_linear_622_392)"/>
<path d="M36.2665 70.1583C36.7634 70.1583 37.1663 69.554 37.1663 68.8086C37.1663 68.0632 36.7634 67.4589 36.2665 67.4589C35.7695 67.4589 35.3667 68.0632 35.3667 68.8086C35.3667 69.554 35.7695 70.1583 36.2665 70.1583Z" fill="url(#paint13_linear_622_392)"/>
<path d="M25.2892 71.5078C25.7861 71.5078 26.189 70.9036 26.189 70.1582C26.189 69.4128 25.7861 68.8085 25.2892 68.8085C24.7922 68.8085 24.3894 69.4128 24.3894 70.1582C24.3894 70.9036 24.7922 71.5078 25.2892 71.5078Z" fill="url(#paint14_linear_622_392)"/>
<path d="M27.6061 76.1192C28.103 76.1192 28.5059 75.515 28.5059 74.7696C28.5059 74.0242 28.103 73.4199 27.6061 73.4199C27.1091 73.4199 26.7063 74.0242 26.7063 74.7696C26.7063 75.515 27.1091 76.1192 27.6061 76.1192Z" fill="url(#paint15_linear_622_392)"/>
<path d="M42.7224 74.5671L42.4299 73.015L42.8123 73.5099L34.5569 71.8003H34.9393L27.5611 73.3974L27.876 73.015L27.5386 74.6571L27.0887 74.6121L27.0212 72.9475C27.0212 72.7901 27.1337 72.6326 27.2687 72.5876L27.3362 72.5651L34.5569 70.2932C34.6918 70.2482 34.8043 70.2482 34.9393 70.2932L43.0598 72.5651L43.1498 72.5876C43.3522 72.6326 43.4647 72.8351 43.4422 73.0375L43.1498 74.5896H42.7224V74.5671Z" fill="url(#paint16_linear_622_392)"/>
<path d="M24.7043 70.3156L24.5469 68.696C24.5244 68.5161 24.6594 68.3586 24.8393 68.3361C24.8618 68.3361 24.9068 68.3361 24.9293 68.3361H24.9743L34.8943 70.2481H34.5119L43.7346 68.2461L43.8021 68.2236C44.0046 68.1786 44.2295 68.3136 44.2745 68.5161C44.2745 68.5611 44.2745 68.606 44.2745 68.651L44.0496 70.2031H43.6447L43.4197 68.651L43.9596 69.0784L34.8943 71.7553C34.7594 71.8003 34.6469 71.8003 34.5344 71.7553L24.8168 69.0109L25.2442 68.6735L25.0868 70.2931H24.7043V70.3156Z" fill="url(#paint17_linear_622_392)"/>
<path d="M34.062 70.5856L36.4914 67.4814L36.5364 67.4139C36.6714 67.2339 36.9188 67.2114 37.0988 67.3464C37.2112 67.4364 37.2562 67.5714 37.2562 67.7063L37.0763 69.2584H36.6264L36.4464 67.7063L37.2112 67.9313L35.3892 71.4404L34.062 70.5856Z" fill="url(#paint18_linear_622_392)"/>
<path d="M34.0845 70.9455L34.242 70.968C34.5569 71.013 34.8718 71.013 35.2093 70.968L35.3442 70.9455C35.5017 70.923 35.6142 70.788 35.6142 70.6305V66.3341H33.8371V70.6305C33.8146 70.788 33.9271 70.923 34.0845 70.9455Z" fill="url(#paint19_linear_622_392)"/>
<path d="M33.8148 67.3238L34.0398 67.3688C34.4896 67.4363 34.962 67.4363 35.4119 67.3688L35.5919 67.3463C35.8168 67.3013 35.9743 67.1214 35.9743 66.8964V60.7554H33.4099V66.8964C33.4324 67.0989 33.5899 67.2788 33.8148 67.3238Z" fill="url(#paint20_linear_622_392)"/>
<path d="M32.9373 65.142L34.8268 64.0623L35.2992 63.7924L37.1437 62.7351L42.5874 59.6309L42.025 54.3222V54.2097C41.935 53.4224 41.9125 52.6351 41.9125 51.8253C41.9125 51.6679 41.9125 51.4879 41.9125 51.3079L42.025 45.2569C42.0475 44.3347 41.5076 43.8623 40.8553 44.2222L34.7593 47.4839C34.062 47.8438 33.4996 48.946 33.4996 49.8683L33.5671 55.1995L33.5896 56.3017C33.5896 57.134 33.5671 58.0113 33.4771 58.9336L33.4321 59.4059L32.9373 65.142Z" fill="url(#paint21_linear_622_392)"/>
<path d="M32.9375 65.1419L34.6921 65.4793L34.8045 65.2094L35.2994 63.7923L35.4794 63.2524V62.5101L34.917 63.0949L32.9375 65.1419Z" fill="url(#paint22_linear_622_392)"/>
<path d="M41.1704 44.1322H43.1274V45.4144L41.8677 45.8867L41.1704 44.1322Z" fill="url(#paint23_linear_622_392)"/>
<path d="M34.6919 65.4794L37.6612 63.6798L43.3298 60.2607C43.9596 59.8783 44.3195 59.1584 44.2296 58.4386L43.7797 54.2322C43.7347 53.7823 43.6897 53.3099 43.6897 52.8375C43.6672 52.5001 43.6672 52.1852 43.6672 51.8478C43.6672 51.6903 43.6672 51.5103 43.6672 51.3304L43.7797 45.2794C43.8022 44.3571 43.2623 43.8847 42.61 44.2446L36.514 47.5063C35.8167 47.8662 35.2543 48.9685 35.2543 49.8907L35.3218 55.2219V56.0992V56.3016C35.3218 56.4141 35.3218 56.5266 35.3218 56.6616C35.3218 57.3814 35.2768 58.1462 35.2093 58.9335L34.6694 65.2544L34.6919 65.4794Z" fill="url(#paint24_linear_622_392)"/>
<path d="M43.1272 56.0318C42.9697 55.402 42.9023 54.7271 42.8573 54.0748C42.8123 53.4225 42.7673 52.7701 42.7448 52.1178C42.7223 50.8131 42.6998 49.4859 42.7448 48.1813C42.7673 47.5289 42.8348 46.8766 42.7448 46.2692C42.7223 46.1118 42.6773 45.9768 42.6323 45.8643C42.5648 45.7519 42.5198 45.7069 42.4299 45.7069C42.3399 45.7069 42.1824 45.7294 42.0475 45.7744C41.9125 45.8193 41.7775 45.8868 41.6201 45.9768C40.4729 46.5842 39.3256 47.2365 38.0435 47.6189C39.0782 46.7641 40.2479 46.2017 41.4176 45.5719C41.5526 45.5044 41.7101 45.4144 41.89 45.347C42.0475 45.2795 42.2499 45.2345 42.4749 45.257C42.5873 45.2795 42.6998 45.3245 42.8123 45.3919C42.9023 45.4594 42.9697 45.5719 43.0147 45.6619C43.1047 45.8418 43.1497 46.0218 43.1722 46.2017C43.2397 46.8991 43.1722 47.5514 43.1497 48.2037C43.0597 49.5084 43.0147 50.8131 42.9922 52.1178C42.9697 53.4225 42.9248 54.7496 43.1272 56.0318Z" fill="#664B35"/>
<path opacity="0.12" d="M34.7146 65.2544L34.7821 65.2094L37.4364 63.7922L37.6614 63.6798L43.33 60.2606C43.9598 59.8782 44.3197 59.1584 44.2297 58.4385L43.7799 54.2321C43.7349 53.7822 43.6899 53.3098 43.6899 52.8374C43.2625 53.3548 42.6776 53.8722 42.0028 54.3446C39.8883 55.8067 36.9415 56.7965 35.3444 56.1216V56.3241C35.3444 56.4365 35.3444 56.549 35.3444 56.684C35.3444 57.4038 35.2995 58.1686 35.232 58.9559L34.8721 63.1174L34.7821 64.0847L34.7146 65.2544Z" fill="url(#paint25_linear_622_392)"/>
<path opacity="0.12" d="M32.9375 65.1421L34.6921 65.502L34.7146 65.277L35.2544 58.9561C35.3219 58.1688 35.3669 57.4265 35.3669 56.6842C35.2094 57.539 34.3996 58.9336 33.4324 59.4285L32.9375 65.1421Z" fill="url(#paint26_linear_622_392)"/>
<path d="M35.929 45.4144L36.5138 45.7968L41.2826 39.7908L40.5853 39.3409L35.929 44.5372V45.4144Z" fill="url(#paint27_linear_622_392)"/>
<path d="M36.289 45.437L37.1213 45.0995C37.9086 44.7846 38.6959 44.3572 39.4832 43.8398L40.3155 43.3C40.6754 43.075 40.9228 42.5127 40.9228 41.9953V40.0383C40.9228 39.5209 40.6529 39.251 40.3155 39.3859L39.4832 39.7234C38.6959 40.0383 37.9086 40.4657 37.1213 40.9831L36.289 41.5229C35.9291 41.7479 35.6816 42.3102 35.6816 42.8276V44.7846C35.6816 45.2795 35.9516 45.5719 36.289 45.437Z" fill="url(#paint28_linear_622_392)"/>
<path d="M36.8288 45.7968L37.6611 45.4594C38.4484 45.1445 39.2357 44.7171 40.023 44.1997L40.8553 43.6598C41.2152 43.4349 41.4626 42.8725 41.4626 42.3552V40.3981C41.4626 39.8808 41.1927 39.6108 40.8553 39.7458L40.023 40.0832C39.2357 40.3982 38.4484 40.8255 37.6611 41.3429L36.8288 41.8828C36.4689 42.1077 36.2214 42.6701 36.2214 43.1875V45.1445C36.2214 45.6618 36.4914 45.9318 36.8288 45.7968Z" fill="url(#paint29_linear_622_392)"/>
<path d="M41.1928 41.028C41.1253 40.8705 41.1028 40.6906 41.0353 40.5556C40.9678 40.4207 40.9003 40.4207 40.7429 40.4656C40.6754 40.4881 40.6079 40.5331 40.5179 40.5556L40.2705 40.6456L39.7981 40.8256C39.4832 40.9605 39.1908 41.073 38.8759 41.2304L37.9761 41.6803C38.246 41.4779 38.5384 41.2979 38.8309 41.118C39.1233 40.938 39.4157 40.7806 39.7306 40.6456C39.8881 40.5781 40.0456 40.5106 40.203 40.4431L40.428 40.3532C40.4955 40.3307 40.5854 40.2857 40.6754 40.2407C40.7654 40.2182 40.8779 40.1957 40.9903 40.2407C41.1028 40.2857 41.1703 40.3982 41.1928 40.4881C41.2378 40.6681 41.2153 40.848 41.1928 41.028Z" fill="#664B35"/>
<path d="M38.4709 46.0668C38.7409 46.0218 39.0108 45.8869 39.2582 45.6394C39.3482 45.5495 39.4157 45.4145 39.4157 45.302V44.0648L38.3135 44.6497V45.8869C38.3135 45.9993 38.381 46.0893 38.4709 46.0668Z" fill="#3B2D20"/>
<path d="M26.8414 76.1192C27.3384 76.1192 27.7412 75.515 27.7412 74.7696C27.7412 74.0242 27.3384 73.4199 26.8414 73.4199C26.3445 73.4199 25.9417 74.0242 25.9417 74.7696C25.9417 75.515 26.3445 76.1192 26.8414 76.1192Z" fill="url(#paint30_linear_622_392)"/>
<path d="M42.4298 75.7594C42.9267 75.7594 43.3296 75.1551 43.3296 74.4097C43.3296 73.6643 42.9267 73.06 42.4298 73.06C41.9329 73.06 41.53 73.6643 41.53 74.4097C41.53 75.1551 41.9329 75.7594 42.4298 75.7594Z" fill="url(#paint31_linear_622_392)"/>
<path d="M44.1847 71.193C44.6816 71.193 45.0845 70.5888 45.0845 69.8434C45.0845 69.098 44.6816 68.4937 44.1847 68.4937C43.6878 68.4937 43.2849 69.098 43.2849 69.8434C43.2849 70.5888 43.6878 71.193 44.1847 71.193Z" fill="url(#paint32_linear_622_392)"/>
<path d="M24.5243 71.5078C25.0212 71.5078 25.4241 70.9036 25.4241 70.1582C25.4241 69.4128 25.0212 68.8085 24.5243 68.8085C24.0274 68.8085 23.6245 69.4128 23.6245 70.1582C23.6245 70.9036 24.0274 71.5078 24.5243 71.5078Z" fill="url(#paint33_linear_622_392)"/>
<path d="M12.2423 58.821C12.2423 59.4734 13.8169 60.0132 15.7514 60.0132C17.6859 60.0132 19.2605 59.4734 19.2605 58.821L20.1153 53.3099H11.365L12.2423 58.821Z" fill="url(#paint34_linear_622_392)"/>
<path d="M20.0928 53.3098C20.0928 53.6697 19.7329 53.9846 19.1256 54.2321C18.3158 54.5695 17.1011 54.7944 15.7289 54.7944C14.3567 54.7944 13.1196 54.5695 12.3323 54.2321C11.7249 53.9846 11.365 53.6697 11.365 53.3098C11.365 52.5 13.322 51.8252 15.7289 51.8252C18.1583 51.8252 20.0928 52.4775 20.0928 53.3098Z" fill="url(#paint35_linear_622_392)"/>
<path d="M19.1481 54.2322C18.3383 54.5696 17.1236 54.7946 15.7514 54.7946C14.3792 54.7946 13.142 54.5696 12.3547 54.2322C12.7821 53.4449 14.1543 52.86 15.7514 52.86C17.3485 52.8375 18.6982 53.4224 19.1481 54.2322Z" fill="#136262"/>
<path d="M17.6183 51.083C17.8433 53.2199 16.9435 54.1647 15.7063 54.2997C14.4691 54.4346 13.3669 53.7148 13.1419 51.5553C12.917 49.4184 13.1419 45.0769 14.6941 44.9195C16.2462 44.762 17.3709 48.946 17.6183 51.083Z" fill="url(#paint36_linear_622_392)"/>
<path d="M15.3014 54.3895C14.9415 54.1871 14.7166 53.8272 14.5591 53.4447C14.4016 53.0623 14.2892 52.6799 14.1992 52.275C14.0417 51.4652 13.9967 50.6779 13.9518 49.8681C13.9293 49.0583 13.9068 48.2485 13.9518 47.4387C14.0192 46.6289 14.0642 45.8191 14.4016 45.0543C14.2667 45.4367 14.2217 45.8416 14.1992 46.2465C14.1542 46.6514 14.1317 47.0563 14.1317 47.4387C14.1092 48.2485 14.1317 49.0358 14.1767 49.8456C14.2217 50.6554 14.2667 51.4427 14.3792 52.23C14.4466 52.6349 14.5141 53.0174 14.6716 53.3773C14.784 53.7822 14.964 54.1646 15.3014 54.3895Z" fill="#136262"/>
<path d="M15.3464 45.1445C15.7738 45.8193 15.9988 46.5841 16.2237 47.3489C16.4487 48.1137 16.6061 48.901 16.7411 49.6659C16.8761 50.4532 16.9885 51.2405 16.9885 52.0278C16.9885 52.4327 16.966 52.8376 16.8986 53.22C16.8086 53.6024 16.6736 54.0073 16.3587 54.2772C16.6286 53.9848 16.7411 53.5799 16.7861 53.1975C16.8311 52.8151 16.8536 52.4102 16.8311 52.0278C16.7861 51.2405 16.6511 50.4757 16.5386 49.6883C16.4037 48.901 16.2462 48.1362 16.0888 47.3714C15.9988 46.989 15.9088 46.6066 15.7963 46.2242C15.6389 45.8643 15.5264 45.4819 15.3464 45.1445Z" fill="#136262"/>
<path d="M14.874 45.0094C15.099 45.7742 15.2339 46.539 15.3689 47.3263C15.5039 48.1136 15.6163 48.8784 15.7288 49.6657C15.8188 50.453 15.9313 51.2403 15.9763 52.0276C16.0212 52.8149 16.0887 53.6247 15.9538 54.3895C15.9987 54.0071 15.9538 53.6022 15.9313 53.2198C15.9088 52.8374 15.8638 52.4325 15.8188 52.0501C15.7288 51.2628 15.6163 50.498 15.5264 49.7107L15.2114 47.3713L15.054 46.2016C15.009 45.7967 14.9415 45.4143 14.874 45.0094Z" fill="#136262"/>
<path d="M15.6389 54.3896C15.3464 53.6473 15.234 52.86 15.1215 52.0727C15.009 51.2854 14.9415 50.498 14.8516 49.7107C14.7841 48.9234 14.7391 48.1361 14.6941 47.3488C14.6716 46.5615 14.6266 45.7742 14.6941 44.9869C14.7166 45.3918 14.7391 45.7742 14.7616 46.1566C14.7841 46.539 14.8291 46.9439 14.8516 47.3263L15.054 49.6882L15.2564 52.0502C15.3014 52.4326 15.3464 52.8375 15.3914 53.2199C15.4589 53.6248 15.5264 54.0072 15.6389 54.3896Z" fill="#136262"/>
<path d="M16.2912 52.0951C15.9312 53.0624 16.4261 53.6697 17.2359 53.9846C18.0457 54.2996 18.833 54.1646 19.1929 53.2198C19.5528 52.2526 19.8453 50.1831 18.833 49.8007C17.8433 49.3958 16.6511 51.1278 16.2912 52.0951Z" fill="url(#paint37_linear_622_392)"/>
<path d="M17.4834 54.0971C17.6858 54.0521 17.8433 53.9396 17.9558 53.7822C18.0907 53.6472 18.1807 53.4672 18.2707 53.3098C18.4282 52.9724 18.5406 52.59 18.6531 52.2076C18.7656 51.8251 18.8556 51.4427 18.923 51.0603C18.968 50.8804 18.9905 50.6779 19.013 50.4755C19.0355 50.273 19.0355 50.0931 19.013 49.8906C19.1705 50.273 19.148 50.6779 19.103 51.0828C19.058 51.4877 18.968 51.8701 18.8556 52.2525C18.7431 52.6349 18.6081 53.0174 18.4057 53.3773C18.2932 53.5572 18.1807 53.7147 18.0233 53.8496C17.8883 54.0071 17.6858 54.0971 17.4834 54.0971Z" fill="#136262"/>
<path d="M18.383 49.7557C18.248 49.8907 18.1131 50.0481 18.0231 50.2056C17.9106 50.3631 17.8206 50.5205 17.7082 50.7005C17.5057 51.0379 17.3483 51.3753 17.1683 51.7127C17.0108 52.0501 16.8309 52.41 16.7409 52.77C16.6959 52.9499 16.6509 53.1299 16.6509 53.3098C16.6509 53.4898 16.6959 53.6922 16.8084 53.8497C16.6509 53.7147 16.5834 53.5123 16.5385 53.3323C16.516 53.1299 16.516 52.9274 16.561 52.725C16.6284 52.3201 16.8084 51.9602 16.9659 51.6227C17.1458 51.2628 17.3258 50.9254 17.5507 50.6105C17.7757 50.2731 18.0456 49.9582 18.383 49.7557Z" fill="#136262"/>
<path d="M18.698 49.7782C18.5406 50.1156 18.4056 50.4755 18.2706 50.8129L17.8432 51.8477L17.3933 52.8824C17.3259 53.0624 17.2584 53.2198 17.1909 53.3998C17.1234 53.5797 17.0559 53.7597 17.0334 53.9396C17.0109 53.5572 17.1234 53.1748 17.2134 52.8149C17.3259 52.455 17.4608 52.0951 17.6183 51.7577C17.7757 51.4203 17.9332 51.0604 18.0907 50.7229C18.2706 50.4305 18.4731 50.0931 18.698 49.7782Z" fill="#136262"/>
<path d="M17.2583 54.0297C17.3708 53.8722 17.4383 53.6923 17.5057 53.5348C17.5732 53.3548 17.6407 53.1974 17.7082 53.0174L18.0681 51.9602L18.4505 50.9029C18.563 50.543 18.7204 50.2056 18.8329 49.8457C18.8104 50.2281 18.7204 50.588 18.6305 50.9704C18.5405 51.3303 18.428 51.6902 18.293 52.0502C18.1581 52.4101 18.0456 52.7475 17.8656 53.1074C17.6857 53.3998 17.5282 53.7597 17.2583 54.0297Z" fill="#136262"/>
</g>
<path opacity="0.08" d="M66.364 46.9214L94.0322 64.1296L114.66 57.7187L82.3801 43.5697L66.364 46.9214Z" fill="#136262"/>
<path opacity="0.08" d="M79.4333 60.1705C86.291 60.1705 91.8502 58.2973 91.8502 55.9866C91.8502 53.6758 86.291 51.8026 79.4333 51.8026C72.5756 51.8026 67.0164 53.6758 67.0164 55.9866C67.0164 58.2973 72.5756 60.1705 79.4333 60.1705Z" fill="#136262"/>
<path d="M66.679 31.1753V47.1463L68.1861 46.3815V30.7254L66.679 31.1753Z" fill="#BABABA"/>
<path d="M111.96 41.8152V57.6287L113.13 58.506V42.49L111.96 41.8152Z" fill="#CECECE"/>
<path d="M90.5454 45.1218L85.8665 46.8539L81.885 48.316L79.3206 42.4L78.6008 40.7354L80.6703 38.8234L90.5454 45.1218Z" fill="url(#paint38_linear_622_392)"/>
<path d="M81.7051 46.359L89.5556 43.5697L91.2427 44.6944L90.5454 45.1218L81.885 48.316L81.7051 46.359Z" fill="url(#paint39_linear_622_392)"/>
<path opacity="0.12" d="M85.8665 46.854L81.8625 48.3161L79.2981 42.3776L80.0854 40.578C81.6825 41.4328 84.4943 43.5923 85.5516 44.9644C85.8665 45.5268 85.8665 46.3366 85.8665 46.854Z" fill="url(#paint40_linear_622_392)"/>
<path d="M114.659 40.6453V42.085L94.032 48.1585L65.509 30.9053V29.4656L110.543 39.7231L114.659 40.6453Z" fill="#CECECE"/>
<path d="M114.66 40.6453V42.085L94.0321 48.1585V46.7413L93.1323 44.2219L110.543 39.7231L114.66 40.6453Z" fill="#BABABA"/>
<path d="M114.659 40.6454L94.032 46.7414L65.509 29.4656L81.1652 28.8133L114.659 40.6454Z" fill="url(#paint41_linear_622_392)"/>
<path d="M94.032 48.1587V64.1297L95.5616 63.3649V47.7088L94.032 48.1587Z" fill="#BABABA"/>
<path d="M92.8623 47.4612V63.2748L94.032 64.1296V48.1135L92.8623 47.4612Z" fill="#CECECE"/>
<path d="M65.509 30.478V46.2916L66.6787 47.1463V31.1303L65.509 30.478Z" fill="#CECECE"/>
<path d="M113.13 42.5351V58.5061L114.66 57.7188V42.0852L113.13 42.5351Z" fill="#BABABA"/>
<path d="M85.5967 33.1325L85.8891 33.5149L92.9299 36.3717L95.5167 28.7236L95.4492 28.6336L85.5967 33.1325Z" fill="#107264"/>
<path d="M85.5967 33.1324L92.7949 36.1691L95.4492 28.6335L88.1161 26.3166L85.5967 33.1324Z" fill="url(#paint42_linear_622_392)"/>
<path d="M78.8708 34.9995V35.2694L85.3493 38.846L92.6824 36.5741V36.2367L78.8708 34.9995Z" fill="#107264"/>
<path d="M78.8708 34.9994L85.3717 38.5085L92.6824 36.2366L85.5067 33.2224L78.8708 34.9994Z" fill="url(#paint43_linear_622_392)"/>
<path d="M83.7972 33.9872L83.6397 33.9197C83.5722 33.8972 83.5722 33.8523 83.6397 33.8298L84.0221 33.7173C84.0896 33.6948 84.1796 33.6948 84.2471 33.7398L84.4045 33.8073C84.472 33.8298 84.472 33.8748 84.4045 33.8972L83.9996 34.0097C83.9546 34.0322 83.8647 34.0322 83.7972 33.9872Z" fill="#107264"/>
<path d="M84.2921 34.2122L84.1346 34.1447C84.0671 34.1222 84.0671 34.0772 84.1346 34.0547L84.5395 33.9422C84.607 33.9197 84.7195 33.9197 84.7644 33.9647L84.9444 34.0322C85.0119 34.0547 85.0119 34.0997 84.9444 34.1222L84.5395 34.2347C84.4495 34.2572 84.337 34.2347 84.2921 34.2122Z" fill="#107264"/>
<path d="M84.787 34.4371L84.607 34.3696C84.5395 34.3471 84.5395 34.3021 84.607 34.2797L85.0119 34.1672C85.0794 34.1447 85.1919 34.1447 85.2593 34.1897L85.4393 34.2572C85.5068 34.2797 85.5068 34.3246 85.4393 34.3471L85.0119 34.4596C84.9669 34.4821 84.8545 34.4821 84.787 34.4371Z" fill="#107264"/>
<path d="M85.3043 34.6845L85.1243 34.5945C85.0569 34.572 85.0569 34.5271 85.1243 34.5046L85.5517 34.3921C85.6192 34.3696 85.7317 34.3696 85.7992 34.4146L85.9791 34.5046C86.0466 34.5271 86.0466 34.572 85.9791 34.5945L85.5517 34.7295C85.4843 34.7295 85.3718 34.707 85.3043 34.6845Z" fill="#107264"/>
<path d="M85.8441 34.932L85.6641 34.842C85.5967 34.8196 85.5967 34.7746 85.6641 34.7521L86.0915 34.6171C86.159 34.5946 86.2715 34.6171 86.339 34.6396L86.5189 34.7296C86.5864 34.7521 86.5864 34.7971 86.5189 34.8196L86.069 34.9545C86.024 34.9545 85.9116 34.9545 85.8441 34.932Z" fill="#107264"/>
<path d="M86.3841 35.1794L86.2042 35.0895C86.1367 35.067 86.1367 35.022 86.2042 34.9995L86.6541 34.8645C86.7215 34.842 86.834 34.8645 86.924 34.887L87.1265 34.977C87.1939 34.9995 87.1939 35.0445 87.1265 35.067L86.6766 35.2019C86.5866 35.2244 86.4516 35.2019 86.3841 35.1794Z" fill="#107264"/>
<path d="M86.9689 35.427L86.7664 35.337C86.6989 35.3145 86.6989 35.2695 86.7664 35.247L87.2163 35.112C87.2838 35.0895 87.4188 35.112 87.4863 35.1345L87.6887 35.2245C87.7562 35.2695 87.7787 35.292 87.6887 35.3145L87.2388 35.4495C87.1488 35.472 87.0364 35.472 86.9689 35.427Z" fill="#107264"/>
<path d="M87.5536 35.6968L87.3511 35.6069C87.2837 35.5619 87.2837 35.5169 87.3511 35.5169L87.8235 35.3819C87.891 35.3594 88.026 35.3819 88.0935 35.4044L88.2959 35.4944C88.3859 35.5394 88.3859 35.5844 88.2959 35.5844L87.8235 35.7193C87.7561 35.7643 87.6436 35.7418 87.5536 35.6968Z" fill="#107264"/>
<path d="M88.1611 35.9892L87.9586 35.8992C87.8686 35.8542 87.8686 35.8092 87.9586 35.7867L88.431 35.6518C88.4985 35.6293 88.6334 35.6518 88.7234 35.6743L88.9484 35.7642C89.0383 35.8092 89.0383 35.8542 88.9484 35.8767L88.4535 36.0117C88.386 36.0342 88.251 36.0342 88.1611 35.9892Z" fill="#107264"/>
<path d="M88.8134 36.2817L88.5885 36.1917C88.4985 36.1467 88.4985 36.1017 88.5885 36.0792L89.0834 35.9443C89.1508 35.9218 89.2858 35.9443 89.3758 35.9667L89.6007 36.0567C89.6907 36.1017 89.6907 36.1467 89.6007 36.1692L89.1058 36.3042C89.0159 36.3267 88.8809 36.3042 88.8134 36.2817Z" fill="#107264"/>
<path d="M89.4658 36.574L89.2408 36.4615C89.1508 36.4165 89.1508 36.3715 89.2408 36.3491L89.7357 36.2141C89.8257 36.1916 89.9606 36.2141 90.0506 36.2366L90.2756 36.3491C90.3655 36.394 90.3655 36.439 90.2981 36.4615L89.7807 36.5965C89.6907 36.6415 89.5557 36.619 89.4658 36.574Z" fill="#107264"/>
<path d="M90.163 36.889L89.9381 36.7766C89.8481 36.7316 89.8481 36.6866 89.9381 36.6641L90.4555 36.5291C90.5454 36.5066 90.6804 36.5291 90.7704 36.5741L91.0178 36.6866C91.1078 36.7316 91.1078 36.7766 91.0403 36.7991L90.5229 36.934C90.388 36.9565 90.253 36.934 90.163 36.889Z" fill="#107264"/>
<path d="M82.9647 34.2571L82.8072 34.1896C82.7398 34.1671 82.7623 34.1221 82.8072 34.0996L83.1896 33.9872C83.2571 33.9647 83.3471 33.9647 83.4146 34.0097L83.572 34.0771C83.6395 34.0996 83.6395 34.1446 83.572 34.1671L83.1896 34.2796C83.1222 34.2796 83.0097 34.2796 82.9647 34.2571Z" fill="#107264"/>
<path d="M83.4149 34.482L83.2574 34.4146C83.1899 34.3921 83.1899 34.3471 83.2574 34.3246L83.6398 34.2121C83.7073 34.1896 83.7973 34.1896 83.8648 34.2346L84.0222 34.3021C84.0897 34.3246 84.0897 34.3696 84.0222 34.3921L83.6173 34.5045C83.5948 34.5045 83.4823 34.5045 83.4149 34.482Z" fill="#107264"/>
<path d="M83.9095 34.7069L83.752 34.6395C83.6845 34.617 83.6845 34.572 83.752 34.5495L84.1569 34.437C84.2244 34.4145 84.3369 34.4145 84.3819 34.4595L84.5393 34.527C84.6068 34.5495 84.6068 34.5945 84.5393 34.617L84.1344 34.7294C84.0669 34.7519 83.977 34.7294 83.9095 34.7069Z" fill="#107264"/>
<path d="M84.4046 34.932L84.2247 34.842C84.1572 34.8195 84.1572 34.7745 84.2247 34.752L84.6296 34.6396C84.6971 34.6171 84.8095 34.6396 84.877 34.6621L85.057 34.752C85.1245 34.7745 85.1245 34.8195 85.057 34.842L84.6296 34.9545C84.5846 34.977 84.4721 34.977 84.4046 34.932Z" fill="#107264"/>
<path d="M84.9217 35.1796L84.7418 35.0896C84.6743 35.0671 84.6743 35.0221 84.7418 34.9996L85.1692 34.8871C85.2367 34.8646 85.3491 34.8871 85.4166 34.9096L85.5966 34.9996C85.664 35.0221 85.664 35.0671 85.5966 35.0896L85.1692 35.202C85.1017 35.2245 84.9892 35.2245 84.9217 35.1796Z" fill="#107264"/>
<path d="M85.4393 35.4494L85.2594 35.3594C85.1919 35.3369 85.1919 35.292 85.2594 35.2695L85.6868 35.157C85.7542 35.1345 85.8667 35.157 85.9342 35.1795L86.1141 35.2695C86.1816 35.292 86.1816 35.3369 86.1141 35.3594L85.6643 35.4719C85.6193 35.4944 85.5068 35.4719 85.4393 35.4494Z" fill="#107264"/>
<path d="M86.0016 35.6968L85.8216 35.6068C85.7541 35.5843 85.7541 35.5393 85.8216 35.5168L86.2715 35.4044C86.339 35.3819 86.4515 35.4044 86.5414 35.4269L86.7439 35.5168C86.8114 35.5618 86.8114 35.5843 86.7439 35.6068L86.294 35.7193C86.1815 35.7418 86.0691 35.7418 86.0016 35.6968Z" fill="#107264"/>
<path d="M86.5639 35.9668L86.3614 35.8768C86.2939 35.8318 86.2939 35.7869 86.3614 35.7869L86.8113 35.6744C86.8788 35.6519 87.0137 35.6744 87.0812 35.6969L87.2837 35.7869C87.3512 35.8318 87.3512 35.8768 87.2837 35.8768L86.8338 36.0118C86.7663 36.0118 86.6313 36.0118 86.5639 35.9668Z" fill="#107264"/>
<path d="M87.1488 36.2592L86.9464 36.1692C86.8789 36.1242 86.8789 36.0792 86.9464 36.0792L87.4187 35.9443C87.4862 35.9218 87.6212 35.9443 87.6887 35.9667L87.8911 36.0567C87.9811 36.1017 87.9811 36.1467 87.8911 36.1692L87.4187 36.3042C87.3513 36.3042 87.2388 36.2817 87.1488 36.2592Z" fill="#107264"/>
<path d="M87.7562 36.5515L87.5537 36.4615C87.4862 36.4165 87.4638 36.3715 87.5537 36.3491L88.0261 36.2141C88.0936 36.1916 88.2286 36.2141 88.3185 36.2366L88.5435 36.3266C88.6335 36.3716 88.6335 36.4165 88.5435 36.439L88.0486 36.574C87.9811 36.5965 87.8462 36.574 87.7562 36.5515Z" fill="#107264"/>
<path d="M88.4086 36.844L88.1837 36.7315C88.0937 36.6866 88.0937 36.6416 88.1837 36.6191L88.6786 36.4841C88.7461 36.4616 88.881 36.4841 88.971 36.5066L89.1959 36.6191C89.2859 36.6641 89.2859 36.7091 89.1959 36.7315L88.7011 36.8665C88.6111 36.9115 88.4761 36.889 88.4086 36.844Z" fill="#107264"/>
<path d="M89.0607 37.1589L88.8358 37.0464C88.7458 37.0014 88.7458 36.9564 88.8358 36.934L89.3307 36.799C89.4206 36.7765 89.5556 36.799 89.6456 36.844L89.8705 36.9564C89.9605 37.0014 89.9605 37.0464 89.8705 37.0689L89.3532 37.2039C89.2857 37.2264 89.1507 37.2039 89.0607 37.1589Z" fill="#107264"/>
<path d="M82.1326 34.5046L81.9751 34.4372C81.9302 34.4147 81.9302 34.3697 81.9751 34.3472L82.3575 34.2347C82.425 34.2122 82.515 34.2122 82.5825 34.2572L82.74 34.3247C82.8074 34.3472 82.7849 34.3922 82.74 34.4147L82.3575 34.5271C82.2901 34.5271 82.2001 34.5271 82.1326 34.5046Z" fill="#107264"/>
<path d="M82.5824 34.7295L82.4249 34.662C82.3574 34.6395 82.3799 34.5945 82.4249 34.572L82.8073 34.4596C82.8748 34.4371 82.9648 34.4596 83.0323 34.4821L83.1897 34.5496C83.2572 34.572 83.2572 34.617 83.1897 34.6395L82.8073 34.752C82.7398 34.752 82.6499 34.752 82.5824 34.7295Z" fill="#107264"/>
<path d="M83.0548 34.9545L82.8973 34.887C82.8298 34.8645 82.8298 34.8195 82.8973 34.797L83.2797 34.6845C83.3472 34.662 83.4372 34.6845 83.5046 34.707L83.6621 34.7745C83.7296 34.797 83.7296 34.842 83.6621 34.8645L83.2572 34.9769C83.2122 34.9994 83.0997 34.9769 83.0548 34.9545Z" fill="#107264"/>
<path d="M83.5274 35.2019L83.3699 35.1119C83.3025 35.0894 83.3025 35.0444 83.3699 35.0219L83.7749 34.9094C83.8423 34.8869 83.9323 34.9094 83.9998 34.9319L84.1573 35.0219C84.2247 35.0444 84.2247 35.0894 84.1573 35.1119L83.7524 35.2244C83.6849 35.2468 83.5949 35.2244 83.5274 35.2019Z" fill="#107264"/>
<path d="M84.022 35.4494L83.8646 35.3594C83.7971 35.3369 83.7971 35.292 83.8646 35.2695L84.2695 35.157C84.337 35.1345 84.4494 35.157 84.5169 35.1795L84.6969 35.2695C84.7644 35.292 84.7644 35.3369 84.6969 35.3594L84.2695 35.4719C84.1795 35.4944 84.0895 35.4719 84.022 35.4494Z" fill="#107264"/>
<path d="M84.5169 35.6968L84.337 35.6068C84.2695 35.5843 84.2695 35.5393 84.337 35.5168L84.7644 35.4044C84.8319 35.3819 84.9443 35.4044 85.0118 35.4269L85.1918 35.5168C85.2593 35.5393 85.2593 35.5843 85.1918 35.6068L84.7644 35.7193C84.6969 35.7418 84.5844 35.7193 84.5169 35.6968Z" fill="#107264"/>
<path d="M85.0567 35.9668L84.8768 35.8768C84.8093 35.8318 84.8093 35.8094 84.8768 35.7869L85.3042 35.6744C85.3717 35.6519 85.4841 35.6744 85.5516 35.6969L85.7316 35.7869C85.7991 35.8318 85.7991 35.8543 85.7316 35.8768L85.2817 35.9893C85.2367 36.0118 85.1242 35.9893 85.0567 35.9668Z" fill="#107264"/>
<path d="M85.5965 36.2367L85.4166 36.1467C85.3491 36.1017 85.3491 36.0567 85.4166 36.0567L85.8665 35.9443C85.934 35.9218 86.0464 35.9443 86.1364 35.9667L86.3389 36.0567C86.4063 36.1017 86.4063 36.1467 86.3389 36.1467L85.889 36.2592C85.799 36.2817 85.664 36.2592 85.5965 36.2367Z" fill="#107264"/>
<path d="M86.1591 36.5065L85.9566 36.4165C85.8891 36.3716 85.8891 36.3266 85.9566 36.3266L86.4065 36.2141C86.474 36.1916 86.609 36.2141 86.6764 36.2366L86.8789 36.3266C86.9464 36.3716 86.9464 36.4165 86.8789 36.439L86.4065 36.5515C86.3615 36.574 86.249 36.5515 86.1591 36.5065Z" fill="#107264"/>
<path d="M86.744 36.799L86.5416 36.7091C86.4741 36.6641 86.4741 36.6191 86.5416 36.5966L87.014 36.4841C87.0814 36.4616 87.2164 36.4841 87.2839 36.5066L87.4863 36.5966C87.5763 36.6416 87.5763 36.6866 87.4863 36.7091L87.014 36.8215C86.9465 36.8665 86.834 36.844 86.744 36.799Z" fill="#107264"/>
<path d="M87.3512 37.1139L87.1487 37.0015C87.0812 36.9565 87.0587 36.9115 87.1487 36.889L87.6211 36.7765C87.6886 36.754 87.8235 36.7765 87.9135 36.8215L88.116 36.934C88.2059 36.979 88.2059 37.024 88.116 37.0465L87.6211 37.1589C87.5536 37.1589 87.4411 37.1589 87.3512 37.1139Z" fill="#107264"/>
<path d="M87.9811 37.4289L87.7562 37.3164C87.6662 37.2714 87.6662 37.2264 87.7562 37.2039L88.2511 37.0915C88.3411 37.069 88.4535 37.0915 88.5435 37.1365L88.7685 37.2489C88.8584 37.2939 88.8584 37.3389 88.7685 37.3614L88.2736 37.4739C88.2061 37.4964 88.0711 37.4739 87.9811 37.4289Z" fill="#107264"/>
<path d="M81.3228 34.7521L81.1878 34.6846C81.1428 34.6621 81.1428 34.6172 81.1878 34.5947L81.5477 34.4822C81.6152 34.4597 81.7052 34.4822 81.7502 34.5047L81.8851 34.5722C81.9301 34.5947 81.9301 34.6396 81.8851 34.6621L81.5027 34.7746C81.4802 34.7746 81.3902 34.7746 81.3228 34.7521Z" fill="#107264"/>
<path d="M81.75 34.9771L81.5926 34.9096C81.5476 34.8871 81.5476 34.8421 81.5926 34.8196L81.975 34.7071C82.0425 34.6846 82.1324 34.7071 82.1774 34.7296L82.3349 34.7971C82.4024 34.8196 82.3799 34.8646 82.3349 34.8871L81.9525 34.9996C81.9075 34.9996 81.8175 34.9996 81.75 34.9771Z" fill="#107264"/>
<path d="M82.2001 35.2019L82.0426 35.1119C81.9751 35.0894 81.9976 35.0444 82.0426 35.0219L82.425 34.9094C82.4925 34.8869 82.5825 34.9094 82.6499 34.9319L82.8074 35.0219C82.8749 35.0444 82.8749 35.0894 82.8074 35.1119L82.425 35.2244C82.3575 35.2468 82.2675 35.2244 82.2001 35.2019Z" fill="#107264"/>
<path d="M84.652 36.4842L82.4925 35.3594C82.4251 35.3369 82.4476 35.292 82.4925 35.2695L82.8974 35.157C82.9649 35.1345 83.0549 35.157 83.1224 35.1795L85.3268 36.3042C85.3943 36.3492 85.3943 36.3942 85.3268 36.3942L84.877 36.5067C84.832 36.5292 84.7195 36.5292 84.652 36.4842Z" fill="#107264"/>
<path d="M84.8994 36.889L83.7297 37.1814C83.6622 37.2039 83.5497 37.1814 83.4823 37.1589L82.5375 36.664L83.2798 36.4391C83.3023 36.4391 83.3248 36.3941 83.3248 36.3716C83.3248 36.3491 83.2798 36.3266 83.2573 36.3266L82.4025 36.574L81.3678 36.0342C81.3003 36.0117 81.3228 35.9667 81.3678 35.9442L82.4925 35.6518C82.56 35.6293 82.65 35.6518 82.7175 35.6743L84.9219 36.799C84.9669 36.8215 84.9669 36.8665 84.8994 36.889Z" fill="#107264"/>
<path d="M85.1917 36.7765L85.0118 36.6866C84.9443 36.6416 84.9443 36.5966 85.0118 36.5966L85.4617 36.4841C85.5292 36.4616 85.6416 36.4841 85.7316 36.5066L85.9116 36.5966C85.9791 36.6416 85.9791 36.6866 85.9116 36.7091L85.4617 36.8215C85.3942 36.8215 85.2592 36.799 85.1917 36.7765Z" fill="#107264"/>
<path d="M85.7542 37.0689L85.5743 36.9789C85.5068 36.9339 85.5068 36.8889 85.5743 36.8664L86.0242 36.754C86.0917 36.7315 86.2266 36.754 86.2941 36.7765L86.4966 36.8664C86.564 36.9114 86.564 36.9564 86.4966 36.9789L86.0242 37.0914C85.9567 37.1139 85.8442 37.1139 85.7542 37.0689Z" fill="#107264"/>
<path d="M86.339 37.3613L86.1365 37.2489C86.0691 37.2039 86.0691 37.1589 86.1365 37.1364L86.6089 37.0239C86.6764 37.0014 86.8114 37.0239 86.8789 37.0689L87.0813 37.1814C87.1488 37.2264 87.1713 37.2714 87.0813 37.2939L86.6089 37.4063C86.5414 37.4288 86.429 37.4063 86.339 37.3613Z" fill="#107264"/>
<path d="M86.9464 37.6764L86.744 37.5639C86.6765 37.5189 86.6765 37.474 86.744 37.4515L87.2164 37.339C87.2838 37.3165 87.4188 37.339 87.5088 37.384L87.7112 37.4965C87.8012 37.5414 87.8012 37.5864 87.7112 37.6089L87.2164 37.7214C87.1489 37.7439 87.0139 37.7214 86.9464 37.6764Z" fill="#107264"/>
<path d="M86.0916 32.5025L92.8624 35.3818L94.9769 29.3758L88.0936 27.0814L86.0916 32.5025Z" fill="#107264"/>
<path d="M71.4025 54.3895C71.8994 54.3895 72.3022 53.7853 72.3022 53.0399C72.3022 52.2945 71.8994 51.6902 71.4025 51.6902C70.9055 51.6902 70.5027 52.2945 70.5027 53.0399C70.5027 53.7853 70.9055 54.3895 71.4025 54.3895Z" fill="url(#paint44_linear_622_392)"/>
<path d="M71.6051 58.9332C72.102 58.9332 72.5049 58.329 72.5049 57.5836C72.5049 56.8382 72.102 56.2339 71.6051 56.2339C71.1082 56.2339 70.7053 56.8382 70.7053 57.5836C70.7053 58.329 71.1082 58.9332 71.6051 58.9332Z" fill="url(#paint45_linear_622_392)"/>
<path d="M77.7687 53.3322C78.2656 53.3322 78.6685 52.728 78.6685 51.9826C78.6685 51.2372 78.2656 50.6329 77.7687 50.6329C77.2717 50.6329 76.8689 51.2372 76.8689 51.9826C76.8689 52.728 77.2717 53.3322 77.7687 53.3322Z" fill="url(#paint46_linear_622_392)"/>
<path d="M78.5336 53.3322C79.0305 53.3322 79.4333 52.728 79.4333 51.9826C79.4333 51.2372 79.0305 50.6329 78.5336 50.6329C78.0366 50.6329 77.6338 51.2372 77.6338 51.9826C77.6338 52.728 78.0366 53.3322 78.5336 53.3322Z" fill="url(#paint47_linear_622_392)"/>
<path d="M89.5109 54.6818C90.0078 54.6818 90.4106 54.0776 90.4106 53.3322C90.4106 52.5868 90.0078 51.9825 89.5109 51.9825C89.0139 51.9825 88.6111 52.5868 88.6111 53.3322C88.6111 54.0776 89.0139 54.6818 89.5109 54.6818Z" fill="url(#paint48_linear_622_392)"/>
<path d="M87.1937 59.3157C87.6907 59.3157 88.0935 58.7114 88.0935 57.966C88.0935 57.2206 87.6907 56.6164 87.1937 56.6164C86.6968 56.6164 86.2939 57.2206 86.2939 57.966C86.2939 58.7114 86.6968 59.3157 87.1937 59.3157Z" fill="url(#paint49_linear_622_392)"/>
<path d="M71.6951 57.7411L71.4027 56.189C71.3577 55.9866 71.4927 55.7841 71.6951 55.7391L71.7851 55.7166L79.9056 53.4447C80.0406 53.3997 80.153 53.4222 80.288 53.4447L87.5087 55.7166L87.5762 55.7391C87.7337 55.7841 87.8461 55.9416 87.8237 56.0991L87.7562 57.7636L87.3063 57.8086L86.9689 56.1665L87.2838 56.5489L79.9056 54.9518H80.288L72.0326 56.6614L72.415 56.1665L72.1225 57.7186H71.6951V57.7411Z" fill="url(#paint50_linear_622_392)"/>
<path d="M89.7131 53.4897L89.5557 51.8701L89.9831 52.2075L80.2655 54.9518C80.1305 54.9968 80.018 54.9743 79.9056 54.9518L70.8403 52.275L71.3802 51.8476L71.1552 53.3997H70.7503L70.5254 51.8476C70.5029 51.6451 70.6379 51.4427 70.8628 51.3977C70.9078 51.3977 70.9528 51.3977 70.9978 51.3977L71.0653 51.4202L80.288 53.4222H79.9056L89.8256 51.5102H89.8706C90.0506 51.4652 90.208 51.6002 90.253 51.7576C90.253 51.7801 90.253 51.8251 90.253 51.8476L90.0955 53.4672H89.7131V53.4897Z" fill="url(#paint51_linear_622_392)"/>
<path d="M79.4331 54.6143L77.6111 51.1052L78.3759 50.8803L78.1959 52.4324H77.7461L77.5661 50.8803C77.5436 50.6553 77.7011 50.4754 77.9035 50.4304C78.0385 50.4079 78.1735 50.4754 78.2634 50.5878L78.3084 50.6553L80.7378 53.7595L79.4331 54.6143Z" fill="url(#paint52_linear_622_392)"/>
<path d="M80.7379 54.1419L80.5804 54.1644C80.2655 54.2094 79.9506 54.2094 79.6132 54.1644L79.4782 54.1419C79.3207 54.1194 79.2083 53.9845 79.2083 53.827V49.5306H80.9853V53.827C81.0078 53.962 80.8953 54.0969 80.7379 54.1419Z" fill="url(#paint53_linear_622_392)"/>
<path d="M81.0079 50.498L80.7829 50.543C80.333 50.6104 79.8606 50.6104 79.4107 50.543L79.2308 50.5205C79.0059 50.4755 78.8484 50.2955 78.8484 50.0706V43.9296H81.4128V50.0706C81.3903 50.273 81.2328 50.4755 81.0079 50.498Z" fill="url(#paint54_linear_622_392)"/>
<path d="M81.885 48.316L79.9954 47.2363L79.5231 46.9664L77.6785 45.9091L72.2349 42.8049L72.7972 37.4962V37.3837C72.8872 36.5964 72.9097 35.8091 72.9097 34.9993C72.9097 34.8419 72.9097 34.6619 72.9097 34.482L72.7972 28.431C72.7747 27.5087 73.3146 27.0363 73.9669 27.3962L80.0629 30.6579C80.7603 31.0178 81.3226 32.12 81.3226 33.0423L81.2551 38.3735L81.2326 39.4757C81.2326 40.308 81.2551 41.1853 81.3451 42.1076L81.3901 42.58L81.885 48.316Z" fill="url(#paint55_linear_622_392)"/>
<path d="M81.8851 48.316L80.1081 48.6759L80.0181 48.3835L79.5232 46.9663L79.3433 46.4265V45.6841L79.9056 46.269L81.8851 48.316Z" fill="url(#paint56_linear_622_392)"/>
<path d="M73.6523 27.3062H71.6953V28.5884L72.955 29.0833L73.6523 27.3062Z" fill="url(#paint57_linear_622_392)"/>
<path d="M80.1082 48.6759L77.1389 46.8763L71.4703 43.4572C70.8405 43.0748 70.4806 42.3549 70.5706 41.6351L71.0205 37.4287C71.0654 36.9788 71.1104 36.5064 71.1104 36.034C71.1329 35.6966 71.1329 35.3817 71.1329 35.0443C71.1329 34.8868 71.1329 34.7068 71.1329 34.5269L71.0205 28.4759C70.998 27.5536 71.5378 27.0812 72.1902 27.4411L78.2862 30.7028C78.9835 31.0627 79.5458 32.165 79.5458 33.0872L79.4784 38.4184V39.2957V39.4982C79.4784 39.6106 79.4784 39.7231 79.4784 39.8581C79.4784 40.5779 79.5234 41.3427 79.5908 42.13L80.1307 48.4509L80.1082 48.6759Z" fill="url(#paint58_linear_622_392)"/>
<path d="M71.6953 39.2282C71.8753 37.9235 71.8303 36.6188 71.8303 35.3142C71.8078 34.0095 71.7628 32.7048 71.6728 31.4001C71.6278 30.7478 71.5603 30.0955 71.6503 29.3981C71.6728 29.2182 71.7178 29.0382 71.8078 28.8583C71.8528 28.7683 71.9202 28.6783 72.0102 28.5883C72.1002 28.5208 72.2352 28.4759 72.3476 28.4534C72.5726 28.4309 72.775 28.4759 72.9325 28.5433C73.1124 28.6108 73.2474 28.6783 73.4049 28.7683C74.5746 29.3756 75.7443 29.9605 76.779 30.8153C75.4969 30.4329 74.3721 29.7805 73.2024 29.1732C73.045 29.0832 72.91 29.0157 72.775 28.9707C72.6401 28.9033 72.5051 28.8808 72.3926 28.9032C72.3027 28.9257 72.2352 28.9707 72.1902 29.0607C72.1452 29.1732 72.1002 29.3081 72.0777 29.4656C71.9877 30.073 72.0552 30.7253 72.0777 31.3776C72.1227 32.7048 72.1227 34.0095 72.0777 35.3142C72.0552 35.9665 72.0327 36.6188 71.9652 37.2712C71.9202 37.9235 71.8528 38.5759 71.6953 39.2282Z" fill="#664B35"/>
<path opacity="0.12" d="M80.0857 48.4284L80.0182 48.3834L77.3639 46.9663L77.1389 46.8538L71.4703 43.4346C70.8405 43.0522 70.4806 42.3324 70.5706 41.6126L71.0205 37.4061C71.0654 36.9562 71.1104 36.4839 71.1104 36.0115C71.5378 36.5288 72.1227 37.0462 72.7975 37.5186C74.912 38.9807 77.8588 39.9705 79.4559 39.2957V39.4981C79.4559 39.6106 79.4559 39.7231 79.4559 39.858C79.4559 40.5778 79.5009 41.3427 79.5683 42.13L79.9283 46.2914L80.0182 47.2587L80.0857 48.4284Z" fill="url(#paint59_linear_622_392)"/>
<path opacity="0.12" d="M81.8852 48.316L80.1306 48.6759L80.1081 48.4509L79.5683 42.13C79.5008 41.3427 79.4558 40.6004 79.4558 39.8581C79.6133 40.7129 80.4231 42.1075 81.3903 42.6024L81.8852 48.316Z" fill="url(#paint60_linear_622_392)"/>
<path d="M78.8707 28.5882L78.3084 28.9706L73.5396 22.9871L74.2369 22.5147L78.8707 27.7334V28.5882Z" fill="url(#paint61_linear_622_392)"/>
<path d="M78.5335 28.6108L77.7012 28.2734C76.9139 27.9585 76.1266 27.5311 75.3393 27.0137L74.507 26.4739C74.1471 26.2489 73.8997 25.6866 73.8997 25.1692V23.2122C73.8997 22.6948 74.1696 22.4249 74.507 22.5598L75.3393 22.8973C76.1266 23.2122 76.9139 23.6396 77.7012 24.1569L78.5335 24.6968C78.8934 24.9218 79.1409 25.4841 79.1409 26.0015V27.9585C79.1409 28.4759 78.8709 28.7458 78.5335 28.6108Z" fill="url(#paint62_linear_622_392)"/>
<path d="M77.971 28.9707L77.1387 28.6333C76.3514 28.3184 75.5641 27.891 74.7768 27.3736L73.9445 26.8337C73.5846 26.6088 73.3372 26.0464 73.3372 25.5291V23.572C73.3372 23.0547 73.6071 22.7847 73.9445 22.9197L74.7768 23.2571C75.5641 23.572 76.3514 23.9994 77.1387 24.5168L77.971 25.0567C78.3309 25.2816 78.5784 25.844 78.5784 26.3614V28.3184C78.6009 28.8357 78.3309 29.1282 77.971 28.9707Z" fill="url(#paint63_linear_622_392)"/>
<path d="M73.6297 24.2019C73.5847 24.0219 73.5847 23.8644 73.6297 23.662C73.6522 23.572 73.7197 23.4595 73.8321 23.4146C73.9446 23.3696 74.0571 23.3921 74.1471 23.4146C74.237 23.437 74.327 23.482 74.3945 23.527L74.6194 23.617C74.7769 23.6845 74.9344 23.752 75.0918 23.8195C75.4067 23.9544 75.6992 24.1344 75.9916 24.2918C76.284 24.4718 76.5765 24.6517 76.8464 24.8542L75.9466 24.4043C75.6542 24.2468 75.3393 24.1344 75.0243 23.9994L74.552 23.8195L74.3045 23.7295C74.2145 23.6845 74.1471 23.662 74.0796 23.6395C73.9221 23.5945 73.8546 23.5945 73.7871 23.7295C73.7422 23.8644 73.6972 24.0444 73.6297 24.2019Z" fill="#664B35"/>
<path d="M76.3515 29.2633C76.0816 29.2183 75.8116 29.0833 75.5642 28.8359C75.4742 28.7459 75.4067 28.6109 75.4067 28.4985V27.2613L76.509 27.8461V29.0833C76.509 29.1958 76.4415 29.2633 76.3515 29.2633Z" fill="#3B2D20"/>
<path d="M87.9811 59.3157C88.478 59.3157 88.8809 58.7114 88.8809 57.966C88.8809 57.2206 88.478 56.6164 87.9811 56.6164C87.4841 56.6164 87.0813 57.2206 87.0813 57.966C87.0813 58.7114 87.4841 59.3157 87.9811 59.3157Z" fill="url(#paint64_linear_622_392)"/>
<path d="M72.3697 58.9332C72.8667 58.9332 73.2695 58.329 73.2695 57.5836C73.2695 56.8382 72.8667 56.2339 72.3697 56.2339C71.8728 56.2339 71.47 56.8382 71.47 57.5836C71.47 58.329 71.8728 58.9332 72.3697 58.9332Z" fill="url(#paint65_linear_622_392)"/>
<path d="M70.6378 54.3895C71.1347 54.3895 71.5376 53.7853 71.5376 53.0399C71.5376 52.2945 71.1347 51.6902 70.6378 51.6902C70.1409 51.6902 69.738 52.2945 69.738 53.0399C69.738 53.7853 70.1409 54.3895 70.6378 54.3895Z" fill="url(#paint66_linear_622_392)"/>
<path d="M90.298 54.6818C90.7949 54.6818 91.1977 54.0776 91.1977 53.3322C91.1977 52.5868 90.7949 51.9825 90.298 51.9825C89.801 51.9825 89.3982 52.5868 89.3982 53.3322C89.3982 54.0776 89.801 54.6818 90.298 54.6818Z" fill="url(#paint67_linear_622_392)"/>
<path d="M97.3837 64.8721C97.3837 65.3444 98.8233 65.7268 100.6 65.7268C102.377 65.7268 103.817 65.3444 103.817 64.8721L104.717 55.8068H96.4614L97.3837 64.8721Z" fill="url(#paint68_linear_622_392)"/>
<path d="M100.623 56.4366C102.896 56.4366 104.739 56.1546 104.739 55.8068C104.739 55.4589 102.896 55.1769 100.623 55.1769C98.3494 55.1769 96.5063 55.4589 96.5063 55.8068C96.5063 56.1546 98.3494 56.4366 100.623 56.4366Z" fill="#107264"/>
<path d="M94.8643 42.2424C94.8643 42.6248 95.4491 42.9397 96.1689 42.9397C96.8888 42.9397 97.4736 42.6248 97.4736 42.2424L97.7885 38.9807H94.5269L94.8643 42.2424Z" fill="url(#paint69_linear_622_392)"/>
<path d="M97.7885 38.9806C97.7885 39.1156 97.6535 39.2505 97.4286 39.3405C97.1362 39.4755 96.6638 39.5655 96.1689 39.5655C95.6515 39.5655 95.2017 39.4755 94.9092 39.3405C94.6843 39.2505 94.5493 39.1156 94.5493 38.9806C94.5493 38.6657 95.2691 38.3958 96.1689 38.3958C97.0687 38.3958 97.7885 38.6657 97.7885 38.9806Z" fill="url(#paint70_linear_622_392)"/>
<path d="M95.8314 40.1053L94.9766 40.2628L94.3692 36.6862L94.3017 36.2813L94.1668 35.494C94.1443 35.359 94.2343 35.2465 94.3692 35.224L94.7516 35.1566C94.8866 35.1341 94.9991 35.224 95.0216 35.359L95.1565 36.1013L95.224 36.5287L95.8314 40.1053Z" fill="url(#paint71_linear_622_392)"/>
<path d="M94.8163 36.2124L94.7056 36.2323L95.4321 40.2841L95.5428 40.2643L94.8163 36.2124Z" fill="#136262"/>
<path d="M95.2241 36.5287L94.3468 36.6862L94.2793 36.3038L95.1341 36.1238L95.2241 36.5287Z" fill="url(#paint72_linear_622_392)"/>
<path d="M97.0463 36.2138L96.3714 40.3303L95.4941 40.1953L96.169 36.0789L96.8213 35.1791L97.0463 36.2138Z" fill="url(#paint73_linear_622_392)"/>
<path d="M97.046 36.2138L96.7761 36.4612L96.6411 36.2138L96.3712 36.4162L96.1687 36.0788L96.4611 35.6514L96.821 35.179L96.9335 35.7414L97.046 36.2138Z" fill="url(#paint74_linear_622_392)"/>
<path d="M96.9336 35.7414L96.4612 35.6514L96.8211 35.179L96.9336 35.7414Z" fill="#136262"/>
<path opacity="0.43" d="M19.2156 20.5579L12.9846 43.3673L53.2047 51.5328L70.098 29.8031L49.9205 7.84857L19.2156 20.5579Z" fill="url(#paint75_radial_622_392)"/>
<path d="M18.7207 19.2308L19.2156 20.558L22.6572 21.8626L49.9205 7.8486L49.4031 6.52142L18.7207 19.2308Z" fill="#136262"/>
<path d="M46.4338 5.44171L18.7207 19.2308L22.1624 20.513L49.4031 6.52144L46.4338 5.44171Z" fill="url(#paint76_linear_622_392)"/>
<path d="M24.367 17.9261C24.2321 17.9261 24.1421 17.8361 24.1421 17.7011V10.4354C24.1421 10.3005 24.2321 10.2105 24.367 10.2105C24.502 10.2105 24.592 10.3005 24.592 10.4354V17.7236C24.592 17.8361 24.502 17.9261 24.367 17.9261Z" fill="#136262"/>
<path d="M44.1395 8.07353C44.0045 8.07353 43.9146 7.98355 43.9146 7.84858V2.22497C43.9146 2.09001 44.0045 2.00003 44.1395 2.00003C44.2745 2.00003 44.3644 2.09001 44.3644 2.22497V7.84858C44.3644 7.98355 44.252 8.07353 44.1395 8.07353Z" fill="#136262"/>
<path opacity="0.43" d="M105.392 20.5579L111.623 43.3673L71.4026 51.5328L54.5317 29.8031L74.6868 7.84857L105.392 20.5579Z" fill="url(#paint77_radial_622_392)"/>
<path d="M105.909 19.2308L105.392 20.558L101.95 21.8626L74.6868 7.8486L75.2041 6.52142L105.909 19.2308Z" fill="#136262"/>
<path d="M78.1734 5.44171L105.909 19.2308L102.445 20.513L75.2041 6.52144L78.1734 5.44171Z" fill="url(#paint78_linear_622_392)"/>
<path d="M100.24 17.9261C100.105 17.9261 100.015 17.8361 100.015 17.7011V10.4354C100.015 10.3005 100.105 10.2105 100.24 10.2105C100.375 10.2105 100.465 10.3005 100.465 10.4354V17.7236C100.465 17.8361 100.375 17.9261 100.24 17.9261Z" fill="#136262"/>
<path d="M80.4903 8.07353C80.3554 8.07353 80.2654 7.98355 80.2654 7.84858V2.22497C80.2654 2.09001 80.3554 2.00003 80.4903 2.00003C80.6253 2.00003 80.7153 2.09001 80.7153 2.22497V7.84858C80.7153 7.98355 80.6028 8.07353 80.4903 8.07353Z" fill="#136262"/>
<defs>
<linearGradient id="paint0_linear_622_392" x1="61.9995" y1="6.40153" x2="61.9995" y2="127.085" gradientUnits="userSpaceOnUse">
<stop stop-color="#D9F2A5"/>
<stop offset="1" stop-color="#9CC079"/>
</linearGradient>
<linearGradient id="paint1_linear_622_392" x1="61.9995" y1="6.40153" x2="61.9995" y2="127.085" gradientUnits="userSpaceOnUse">
<stop stop-color="#D9F2A5"/>
<stop offset="1" stop-color="#9CC079"/>
</linearGradient>
<linearGradient id="paint2_linear_622_392" x1="61.9995" y1="89.3837" x2="61.9995" y2="109.666" gradientUnits="userSpaceOnUse">
<stop stop-color="#EDEDED"/>
<stop offset="0.5141" stop-color="#E9E9E9"/>
<stop offset="0.9955" stop-color="#DEDEDE"/>
</linearGradient>
<linearGradient id="paint3_linear_622_392" x1="62.8713" y1="87.7557" x2="61.5548" y2="115.255" gradientUnits="userSpaceOnUse">
<stop stop-color="#4F3C2B"/>
<stop offset="1" stop-color="#3B2D20"/>
</linearGradient>
<linearGradient id="paint4_linear_622_392" x1="51.8395" y1="108.259" x2="72.1588" y2="108.259" gradientUnits="userSpaceOnUse">
<stop stop-color="#4F3C2B"/>
<stop offset="1" stop-color="#3B2D20"/>
</linearGradient>
<linearGradient id="paint5_linear_622_392" x1="61.9997" y1="82.3185" x2="61.9997" y2="87.7949" gradientUnits="userSpaceOnUse">
<stop stop-color="#4F3C2B"/>
<stop offset="1" stop-color="#3B2D20"/>
</linearGradient>
<linearGradient id="paint6_linear_622_392" x1="30.2401" y1="55.7917" x2="30.2401" y2="63.7364" gradientUnits="userSpaceOnUse">
<stop stop-color="#4F3C2B"/>
<stop offset="1" stop-color="#3B2D20"/>
</linearGradient>
<linearGradient id="paint7_linear_622_392" x1="28.3359" y1="60.4647" x2="28.3359" y2="64.437" gradientUnits="userSpaceOnUse">
<stop stop-color="#634C36"/>
<stop offset="1" stop-color="#5C4633"/>
</linearGradient>
<linearGradient id="paint8_linear_622_392" x1="32.2234" y1="57.5408" x2="32.2234" y2="63.9986" gradientUnits="userSpaceOnUse">
<stop stop-color="#4F3C2B"/>
<stop offset="1" stop-color="#3B2D20"/>
</linearGradient>
<linearGradient id="paint9_linear_622_392" x1="24.739" y1="45.9209" x2="24.739" y2="60.9072" gradientUnits="userSpaceOnUse">
<stop stop-color="#EDEDED"/>
<stop offset="0.5141" stop-color="#E9E9E9"/>
<stop offset="0.9955" stop-color="#DEDEDE"/>
</linearGradient>
<linearGradient id="paint10_linear_622_392" x1="43.4108" y1="71.2013" x2="43.4108" y2="68.4984" gradientUnits="userSpaceOnUse">
<stop stop-color="#4F3C2B"/>
<stop offset="1" stop-color="#3B2D20"/>
</linearGradient>
<linearGradient id="paint11_linear_622_392" x1="43.2081" y1="75.7643" x2="43.2081" y2="73.0614" gradientUnits="userSpaceOnUse">
<stop stop-color="#4F3C2B"/>
<stop offset="1" stop-color="#3B2D20"/>
</linearGradient>
<linearGradient id="paint12_linear_622_392" x1="37.0433" y1="70.1597" x2="37.0433" y2="67.4569" gradientUnits="userSpaceOnUse">
<stop stop-color="#4F3C2B"/>
<stop offset="1" stop-color="#3B2D20"/>
</linearGradient>
<linearGradient id="paint13_linear_622_392" x1="36.2728" y1="70.1597" x2="36.2728" y2="67.4569" gradientUnits="userSpaceOnUse">
<stop stop-color="#4F3C2B"/>
<stop offset="1" stop-color="#3B2D20"/>
</linearGradient>
<linearGradient id="paint14_linear_622_392" x1="25.2968" y1="71.5111" x2="25.2968" y2="68.8082" gradientUnits="userSpaceOnUse">
<stop stop-color="#4F3C2B"/>
<stop offset="1" stop-color="#3B2D20"/>
</linearGradient>
<linearGradient id="paint15_linear_622_392" x1="27.6132" y1="76.129" x2="27.6132" y2="73.4261" gradientUnits="userSpaceOnUse">
<stop stop-color="#4F3C2B"/>
<stop offset="1" stop-color="#3B2D20"/>
</linearGradient>
<linearGradient id="paint16_linear_622_392" x1="35.2085" y1="74.6751" x2="35.2085" y2="70.2382" gradientUnits="userSpaceOnUse">
<stop stop-color="#4F3C2B"/>
<stop offset="1" stop-color="#3B2D20"/>
</linearGradient>
<linearGradient id="paint17_linear_622_392" x1="44.646" y1="70.0172" x2="24.1323" y2="70.0172" gradientUnits="userSpaceOnUse">
<stop stop-color="#4F3C2B"/>
<stop offset="1" stop-color="#3B2D20"/>
</linearGradient>
<linearGradient id="paint18_linear_622_392" x1="37.6316" y1="69.3566" x2="34.0677" y2="69.3566" gradientUnits="userSpaceOnUse">
<stop stop-color="#4F3C2B"/>
<stop offset="1" stop-color="#3B2D20"/>
</linearGradient>
<linearGradient id="paint19_linear_622_392" x1="34.7022" y1="71.1193" x2="34.7022" y2="69.4587" gradientUnits="userSpaceOnUse">
<stop stop-color="#4F3C2B"/>
<stop offset="1" stop-color="#3B2D20"/>
</linearGradient>
<linearGradient id="paint20_linear_622_392" x1="34.7024" y1="67.5594" x2="34.7024" y2="65.185" gradientUnits="userSpaceOnUse">
<stop stop-color="#4F3C2B"/>
<stop offset="1" stop-color="#3B2D20"/>
</linearGradient>
<linearGradient id="paint21_linear_622_392" x1="36.9012" y1="43.1648" x2="37.9189" y2="64.4237" gradientUnits="userSpaceOnUse">
<stop stop-color="#634C36"/>
<stop offset="1" stop-color="#5C4633"/>
</linearGradient>
<linearGradient id="paint22_linear_622_392" x1="34.1425" y1="62.4014" x2="34.288" y2="65.4397" gradientUnits="userSpaceOnUse">
<stop stop-color="#634C36"/>
<stop offset="1" stop-color="#5C4633"/>
</linearGradient>
<linearGradient id="paint23_linear_622_392" x1="42.1397" y1="43.9734" x2="42.2289" y2="45.837" gradientUnits="userSpaceOnUse">
<stop stop-color="#634C36"/>
<stop offset="1" stop-color="#5C4633"/>
</linearGradient>
<linearGradient id="paint24_linear_622_392" x1="38.6719" y1="43.1463" x2="39.7068" y2="64.7645" gradientUnits="userSpaceOnUse">
<stop stop-color="#4F3C2B"/>
<stop offset="1" stop-color="#3B2D20"/>
</linearGradient>
<linearGradient id="paint25_linear_622_392" x1="44.253" y1="59.0425" x2="34.7229" y2="59.0425" gradientUnits="userSpaceOnUse">
<stop stop-color="#4F3C2B"/>
<stop offset="1" stop-color="#3B2D20"/>
</linearGradient>
<linearGradient id="paint26_linear_622_392" x1="35.372" y1="61.0808" x2="32.939" y2="61.0808" gradientUnits="userSpaceOnUse">
<stop stop-color="#4F3C2B"/>
<stop offset="1" stop-color="#3B2D20"/>
</linearGradient>
<linearGradient id="paint27_linear_622_392" x1="38.6103" y1="39.4496" x2="38.6103" y2="44.8444" gradientUnits="userSpaceOnUse">
<stop stop-color="#634C36"/>
<stop offset="1" stop-color="#5C4633"/>
</linearGradient>
<linearGradient id="paint28_linear_622_392" x1="38.3129" y1="40.3451" x2="39.7396" y2="43.1909" gradientUnits="userSpaceOnUse">
<stop stop-color="#634C36"/>
<stop offset="1" stop-color="#5C4633"/>
</linearGradient>
<linearGradient id="paint29_linear_622_392" x1="38.8585" y1="40.7143" x2="40.2851" y2="43.5601" gradientUnits="userSpaceOnUse">
<stop stop-color="#4F3C2B"/>
<stop offset="1" stop-color="#3B2D20"/>
</linearGradient>
<linearGradient id="paint30_linear_622_392" x1="26.8429" y1="76.129" x2="26.8429" y2="73.4261" gradientUnits="userSpaceOnUse">
<stop stop-color="#4F3C2B"/>
<stop offset="1" stop-color="#3B2D20"/>
</linearGradient>
<linearGradient id="paint31_linear_622_392" x1="42.4374" y1="75.7643" x2="42.4374" y2="73.0614" gradientUnits="userSpaceOnUse">
<stop stop-color="#4F3C2B"/>
<stop offset="1" stop-color="#3B2D20"/>
</linearGradient>
<linearGradient id="paint32_linear_622_392" x1="44.1816" y1="71.2013" x2="44.1816" y2="68.4984" gradientUnits="userSpaceOnUse">
<stop stop-color="#4F3C2B"/>
<stop offset="1" stop-color="#3B2D20"/>
</linearGradient>
<linearGradient id="paint33_linear_622_392" x1="24.5262" y1="71.5111" x2="24.5262" y2="68.8082" gradientUnits="userSpaceOnUse">
<stop stop-color="#4F3C2B"/>
<stop offset="1" stop-color="#3B2D20"/>
</linearGradient>
<linearGradient id="paint34_linear_622_392" x1="11.1538" y1="56.145" x2="19.833" y2="56.8079" gradientUnits="userSpaceOnUse">
<stop stop-color="#73573F"/>
<stop offset="1" stop-color="#4E3B2B"/>
</linearGradient>
<linearGradient id="paint35_linear_622_392" x1="11.396" y1="52.9661" x2="20.0762" y2="53.6291" gradientUnits="userSpaceOnUse">
<stop stop-color="#4F3C2B"/>
<stop offset="1" stop-color="#3B2D20"/>
</linearGradient>
<linearGradient id="paint36_linear_622_392" x1="13.0482" y1="49.626" x2="17.6489" y2="49.626" gradientUnits="userSpaceOnUse">
<stop stop-color="#1CA698"/>
<stop offset="0.9972" stop-color="#118276"/>
</linearGradient>
<linearGradient id="paint37_linear_622_392" x1="19.442" y1="52.3107" x2="16.3526" y2="51.6498" gradientUnits="userSpaceOnUse">
<stop stop-color="#1CA698"/>
<stop offset="0.9972" stop-color="#118276"/>
</linearGradient>
<linearGradient id="paint38_linear_622_392" x1="84.5753" y1="38.9727" x2="84.5753" y2="46.9174" gradientUnits="userSpaceOnUse">
<stop stop-color="#4F3C2B"/>
<stop offset="1" stop-color="#3B2D20"/>
</linearGradient>
<linearGradient id="paint39_linear_622_392" x1="86.4795" y1="43.6458" x2="86.4795" y2="47.6181" gradientUnits="userSpaceOnUse">
<stop stop-color="#634C36"/>
<stop offset="1" stop-color="#5C4633"/>
</linearGradient>
<linearGradient id="paint40_linear_622_392" x1="82.5921" y1="40.7219" x2="82.5921" y2="47.1797" gradientUnits="userSpaceOnUse">
<stop stop-color="#4F3C2B"/>
<stop offset="1" stop-color="#3B2D20"/>
</linearGradient>
<linearGradient id="paint41_linear_622_392" x1="90.0764" y1="29.1019" x2="90.0764" y2="44.0882" gradientUnits="userSpaceOnUse">
<stop stop-color="#EDEDED"/>
<stop offset="0.5141" stop-color="#E9E9E9"/>
<stop offset="0.9955" stop-color="#DEDEDE"/>
</linearGradient>
<linearGradient id="paint42_linear_622_392" x1="87.5149" y1="26.9219" x2="94.2185" y2="37.3971" gradientUnits="userSpaceOnUse">
<stop stop-color="#1CA698"/>
<stop offset="0.9972" stop-color="#118276"/>
</linearGradient>
<linearGradient id="paint43_linear_622_392" x1="85.7804" y1="33.3076" x2="85.7804" y2="39.378" gradientUnits="userSpaceOnUse">
<stop stop-color="#1CA698"/>
<stop offset="0.9972" stop-color="#118276"/>
</linearGradient>
<linearGradient id="paint44_linear_622_392" x1="71.4044" y1="54.3822" x2="71.4044" y2="51.6793" gradientUnits="userSpaceOnUse">
<stop stop-color="#4F3C2B"/>
<stop offset="1" stop-color="#3B2D20"/>
</linearGradient>
<linearGradient id="paint45_linear_622_392" x1="71.6075" y1="58.9451" x2="71.6075" y2="56.2422" gradientUnits="userSpaceOnUse">
<stop stop-color="#4F3C2B"/>
<stop offset="1" stop-color="#3B2D20"/>
</linearGradient>
<linearGradient id="paint46_linear_622_392" x1="77.7724" y1="53.3406" x2="77.7724" y2="50.6378" gradientUnits="userSpaceOnUse">
<stop stop-color="#4F3C2B"/>
<stop offset="1" stop-color="#3B2D20"/>
</linearGradient>
<linearGradient id="paint47_linear_622_392" x1="78.5429" y1="53.3406" x2="78.5429" y2="50.6378" gradientUnits="userSpaceOnUse">
<stop stop-color="#4F3C2B"/>
<stop offset="1" stop-color="#3B2D20"/>
</linearGradient>
<linearGradient id="paint48_linear_622_392" x1="89.5189" y1="54.692" x2="89.5189" y2="51.9891" gradientUnits="userSpaceOnUse">
<stop stop-color="#4F3C2B"/>
<stop offset="1" stop-color="#3B2D20"/>
</linearGradient>
<linearGradient id="paint49_linear_622_392" x1="87.2023" y1="59.3099" x2="87.2023" y2="56.607" gradientUnits="userSpaceOnUse">
<stop stop-color="#4F3C2B"/>
<stop offset="1" stop-color="#3B2D20"/>
</linearGradient>
<linearGradient id="paint50_linear_622_392" x1="79.607" y1="57.856" x2="79.607" y2="53.4192" gradientUnits="userSpaceOnUse">
<stop stop-color="#4F3C2B"/>
<stop offset="1" stop-color="#3B2D20"/>
</linearGradient>
<linearGradient id="paint51_linear_622_392" x1="70.1695" y1="53.1984" x2="90.6833" y2="53.1984" gradientUnits="userSpaceOnUse">
<stop stop-color="#4F3C2B"/>
<stop offset="1" stop-color="#3B2D20"/>
</linearGradient>
<linearGradient id="paint52_linear_622_392" x1="77.1839" y1="52.5374" x2="80.7478" y2="52.5374" gradientUnits="userSpaceOnUse">
<stop stop-color="#4F3C2B"/>
<stop offset="1" stop-color="#3B2D20"/>
</linearGradient>
<linearGradient id="paint53_linear_622_392" x1="80.1133" y1="54.3002" x2="80.1133" y2="52.6396" gradientUnits="userSpaceOnUse">
<stop stop-color="#4F3C2B"/>
<stop offset="1" stop-color="#3B2D20"/>
</linearGradient>
<linearGradient id="paint54_linear_622_392" x1="80.1134" y1="50.7405" x2="80.1134" y2="48.3661" gradientUnits="userSpaceOnUse">
<stop stop-color="#4F3C2B"/>
<stop offset="1" stop-color="#3B2D20"/>
</linearGradient>
<linearGradient id="paint55_linear_622_392" x1="77.9141" y1="26.3457" x2="76.8964" y2="47.6046" gradientUnits="userSpaceOnUse">
<stop stop-color="#634C36"/>
<stop offset="1" stop-color="#5C4633"/>
</linearGradient>
<linearGradient id="paint56_linear_622_392" x1="80.6732" y1="45.5824" x2="80.5278" y2="48.6207" gradientUnits="userSpaceOnUse">
<stop stop-color="#634C36"/>
<stop offset="1" stop-color="#5C4633"/>
</linearGradient>
<linearGradient id="paint57_linear_622_392" x1="72.6762" y1="27.1543" x2="72.5869" y2="29.018" gradientUnits="userSpaceOnUse">
<stop stop-color="#634C36"/>
<stop offset="1" stop-color="#5C4633"/>
</linearGradient>
<linearGradient id="paint58_linear_622_392" x1="76.1439" y1="26.3272" x2="75.109" y2="47.9454" gradientUnits="userSpaceOnUse">
<stop stop-color="#4F3C2B"/>
<stop offset="1" stop-color="#3B2D20"/>
</linearGradient>
<linearGradient id="paint59_linear_622_392" x1="70.563" y1="42.2235" x2="80.093" y2="42.2235" gradientUnits="userSpaceOnUse">
<stop stop-color="#4F3C2B"/>
<stop offset="1" stop-color="#3B2D20"/>
</linearGradient>
<linearGradient id="paint60_linear_622_392" x1="79.4439" y1="44.2616" x2="81.8768" y2="44.2616" gradientUnits="userSpaceOnUse">
<stop stop-color="#4F3C2B"/>
<stop offset="1" stop-color="#3B2D20"/>
</linearGradient>
<linearGradient id="paint61_linear_622_392" x1="76.2051" y1="22.6303" x2="76.2051" y2="28.0251" gradientUnits="userSpaceOnUse">
<stop stop-color="#634C36"/>
<stop offset="1" stop-color="#5C4633"/>
</linearGradient>
<linearGradient id="paint62_linear_622_392" x1="76.5043" y1="23.5271" x2="75.0776" y2="26.3728" gradientUnits="userSpaceOnUse">
<stop stop-color="#634C36"/>
<stop offset="1" stop-color="#5C4633"/>
</linearGradient>
<linearGradient id="paint63_linear_622_392" x1="75.9585" y1="23.8962" x2="74.5319" y2="26.742" gradientUnits="userSpaceOnUse">
<stop stop-color="#4F3C2B"/>
<stop offset="1" stop-color="#3B2D20"/>
</linearGradient>
<linearGradient id="paint64_linear_622_392" x1="87.9728" y1="59.3099" x2="87.9728" y2="56.607" gradientUnits="userSpaceOnUse">
<stop stop-color="#4F3C2B"/>
<stop offset="1" stop-color="#3B2D20"/>
</linearGradient>
<linearGradient id="paint65_linear_622_392" x1="72.3778" y1="58.9451" x2="72.3778" y2="56.2422" gradientUnits="userSpaceOnUse">
<stop stop-color="#4F3C2B"/>
<stop offset="1" stop-color="#3B2D20"/>
</linearGradient>
<linearGradient id="paint66_linear_622_392" x1="70.6341" y1="54.3822" x2="70.6341" y2="51.6793" gradientUnits="userSpaceOnUse">
<stop stop-color="#4F3C2B"/>
<stop offset="1" stop-color="#3B2D20"/>
</linearGradient>
<linearGradient id="paint67_linear_622_392" x1="90.2892" y1="54.692" x2="90.2892" y2="51.9891" gradientUnits="userSpaceOnUse">
<stop stop-color="#4F3C2B"/>
<stop offset="1" stop-color="#3B2D20"/>
</linearGradient>
<linearGradient id="paint68_linear_622_392" x1="100.671" y1="54.7586" x2="99.9974" y2="67.1943" gradientUnits="userSpaceOnUse">
<stop stop-color="#1CA698"/>
<stop offset="0.9972" stop-color="#118276"/>
</linearGradient>
<linearGradient id="paint69_linear_622_392" x1="94.4085" y1="40.7702" x2="97.6447" y2="41.0174" gradientUnits="userSpaceOnUse">
<stop stop-color="#73573F"/>
<stop offset="1" stop-color="#4E3B2B"/>
</linearGradient>
<linearGradient id="paint70_linear_622_392" x1="94.5539" y1="38.8621" x2="97.7907" y2="39.1093" gradientUnits="userSpaceOnUse">
<stop stop-color="#4F3C2B"/>
<stop offset="1" stop-color="#3B2D20"/>
</linearGradient>
<linearGradient id="paint71_linear_622_392" x1="93.9832" y1="37.6476" x2="96.0133" y2="37.8027" gradientUnits="userSpaceOnUse">
<stop stop-color="#1CA698"/>
<stop offset="0.9972" stop-color="#118276"/>
</linearGradient>
<linearGradient id="paint72_linear_622_392" x1="94.281" y1="36.3705" x2="95.2251" y2="36.4426" gradientUnits="userSpaceOnUse">
<stop stop-color="#EDEDED"/>
<stop offset="0.5141" stop-color="#E9E9E9"/>
<stop offset="0.9955" stop-color="#DEDEDE"/>
</linearGradient>
<linearGradient id="paint73_linear_622_392" x1="95.6928" y1="37.6861" x2="96.9168" y2="37.7796" gradientUnits="userSpaceOnUse">
<stop stop-color="#1CA698"/>
<stop offset="0.9972" stop-color="#118276"/>
</linearGradient>
<linearGradient id="paint74_linear_622_392" x1="96.1947" y1="35.7741" x2="97.0646" y2="35.8406" gradientUnits="userSpaceOnUse">
<stop stop-color="#EDEDED"/>
<stop offset="0.5141" stop-color="#E9E9E9"/>
<stop offset="0.9955" stop-color="#DEDEDE"/>
</linearGradient>
<radialGradient id="paint75_radial_622_392" cx="0" cy="0" r="1" gradientUnits="userSpaceOnUse" gradientTransform="translate(34.1375 15.5048) scale(38.8276 29.6022)">
<stop offset="0.0644196" stop-color="#F5FFDC"/>
<stop offset="1" stop-color="#F5FFDC" stop-opacity="0"/>
</radialGradient>
<linearGradient id="paint76_linear_622_392" x1="18.7095" y1="12.9792" x2="49.4124" y2="12.9792" gradientUnits="userSpaceOnUse">
<stop stop-color="#1CA698"/>
<stop offset="0.9972" stop-color="#118276"/>
</linearGradient>
<radialGradient id="paint77_radial_622_392" cx="0" cy="0" r="1" gradientUnits="userSpaceOnUse" gradientTransform="translate(90.478 15.5048) rotate(180) scale(38.8277 29.6022)">
<stop offset="0.0644196" stop-color="#F5FFDC"/>
<stop offset="1" stop-color="#F5FFDC" stop-opacity="0"/>
</radialGradient>
<linearGradient id="paint78_linear_622_392" x1="105.906" y1="12.9792" x2="75.2031" y2="12.9792" gradientUnits="userSpaceOnUse">
<stop stop-color="#1CA698"/>
<stop offset="0.9972" stop-color="#118276"/>
</linearGradient>
</defs>
</svg>
