<svg width="124" height="115" viewBox="0 0 124 115" fill="none" xmlns="http://www.w3.org/2000/svg">
<path d="M62.1777 113.37C54.7654 113.37 47.3531 112.908 39.9929 111.981L32.0933 110.988C25.6509 110.177 20.1262 106.198 17.3208 100.342L3.1057 70.6886C0.11901 64.4569 1.24072 57.1692 5.96548 52.1249L48.1643 7.07535C51.781 3.21395 56.8887 1 62.1777 1C67.4668 1 72.5745 3.21395 76.1911 7.07535L118.39 52.1249C123.115 57.1692 124.239 64.4546 121.25 70.6886L107.035 100.342C104.227 106.198 98.7046 110.179 92.2621 110.988L84.3626 111.981C77.0001 112.908 69.5901 113.37 62.1777 113.37Z" stroke="#D9F2A5" stroke-width="2" stroke-miterlimit="10"/>
<mask id="mask0_608_653" style="mask-type:alpha" maskUnits="userSpaceOnUse" x="5" y="4" width="114" height="106">
<path d="M50.6565 9.68275L9.01647 54.1357C5.30237 58.1003 4.40347 63.9364 6.75134 68.8356L20.7782 98.0967C23.059 102.855 27.6004 106.129 32.8373 106.786L40.6322 107.765C54.9005 109.559 69.3365 109.559 83.6049 107.765L91.3998 106.786C96.6344 106.129 101.178 102.855 103.459 98.0967L117.486 68.8356C119.834 63.9386 118.935 58.1003 115.221 54.1357L73.5806 9.68275C67.3755 3.05953 56.8615 3.05953 50.6565 9.68275Z" fill="#EDEDED"/>
</mask>
<g mask="url(#mask0_608_653)">
<path d="M50.6565 9.68275L9.01647 54.1357C5.30237 58.1003 4.40347 63.9364 6.75134 68.8356L20.7782 98.0967C23.059 102.855 27.6004 106.129 32.8373 106.786L40.6322 107.765C54.9005 109.559 69.3365 109.559 83.6049 107.765L91.3998 106.786C96.6344 106.129 101.178 102.855 103.459 98.0967L117.486 68.8356C119.834 63.9386 118.935 58.1003 115.221 54.1357L73.5806 9.68275C67.3755 3.05953 56.8615 3.05953 50.6565 9.68275Z" fill="url(#paint0_linear_608_653)"/>
<path d="M50.6565 9.68275L9.01647 54.1357C5.30237 58.1003 4.40347 63.9364 6.75134 68.8356L20.7782 98.0967C23.059 102.855 27.6004 106.129 32.8373 106.786L40.6322 107.765C54.9005 109.559 69.3365 109.559 83.6049 107.765L91.3998 106.786C96.6344 106.129 101.178 102.855 103.459 98.0967L117.486 68.8356C119.834 63.9386 118.935 58.1003 115.221 54.1357L73.5806 9.68275C67.3755 3.05953 56.8615 3.05953 50.6565 9.68275Z" fill="url(#paint1_linear_608_653)"/>
<path d="M21.5854 99.5658L117.969 58.5966L120.209 57.6441L120.94 73.699L100.845 103.273L76.9817 112.408L31.5359 110.464L22.3949 103.387L21.5854 99.5658Z" fill="url(#paint2_linear_608_653)"/>
<path d="M131.904 52.6756L17.8354 101.16L-28.5741 78.6229H-28.5764L-30.761 77.5607L117.416 52.6756H131.904Z" fill="url(#paint3_linear_608_653)"/>
<path d="M62.4718 116.522C84.6057 116.522 102.549 111.281 102.549 104.816C102.549 98.3512 84.6057 93.1103 62.4718 93.1103C40.3379 93.1103 22.3948 98.3512 22.3948 104.816C22.3948 111.281 40.3379 116.522 62.4718 116.522Z" fill="url(#paint4_linear_608_653)"/>
<path d="M74.5755 99.1745V110.464H50.3679V99.1745C50.3679 97.4841 51.6089 96.0507 53.2815 95.8092L56.5931 95.3307C60.4928 94.765 64.4506 94.765 68.3503 95.3307L71.662 95.8092C72.8739 95.9837 73.8578 96.7842 74.3095 97.8552C74.3117 97.8597 74.3117 97.862 74.3139 97.8664V97.8709C74.39 98.0475 74.4481 98.2331 74.4928 98.4232C74.5465 98.6647 74.5755 98.9174 74.5755 99.1745Z" fill="url(#paint5_linear_608_653)"/>
<path d="M74.5755 99.1745V110.464H50.3679V107.846C61.4767 106.442 75.0362 99.7917 74.3139 97.8709L74.4928 98.4232C74.5465 98.6647 74.5755 98.9174 74.5755 99.1745Z" fill="#2D2218"/>
<path d="M64.2404 111.564H60.7007V98.9777C60.7007 98.7697 60.8527 98.5953 61.0562 98.564L61.499 98.4992C62.1429 98.403 62.7959 98.403 63.4399 98.4992L63.8826 98.564C64.0883 98.5953 64.2381 98.7697 64.2381 98.9777V111.564H64.2404Z" fill="#EDEDED"/>
<path d="M67.0444 99.3287V111.683H70.5237L69.8731 99.8944C69.8417 99.4494 69.4974 99.0917 69.0547 99.0447L67.5453 98.8793C67.277 98.8524 67.0444 99.0604 67.0444 99.3287Z" fill="#EDEDED"/>
<path d="M57.899 99.3287V111.683H54.4197L55.0704 99.8944C55.1017 99.4494 55.446 99.0917 55.8888 99.0447L57.3981 98.8793C57.6664 98.8524 57.899 99.0604 57.899 99.3287Z" fill="#EDEDED"/>
<path d="M3.79087 71.7492L1.06958 63.5965L114.662 51.5486L117.416 52.6755L114.776 53.3754L3.79087 71.7492Z" fill="#EFBA7F"/>
<path d="M122.432 52.6756L122.425 52.6979L-28.5741 78.6229H-28.5764L-30.761 77.5607L117.416 52.6756H122.432Z" fill="#5E5E5E"/>
<path d="M67.2568 67.8718L70.6624 68.2184L85.3108 63.9452L82.8355 63.5696L67.2568 67.8718Z" fill="#D9F2A5"/>
<path d="M90.3958 61.5169L92.9672 61.7785L102.593 58.9968L100.682 58.7084L90.3958 61.5169Z" fill="#D9F2A5"/>
<path d="M39.6819 75.329L44.0087 75.7695L59.8914 71.2214L56.5888 70.7227L39.6819 75.329Z" fill="#D9F2A5"/>
<path d="M7.8291 84.0095L13.2918 84.564L32.4795 79.07L28.2824 78.4372L7.8291 84.0095Z" fill="#D9F2A5"/>
<path d="M116.323 54.4464L107.267 56.8122L109.257 57.0156L117.741 54.6588L116.323 54.4464Z" fill="#D9F2A5"/>
<path d="M67.6907 56.5305V5.73386L74.9378 6.44269V55.7613L67.6907 56.5305Z" fill="url(#paint6_linear_608_653)"/>
<path d="M74.9378 55.7613L67.6907 54.7215V56.5305L74.9378 55.7613Z" fill="#EFBA7F"/>
<path d="M36.4463 33.1748L47.5081 32.6695L47.4611 58.6526L36.4463 59.8444V33.1748Z" fill="#1CA698"/>
<path d="M46.2356 47.4968L37.96 48.0715V36.1644L46.2356 35.8737V47.4968Z" fill="#136262"/>
<path d="M46.2356 58.7688L37.96 59.6006V49.5584L46.2356 48.9837V58.7688Z" fill="#136262"/>
<path d="M36.4463 33.1748L38.9641 34.0469L49.8537 33.6109L47.5081 32.6695L36.4463 33.1748Z" fill="#D9F2A5"/>
<path d="M38.9641 34.0469C39.5701 34.2884 39.9077 35.1112 39.6416 36.3701C40.8759 36.587 49.8537 35.8626 49.8537 35.8626C49.8537 35.8626 50.6386 33.9261 49.8537 33.6108C48.0403 33.271 38.9641 34.0469 38.9641 34.0469Z" fill="#D9F2A5"/>
<path d="M48.3869 36.0436V58.6547L47.4612 58.3931V36.0436H48.3869Z" fill="#A0A0A0"/>
<path d="M48.7737 58.7017L36.4463 59.8443V59.3613L47.4343 58.2724L48.7737 58.7017Z" fill="#EFBA7F"/>
<path d="M60.5397 9.88168V27.2358L53.9165 27.5421V10.1858L60.5397 9.88168Z" fill="#136262"/>
<path d="M59.8913 26.4554L54.5627 26.7014V10.87L59.8913 10.6263V26.4554Z" fill="#D9F2A5"/>
<path d="M57.3398 10.3356H57.1162V27.2358H57.3398V10.3356Z" fill="#136262"/>
<path d="M60.3489 18.4579L54.3342 18.7047L54.3434 18.9281L60.3581 18.6813L60.3489 18.4579Z" fill="#136262"/>
<path opacity="0.15" d="M60.5397 10.3379V27.2358L53.9165 27.5422V24.4877L60.5397 10.3379Z" fill="#136262"/>
<path opacity="0.15" d="M58.7308 9.96225L53.9165 18.8909V15.7514L57.1722 10.0338L58.7308 9.96225Z" fill="#136262"/>
<path opacity="0.15" d="M55.7411 10.1008L53.9165 12.84V10.1836L55.7411 10.1008Z" fill="#136262"/>
<path d="M48.4562 10.6263V27.9804L41.833 28.2868V10.9304L48.4562 10.6263Z" fill="#136262"/>
<path d="M47.8078 27.2L42.4792 27.446V11.6146L47.8078 11.3709V27.2Z" fill="#D9F2A5"/>
<path d="M45.2566 11.0825H45.033V27.9804H45.2566V11.0825Z" fill="#136262"/>
<path d="M48.2649 19.2027L42.2502 19.4495L42.2594 19.673L48.2741 19.4262L48.2649 19.2027Z" fill="#136262"/>
<path opacity="0.15" d="M48.4562 11.0825V27.9804L41.833 28.2868V25.2323L48.4562 11.0825Z" fill="#136262"/>
<path opacity="0.15" d="M46.6473 10.7091L41.833 19.6354V16.496L45.0887 10.7806L46.6473 10.7091Z" fill="#136262"/>
<path opacity="0.15" d="M43.6576 10.8454L41.833 13.5846V10.9304L43.6576 10.8454Z" fill="#136262"/>
<path d="M36.3725 11.371V28.7251L29.7493 29.0314V11.6751L36.3725 11.371Z" fill="#136262"/>
<path d="M35.724 27.9447L30.3955 28.1907V12.3616L35.724 12.1156V27.9447Z" fill="#D9F2A5"/>
<path d="M33.1706 11.8271H32.947V28.7251H33.1706V11.8271Z" fill="#136262"/>
<path d="M36.1807 19.9477L30.166 20.1945L30.1752 20.4179L36.1899 20.1711L36.1807 19.9477Z" fill="#136262"/>
<path opacity="0.15" d="M36.3725 11.8271V28.7251L29.7493 29.0314V25.9769L36.3725 11.8271Z" fill="#136262"/>
<path opacity="0.15" d="M34.5636 11.4537L29.7471 20.3823V17.2407L33.005 11.5253L34.5636 11.4537Z" fill="#136262"/>
<path opacity="0.15" d="M31.5717 11.5901L29.7471 14.3293V11.6751L31.5717 11.5901Z" fill="#136262"/>
<path d="M107.464 85.1812C107.186 85.1812 106.945 84.9732 106.909 84.6915L105.914 76.6819C105.822 75.9485 105.308 75.3358 104.604 75.1166L97.4261 72.894C96.6412 72.6525 95.8005 72.941 95.3286 73.6118L90.3243 80.7515C90.1477 81.0042 89.7989 81.0668 89.5462 80.8879C89.2935 80.7113 89.2309 80.3625 89.4098 80.1098L94.4141 72.97C95.1654 71.8989 96.5093 71.4383 97.757 71.8252L104.935 74.0478C106.06 74.3966 106.88 75.376 107.025 76.5433L108.021 84.5528C108.059 84.8592 107.842 85.1387 107.535 85.1767C107.511 85.1789 107.486 85.1812 107.464 85.1812Z" fill="#EDEDED"/>
<path d="M113.479 82.3951C113.201 82.3951 112.96 82.1871 112.924 81.9054L111.929 73.8958C111.837 73.1624 111.323 72.5475 110.619 72.3306L103.441 70.1079C102.656 69.8664 101.813 70.1526 101.344 70.8257L96.3392 77.9655C96.1626 78.2181 95.8137 78.2807 95.5611 78.1019C95.3084 77.9252 95.2458 77.5764 95.4247 77.3237L100.429 70.1839C101.18 69.1129 102.522 68.6522 103.774 69.0391L110.952 71.2617C112.077 71.6106 112.897 72.59 113.043 73.7572L114.038 81.7668C114.076 82.0731 113.859 82.3526 113.552 82.3906C113.526 82.3951 113.501 82.3951 113.479 82.3951Z" fill="#EDEDED"/>
<path d="M118.438 80.244C118.161 80.244 117.919 80.0361 117.884 79.7543L116.889 71.7447C116.797 71.0113 116.283 70.3986 115.578 70.1795L108.4 67.9569C107.616 67.7154 106.773 68.0038 106.303 68.6746L101.299 75.8144C101.122 76.0671 100.773 76.1297 100.521 75.9508C100.268 75.7741 100.205 75.4253 100.384 75.1726L105.386 68.0329C106.138 66.9618 107.481 66.5034 108.729 66.888L115.907 69.1107C117.032 69.4595 117.852 70.4389 117.998 71.6061L118.993 79.6157C119.031 79.922 118.814 80.2015 118.507 80.2396C118.483 80.2418 118.46 80.244 118.438 80.244Z" fill="#EDEDED"/>
<path d="M93.5329 84.1571C89.3671 84.1571 85.9795 80.5101 85.9795 76.0268C85.9795 71.5435 89.3671 67.8965 93.5329 67.8965C97.6987 67.8965 101.086 71.5435 101.086 76.0268C101.086 80.5101 97.6987 84.1571 93.5329 84.1571ZM93.5329 69.2381C90.1073 69.2381 87.3211 72.2836 87.3211 76.0268C87.3211 79.77 90.1073 82.8155 93.5329 82.8155C96.9586 82.8155 99.7447 79.77 99.7447 76.0268C99.7447 72.2836 96.9586 69.2381 93.5329 69.2381Z" fill="#382B1E"/>
<path d="M114.825 91.241C110.659 91.241 107.271 87.594 107.271 83.1106C107.271 78.6273 110.659 74.9803 114.825 74.9803C118.99 74.9803 122.378 78.6273 122.378 83.1106C122.378 87.594 118.99 91.241 114.825 91.241ZM114.825 76.322C111.399 76.322 108.613 79.3675 108.613 83.1106C108.613 86.8538 111.399 89.8993 114.825 89.8993C118.25 89.8993 121.036 86.8538 121.036 83.1106C121.036 79.3675 118.25 76.322 114.825 76.322Z" fill="#382B1E"/>
<path d="M114.346 83.7814C114.254 83.7814 114.163 83.7635 114.076 83.7232L104.885 79.667C104.724 79.5955 104.599 79.4658 104.532 79.3025L100.216 68.4889C100.12 68.2474 100.172 67.9702 100.351 67.7801C100.529 67.59 100.802 67.5207 101.05 67.6035L111.576 71.0962C111.79 71.1677 111.956 71.3444 112.014 71.5635L114.995 82.9406C115.059 83.1888 114.977 83.4549 114.78 83.6204C114.659 83.7255 114.503 83.7814 114.346 83.7814ZM105.679 78.5512L113.347 81.9344L110.811 72.2545L102.001 69.3297L105.679 78.5512Z" fill="#1CA698"/>
<path d="M93.5329 76.8675C93.3697 76.8675 93.2087 76.8094 93.079 76.6908C92.8062 76.4404 92.7883 76.0156 93.0388 75.7428L100.228 67.9165L101.178 63.9565C101.265 63.5964 101.627 63.3751 101.987 63.46C102.347 63.5473 102.569 63.9073 102.484 64.2695L101.493 68.3995C101.466 68.5113 101.413 68.6119 101.335 68.6969L94.0271 76.6506C93.8952 76.7937 93.714 76.8675 93.5329 76.8675Z" fill="#1CA698"/>
<path d="M105.156 79.7252C105.002 79.7252 104.847 79.6738 104.722 79.5664C104.44 79.3272 104.405 78.9046 104.644 78.6206L110.795 71.3668L112.184 68.4487C112.343 68.1133 112.743 67.9724 113.078 68.1312C113.414 68.29 113.555 68.6902 113.396 69.0256L111.969 72.0242C111.945 72.0779 111.913 72.1248 111.875 72.1695L105.666 79.4904C105.536 79.6447 105.346 79.7252 105.156 79.7252Z" fill="#1CA698"/>
<path d="M99.4742 66.32C99.2729 66.32 99.0717 66.2283 98.9397 66.0561C98.7139 65.761 98.772 65.3406 99.0649 65.1148L103.826 61.4789C104.121 61.2531 104.541 61.3112 104.767 61.6041C104.993 61.8993 104.935 62.3197 104.642 62.5455L99.8811 66.1814C99.7581 66.2753 99.615 66.32 99.4742 66.32Z" fill="#1CA698"/>
<path d="M105.156 81.1697C106.466 81.1697 107.528 80.0184 107.528 78.5982C107.528 77.178 106.466 76.0267 105.156 76.0267C103.846 76.0267 102.783 77.178 102.783 78.5982C102.783 80.0184 103.846 81.1697 105.156 81.1697Z" fill="#382B1E"/>
<path d="M109.78 68.2431L113.237 70.2354C114.049 70.7027 115.082 70.2891 115.348 69.3924L115.431 69.1129C115.511 68.8401 115.346 68.5539 115.068 68.489L110.14 67.3307C109.894 67.2726 109.644 67.409 109.559 67.6483C109.48 67.8719 109.572 68.1223 109.78 68.2431Z" fill="#382B1E"/>
<path d="M99.0181 66.7202C98.8213 66.7202 98.6268 66.633 98.4926 66.4676C98.2623 66.1791 98.3092 65.7565 98.5977 65.5239L99.5324 64.7793C99.8208 64.549 100.243 64.596 100.476 64.8844C100.709 65.1729 100.659 65.5955 100.371 65.828L99.4362 66.5727C99.3132 66.671 99.1657 66.7202 99.0181 66.7202Z" fill="#382B1E"/>
<path d="M103.09 63.5584C102.889 63.5584 102.69 63.4667 102.555 63.2946C102.33 62.9994 102.388 62.579 102.681 62.3532L103.823 61.4789C104.118 61.2553 104.539 61.3112 104.765 61.6041C104.991 61.8993 104.932 62.3196 104.639 62.5455L103.497 63.4198C103.374 63.5137 103.231 63.5584 103.09 63.5584Z" fill="#382B1E"/>
<path d="M103.309 87.0506C103.032 87.0506 102.79 86.8426 102.754 86.5609L101.759 78.5513C101.668 77.8179 101.153 77.2029 100.449 76.986L93.2713 74.7634C92.4864 74.5219 91.6434 74.8104 91.1739 75.4812L86.1695 82.6209C85.9929 82.8736 85.6441 82.9362 85.3914 82.7573C85.1387 82.5807 85.0761 82.2319 85.255 81.9792L90.2593 74.8394C91.0106 73.7684 92.3545 73.31 93.6022 73.6946L100.78 75.9172C101.905 76.266 102.725 77.2454 102.868 78.4127L103.864 86.4222C103.902 86.7286 103.685 87.0081 103.378 87.0461C103.356 87.0483 103.334 87.0506 103.309 87.0506Z" fill="#EDEDED"/>
</g>
<path d="M27.095 40.8668C27.095 49.4131 22.2495 52.7851 16.2747 52.7851C16.1092 52.7851 15.946 52.7806 15.7828 52.7739C10.0338 52.5257 5.45215 47.9306 5.45215 40.8668C5.45215 32.1887 8.85991 20.8876 12.2923 15.0694C13.692 12.6969 15.0963 11.2368 16.2747 11.2368C20.1565 11.2368 27.095 28.6512 27.095 40.8668Z" fill="url(#paint7_linear_608_653)"/>
<path d="M22.5916 63.5003V65.3272C22.5916 65.6022 21.8559 65.8526 20.673 66.0293C20.6015 66.0427 20.5254 66.0517 20.4494 66.0606C19.8882 66.1389 19.2397 66.2015 18.5286 66.2417C18.4548 66.2462 18.3811 66.2507 18.305 66.2529C17.7013 66.2864 17.0573 66.3043 16.3865 66.3066H16.1629C15.4921 66.3043 14.8458 66.2864 14.2421 66.2529C14.1661 66.2507 14.0923 66.2462 14.0185 66.2417C13.3097 66.2015 12.659 66.1389 12.1 66.0606C12.0239 66.0517 11.9479 66.0427 11.8763 66.0293C10.6912 65.8526 9.95557 65.6022 9.95557 65.3272V63.5003C9.95557 63.7753 10.6912 64.0258 11.8763 64.2024C11.9479 64.2158 12.0239 64.2248 12.1 64.2337C12.659 64.312 13.3097 64.3746 14.0185 64.4149C14.0923 64.4193 14.1661 64.4238 14.2421 64.426C14.8458 64.4596 15.4921 64.4775 16.1629 64.4797H16.3865C17.0573 64.4775 17.7013 64.4596 18.305 64.426C18.3811 64.4238 18.4548 64.4193 18.5286 64.4149C19.2397 64.3746 19.8882 64.312 20.4494 64.2337C20.5254 64.2248 20.6015 64.2158 20.673 64.2024C21.8559 64.0258 22.5916 63.7753 22.5916 63.5003Z" fill="#7C7C7C"/>
<path d="M11.8763 64.2024V66.0293C10.6912 65.8526 9.95557 65.6022 9.95557 65.3272V63.5003C9.95557 63.7753 10.6912 64.0258 11.8763 64.2024Z" fill="#A0A0A0"/>
<path d="M14.0184 64.4149V66.2417C13.3096 66.2015 12.6589 66.1389 12.0999 66.0606V64.2338C12.6589 64.312 13.3096 64.3746 14.0184 64.4149Z" fill="#A0A0A0"/>
<path d="M16.163 64.4797V66.3066C15.4922 66.3044 14.8459 66.2865 14.2422 66.253V64.4261C14.8459 64.4596 15.4922 64.4775 16.163 64.4797Z" fill="#A0A0A0"/>
<path d="M18.305 64.4261V66.253C17.7013 66.2865 17.0573 66.3044 16.3865 66.3066V64.4797C17.0573 64.4775 17.7013 64.4596 18.305 64.4261Z" fill="#A0A0A0"/>
<path d="M20.4493 64.2338V66.0606C19.8881 66.1389 19.2396 66.2015 18.5286 66.2417V64.4149C19.2396 64.3746 19.8881 64.312 20.4493 64.2338Z" fill="#A0A0A0"/>
<path d="M22.5916 63.5003V65.3272C22.5916 65.6022 21.856 65.8526 20.6731 66.0293V64.2024C21.856 64.0258 22.5916 63.7753 22.5916 63.5003Z" fill="#A0A0A0"/>
<path d="M16.2725 64.4797C19.7624 64.4797 22.5916 64.0582 22.5916 63.5383C22.5916 63.0184 19.7624 62.597 16.2725 62.597C12.7825 62.597 9.95337 63.0184 9.95337 63.5383C9.95337 64.0582 12.7825 64.4797 16.2725 64.4797Z" fill="#A0A0A0"/>
<path d="M16.2724 64.0996C19.2313 64.0996 21.63 63.8353 21.63 63.5092C21.63 63.1832 19.2313 62.9189 16.2724 62.9189C13.3135 62.9189 10.9148 63.1832 10.9148 63.5092C10.9148 63.8353 13.3135 64.0996 16.2724 64.0996Z" fill="#7C7C7C"/>
<path d="M16.2747 23.041C16.4558 24.8165 16.5743 26.5919 16.6862 28.3651C16.798 30.1405 16.874 31.916 16.9545 33.6892C17.0081 35.4646 17.0864 37.24 17.1132 39.0132L17.1691 41.6764L17.196 44.3395L17.2228 47.0027L17.225 49.6658L17.2228 52.329L17.1982 54.9921C17.1535 58.543 17.0819 62.0916 16.903 65.6425C16.8852 65.9891 16.59 66.2552 16.2456 66.2373C15.9214 66.2217 15.6665 65.96 15.6509 65.6425C15.472 62.0916 15.4004 58.543 15.3557 54.9921L15.3311 52.329L15.3289 49.6658L15.3311 47.0027L15.3579 44.3395L15.3848 41.6764L15.4407 39.0132C15.4675 37.2378 15.5435 35.4624 15.5994 33.6892C15.6799 31.9137 15.7559 30.1383 15.8677 28.3651C15.9751 26.5919 16.0936 24.8165 16.2747 23.041Z" fill="#136262"/>
<path d="M93.4346 36.8554C93.4346 43.6239 89.5975 46.2938 84.866 46.2938C84.734 46.2938 84.6066 46.2893 84.4769 46.2848C79.9243 46.0881 76.2974 42.45 76.2974 36.8554C76.2974 29.9839 78.9963 21.0352 81.7131 16.4267C82.8222 14.5484 83.9335 13.3923 84.866 13.3923C87.9383 13.3923 93.4346 27.1821 93.4346 36.8554Z" fill="url(#paint8_linear_608_653)"/>
<path d="M89.8659 54.7774V56.2241C89.8659 56.441 89.2823 56.64 88.3476 56.7809C88.2917 56.7921 88.2313 56.7988 88.171 56.8055C87.726 56.8681 87.2139 56.9173 86.6504 56.9486C86.5923 56.9531 86.5342 56.9553 86.4738 56.9576C85.9953 56.9844 85.4854 56.9978 84.9555 57.0001H84.7789C84.2467 56.9978 83.7368 56.9844 83.2583 56.9576C83.1979 56.9553 83.1398 56.9531 83.0817 56.9486C82.5204 56.9173 82.0061 56.8681 81.5634 56.8055C81.503 56.7988 81.4426 56.7921 81.3867 56.7809C80.4476 56.64 79.8662 56.4433 79.8662 56.2241V54.7774C79.8662 54.9943 80.4498 55.1933 81.3867 55.3342C81.4426 55.3454 81.503 55.3521 81.5634 55.3588C82.0061 55.4214 82.5204 55.4706 83.0817 55.5019C83.1398 55.5064 83.1979 55.5086 83.2583 55.5108C83.7368 55.5377 84.2489 55.5511 84.7789 55.5533H84.9555C85.4877 55.5511 85.9975 55.5377 86.4738 55.5108C86.5342 55.5086 86.5923 55.5064 86.6504 55.5019C87.2139 55.4706 87.726 55.4214 88.171 55.3588C88.2313 55.3521 88.2917 55.3454 88.3476 55.3342C89.2845 55.1933 89.8659 54.9965 89.8659 54.7774Z" fill="#7C7C7C"/>
<path d="M81.3823 55.3342V56.7809C80.4432 56.64 79.8618 56.4433 79.8618 56.2241V54.7774C79.8596 54.9965 80.4432 55.1933 81.3823 55.3342Z" fill="#A0A0A0"/>
<path d="M83.0771 55.5018V56.9485C82.5159 56.9172 82.0016 56.868 81.5588 56.8054V55.3587C82.0016 55.4213 82.5159 55.4705 83.0771 55.5018Z" fill="#A0A0A0"/>
<path d="M84.7766 55.5534V57.0001C84.2444 56.9978 83.7346 56.9844 83.2561 56.9576V55.5109C83.7324 55.5377 84.2444 55.5511 84.7766 55.5534Z" fill="#A0A0A0"/>
<path d="M86.4714 55.5109V56.9576C85.9929 56.9844 85.4831 56.9978 84.9531 57.0001V55.5534C85.4831 55.5511 85.9951 55.5377 86.4714 55.5109Z" fill="#A0A0A0"/>
<path d="M88.1709 55.3587V56.8054C87.7259 56.868 87.2139 56.9172 86.6504 56.9485V55.5018C87.2116 55.4705 87.7259 55.4213 88.1709 55.3587Z" fill="#A0A0A0"/>
<path d="M89.866 54.7774V56.2241C89.866 56.441 89.2823 56.64 88.3477 56.7809V55.3342C89.2846 55.1933 89.866 54.9965 89.866 54.7774Z" fill="#A0A0A0"/>
<path d="M84.8639 55.5555C87.6265 55.5555 89.866 55.2211 89.866 54.8087C89.866 54.3962 87.6265 54.0618 84.8639 54.0618C82.1013 54.0618 79.8618 54.3962 79.8618 54.8087C79.8618 55.2211 82.1013 55.5555 84.8639 55.5555Z" fill="#A0A0A0"/>
<path d="M84.8637 55.2514C87.2076 55.2514 89.1077 55.0422 89.1077 54.7841C89.1077 54.526 87.2076 54.3168 84.8637 54.3168C82.5198 54.3168 80.6196 54.526 80.6196 54.7841C80.6196 55.0422 82.5198 55.2514 84.8637 55.2514Z" fill="#7C7C7C"/>
<path d="M84.8638 22.7391C85.045 24.1456 85.1635 25.5498 85.2753 26.9563C85.3871 28.3628 85.4631 29.7671 85.5436 31.1735C85.5973 32.58 85.6755 33.9843 85.7024 35.3908L85.7583 37.4994L85.7851 39.608L85.8119 41.7166L85.8142 43.8252L85.8119 45.9338L85.7873 48.0424C85.7426 50.8531 85.6711 53.6639 85.4922 56.4768C85.4698 56.8234 85.1724 57.0851 84.8258 57.0627C84.5061 57.0426 84.2579 56.7877 84.24 56.4768C84.0611 53.6661 83.9895 50.8554 83.9448 48.0424L83.9202 45.9338L83.918 43.8252L83.9202 41.7166L83.947 39.608L83.9739 37.4994L84.0298 35.3908C84.0566 33.9843 84.1326 32.58 84.1885 31.1735C84.269 29.7671 84.3451 28.3628 84.4569 26.9563C84.5642 25.5498 84.6849 24.1456 84.8638 22.7391Z" fill="#136262"/>
<defs>
<linearGradient id="paint0_linear_608_653" x1="62.1188" y1="6.45425" x2="62.1188" y2="57.1511" gradientUnits="userSpaceOnUse">
<stop stop-color="#EDEDED"/>
<stop offset="0.5181" stop-color="#EAEAEA"/>
<stop offset="0.9647" stop-color="#DFDFDF"/>
<stop offset="0.9955" stop-color="#DEDEDE"/>
</linearGradient>
<linearGradient id="paint1_linear_608_653" x1="62.1188" y1="6.45425" x2="62.1188" y2="57.1511" gradientUnits="userSpaceOnUse">
<stop stop-color="#EDEDED"/>
<stop offset="0.5181" stop-color="#EAEAEA"/>
<stop offset="0.9647" stop-color="#DFDFDF"/>
<stop offset="0.9955" stop-color="#DEDEDE"/>
</linearGradient>
<linearGradient id="paint2_linear_608_653" x1="71.6577" y1="58.782" x2="70.9726" y2="107.195" gradientUnits="userSpaceOnUse">
<stop stop-color="#EFBA7F"/>
<stop offset="1" stop-color="#DEA464"/>
</linearGradient>
<linearGradient id="paint3_linear_608_653" x1="50.5714" y1="58.0074" x2="50.5714" y2="90.2068" gradientUnits="userSpaceOnUse">
<stop stop-color="#787877"/>
<stop offset="1" stop-color="#545453"/>
</linearGradient>
<linearGradient id="paint4_linear_608_653" x1="62.3869" y1="107.007" x2="63.072" y2="89.3659" gradientUnits="userSpaceOnUse">
<stop stop-color="#DEDEDE"/>
<stop offset="0.7885" stop-color="white"/>
</linearGradient>
<linearGradient id="paint5_linear_608_653" x1="61.8308" y1="94.3705" x2="62.8585" y2="111.041" gradientUnits="userSpaceOnUse">
<stop stop-color="#382B1E"/>
<stop offset="1" stop-color="#17130E"/>
</linearGradient>
<linearGradient id="paint6_linear_608_653" x1="67.6899" y1="31.1316" x2="74.9373" y2="31.1316" gradientUnits="userSpaceOnUse">
<stop stop-color="#6B6B6B"/>
<stop offset="1" stop-color="#A0A0A0"/>
</linearGradient>
<linearGradient id="paint7_linear_608_653" x1="14.6774" y1="19.4479" x2="17.1894" y2="52.5607" gradientUnits="userSpaceOnUse">
<stop stop-color="#34C2AF"/>
<stop offset="1" stop-color="#1CA698"/>
</linearGradient>
<linearGradient id="paint8_linear_608_653" x1="89.8188" y1="21.465" x2="81.141" y2="44.3013" gradientUnits="userSpaceOnUse">
<stop stop-color="#34C2AF"/>
<stop offset="1" stop-color="#1CA698"/>
</linearGradient>
</defs>
</svg>
