<svg width="124" height="132" viewBox="0 0 124 132" fill="none" xmlns="http://www.w3.org/2000/svg">
<path d="M61.7256 130.809C54.3133 130.809 46.9009 130.347 39.5407 129.42L31.6412 128.428C25.1987 127.616 19.674 123.637 16.8686 117.782L2.65355 88.1277C-0.333138 81.896 0.788569 74.6083 5.51334 69.564L47.7122 24.5144C51.3288 20.653 56.4366 18.4391 61.7256 18.4391C67.0146 18.4391 72.1223 20.653 75.739 24.5144L117.938 69.564C122.663 74.6083 123.787 81.8937 120.798 88.1277L106.583 117.782C103.775 123.637 98.2524 127.619 91.81 128.428L83.9105 129.42C76.548 130.347 69.1379 130.809 61.7256 130.809Z" stroke="#D9F2A5" stroke-width="2" stroke-miterlimit="10"/>
<mask id="mask0_607_526" style="mask-type:alpha" maskUnits="userSpaceOnUse" x="4" y="21" width="116" height="107">
<path d="M50.2213 26.8055L8.0225 71.8528C4.25855 75.8706 3.34759 81.785 5.72696 86.75L19.9421 116.404C22.2534 121.226 26.8558 124.544 32.163 125.21L40.0625 126.202C54.5224 128.02 69.1521 128.02 83.612 126.202L91.5115 125.21C96.8164 124.544 101.421 121.226 103.732 116.404L117.948 86.75C120.327 81.7873 119.416 75.8706 115.652 71.8528L73.4531 26.8032C67.1625 20.0911 56.5097 20.0911 50.2213 26.8055Z" fill="url(#paint0_linear_607_526)"/>
</mask>
<g mask="url(#mask0_607_526)">
<path d="M50.2213 26.8055L8.0225 71.8528C4.25855 75.8706 3.34759 81.785 5.72696 86.75L19.9421 116.404C22.2534 121.226 26.8558 124.544 32.163 125.21L40.0625 126.202C54.5224 128.02 69.1521 128.02 83.612 126.202L91.5115 125.21C96.8164 124.544 101.421 121.226 103.732 116.404L117.948 86.75C120.327 81.7873 119.416 75.8706 115.652 71.8528L73.4531 26.8032C67.1625 20.0911 56.5097 20.0911 50.2213 26.8055Z" fill="url(#paint1_linear_607_526)"/>
<path d="M110.166 69.5936L1.8249 100.367L1.02271 97.412L110.073 69.2492L110.166 69.5936Z" fill="#CCE39A"/>
<path d="M119.359 72.0999L44.7962 124.8L43.0649 122.273L119.157 71.8053L119.359 72.0999Z" fill="#CCE39A"/>
<path d="M119.822 70.6019L41.1005 121.831L-10.1038 104.831L115.91 69.1018L119.822 70.6019Z" fill="url(#paint2_linear_607_526)"/>
<path d="M43.3506 95.7531H35.365V116.723H43.3506V95.7531Z" fill="#382B1E"/>
<path d="M88.3052 95.7532H80.3218V116.723H88.3052V95.7532Z" fill="#382B1E"/>
<path d="M98.4388 110.721H25.231V116.723H98.4388V110.721Z" fill="#EFBA7F"/>
<path d="M98.4388 110.721H25.231L26.0377 110.113L26.228 109.971H97.1947L97.4304 110.113L98.4388 110.721Z" fill="#FFD1A4"/>
<path d="M98.4388 104.113H25.231V110.113H98.4388V104.113Z" fill="url(#paint3_linear_607_526)"/>
<path d="M98.4388 104.113H25.231L26.0739 103.478L26.228 103.363H97.1947L97.3873 103.478L98.4388 104.113Z" fill="#FFD1A4"/>
<path d="M98.4388 97.4753H25.231V103.478H98.4388V97.4753Z" fill="url(#paint4_linear_607_526)"/>
<path opacity="0.15" d="M98.4388 103.478H97.3873L98.4388 104.113V110.113H97.4304L98.4388 110.721V116.723H25.231V110.721L26.0377 110.113H25.231V108.022L35.3648 106.56L98.4388 98.0169V103.478Z" fill="#382B1E"/>
<path d="M105.242 106.827H61.8372H18.4305L3.85059 123.49L61.8372 125.065H119.821L105.242 106.827Z" fill="url(#paint5_linear_607_526)"/>
<path d="M95.1621 116.454H28.51V122.456H95.1621V116.454Z" fill="url(#paint6_linear_607_526)"/>
<path d="M95.1621 116.454H28.51L29.4164 115.704H94.029L95.1621 116.454Z" fill="#FFD1A4"/>
<path d="M95.1621 123.705H28.51V129.708H95.1621V123.705Z" fill="url(#paint7_linear_607_526)"/>
<path d="M95.1621 123.705H28.51L29.4164 122.955H94.029L95.1621 123.705Z" fill="#FFD1A4"/>
<path d="M46.8516 115.345H38.866V136.316H46.8516V115.345Z" fill="#382B1E"/>
<path d="M46.8516 115.346H38.866L39.3192 114.972H46.3984L46.8516 115.346Z" fill="#564130"/>
<path d="M84.806 115.345H76.8203V136.316H84.806V115.345Z" fill="#382B1E"/>
<path d="M84.806 115.346H76.8203L77.2735 114.972H84.3527L84.806 115.346Z" fill="#564130"/>
<path opacity="0.11" d="M101.897 85.3405L119.38 91.7036L120.912 87.185L108.747 85.1342L101.897 85.3405Z" fill="#5E5E5E"/>
<path d="M109.116 72.17L108.747 85.1342C108.747 85.5036 107.145 85.8005 105.171 85.8005C104.523 85.8005 103.913 85.7687 103.39 85.7121C102.941 85.6645 102.554 85.5988 102.257 85.5217C101.838 85.413 101.593 85.277 101.593 85.1342L101.224 71.9525L109.116 72.17Z" fill="#7C7C7C"/>
<path d="M105.171 71.6556C107.537 71.6556 109.454 71.2985 109.454 70.858C109.454 70.4174 107.537 70.0603 105.171 70.0603C102.806 70.0603 100.888 70.4174 100.888 70.858C100.888 71.2985 102.806 71.6556 105.171 71.6556Z" fill="#7C7C7C"/>
<path d="M105.171 72.7093C107.537 72.7093 109.454 72.3522 109.454 71.9116C109.454 71.4711 107.537 71.114 105.171 71.114C102.806 71.114 100.888 71.4711 100.888 71.9116C100.888 72.3522 102.806 72.7093 105.171 72.7093Z" fill="#4C4C4C"/>
<path d="M104.072 85.7664C103.012 85.6622 102.488 85.6531 102.259 85.5194L101.672 72.0023L103.66 72.3694L104.072 85.7664Z" fill="#939393"/>
<path d="M109.452 70.858V72.17C109.452 72.6119 107.535 72.9677 105.171 72.9677C104.324 72.9677 103.535 72.9224 102.871 72.8431C102.225 72.766 101.7 72.6595 101.353 72.5326C101.056 72.4238 100.888 72.3015 100.888 72.17V70.858C100.888 70.9871 101.056 71.1095 101.353 71.2183C101.7 71.3474 102.225 71.4539 102.871 71.531C103.535 71.6103 104.324 71.6556 105.171 71.6556C107.535 71.6556 109.452 71.2999 109.452 70.858Z" fill="#5E5E5E"/>
<path d="M102.871 71.531V72.843C102.225 72.766 101.7 72.6595 101.353 72.5326V71.2182C101.7 71.3474 102.225 71.4539 102.871 71.531Z" fill="#7C7C7C"/>
<path d="M107.585 74.8758C107.342 75.2656 107.05 75.6055 106.746 75.9363C106.438 76.2626 106.116 76.5753 105.742 76.8427C105.983 76.453 106.275 76.1108 106.581 75.7822C106.891 75.4559 107.213 75.1432 107.585 74.8758Z" fill="#5E5E5E"/>
<path d="M108.396 75.2678C108.02 75.8003 107.592 76.2875 107.152 76.7634C106.708 77.2347 106.25 77.6925 105.742 78.1049C106.119 77.5701 106.547 77.0852 106.987 76.6093C107.433 76.1379 107.888 75.6802 108.396 75.2678Z" fill="#5E5E5E"/>
<path d="M108.396 76.5277C108.02 77.0602 107.592 77.5474 107.152 78.0233C106.708 78.4946 106.25 78.9524 105.742 79.3648C106.119 78.83 106.547 78.3451 106.987 77.8692C107.433 77.3979 107.888 76.9401 108.396 76.5277Z" fill="#5E5E5E"/>
<path d="M108.396 77.7899C108.02 78.3224 107.592 78.8096 107.152 79.2855C106.708 79.7568 106.25 80.2146 105.742 80.627C106.119 80.0922 106.547 79.6073 106.987 79.1314C107.433 78.66 107.888 78.2 108.396 77.7899Z" fill="#5E5E5E"/>
<path d="M108.396 79.0498C108.02 79.5824 107.592 80.0696 107.152 80.5454C106.708 81.0168 106.25 81.4745 105.742 81.887C106.119 81.3522 106.547 80.8672 106.987 80.3914C107.433 79.92 107.888 79.4623 108.396 79.0498Z" fill="#5E5E5E"/>
<path d="M108.396 80.3098C108.02 80.8423 107.592 81.3295 107.152 81.8054C106.708 82.2767 106.25 82.7345 105.742 83.1469C106.119 82.6121 106.547 82.1272 106.987 81.6513C107.433 81.18 107.888 80.7222 108.396 80.3098Z" fill="#5E5E5E"/>
<path d="M106.533 75.3403C106.93 75.6644 107.276 76.0338 107.61 76.4122C107.938 76.7952 108.251 77.1917 108.514 77.6313C108.115 77.3073 107.77 76.9402 107.437 76.5595C107.111 76.1765 106.796 75.78 106.533 75.3403Z" fill="#5E5E5E"/>
<path d="M105.863 76.0563C106.37 76.4688 106.828 76.9265 107.272 77.3978C107.712 77.8737 108.14 78.3587 108.516 78.8935C108.009 78.481 107.551 78.0233 107.107 77.5519C106.665 77.0761 106.239 76.5889 105.863 76.0563Z" fill="#5E5E5E"/>
<path d="M105.863 77.3163C106.37 77.7287 106.828 78.1865 107.272 78.6578C107.712 79.1337 108.14 79.6186 108.516 80.1534C108.009 79.741 107.551 79.2832 107.107 78.8119C106.665 78.336 106.239 77.8488 105.863 77.3163Z" fill="#5E5E5E"/>
<path d="M105.863 78.5763C106.37 78.9887 106.828 79.4464 107.272 79.9178C107.712 80.3937 108.14 80.8786 108.516 81.4134C108.009 81.001 107.551 80.5432 107.107 80.0719C106.665 79.596 106.239 79.1111 105.863 78.5763Z" fill="#5E5E5E"/>
<path d="M105.863 79.8362C106.286 80.1579 106.658 80.5273 107.021 80.908C107.376 81.2932 107.721 81.6898 108.013 82.134C107.589 81.8122 107.218 81.4428 106.855 81.0621C106.497 80.6769 106.155 80.2803 105.863 79.8362Z" fill="#5E5E5E"/>
<path d="M105.863 81.0984C106.216 81.3454 106.517 81.6377 106.807 81.9414C107.093 82.2496 107.365 82.5714 107.587 82.9385C107.234 82.6937 106.932 82.3991 106.642 82.0955C106.357 81.7873 106.082 81.4655 105.863 81.0984Z" fill="#5E5E5E"/>
<path d="M51.683 57.9391C51.683 66.6794 46.7293 70.1261 40.6177 70.1261C36.8289 70.1261 33.4864 68.2996 31.4922 65.1407C30.2686 63.2032 29.5525 60.7627 29.5525 57.9391C29.5525 55.5824 29.7995 53.0331 30.2255 50.452C32.061 39.3618 37.2413 27.6462 40.6177 27.6462C44.5879 27.6462 51.683 45.4508 51.683 57.9391Z" fill="url(#paint8_linear_607_526)"/>
<path d="M40.6178 38.7295C40.8014 40.7962 40.9215 42.8628 41.0348 44.9295C41.1481 46.9962 41.2251 49.0628 41.3067 51.1295C41.3611 53.1961 41.4404 55.2628 41.4676 57.3295L41.5242 60.4295L41.5514 63.5294L41.5786 66.6294L41.5809 69.7294L41.5786 72.8294L41.5537 75.9294C41.5084 80.0627 41.4359 84.1983 41.2546 88.3316C41.2387 88.6829 40.9418 88.9548 40.5906 88.9389C40.2598 88.9253 39.9992 88.6557 39.9833 88.3316C39.802 84.1983 39.7295 80.0627 39.6842 75.9294L39.6593 72.8294L39.657 69.7294L39.6593 66.6294L39.6864 63.5294L39.7136 60.4295L39.7703 57.3295C39.7975 55.2628 39.8745 53.1961 39.9312 51.1295C40.0128 49.0628 40.0898 46.9962 40.2031 44.9295C40.3141 42.8628 40.4365 40.7962 40.6178 38.7295Z" fill="#136262"/>
<path d="M52.1746 49.0674C52.5666 48.8385 53.0062 48.8226 53.43 48.7886C53.643 48.7728 53.856 48.7592 54.0713 48.7592C54.2843 48.7524 54.4973 48.7501 54.7103 48.7592C55.5623 48.7818 56.4121 48.8725 57.246 49.0538C58.08 49.2373 58.898 49.5002 59.673 49.8741C60.4412 50.2525 61.1709 50.7443 61.7578 51.3833L61.4496 51.6824C60.8695 51.1272 60.1806 50.6921 59.4419 50.3681C58.7054 50.0373 57.9213 49.8061 57.1237 49.6543C56.326 49.5002 55.5125 49.4118 54.699 49.4005C54.495 49.3937 54.2933 49.3982 54.0894 49.405C53.8855 49.4073 53.6838 49.4231 53.4821 49.439C53.0742 49.4594 52.689 49.5682 52.2629 49.4911L52.1746 49.0674Z" fill="#4C4C4C"/>
<path d="M53.2963 85.2499C53.2963 85.2499 53.2283 85.413 52.6052 85.4561C52.51 85.4629 52.4012 85.4674 52.2766 85.4674C52.0477 85.4674 51.8619 85.4448 51.7123 85.4153C51.3996 85.3496 51.2568 85.2499 51.2568 85.2499L51.7123 47.9752C51.7123 47.9752 51.7939 47.914 51.9457 47.8687C52.0318 47.8415 52.1429 47.8211 52.2766 47.8211H52.2879C52.6709 47.8234 52.8386 47.9752 52.8386 47.9752L53.2963 85.2499Z" fill="#5E5E5E"/>
<path d="M51.7146 47.9752C51.6421 48.1882 52.8273 48.1339 52.8409 47.9752C52.8545 47.8166 51.803 47.7146 51.7146 47.9752Z" fill="#A3A3A3"/>
<path opacity="0.4" d="M52.6052 85.4561C52.5101 85.4629 52.4013 85.4674 52.2767 85.4674C52.0478 85.4674 51.862 85.4448 51.7124 85.4153L51.905 48.0953L51.9458 47.8687C52.0319 47.8415 52.143 47.8211 52.2767 47.8211H52.288L52.6052 85.4561Z" fill="#A3A3A3"/>
<path d="M61.1847 51.3562C61.1756 51.4355 61.1711 51.5216 61.1688 51.6032C61.1575 51.8955 61.3048 52.1697 61.5495 52.3261C61.9937 52.6116 62.882 53.0036 64.5113 53.1237C66.6912 53.2869 66.0296 52.0066 66.0296 52.0066C66.0296 52.0066 66.2244 51.2157 64.3776 50.9755C62.8842 50.7806 61.8328 50.9778 61.4181 51.082C61.2867 51.1137 61.196 51.2248 61.1847 51.3562Z" fill="#5E5E5E"/>
<path d="M61.4951 51.5896C61.8736 51.7006 62.2543 51.7867 62.635 51.8683C63.0157 51.9499 63.3941 52.0134 63.7748 52.0632C64.1532 52.1063 64.5317 52.1403 64.901 52.1153C65.2749 52.0949 65.6126 52.0768 66.0295 52.0043C65.9706 52.0904 65.8958 52.1697 65.8143 52.24C65.7259 52.2966 65.6352 52.3578 65.5378 52.4031C65.4404 52.4394 65.3384 52.4756 65.2364 52.5006C65.1344 52.5187 65.0302 52.5323 64.926 52.5436C64.5135 52.5595 64.1056 52.5232 63.7136 52.4439C63.3193 52.3691 62.9341 52.2581 62.5624 52.1153C62.1885 51.9771 61.8237 51.8117 61.4951 51.5896Z" fill="#4C4C4C"/>
<path d="M51.6308 48.7638C51.6308 48.7638 52.2834 48.9224 52.9179 48.7638C52.9746 49.1581 52.9179 49.6226 52.9179 49.6226C52.2698 49.7314 51.6172 49.5818 51.6172 49.5818L51.6308 48.7638Z" fill="#4C4C4C"/>
<path d="M123.936 61.4669C123.936 70.1278 119.025 73.5473 112.968 73.5473C106.911 73.5473 102 68.8316 102 61.4669C102 49.0873 108.841 31.4391 112.968 31.4391C116.904 31.4391 123.936 49.0873 123.936 61.4669Z" fill="#1CA698"/>
<path d="M112.968 43.4017C113.151 45.2123 113.271 47.0229 113.385 48.8335C113.498 50.6441 113.575 52.4547 113.657 54.2653C113.711 56.0759 113.79 57.8865 113.818 59.6971L113.874 62.4141L113.901 65.1311L113.929 67.8481L113.931 70.5652L113.929 73.2822L113.904 75.9992C113.858 79.6204 113.786 83.2416 113.605 86.865C113.586 87.2163 113.287 87.486 112.938 87.4678C112.61 87.452 112.351 87.1868 112.336 86.865C112.154 83.2439 112.082 79.6227 112.036 75.9992L112.012 73.2822L112.009 70.5652L112.012 67.8481L112.039 65.1311L112.066 62.4141L112.123 59.6971C112.15 57.8865 112.227 56.0759 112.283 54.2653C112.365 52.4547 112.442 50.6441 112.555 48.8335C112.664 47.0229 112.787 45.2123 112.968 43.4017Z" fill="#136262"/>
</g>
<path d="M87.1265 44.1658C87.1265 51.7209 84.9352 56.5635 81.5474 59.251C81.2438 59.4935 80.9333 59.7156 80.6115 59.9218C79.7731 60.4611 78.8757 60.8849 77.9308 61.2021C77.4662 61.3585 76.9926 61.4877 76.5054 61.5919C75.4494 61.823 74.3436 61.9318 73.2083 61.9318C65.5217 61.9318 59.29 54.9976 59.29 44.1658C59.29 25.9579 67.9714 -1.52588e-05 73.2083 -1.52588e-05C76.5417 -1.52588e-05 81.6222 11.557 84.6338 24.6571C84.6519 24.7297 84.6678 24.8022 84.6837 24.8747C86.1589 31.3421 87.1265 38.1743 87.1265 44.1658Z" fill="url(#paint9_linear_607_526)"/>
<path d="M73.2083 23.676C73.3919 25.9738 73.512 28.2716 73.6253 30.5694C73.7386 32.8672 73.8156 35.165 73.8972 37.4628C73.9516 39.7606 74.0309 42.0584 74.0581 44.3562L74.1147 47.8029L74.1419 51.2496L74.1691 54.6963L74.1714 58.143L74.1691 61.5897L74.1442 65.0364C74.0989 69.632 74.0264 74.2298 73.8451 78.8254C73.8315 79.1767 73.5346 79.4486 73.1856 79.435C72.8525 79.4214 72.5897 79.1517 72.5761 78.8254C72.3948 74.2298 72.3223 69.632 72.2769 65.0364L72.252 61.5897L72.2498 58.143L72.252 54.6963L72.2792 51.2496L72.3064 47.8029L72.3631 44.3562C72.3903 42.0584 72.4673 39.7606 72.5239 37.4628C72.6055 35.165 72.6826 32.8672 72.7959 30.5694C72.9046 28.2716 73.027 25.9738 73.2083 23.676Z" fill="#136262"/>
<path d="M62.5601 44.9363C66.8816 44.9363 70.3849 41.433 70.3849 37.1115C70.3849 32.79 66.8816 29.2868 62.5601 29.2868C58.2386 29.2868 54.7354 32.79 54.7354 37.1115C54.7354 41.433 58.2386 44.9363 62.5601 44.9363Z" fill="#22BCAA"/>
<path d="M62.5601 37.1115L62.7391 40.0914C62.798 41.0839 62.8524 42.0787 62.9 43.0713L63.0495 46.0512L63.1198 47.5423C63.1288 47.7938 63.1492 48.0227 63.1606 48.2629C63.19 48.494 63.2059 48.7319 63.2512 48.9495C63.326 49.3914 63.4574 49.8038 63.6523 50.0576C63.7452 50.1913 63.8608 50.2751 63.9945 50.3545C64.0693 50.3884 64.1327 50.4292 64.2234 50.4542L64.3503 50.4972L64.493 50.5312C64.8805 50.6196 65.3473 50.6468 65.8232 50.6626C66.3014 50.6785 66.7931 50.6785 67.2826 50.683C69.2472 50.6898 71.2323 50.6694 73.2083 50.7306H73.2151C73.7159 50.7465 74.108 51.1634 74.0944 51.6642C74.0785 52.1447 73.6888 52.5276 73.2151 52.5435C71.2142 52.6047 69.2246 52.5525 67.2191 52.4143C66.716 52.3803 66.2152 52.335 65.7031 52.2761C65.1887 52.2126 64.6607 52.1469 64.0897 51.9679L63.8767 51.8976C63.8041 51.8682 63.7294 51.8342 63.6568 51.8025C63.5118 51.7458 63.3668 51.6506 63.224 51.5623C63.1515 51.5215 63.0881 51.458 63.0201 51.4036C62.9566 51.3447 62.8841 51.2949 62.8297 51.2269C62.7164 51.0955 62.5963 50.964 62.5193 50.819C62.168 50.2366 62.0774 49.652 62.0253 49.1149C61.9935 48.8407 61.9981 48.5801 61.989 48.3172C61.9958 48.0612 61.9958 47.7938 62.0094 47.5491L62.0797 46.058L62.2292 43.0781C62.2768 42.0855 62.3289 41.0907 62.3901 40.0982L62.5601 37.1115Z" fill="#136262"/>
<path opacity="0.2" d="M84.6837 24.8747C81.3503 30.9501 78.1687 41.8408 78.1687 50.2842C78.1687 54.0663 79.4649 57.1504 81.5474 59.2511C81.2438 59.4936 80.9333 59.7156 80.6115 59.9219C79.7731 60.4612 78.1551 61.1047 77.2101 61.422C72.8434 53.953 75.0007 35.5412 84.6338 24.6572C84.7856 24.4827 84.942 24.3105 85.1006 24.1405C84.9624 24.3762 84.8219 24.6209 84.6837 24.8747Z" fill="#136262"/>
<path d="M98.4389 50.2842C98.4389 58.9451 93.5284 62.3624 87.4734 62.3624C87.3057 62.3624 87.1403 62.3578 86.9749 62.351C81.1488 62.0995 76.5056 57.4427 76.5056 50.2842C76.5056 41.4896 79.9591 30.0368 83.4375 24.1405C84.8561 21.7362 86.2792 20.2564 87.4734 20.2564C91.4073 20.2564 98.4389 37.9046 98.4389 50.2842Z" fill="url(#paint10_linear_607_526)"/>
<path d="M87.4732 32.2191C87.6568 34.0183 87.7769 35.8176 87.8902 37.6146C88.0035 39.4138 88.0805 41.2131 88.1621 43.0101C88.2165 44.8094 88.2958 46.6086 88.323 48.4056L88.3796 51.1045L88.4068 53.8034L88.434 56.5023L88.4363 59.2012L88.434 61.9001L88.4091 64.599C88.3638 68.1975 88.2913 71.7938 88.11 75.3923C88.0918 75.7436 87.7927 76.0132 87.4437 75.9951C87.1152 75.9792 86.8568 75.7141 86.841 75.3923C86.6597 71.7938 86.5872 68.1975 86.5418 64.599L86.5169 61.9001L86.5146 59.2012L86.5169 56.5023L86.5441 53.8034L86.5713 51.1045L86.628 48.4056C86.6551 46.6064 86.7322 44.8071 86.7888 43.0101C86.8704 41.2108 86.9475 39.4116 87.0608 37.6146C87.1695 35.8153 87.2896 34.0183 87.4732 32.2191Z" fill="#136262"/>
<path d="M32.2356 62.0564C32.2356 64.5106 31.9252 66.6316 31.3541 68.4468C31.2635 68.7459 31.1615 69.0359 31.055 69.3192C30.8397 69.888 30.5973 70.4228 30.3276 70.9259C27.912 75.4557 23.441 77.3774 18.3265 77.3774C10.6422 77.3774 4.41504 71.3972 4.41504 62.0564C4.41504 46.3571 13.0918 23.9705 18.3265 23.9705C21.0299 23.9705 24.8845 30.5376 27.8508 39.0535C28.236 40.1594 28.6054 41.2969 28.9566 42.4594C29.4121 43.9686 29.8359 45.5164 30.2166 47.0799C31.4493 52.1537 32.2356 57.3997 32.2356 62.0564Z" fill="url(#paint11_linear_607_526)"/>
<path d="M18.3265 39.144C18.51 41.4418 18.6301 43.7374 18.7434 46.0352C18.8567 48.333 18.9338 50.6285 19.0154 52.9263C19.0697 55.2241 19.1491 57.5196 19.1762 59.8174L19.2329 63.2619L19.2601 66.7063L19.2873 70.1507L19.2896 73.5952L19.2873 77.0396L19.2624 80.484C19.217 85.0774 19.1445 89.6707 18.9632 94.264C18.9496 94.6153 18.6528 94.8872 18.3038 94.8736C17.9707 94.86 17.7078 94.5904 17.6942 94.264C17.5129 89.6707 17.4404 85.0774 17.3951 80.484L17.3702 77.0396L17.3679 73.5952L17.3702 70.1507L17.3974 66.7063L17.4246 63.2619L17.4812 59.8174C17.5084 57.5196 17.5855 55.2241 17.6421 52.9263C17.7237 50.6285 17.8007 48.333 17.914 46.0352C18.0228 43.7374 18.1429 41.4418 18.3265 39.144Z" fill="#136262"/>
<path opacity="0.2" d="M32.1154 64.5831C31.9772 66.0017 31.7188 67.2866 31.354 68.4468C31.2634 68.7459 31.1614 69.036 31.0549 69.3192C30.8396 69.888 30.5971 70.4228 30.3275 70.9259C26.5658 64.1662 27.4564 54.1184 30.2164 47.08C30.443 48.0136 30.6561 48.954 30.8487 49.8945C30.4226 52.4755 30.1756 55.0248 30.1756 57.3816C30.1756 60.2051 30.8917 62.6457 32.1154 64.5831Z" fill="#136262"/>
<defs>
<linearGradient id="paint0_linear_607_526" x1="61.8366" y1="24.722" x2="61.8366" y2="128.47" gradientUnits="userSpaceOnUse">
<stop stop-color="#D9F2A5"/>
<stop offset="1" stop-color="#89B06B"/>
</linearGradient>
<linearGradient id="paint1_linear_607_526" x1="61.8366" y1="24.722" x2="61.8366" y2="128.47" gradientUnits="userSpaceOnUse">
<stop stop-color="#D9F2A5"/>
<stop offset="1" stop-color="#89B06B"/>
</linearGradient>
<linearGradient id="paint2_linear_607_526" x1="55.155" y1="67.213" x2="54.4607" y2="115.292" gradientUnits="userSpaceOnUse">
<stop offset="0.1896" stop-color="#EDEDED"/>
<stop offset="1" stop-color="#BFBFBF"/>
</linearGradient>
<linearGradient id="paint3_linear_607_526" x1="61.8359" y1="102.598" x2="61.8359" y2="110.004" gradientUnits="userSpaceOnUse">
<stop stop-color="#EFBA7F"/>
<stop offset="1" stop-color="#B88E60"/>
</linearGradient>
<linearGradient id="paint4_linear_607_526" x1="61.7749" y1="96.1467" x2="61.8907" y2="104.362" gradientUnits="userSpaceOnUse">
<stop stop-color="#EFBA7F"/>
<stop offset="1" stop-color="#B88E60"/>
</linearGradient>
<linearGradient id="paint5_linear_607_526" x1="59.6759" y1="132.448" x2="70.7845" y2="90.4433" gradientUnits="userSpaceOnUse">
<stop stop-color="#82694C"/>
<stop offset="1" stop-color="#B29677"/>
</linearGradient>
<linearGradient id="paint6_linear_607_526" x1="61.8022" y1="115.438" x2="61.8794" y2="124.464" gradientUnits="userSpaceOnUse">
<stop stop-color="#EFBA7F"/>
<stop offset="1" stop-color="#B88E60"/>
</linearGradient>
<linearGradient id="paint7_linear_607_526" x1="61.7926" y1="121.698" x2="61.8698" y2="130.492" gradientUnits="userSpaceOnUse">
<stop stop-color="#EFBA7F"/>
<stop offset="1" stop-color="#B88E60"/>
</linearGradient>
<linearGradient id="paint8_linear_607_526" x1="41.7679" y1="30.2108" x2="40.3793" y2="63.5366" gradientUnits="userSpaceOnUse">
<stop offset="0.1705" stop-color="#34C2AF"/>
<stop offset="1" stop-color="#1CA698"/>
</linearGradient>
<linearGradient id="paint9_linear_607_526" x1="73.2093" y1="4.00901" x2="73.2093" y2="49.6005" gradientUnits="userSpaceOnUse">
<stop stop-color="#34C2AF"/>
<stop offset="1" stop-color="#1CA698"/>
</linearGradient>
<linearGradient id="paint10_linear_607_526" x1="97.3901" y1="33.7241" x2="80.9587" y2="49.4612" gradientUnits="userSpaceOnUse">
<stop offset="0.1705" stop-color="#34C2AF"/>
<stop offset="1" stop-color="#1CA698"/>
</linearGradient>
<linearGradient id="paint11_linear_607_526" x1="4.43455" y1="38.1157" x2="28.0403" y2="63.9779" gradientUnits="userSpaceOnUse">
<stop offset="0.1705" stop-color="#34C2AF"/>
<stop offset="1" stop-color="#1CA698"/>
</linearGradient>
</defs>
</svg>
