<svg width="38" height="47" viewBox="0 0 38 47" fill="none" xmlns="http://www.w3.org/2000/svg">
<path d="M18.5515 32.1117C27.2848 32.1117 34.3645 25.032 34.3645 16.2988C34.3645 7.56553 27.2848 0.48584 18.5515 0.48584C9.81828 0.48584 2.73859 7.56553 2.73859 16.2988C2.73859 25.032 9.81828 32.1117 18.5515 32.1117Z" fill="#D9F2A5"/>
<path d="M17.1184 32.0874L10.8515 45.6899L6.91652 40.6376L0.503906 40.9534L6.77078 27.3508" fill="#D9F2A5"/>
<path d="M19.936 32.0874L26.2029 45.6899L30.1379 40.6376L36.5505 40.9534L30.2837 27.3508" fill="#D9F2A5"/>
<path d="M18.5515 10.0076L20.5919 14.1612L25.1585 14.817L21.855 18.0476L22.6323 22.5899L18.5515 20.4281L14.4708 22.5899L15.2481 18.0476L11.9446 14.817L16.5111 14.1612L18.5515 10.0076Z" fill="white"/>
<path d="M18.5515 32.5975C9.56411 32.5975 2.25275 25.2861 2.25275 16.2987C2.25275 7.31136 9.56411 0 18.5515 0C27.5389 0 34.8502 7.31136 34.8502 16.2987C34.8502 25.2861 27.5389 32.5975 18.5515 32.5975ZM18.5515 0.971609C10.0985 0.971609 3.22436 7.84574 3.22436 16.2987C3.22436 24.7517 10.0985 31.6259 18.5515 31.6259C27.0045 31.6259 33.8786 24.7517 33.8786 16.2987C33.8786 7.84574 27.0045 0.971609 18.5515 0.971609Z" fill="#136262"/>
<path d="M18.5272 28.4924C16.7783 28.4924 15.0051 28.128 13.3291 27.3264C7.25655 24.4602 4.63321 17.1731 7.52375 11.0763C8.90829 8.13717 11.3616 5.90247 14.4465 4.80941C17.5313 3.71635 20.8348 3.86209 23.7739 5.27093C25.6928 6.16966 27.3446 7.5785 28.5591 9.3031C28.7048 9.52171 28.6562 9.83749 28.4376 9.98323C28.219 10.129 27.9032 10.0804 27.7575 9.86178C26.6402 8.25862 25.1342 6.99553 23.361 6.14537C20.6405 4.85799 17.6042 4.71225 14.7865 5.73244C11.9689 6.75263 9.70987 8.79301 8.42248 11.5135C5.77485 17.1003 8.17958 23.8044 13.7663 26.452C19.3531 29.0996 26.0572 26.6949 28.7048 21.1081C29.4092 19.6507 29.7736 18.0719 29.7736 16.4687C29.7736 16.2015 29.9922 15.9829 30.2594 15.9829C30.5266 15.9829 30.7452 16.2015 30.7452 16.4687C30.7209 18.2176 30.3323 19.9179 29.5793 21.4968C27.4903 25.9176 23.1181 28.4924 18.5272 28.4924Z" fill="#136262"/>
<path d="M10.8515 46.1757C10.7058 46.1757 10.56 46.1028 10.4629 45.9814L6.6736 41.1234L0.528175 41.4391C0.358143 41.4391 0.188112 41.3663 0.0909507 41.2205C-0.0062102 41.0748 -0.0305004 40.9047 0.0423702 40.7347L6.33354 27.1322C6.45499 26.8893 6.72218 26.7921 6.98937 26.8893C7.23228 27.0107 7.32944 27.2779 7.23228 27.5451L1.28117 40.4432L6.89221 40.1517C7.06224 40.1517 7.20798 40.2246 7.30515 40.3461L10.7544 44.7669L16.6812 31.8688C16.8026 31.6259 17.0698 31.5287 17.337 31.6259C17.5799 31.7473 17.6771 32.0145 17.5799 32.2817L11.2887 45.9085C11.2159 46.0543 11.0701 46.1757 10.9001 46.2C10.9001 46.1757 10.8758 46.1757 10.8515 46.1757Z" fill="#136262"/>
<path d="M26.2029 46.1758C26.1786 46.1758 26.1543 46.1758 26.1543 46.1758C25.9843 46.1515 25.8386 46.0543 25.7657 45.8843L19.4988 32.2575C19.3774 32.0146 19.4988 31.7231 19.7417 31.6016C19.9846 31.4802 20.2761 31.6016 20.3976 31.8445L26.3244 44.7426L29.7736 40.3218C29.8707 40.2004 30.0165 40.1275 30.1865 40.1275L35.7976 40.419L29.8707 27.5209C29.7493 27.278 29.8707 26.9865 30.1136 26.865C30.3565 26.7436 30.648 26.865 30.7695 27.1079L37.0364 40.7347C37.1092 40.8805 37.0849 41.0748 36.9878 41.2205C36.8906 41.3663 36.7206 41.4392 36.5506 41.4392L30.4051 41.1234L26.6159 45.9814C26.4944 46.1029 26.3487 46.1758 26.2029 46.1758Z" fill="#136262"/>
<path d="M22.6323 23.0755C22.5594 23.0755 22.4866 23.0513 22.4137 23.027L18.5515 20.9866L14.6894 23.027C14.5194 23.1241 14.325 23.0998 14.1793 22.9784C14.0336 22.8812 13.9607 22.6869 13.985 22.4926L14.7137 18.1932L11.6045 15.1569C11.4831 15.0355 11.4345 14.8412 11.4831 14.6468C11.5317 14.4768 11.7017 14.3311 11.8717 14.3068L16.1954 13.6752L18.1143 9.76451C18.1872 9.59448 18.3572 9.49731 18.5515 9.49731C18.7459 9.49731 18.9159 9.59448 18.9888 9.76451L20.9077 13.6995L25.2314 14.3311C25.4257 14.3554 25.5714 14.4768 25.62 14.6711C25.6686 14.8412 25.62 15.0355 25.4986 15.1812L22.3894 18.2175L23.1181 22.5169C23.1424 22.7112 23.0695 22.8812 22.9238 23.0027C22.8509 23.0513 22.7295 23.0755 22.6323 23.0755ZM18.5515 19.9421C18.6244 19.9421 18.6973 19.9664 18.7702 19.9907L21.9765 21.691L21.3692 18.1203C21.3449 17.9746 21.3935 17.8046 21.515 17.6831L24.114 15.1569L20.5191 14.6468C20.349 14.6226 20.2276 14.5254 20.1547 14.3796L18.5515 11.1248L16.9484 14.3796C16.8755 14.5254 16.7298 14.6226 16.584 14.6468L12.9891 15.1569L15.5881 17.6831C15.7096 17.8046 15.7582 17.9503 15.7339 18.1203L15.1266 21.691L18.3329 19.9907C18.4058 19.9664 18.4787 19.9421 18.5515 19.9421Z" fill="#136262"/>
</svg>
