<svg width="46" height="38" viewBox="0 0 46 38" fill="none" xmlns="http://www.w3.org/2000/svg">
<path d="M7.11572 24.8583C7.11572 24.8583 9.63395 23.9607 10.8806 23.462C12.1273 22.9634 14.82 22.34 18.5101 23.8609C22.2002 25.3819 23.0728 25.7808 23.0728 25.7808C23.0728 25.7808 24.1449 26.2794 25.242 26.3044C26.339 26.3293 30.5527 26.3542 31.5002 26.6534C32.4476 26.9526 33.5447 27.925 33.5447 27.925C33.5447 27.925 36.6613 27.5012 38.7557 26.1049C40.875 24.7336 42.8197 23.4122 43.842 24.3845C44.8642 25.3569 44.8892 26.0551 42.2213 27.9001C39.5535 29.7451 37.6337 32.4878 35.7138 33.0612C33.794 33.6347 25.8155 36.6516 25.8155 36.6516L23.2972 36.4022L10.6063 33.3105L9.40956 33.5848L7.11572 24.8583Z" fill="#D9F2A5"/>
<path d="M6.37509 22.7141L0.493896 24.1694L3.48837 36.2706L9.36957 34.8154L6.37509 22.7141Z" fill="#D9F2A5"/>
<path d="M5.64469 33.5848C6.26434 33.5848 6.76667 33.0825 6.76667 32.4628C6.76667 31.8431 6.26434 31.3408 5.64469 31.3408C5.02503 31.3408 4.52271 31.8431 4.52271 32.4628C4.52271 33.0825 5.02503 33.5848 5.64469 33.5848Z" fill="white"/>
<path d="M22.6988 11.5937C25.7696 11.5937 28.2589 9.10442 28.2589 6.03369C28.2589 2.96295 25.7696 0.473633 22.6988 0.473633C19.6281 0.473633 17.1388 2.96295 17.1388 6.03369C17.1388 9.10442 19.6281 11.5937 22.6988 11.5937Z" fill="#D9F2A5"/>
<path d="M22.4744 31.7148C22.2999 31.7148 22.1253 31.615 22.0256 31.4405C21.901 31.1912 22.0007 30.892 22.2251 30.7673C22.2749 30.7424 23.2723 30.2188 24.2197 29.9944C24.6186 29.8947 25.3666 29.9196 26.6133 29.9944C28.1342 30.0692 30.054 30.144 31.5002 29.9196C32.5972 29.7451 33.0709 29.0469 33.046 28.4735C33.0211 27.9 32.5224 27.2518 31.1511 27.1022C29.306 26.9027 26.7878 26.8279 25.4414 26.803C24.5438 26.778 23.6712 26.6035 22.8733 26.2295C21.2776 25.5065 17.3382 23.7861 15.3934 23.3872C12.8503 22.8885 11.454 23.7113 10.6312 24.185L10.4567 24.2848C10.0827 24.4842 9.70873 24.6338 9.3098 24.7335L7.51463 25.0826C7.24036 25.1325 6.99103 24.9579 6.94117 24.6837C6.8913 24.4094 7.06583 24.1601 7.3401 24.1102L9.13527 23.7612C9.43447 23.7113 9.70873 23.5866 9.95806 23.437L10.1077 23.3373C11.0052 22.8137 12.6508 21.8164 15.5929 22.4148C17.5875 22.8137 21.2776 24.4094 23.2972 25.307C23.9953 25.6062 24.7184 25.7807 25.4664 25.8057C26.8377 25.8306 29.3808 25.9054 31.2758 26.1049C33.2953 26.3293 34.0433 27.5011 34.0682 28.4236C34.0932 29.6204 33.1208 30.6427 31.6747 30.892C30.1039 31.1413 28.1342 31.0665 26.5634 30.9917C25.616 30.9419 24.7433 30.9169 24.4441 30.9668C23.6213 31.1663 22.6988 31.64 22.6988 31.64C22.6489 31.6898 22.5492 31.7148 22.4744 31.7148Z" fill="#136262"/>
<path d="M25.8403 37.2C24.2696 37.2 22.1752 36.7013 20.1556 36.2027C19.3827 36.0032 18.2358 35.7539 17.0639 35.4796C14.8948 34.9809 12.4264 34.4075 11.1798 34.0335C10.9803 33.9836 10.0827 34.1582 9.28485 34.4075C9.01058 34.4823 8.73632 34.3327 8.66152 34.0584C8.58672 33.7842 8.73632 33.5099 9.01059 33.4351C9.70871 33.2356 10.9554 32.9115 11.4789 33.0611C12.6757 33.4351 15.1441 33.9836 17.2883 34.4823C18.4851 34.7565 19.6071 35.0059 20.405 35.2053C22.3497 35.704 24.3942 36.1777 25.8403 36.1777C26.7379 36.1528 35.265 32.8866 36.0379 32.363C37.2846 31.5402 40.2017 29.022 42.1216 27.3764C42.7449 26.8528 43.2436 26.404 43.5677 26.1547C44.0663 25.7308 44.0913 25.2321 43.9417 24.908C43.817 24.6088 43.4929 24.3096 42.9693 24.3595C42.1714 24.4592 41.3736 25.0077 40.5508 25.5812C40.0272 25.9552 39.4787 26.3292 38.8803 26.6284C37.3843 27.4013 35.265 28.3488 33.6194 28.3986C33.3452 28.3986 33.1208 28.1992 33.0958 27.9249C33.0958 27.6506 33.2953 27.4262 33.5696 27.4013C34.7414 27.3514 36.4119 26.778 38.4066 25.7308C38.9551 25.4316 39.4787 25.0825 39.9773 24.7335C40.9248 24.0852 41.8224 23.4619 42.8446 23.3372C43.7173 23.2375 44.5151 23.6863 44.8642 24.4842C45.2133 25.3069 44.9639 26.2544 44.2159 26.9027C43.9167 27.152 43.3932 27.6008 42.7948 28.1244C40.85 29.7949 37.9079 32.338 36.6114 33.1858C35.7637 33.7592 27.0122 37.2 25.8403 37.2Z" fill="#136262"/>
<path d="M3.47546 36.7762C3.25107 36.7762 3.0516 36.6266 3.00174 36.4022L0.00978133 24.2848C-0.0151516 24.1601 0.00978133 24.0105 0.0596473 23.9108C0.109513 23.8111 0.234178 23.7113 0.358843 23.6864L6.24302 22.2403C6.51729 22.1655 6.79155 22.34 6.84142 22.6143L9.83337 34.7317C9.85831 34.8564 9.83337 35.006 9.78351 35.1057C9.70871 35.2304 9.60898 35.3052 9.48431 35.3301L3.60013 36.7762C3.55026 36.7762 3.52533 36.7762 3.47546 36.7762ZM1.0819 24.5341L3.84946 35.6791L8.76126 34.4574L5.9937 23.3124L1.0819 24.5341Z" fill="#136262"/>
<path d="M5.64463 34.0833C4.74704 34.0833 4.02399 33.3603 4.02399 32.4627C4.02399 31.5651 4.74704 30.842 5.64463 30.842C6.54222 30.842 7.26527 31.5651 7.26527 32.4627C7.26527 33.3603 6.54222 34.0833 5.64463 34.0833ZM5.64463 31.8394C5.29557 31.8394 5.02131 32.1136 5.02131 32.4627C5.02131 32.8117 5.29557 33.086 5.64463 33.086C5.99369 33.086 6.26795 32.8117 6.26795 32.4627C6.26795 32.1136 5.99369 31.8394 5.64463 31.8394Z" fill="#136262"/>
<path d="M22.5492 12.0925C19.2082 12.0925 16.5154 9.3748 16.5154 6.05871C16.5154 2.74263 19.2082 0 22.5492 0C25.8902 0 28.583 2.71769 28.583 6.03378C28.583 9.34986 25.8902 12.0925 22.5492 12.0925ZM22.5492 0.997319C19.7567 0.997319 17.5128 3.26622 17.5128 6.03378C17.5128 8.82627 19.7817 11.0702 22.5492 11.0702C25.3168 11.0702 27.5857 8.80134 27.5857 6.03378C27.5857 3.26622 25.3168 0.997319 22.5492 0.997319Z" fill="#136262"/>
<path d="M32.5473 25.6811C32.5224 25.6811 32.4725 25.6811 32.4476 25.6811C32.1733 25.6312 31.9988 25.3569 32.0487 25.0827C32.1733 24.4344 32.2481 23.7862 32.2481 23.1379C32.2481 17.7773 27.8848 13.439 22.5492 13.439C18.0613 13.439 14.1717 16.4808 13.1245 20.8441C13.0497 21.1183 12.8004 21.2679 12.5261 21.2181C12.2519 21.1433 12.1023 20.8939 12.1521 20.6197C13.324 15.8076 17.6125 12.4417 22.5492 12.4417C28.4583 12.4417 33.2454 17.2537 33.2454 23.1379C33.2454 23.861 33.1706 24.584 33.021 25.2821C32.9961 25.5315 32.7717 25.6811 32.5473 25.6811Z" fill="#136262"/>
<path d="M22.5492 9.67406C21.2527 9.67406 20.0559 8.97593 19.4076 7.85395C19.258 7.60462 19.3578 7.30543 19.5821 7.18076C19.8315 7.03116 20.1307 7.13089 20.2553 7.35529C20.7291 8.17808 21.6017 8.67674 22.5242 8.67674C23.4468 8.67674 24.3443 8.17808 24.7931 7.35529C24.9427 7.10596 25.2419 7.03116 25.4663 7.18076C25.7157 7.33036 25.7905 7.62955 25.6409 7.85395C25.0425 8.97593 23.8457 9.67406 22.5492 9.67406Z" fill="#136262"/>
</svg>
